<svg width="100" height="91" viewBox="0 0 100 91" fill="none" xmlns="http://www.w3.org/2000/svg">
<g clip-path="url(#clip0_881_9640)">
<path fill-rule="evenodd" clip-rule="evenodd" d="M52.1718 0.403532C71.4584 0.576969 90.5083 9.22336 97.006 27.3404C104.09 47.0912 98.4821 69.7754 81.4769 82.1132C64.4494 94.4671 41.4161 92.3775 24.3839 80.03C7.35633 67.6858 -2.14153 46.3423 4.77916 26.511C11.339 7.71372 32.2216 0.224128 52.1718 0.403532Z" fill="#FFF2D1"/>
<g clip-path="url(#clip1_881_9640)">
<path d="M91.7172 16.4004H9.69406C7.1016 16.4004 5 18.5023 5 21.0952V61.5128C5 64.1057 7.1016 66.2076 9.69406 66.2076H91.7172C94.3097 66.2076 96.4113 64.1057 96.4113 61.5128V21.0952C96.4113 18.5023 94.3097 16.4004 91.7172 16.4004Z" fill="#F7CA17"/>
<path d="M57.887 16.4004H9.69808C8.45295 16.4032 7.25962 16.8992 6.37917 17.7798C5.49872 18.6603 5.00284 19.8539 5 21.0992L5 61.5088C5.00284 62.7541 5.49872 63.9476 6.37917 64.8282C7.25962 65.7088 8.45295 66.2048 9.69808 66.2076H57.887V16.4004Z" fill="#952F1F"/>
<path d="M96.3718 20.4951C96.2229 19.3641 95.6686 18.3257 94.812 17.5726C93.9553 16.8195 92.8545 16.403 91.714 16.4004H9.69883C8.5583 16.403 7.45748 16.8195 6.60082 17.5726C5.74417 18.3257 5.18992 19.3641 5.04102 20.4951H96.3718Z" fill="#EC9B3D"/>
<path d="M15.4023 64.9316V73.7922L28.1382 64.9316H15.4023Z" fill="#952F1F"/>
<path d="M13.2559 37.2754H49.6325" stroke="white" stroke-width="2.77705" stroke-miterlimit="10" stroke-linecap="round"/>
<path d="M13.2559 43.3184H49.6325" stroke="white" stroke-width="2.77705" stroke-miterlimit="10" stroke-linecap="round"/>
<path d="M13.2559 49.3594H49.6325" stroke="white" stroke-width="2.77705" stroke-miterlimit="10" stroke-linecap="round"/>
<path d="M13.2559 55.4004H49.6325" stroke="white" stroke-width="2.77705" stroke-miterlimit="10" stroke-linecap="round"/>
<path d="M46.8808 32.5772C48.9195 32.5772 50.5722 30.9243 50.5722 28.8853C50.5722 26.8463 48.9195 25.1934 46.8808 25.1934C44.8421 25.1934 43.1895 26.8463 43.1895 28.8853C43.1895 30.9243 44.8421 32.5772 46.8808 32.5772Z" fill="white"/>
</g>
<g clip-path="url(#clip2_881_9640)">
<path d="M79.7402 53.4836C76.9661 54.4633 74.2661 54.3342 71.6402 53.0961C69.0143 51.8581 67.2115 49.852 66.2318 47.078L66.155 46.8606L64.8695 49.5499L62.5164 48.425L65.7302 41.7019L72.4533 44.9157L71.3285 47.2688L68.6393 45.9833L68.716 46.2006C69.4471 48.2708 70.7983 49.7728 72.7696 50.7065C74.7409 51.6402 76.7719 51.7378 78.8628 50.9994C79.4011 50.8093 79.9071 50.5608 80.3807 50.2538C80.8544 49.9468 81.2958 49.5814 81.7049 49.1575L84.2261 50.3626C83.6003 51.0959 82.9135 51.7226 82.1659 52.2428C81.4182 52.763 80.6097 53.1766 79.7402 53.4836ZM86.6073 45.4354L79.8841 42.2216L81.0089 39.8685L83.6982 41.154L83.6214 40.9366C82.8903 38.8664 81.5391 37.3645 79.5679 36.4308C77.5966 35.4971 75.5655 35.3994 73.4746 36.1379C72.9364 36.3279 72.4304 36.5765 71.9567 36.8835C71.483 37.1905 71.0416 37.5559 70.6325 37.9798L68.1113 36.7746C68.7372 36.0414 69.4239 35.4146 70.1716 34.8945C70.9192 34.3743 71.7278 33.9607 72.5973 33.6536C75.3713 32.6739 78.0713 32.8031 80.6973 34.0411C83.3232 35.2792 85.126 37.2852 86.1057 40.0593L86.1824 40.2767L87.468 37.5874L89.8211 38.7122L86.6073 45.4354Z" fill="#721620"/>
</g>
</g>
<defs>
<clipPath id="clip0_881_9640">
<rect width="100" height="90" fill="white" transform="translate(0 0.400391)"/>
</clipPath>
<clipPath id="clip1_881_9640">
<rect width="91.4113" height="57.3924" fill="white" transform="translate(5 16.4004)"/>
</clipPath>
<clipPath id="clip2_881_9640">
<rect width="31.6153" height="31.6153" fill="white" transform="translate(56 33.9277) rotate(-19.4512)"/>
</clipPath>
</defs>
</svg>
