<svg width="101" height="90" viewBox="0 0 101 90" fill="none" xmlns="http://www.w3.org/2000/svg">
<g clip-path="url(#clip0_881_9281)">
<path fill-rule="evenodd" clip-rule="evenodd" d="M52.5058 0.00314187C71.7924 0.176578 90.8423 8.82297 97.3399 26.94C104.424 46.6908 98.8161 69.375 81.8109 81.7128C64.7834 94.0667 41.7501 91.9771 24.7179 79.6296C7.69032 67.2854 -1.80754 45.9419 5.11315 26.1106C11.673 7.31333 32.5555 -0.176263 52.5058 0.00314187Z" fill="#FFF2D1"/>
<g clip-path="url(#clip1_881_9281)">
<path d="M54.3909 0.889913C54.3909 -1.06966 52.7998 -2.6582 50.8371 -2.6582C48.8743 -2.6582 47.2832 -1.06966 47.2832 0.889913V13.1374C47.2832 15.0969 48.8743 16.6855 50.8371 16.6855C52.7998 16.6855 54.3909 15.0969 54.3909 13.1374V0.889913Z" fill="black"/>
<path d="M50.8372 37.2744C54.7751 37.2744 57.9674 34.0873 57.9674 30.1558C57.9674 26.2242 54.7751 23.0371 50.8372 23.0371C46.8993 23.0371 43.707 26.2242 43.707 30.1558C43.707 34.0873 46.8993 37.2744 50.8372 37.2744Z" fill="#EC9B3D"/>
<path d="M50.8368 8.69336C48.0133 8.69262 45.2173 9.24722 42.6084 10.3255C39.9996 11.4037 37.6291 12.9845 35.6324 14.9776C33.6356 16.9706 32.0516 19.3369 30.9709 21.9412C29.8902 24.5455 29.334 27.3368 29.334 30.1558H72.334C72.334 27.3373 71.7779 24.5464 70.6976 21.9425C69.6173 19.3385 68.0338 16.9725 66.0376 14.9796C64.0414 12.9866 61.6716 11.4057 59.0634 10.3271C56.4553 9.2485 53.6598 8.69336 50.8368 8.69336Z" fill="#952F1F"/>
<path d="M50.8359 1.4285V-76.4395" stroke="black" stroke-width="1.17808" stroke-linecap="round" stroke-linejoin="round"/>
</g>
<g clip-path="url(#clip2_881_9281)">
<path d="M100.497 88.209H1.17078C0.708628 88.209 0.333984 88.5811 0.333984 89.0402V89.5538C0.333984 90.0128 0.708628 90.385 1.17078 90.385H100.497C100.959 90.385 101.334 90.0128 101.334 89.5538V89.0402C101.334 88.5811 100.959 88.209 100.497 88.209Z" fill="#EC9B3D"/>
<path d="M43.1256 45H37.0912C36.1294 45 35.3496 45.7745 35.3496 46.73V86.4784C35.3496 87.4339 36.1294 88.2084 37.0912 88.2084H43.1256C44.0875 88.2084 44.8673 87.4339 44.8673 86.4784V46.73C44.8673 45.7745 44.0875 45 43.1256 45Z" fill="#952F1F"/>
<path d="M48.1803 55.1289H46.3163C45.516 55.1289 44.8672 55.7733 44.8672 56.5683V86.7682C44.8672 87.5632 45.516 88.2076 46.3163 88.2076H48.1803C48.9806 88.2076 49.6294 87.5632 49.6294 86.7682V56.5683C49.6294 55.7733 48.9806 55.1289 48.1803 55.1289Z" fill="#EC9B3D"/>
<path d="M52.9897 55.1289H51.0304C50.2564 55.1289 49.6289 55.7522 49.6289 56.521V86.8155C49.6289 87.5843 50.2564 88.2076 51.0304 88.2076H52.9897C53.7637 88.2076 54.3911 87.5843 54.3911 86.8155V56.521C54.3911 55.7522 53.7637 55.1289 52.9897 55.1289Z" fill="#952F1F"/>
<path d="M56.4482 57.5158L54.8407 58.2488C54.0894 58.5914 53.7601 59.474 54.1049 60.2202L66.7505 87.5799C67.0954 88.3261 67.9839 88.6533 68.7352 88.3107L70.3427 87.5777C71.0939 87.2351 71.4233 86.3525 71.0784 85.6063L58.4329 58.2466C58.088 57.5004 57.1994 57.1732 56.4482 57.5158Z" fill="#EC9B3D"/>
<path d="M40.1054 77.2747C41.5745 77.2747 42.7654 76.0917 42.7654 74.6325C42.7654 73.1732 41.5745 71.9902 40.1054 71.9902C38.6363 71.9902 37.4453 73.1732 37.4453 74.6325C37.4453 76.0917 38.6363 77.2747 40.1054 77.2747Z" fill="#EC9B3D"/>
<path d="M42.5206 78.8496H37.704C37.3508 78.8496 37.0645 79.134 37.0645 79.4848C37.0645 79.8356 37.3508 80.12 37.704 80.12H42.5206C42.8738 80.12 43.1601 79.8356 43.1601 79.4848C43.1601 79.134 42.8738 78.8496 42.5206 78.8496Z" fill="#EC9B3D"/>
<path d="M42.5206 82.1074H37.704C37.3508 82.1074 37.0645 82.3918 37.0645 82.7426C37.0645 83.0935 37.3508 83.3779 37.704 83.3779H42.5206C42.8738 83.3779 43.1601 83.0935 43.1601 82.7426C43.1601 82.3918 42.8738 82.1074 42.5206 82.1074Z" fill="#EC9B3D"/>
<path d="M47.7452 60.1242C47.7452 59.8517 47.5229 59.6309 47.2486 59.6309C46.9743 59.6309 46.752 59.8517 46.752 60.1242V83.2083C46.752 83.4807 46.9743 83.7016 47.2486 83.7016C47.5229 83.7016 47.7452 83.4807 47.7452 83.2083V60.1242Z" fill="#952F1F"/>
<path d="M26.8532 89.2969H22.5944C21.6588 89.2969 20.9004 90.0502 20.9004 90.9795C20.9004 91.9088 21.6588 92.6622 22.5944 92.6622H26.8532C27.7887 92.6622 28.5472 91.9088 28.5472 90.9795C28.5472 90.0502 27.7887 89.2969 26.8532 89.2969Z" fill="#EC9B3D"/>
<path d="M79.0739 89.2969H74.8151C73.8795 89.2969 73.1211 90.0502 73.1211 90.9795C73.1211 91.9088 73.8795 92.6622 74.8151 92.6622H79.0739C80.0094 92.6622 80.7679 91.9088 80.7679 90.9795C80.7679 90.0502 80.0094 89.2969 79.0739 89.2969Z" fill="#EC9B3D"/>
</g>
</g>
<defs>
<clipPath id="clip0_881_9281">
<rect width="100" height="90" fill="white" transform="translate(0.333984)"/>
</clipPath>
<clipPath id="clip1_881_9281">
<rect width="43" height="114.274" fill="white" transform="translate(29.334 -77)"/>
</clipPath>
<clipPath id="clip2_881_9281">
<rect width="101" height="47.6549" fill="white" transform="translate(0.333984 45)"/>
</clipPath>
</defs>
</svg>
