<svg width="101" height="91" viewBox="0 0 101 91" fill="none" xmlns="http://www.w3.org/2000/svg">
<g clip-path="url(#clip0_881_9603)">
<path fill-rule="evenodd" clip-rule="evenodd" d="M52.5058 0.403532C71.7924 0.576969 90.8423 9.22336 97.3399 27.3404C104.424 47.0912 98.8161 69.7754 81.8109 82.1132C64.7834 94.4671 41.7501 92.3775 24.7179 80.03C7.69032 67.6858 -1.80754 46.3423 5.11315 26.511C11.673 7.71372 32.5555 0.224128 52.5058 0.403532Z" fill="#FFF2D1"/>
<g clip-path="url(#clip1_881_9603)">
<path d="M97.7244 24.4004H5.33398V66.0341H97.7244V24.4004Z" fill="#952F1F"/>
<path d="M26.0748 58.4678C33.3832 58.4678 39.3078 52.5349 39.3078 45.2163C39.3078 37.8977 33.3832 31.9648 26.0748 31.9648C18.7664 31.9648 12.8418 37.8977 12.8418 45.2163C12.8418 52.5349 18.7664 58.4678 26.0748 58.4678Z" fill="white"/>
<path d="M24.2933 56.9569C24.1143 57.8753 19.0492 56.9569 19.2417 55.9719L20.4437 49.8223L25.4915 50.8072L24.2933 56.9569Z" fill="#F8CDBA"/>
<path d="M19.7266 53.4944C19.8334 52.947 21.9401 50.9261 22.8409 51.4311C21.7351 50.7796 20.9344 49.6125 20.4407 49.8216L19.7266 53.4944Z" fill="#1F161E"/>
<path d="M25.9173 53.2028C29.6092 53.2028 32.6021 50.2057 32.6021 46.5086C32.6021 42.8115 29.6092 39.8145 25.9173 39.8145C22.2253 39.8145 19.2324 42.8115 19.2324 46.5086C19.2324 50.2057 22.2253 53.2028 25.9173 53.2028Z" fill="#F8CDBA"/>
<path d="M33.1929 48.7485C33.226 48.4292 32.7562 48.1188 32.1434 48.055C31.5307 47.9913 31.0071 48.1984 30.974 48.5177C30.9409 48.8369 31.4108 49.1474 32.0235 49.2111C32.6362 49.2748 33.1598 49.0677 33.1929 48.7485Z" fill="#FA9E9F"/>
<path d="M26.2183 48.0219C26.2514 47.7027 25.7816 47.3922 25.1688 47.3285C24.5561 47.2648 24.0325 47.4719 23.9994 47.7911C23.9663 48.1103 24.4362 48.4208 25.0489 48.4845C25.6616 48.5483 26.1852 48.3411 26.2183 48.0219Z" fill="#FA9E9F"/>
<path d="M29.501 47.1523C29.6781 47.4704 30.6136 48.8254 29.4375 49.2119" stroke="#1F161E" stroke-width="0.114451" stroke-miterlimit="10" stroke-linecap="round"/>
<path d="M27.0501 50.4333C26.7181 50.389 26.2456 49.9312 26.0117 49.5293" stroke="#1F161E" stroke-width="0.114451" stroke-miterlimit="10" stroke-linecap="round"/>
<path d="M20.5145 47.1522C21.3272 47.1522 21.986 46.4925 21.986 45.6786C21.986 44.8648 21.3272 44.2051 20.5145 44.2051C19.7018 44.2051 19.043 44.8648 19.043 45.6786C19.043 46.4925 19.7018 47.1522 20.5145 47.1522Z" fill="#F8CDBA"/>
<path d="M21.5094 46.9786C21.5094 48.9398 19.342 50.2341 18.6135 50.2341C17.806 50.2341 17.6992 49.6491 17.6992 49.3947C17.6992 48.5726 18.1804 47.8681 19.1977 46.9786C19.0206 46.6731 17.6992 45.0588 17.6992 42.7815C17.6992 40.3721 19.1736 38.3569 20.163 38.3569C21.2158 38.3569 21.9155 39.4498 21.9155 39.9076C21.9155 36.5441 25.5168 34.1348 27.6552 34.1348C29.6493 34.1348 29.992 35.0021 29.992 35.7115C29.992 37.2592 28.7726 38.9159 28.3155 39.3226C29.4309 38.4996 31.1728 37.6698 32.6838 37.6698C33.6327 37.6698 34.8424 37.9377 34.8424 39.2465C34.8424 41.6452 32.5991 43.034 31.8494 43.4224C31.4731 42.6784 31.0795 42.2582 30.759 41.8871C30.8976 42.3401 30.3432 43.1641 29.2856 43.3501C28.7014 43.4522 21.5094 42.4827 21.5094 46.9786Z" fill="#1F161E"/>
<path d="M46.1406 37.2656H90.8922" stroke="white" stroke-width="2.3222" stroke-miterlimit="10" stroke-linecap="round"/>
<path d="M46.1406 42.5664H90.8922" stroke="white" stroke-width="2.3222" stroke-miterlimit="10" stroke-linecap="round"/>
<path d="M46.1406 47.8672H90.8922" stroke="white" stroke-width="2.3222" stroke-miterlimit="10" stroke-linecap="round"/>
<path d="M46.1406 53.168H90.8922" stroke="white" stroke-width="2.3222" stroke-miterlimit="10" stroke-linecap="round"/>
<path d="M86.2802 51.7692L82.298 44.8903L78.3184 51.7692V24.4004H86.2802V51.7692Z" fill="#F7CA17"/>
</g>
</g>
<defs>
<clipPath id="clip0_881_9603">
<rect width="100" height="90" fill="white" transform="translate(0.333984 0.400391)"/>
</clipPath>
<clipPath id="clip1_881_9603">
<rect width="92.3904" height="41.6337" fill="white" transform="translate(5.33398 24.4004)"/>
</clipPath>
</defs>
</svg>
