<svg width="101" height="90" viewBox="0 0 101 90" fill="none" xmlns="http://www.w3.org/2000/svg">
<g clip-path="url(#clip0_881_9409)">
<path fill-rule="evenodd" clip-rule="evenodd" d="M52.8378 0.00314187C72.1244 0.176578 91.1743 8.82297 97.672 26.94C104.756 46.6908 99.1481 69.375 82.1429 81.7128C65.1154 94.0667 42.0821 91.9771 25.0499 79.6296C8.02235 67.2854 -1.47551 45.9419 5.44518 26.1106C12.005 7.31333 32.8876 -0.176263 52.8378 0.00314187Z" fill="#FFF2D1"/>
<g clip-path="url(#clip1_881_9409)">
<path d="M93.6246 16.041H6.70703V73.1544H93.6246V16.041Z" fill="white" stroke="black" stroke-width="0.141925" stroke-miterlimit="10"/>
<path d="M6.70703 19.0781H93.6246" stroke="black" stroke-width="0.141925" stroke-miterlimit="10"/>
<path d="M65.7639 24.1641H13.2754V50.2591H65.7639V24.1641Z" fill="#952F1F"/>
<path d="M14.459 54.4336H54.3859" stroke="black" stroke-width="0.141925" stroke-miterlimit="10"/>
<path d="M14.459 58.3711H54.3859" stroke="black" stroke-width="0.141925" stroke-miterlimit="10"/>
<path d="M14.459 62.3125H54.3859" stroke="black" stroke-width="0.141925" stroke-miterlimit="10"/>
<path d="M14.459 66.25H54.3859" stroke="black" stroke-width="0.141925" stroke-miterlimit="10"/>
<path d="M8.59678 18.3384C9.00511 18.3384 9.33613 18.0077 9.33613 17.5998C9.33613 17.192 9.00511 16.8613 8.59678 16.8613C8.18844 16.8613 7.85742 17.192 7.85742 17.5998C7.85742 18.0077 8.18844 18.3384 8.59678 18.3384Z" fill="#AB8DE5"/>
<path d="M11.1437 18.3384C11.552 18.3384 11.883 18.0077 11.883 17.5998C11.883 17.192 11.552 16.8613 11.1437 16.8613C10.7353 16.8613 10.4043 17.192 10.4043 17.5998C10.4043 18.0077 10.7353 18.3384 11.1437 18.3384Z" fill="#73E5E2"/>
<path d="M13.6905 18.3384C14.0989 18.3384 14.4299 18.0077 14.4299 17.5998C14.4299 17.192 14.0989 16.8613 13.6905 16.8613C13.2822 16.8613 12.9512 17.192 12.9512 17.5998C12.9512 18.0077 13.2822 18.3384 13.6905 18.3384Z" fill="#50B89D"/>
<path d="M43.6406 37.1891L35.7129 32.6172V41.7609L43.6406 37.1891Z" fill="white"/>
<path d="M90.8228 24.1484H68.6504V36.4982H90.8228V24.1484Z" fill="#952F1F"/>
<path d="M90.8228 39.9551H68.6504V52.3048H90.8228V39.9551Z" fill="#952F1F"/>
<path d="M90.8228 55.7637H68.6504V68.1134H90.8228V55.7637Z" fill="white"/>
</g>
<g clip-path="url(#clip2_881_9409)">
<path d="M101.209 58.0566H67.8626C67.0529 58.0566 66.3965 58.7114 66.3965 59.519V78.6105C66.3965 79.4182 67.0529 80.0729 67.8626 80.0729H101.209C102.019 80.0729 102.675 79.4182 102.675 78.6105V59.519C102.675 58.7114 102.019 58.0566 101.209 58.0566Z" fill="#952F1F"/>
<path d="M84.5059 82.5034C91.9629 82.5034 98.0079 76.4738 98.0079 69.0359C98.0079 61.598 91.9629 55.5684 84.5059 55.5684C77.049 55.5684 71.0039 61.598 71.0039 69.0359C71.0039 76.4738 77.049 82.5034 84.5059 82.5034Z" fill="white" stroke="black" stroke-width="0.0998069" stroke-miterlimit="10"/>
<path d="M84.5053 79.1658C90.1141 79.1658 94.661 74.6305 94.661 69.036C94.661 63.4415 90.1141 58.9062 84.5053 58.9062C78.8965 58.9062 74.3496 63.4415 74.3496 69.036C74.3496 74.6305 78.8965 79.1658 84.5053 79.1658Z" fill="#EC9B3D"/>
<path d="M73.4697 55.6855H68.832V58.1447H73.4697V55.6855Z" fill="#952F1F"/>
<path d="M100.298 57.1504H95.6602V59.6096H100.298V57.1504Z" fill="#952F1F"/>
<path d="M101.266 67.7188H90.6406V70.5879H101.266V67.7188Z" fill="#55B79D"/>
<path d="M91.859 69.4432C91.8827 69.4758 91.9137 69.5026 91.9496 69.5213C91.9854 69.54 92.0251 69.5502 92.0656 69.5511C92.2003 69.5511 92.2857 69.4579 92.2857 69.3222V68.5605H92.4204V69.3222C92.4204 69.5592 92.2677 69.6707 92.0728 69.6707C92.0186 69.6732 91.9646 69.663 91.915 69.6411C91.8655 69.6192 91.8217 69.5861 91.7871 69.5444L91.859 69.4432Z" fill="black"/>
<path d="M92.6777 68.5605H93.1175C93.3376 68.5605 93.4606 68.7111 93.4606 68.8894C93.4606 69.0677 93.334 69.22 93.1175 69.22H92.8138V69.6537H92.6791L92.6777 68.5605ZM93.1013 68.682H92.8138V69.0973H93.1013C93.1295 69.0986 93.1576 69.0942 93.184 69.0843C93.2104 69.0745 93.2345 69.0594 93.2549 69.04C93.2753 69.0206 93.2915 68.9972 93.3026 68.9714C93.3137 68.9456 93.3194 68.9177 93.3194 68.8896C93.3194 68.8615 93.3137 68.8337 93.3026 68.8078C93.2915 68.782 93.2753 68.7587 93.2549 68.7393C93.2345 68.7198 93.2104 68.7048 93.184 68.6949C93.1576 68.6851 93.1295 68.6807 93.1013 68.682Z" fill="black"/>
<path d="M94.1603 68.5424C94.2423 68.5407 94.3235 68.5584 94.3973 68.594C94.4712 68.6296 94.5355 68.682 94.5852 68.7471L94.4792 68.8139C94.4412 68.7667 94.3929 68.7286 94.3381 68.7025C94.2833 68.6765 94.2233 68.6631 94.1626 68.6633C93.9231 68.6633 93.7408 68.8466 93.7408 69.1069C93.7408 69.3672 93.9231 69.5522 94.1626 69.5522C94.2719 69.5512 94.3768 69.5092 94.4563 69.4344V69.2104H94.0804V69.0894H94.5924V69.4837C94.5383 69.5437 94.4719 69.5915 94.3978 69.6239C94.3237 69.6564 94.2435 69.6727 94.1626 69.6718C94.0122 69.6718 93.868 69.6123 93.7617 69.5062C93.6554 69.4002 93.5957 69.2564 93.5957 69.1064C93.5957 68.9565 93.6554 68.8127 93.7617 68.7066C93.868 68.6006 94.0122 68.541 94.1626 68.541L94.1603 68.5424Z" fill="black"/>
<path d="M95.5641 69.4911H95.4707V69.1426H95.1562V69.0575H95.4707V68.7188H95.5641V69.0575H95.8785V69.1426H95.5641V69.4911Z" fill="black"/>
<path d="M96.8316 69.22H96.6133V69.6537H96.4785V68.5605H96.9183C97.1181 68.5605 97.261 68.6882 97.261 68.8894C97.2654 68.969 97.238 69.0472 97.1848 69.1067C97.1316 69.1662 97.0569 69.2023 96.9771 69.207L97.2726 69.6524H97.1118L96.8316 69.22ZM96.9003 68.6824H96.6133V69.0995H96.9003C96.9286 69.1008 96.9568 69.0964 96.9833 69.0865C97.0098 69.0766 97.034 69.0615 97.0545 69.042C97.075 69.0225 97.0913 68.999 97.1024 68.9731C97.1136 68.9471 97.1193 68.9192 97.1193 68.891C97.1193 68.8627 97.1136 68.8348 97.1024 68.8088C97.0913 68.7829 97.075 68.7595 97.0545 68.74C97.034 68.7205 97.0098 68.7053 96.9833 68.6954C96.9568 68.6855 96.9286 68.6811 96.9003 68.6824Z" fill="black"/>
<path d="M98.1617 69.41H97.6093L97.5122 69.6524H97.3613L97.8024 68.5605H97.9713L98.4128 69.6524H98.2606L98.1617 69.41ZM97.6466 69.289H98.1209L97.8864 68.6824L97.6466 69.289Z" fill="black"/>
<path d="M99.0733 68.772L98.8321 69.6528H98.6848L98.373 68.561H98.524L98.7665 69.4709L99.0158 68.5605H99.129L99.3801 69.4705L99.6213 68.5605H99.7722L99.4605 69.6524H99.3127L99.0733 68.772Z" fill="black"/>
<path d="M64.3119 68.6264C64.6686 68.6264 64.9578 68.338 64.9578 67.9821C64.9578 67.6263 64.6686 67.3379 64.3119 67.3379C63.9552 67.3379 63.666 67.6263 63.666 67.9821C63.666 68.338 63.9552 68.6264 64.3119 68.6264Z" fill="#FFF2D1"/>
<path d="M66.1322 68.6264C66.489 68.6264 66.7781 68.338 66.7781 67.9821C66.7781 67.6263 66.489 67.3379 66.1322 67.3379C65.7755 67.3379 65.4863 67.6263 65.4863 67.9821C65.4863 68.338 65.7755 68.6264 66.1322 68.6264Z" fill="#FFF2D1"/>
<path d="M67.9506 68.6264C68.3073 68.6264 68.5965 68.338 68.5965 67.9821C68.5965 67.6263 68.3073 67.3379 67.9506 67.3379C67.5939 67.3379 67.3047 67.6263 67.3047 67.9821C67.3047 68.338 67.5939 68.6264 67.9506 68.6264Z" fill="#FFF2D1"/>
<path d="M69.7709 68.6264C70.1276 68.6264 70.4168 68.338 70.4168 67.9821C70.4168 67.6263 70.1276 67.3379 69.7709 67.3379C69.4142 67.3379 69.125 67.6263 69.125 67.9821C69.125 68.338 69.4142 68.6264 69.7709 68.6264Z" fill="#FFF2D1"/>
<path d="M71.5912 68.6264C71.9479 68.6264 72.2371 68.338 72.2371 67.9821C72.2371 67.6263 71.9479 67.3379 71.5912 67.3379C71.2345 67.3379 70.9453 67.6263 70.9453 67.9821C70.9453 68.338 71.2345 68.6264 71.5912 68.6264Z" fill="#FFF2D1"/>
<path d="M73.4115 68.6264C73.7683 68.6264 74.0574 68.338 74.0574 67.9821C74.0574 67.6263 73.7683 67.3379 73.4115 67.3379C73.0548 67.3379 72.7656 67.6263 72.7656 67.9821C72.7656 68.338 73.0548 68.6264 73.4115 68.6264Z" fill="#FFF2D1"/>
<path d="M64.3119 72.3744C64.6686 72.3744 64.9578 72.086 64.9578 71.7302C64.9578 71.3744 64.6686 71.0859 64.3119 71.0859C63.9552 71.0859 63.666 71.3744 63.666 71.7302C63.666 72.086 63.9552 72.3744 64.3119 72.3744Z" fill="#FFF2D1"/>
<path d="M66.1322 72.3744C66.489 72.3744 66.7781 72.086 66.7781 71.7302C66.7781 71.3744 66.489 71.0859 66.1322 71.0859C65.7755 71.0859 65.4863 71.3744 65.4863 71.7302C65.4863 72.086 65.7755 72.3744 66.1322 72.3744Z" fill="#FFF2D1"/>
<path d="M67.9506 72.3744C68.3073 72.3744 68.5965 72.086 68.5965 71.7302C68.5965 71.3744 68.3073 71.0859 67.9506 71.0859C67.5939 71.0859 67.3047 71.3744 67.3047 71.7302C67.3047 72.086 67.5939 72.3744 67.9506 72.3744Z" fill="#FFF2D1"/>
<path d="M69.7709 72.3744C70.1276 72.3744 70.4168 72.086 70.4168 71.7302C70.4168 71.3744 70.1276 71.0859 69.7709 71.0859C69.4142 71.0859 69.125 71.3744 69.125 71.7302C69.125 72.086 69.4142 72.3744 69.7709 72.3744Z" fill="#FFF2D1"/>
<path d="M71.5912 72.3744C71.9479 72.3744 72.2371 72.086 72.2371 71.7302C72.2371 71.3744 71.9479 71.0859 71.5912 71.0859C71.2345 71.0859 70.9453 71.3744 70.9453 71.7302C70.9453 72.086 71.2345 72.3744 71.5912 72.3744Z" fill="#FFF2D1"/>
<path d="M73.4115 72.3744C73.7683 72.3744 74.0574 72.086 74.0574 71.7302C74.0574 71.3744 73.7683 71.0859 73.4115 71.0859C73.0548 71.0859 72.7656 71.3744 72.7656 71.7302C72.7656 72.086 73.0548 72.3744 73.4115 72.3744Z" fill="#FFF2D1"/>
<path d="M65.2514 70.4994C65.6081 70.4994 65.8973 70.211 65.8973 69.8552C65.8973 69.4994 65.6081 69.2109 65.2514 69.2109C64.8947 69.2109 64.6055 69.4994 64.6055 69.8552C64.6055 70.211 64.8947 70.4994 65.2514 70.4994Z" fill="#FFF2D1"/>
<path d="M67.0717 70.4994C67.4284 70.4994 67.7176 70.211 67.7176 69.8552C67.7176 69.4994 67.4284 69.2109 67.0717 69.2109C66.715 69.2109 66.4258 69.4994 66.4258 69.8552C66.4258 70.211 66.715 70.4994 67.0717 70.4994Z" fill="#FFF2D1"/>
<path d="M68.89 70.4994C69.2468 70.4994 69.5359 70.211 69.5359 69.8552C69.5359 69.4994 69.2468 69.2109 68.89 69.2109C68.5333 69.2109 68.2441 69.4994 68.2441 69.8552C68.2441 70.211 68.5333 70.4994 68.89 70.4994Z" fill="#FFF2D1"/>
<path d="M70.7104 70.4994C71.0671 70.4994 71.3563 70.211 71.3563 69.8552C71.3563 69.4994 71.0671 69.2109 70.7104 69.2109C70.3536 69.2109 70.0645 69.4994 70.0645 69.8552C70.0645 70.211 70.3536 70.4994 70.7104 70.4994Z" fill="#FFF2D1"/>
<path d="M72.5307 70.4994C72.8874 70.4994 73.1766 70.211 73.1766 69.8552C73.1766 69.4994 72.8874 69.2109 72.5307 69.2109C72.1739 69.2109 71.8848 69.4994 71.8848 69.8552C71.8848 70.211 72.1739 70.4994 72.5307 70.4994Z" fill="#FFF2D1"/>
<path d="M74.349 70.4994C74.7058 70.4994 74.9949 70.211 74.9949 69.8552C74.9949 69.4994 74.7058 69.2109 74.349 69.2109C73.9923 69.2109 73.7031 69.4994 73.7031 69.8552C73.7031 70.211 73.9923 70.4994 74.349 70.4994Z" fill="#FFF2D1"/>
<path d="M65.2514 74.2475C65.6081 74.2475 65.8973 73.9591 65.8973 73.6032C65.8973 73.2474 65.6081 72.959 65.2514 72.959C64.8947 72.959 64.6055 73.2474 64.6055 73.6032C64.6055 73.9591 64.8947 74.2475 65.2514 74.2475Z" fill="#FFF2D1"/>
<path d="M67.0717 74.2475C67.4284 74.2475 67.7176 73.9591 67.7176 73.6032C67.7176 73.2474 67.4284 72.959 67.0717 72.959C66.715 72.959 66.4258 73.2474 66.4258 73.6032C66.4258 73.9591 66.715 74.2475 67.0717 74.2475Z" fill="#FFF2D1"/>
<path d="M68.89 74.2475C69.2468 74.2475 69.5359 73.9591 69.5359 73.6032C69.5359 73.2474 69.2468 72.959 68.89 72.959C68.5333 72.959 68.2441 73.2474 68.2441 73.6032C68.2441 73.9591 68.5333 74.2475 68.89 74.2475Z" fill="#FFF2D1"/>
<path d="M70.7104 74.2475C71.0671 74.2475 71.3563 73.9591 71.3563 73.6032C71.3563 73.2474 71.0671 72.959 70.7104 72.959C70.3536 72.959 70.0645 73.2474 70.0645 73.6032C70.0645 73.9591 70.3536 74.2475 70.7104 74.2475Z" fill="#FFF2D1"/>
<path d="M72.5307 74.2475C72.8874 74.2475 73.1766 73.9591 73.1766 73.6032C73.1766 73.2474 72.8874 72.959 72.5307 72.959C72.1739 72.959 71.8848 73.2474 71.8848 73.6032C71.8848 73.9591 72.1739 74.2475 72.5307 74.2475Z" fill="#FFF2D1"/>
<path d="M74.349 74.2475C74.7058 74.2475 74.9949 73.9591 74.9949 73.6032C74.9949 73.2474 74.7058 72.959 74.349 72.959C73.9923 72.959 73.7031 73.2474 73.7031 73.6032C73.7031 73.9591 73.9923 74.2475 74.349 74.2475Z" fill="#FFF2D1"/>
<path d="M84.5059 88.8867V69.0371" stroke="black" stroke-width="0.0998069" stroke-miterlimit="10"/>
<path d="M84.4766 69.0069L100.502 53.0215" stroke="black" stroke-width="0.0998069" stroke-miterlimit="10"/>
<path d="M87.0099 67.5281L84.4586 66.0801L81.9258 67.5599L81.9442 70.4873L84.4955 71.9353L87.0283 70.4555L87.0099 67.5281Z" stroke="black" stroke-width="0.0998069" stroke-miterlimit="10"/>
</g>
<g clip-path="url(#clip3_881_9409)">
<path d="M13.9753 25.6595C14.5437 25.5073 14.9715 25.1825 15.2588 24.685C15.5461 24.1875 15.6137 23.6545 15.4615 23.0862C15.3092 22.5179 14.9844 22.0901 14.4869 21.8027C13.9894 21.5154 13.4564 21.4479 12.8881 21.6001C12.3198 21.7523 11.892 22.0772 11.6047 22.5747C11.3173 23.0722 11.2498 23.6051 11.402 24.1734C11.5542 24.7418 11.8791 25.1696 12.3766 25.4569C12.8741 25.7442 13.407 25.8118 13.9753 25.6595ZM17.334 19.8438L18.5714 17.6416C17.5593 17.0571 16.4528 16.6754 15.252 16.4967C14.0512 16.318 12.8284 16.3953 11.5834 16.7287C10.3385 17.0622 9.24164 17.6097 8.29273 18.3714C7.34381 19.1332 6.5789 20.0269 5.99798 21.0526L8.15959 22.3009C8.59552 21.5461 9.1606 20.8944 9.85482 20.3459C10.549 19.7974 11.3427 19.4036 12.2358 19.1644C13.1289 18.9252 14.0131 18.8697 14.8886 18.9978C15.764 19.1259 16.5791 19.4079 17.334 19.8438ZM19.8604 15.4691L21.1087 13.3075C19.5231 12.369 17.8021 11.764 15.9457 11.4926C14.0892 11.2212 12.2003 11.3428 10.2788 11.8574C8.3573 12.372 6.66041 13.2108 5.18811 14.3737C3.71581 15.5366 2.52754 16.9208 1.6233 18.5262L3.78491 19.7745C4.54778 18.4535 5.53712 17.3148 6.75292 16.3584C7.96873 15.4019 9.36146 14.7135 10.9311 14.2931C12.5008 13.8727 14.0512 13.7729 15.5822 13.9936C17.1133 14.2144 18.5394 14.7062 19.8604 15.4691Z" fill="#952F1F"/>
</g>
</g>
<defs>
<clipPath id="clip0_881_9409">
<rect width="100" height="90" fill="white" transform="translate(0.666016)"/>
</clipPath>
<clipPath id="clip1_881_9409">
<rect width="87" height="57.1958" fill="white" transform="translate(6.66602 16)"/>
</clipPath>
<clipPath id="clip2_881_9409">
<rect width="39.0085" height="35.8848" fill="white" transform="translate(63.666 53)"/>
</clipPath>
<clipPath id="clip3_881_9409">
<rect width="20.1722" height="20.1722" fill="white" transform="matrix(-0.965956 0.258707 0.258707 0.965956 19.1523 6)"/>
</clipPath>
</defs>
</svg>
