<svg width="100" height="90" viewBox="0 0 100 90" fill="none" xmlns="http://www.w3.org/2000/svg">
<g clip-path="url(#clip0_881_9226)">
<path fill-rule="evenodd" clip-rule="evenodd" d="M52.1718 0.00314187C71.4584 0.176578 90.5083 8.82297 97.006 26.94C104.09 46.6908 98.4821 69.375 81.4769 81.7128C64.4494 94.0667 41.4161 91.9771 24.3839 79.6296C7.35633 67.2854 -2.14153 45.9419 4.77916 26.1106C11.339 7.31333 32.2216 -0.176263 52.1718 0.00314187Z" fill="#FFF2D1"/>
<g clip-path="url(#clip1_881_9226)">
<path d="M31.0037 71.8555C30.2174 75.6043 24.5053 122.106 26.3731 133.207C28.2409 144.308 58.6938 167.587 60.027 167.993C61.5809 166.854 63.8682 163.117 63.8682 163.117C63.8682 163.117 41.5389 137.263 41.1225 136.226C40.7061 135.189 46.0048 75.2937 46.0048 75.2937L31.0037 71.8555Z" fill="#1F161E"/>
<path d="M67.3712 80.3293L44.5883 173.2H36.9121L44.6908 76.3164L67.3712 80.3293Z" fill="#4D4D4D"/>
<path d="M51.1887 27.1543C54.3338 27.1543 70.7396 27.6854 73.7044 33.4562C76.6692 39.2271 73.8753 65.9008 72.0324 66.9351C71.038 67.4911 70.7676 66.9506 70.4786 68.0812C70.1895 69.2118 67.3708 80.3279 67.3708 80.3279C65.5807 80.3776 39.4818 76.4486 31.0101 71.8549C31.0598 70.5784 31.47 67.2581 31.47 67.0034C30.345 67.4631 28.9838 67.5594 28.6078 67.0034C25.3042 61.9998 30.2331 35.913 33.7666 30.664C35.2739 28.4122 46.1417 27.1698 51.1887 27.1543Z" fill="#952F1F"/>
<path d="M61.9922 67.6711C62.7629 67.6711 69.398 72.33 68.8293 74.6191C69.2954 72.7804 70.7623 67.0996 70.7623 67.0996C70.1314 67.199 62.5423 67.6711 61.9922 67.6711Z" fill="#1F161E"/>
<path d="M55.2498 30.1988C55.2498 31.2113 47.2598 31.2113 47.2598 30.1988V19.9492H55.2498V30.1988Z" fill="#F8CDBA"/>
<path d="M50.6641 22.375C51.2856 22.375 55.2511 24.1267 55.2511 25.102V19.9492C54.2628 19.9492 50.6641 22.375 50.6641 22.375Z" fill="#1F161E"/>
<path d="M49.5733 23.1238C53.8659 23.1238 57.3458 19.6459 57.3458 15.3558C57.3458 11.0657 53.8659 7.58789 49.5733 7.58789C45.2806 7.58789 41.8008 11.0657 41.8008 15.3558C41.8008 19.6459 45.2806 23.1238 49.5733 23.1238Z" fill="#F8CDBA"/>
<path d="M46.9426 4C42.9522 4 40.4629 6.50338 40.4629 9.71181C40.4629 12.3798 41.1124 13.8893 41.8738 14.2713C42.3555 11.681 43.4028 10.4821 44.2699 9.9665C44.9412 10.4821 46.0973 11.7307 47.6387 12.1158C49.1801 12.5009 53.1923 12.4264 56.4337 14.7807C57.4903 13.8179 58.55 12.5662 58.55 11.0908C58.55 9.61553 57.8974 7.76439 54.0562 6.69595C51.5234 5.9909 51.1722 4 46.9426 4Z" fill="#1F161E"/>
<path d="M42.3104 17.6644C43.0622 17.6644 43.6716 17.3473 43.6716 16.9562C43.6716 16.5651 43.0622 16.248 42.3104 16.248C41.5586 16.248 40.9492 16.5651 40.9492 16.9562C40.9492 17.3473 41.5586 17.6644 42.3104 17.6644Z" fill="#FA9E9F"/>
<path d="M50.871 17.6644C51.6227 17.6644 52.2322 17.3473 52.2322 16.9562C52.2322 16.5651 51.6227 16.248 50.871 16.248C50.1192 16.248 49.5098 16.5651 49.5098 16.9562C49.5098 17.3473 50.1192 17.6644 50.871 17.6644Z" fill="#FA9E9F"/>
<path d="M45.6356 15.4922C45.3807 15.8556 44.0817 17.3806 45.4522 17.9956" stroke="#1F161E" stroke-width="0.611458" stroke-miterlimit="10" stroke-linecap="round"/>
<path d="M48.1953 19.7726C48.6024 19.7726 49.2364 19.2632 49.5689 18.8066" stroke="#1F161E" stroke-width="0.611458" stroke-miterlimit="10" stroke-linecap="round"/>
<path d="M56.7572 18.0455C57.7493 18.0455 58.5535 17.2418 58.5535 16.2503C58.5535 15.2588 57.7493 14.4551 56.7572 14.4551C55.7652 14.4551 54.9609 15.2588 54.9609 16.2503C54.9609 17.2418 55.7652 18.0455 56.7572 18.0455Z" fill="#F8CDBA"/>
<path d="M62.1712 42.4395C62.0314 44.1539 61.4844 52.6269 61.6895 53.7419C59.0821 54.6489 35.1959 65.9669 31.0781 67.2" stroke="#1F161E" stroke-width="0.611458" stroke-miterlimit="10" stroke-linecap="round"/>
<path d="M34.4406 39.7656C33.8936 41.6851 32.0414 50.3972 33.3435 54.4443" stroke="#1F161E" stroke-width="0.611458" stroke-miterlimit="10" stroke-linecap="round"/>
<path d="M40.5352 63.2422C41.7783 64.115 53.6965 69.3857 70.1676 67.3979" stroke="#1F161E" stroke-width="0.611458" stroke-miterlimit="10" stroke-linecap="round"/>
<path d="M39.3975 54.4439C40.1962 54.5712 37.5919 52.4934 36.1158 53.2667C34.6396 54.0401 32.6506 57.5405 33.0577 58.3543C33.1126 58.5014 33.1997 58.6344 33.3128 58.7434C33.4259 58.8524 33.562 58.9346 33.7111 58.9841C33.8602 59.0336 34.0185 59.049 34.1743 59.0292C34.3302 59.0094 34.4796 58.955 34.6116 58.8698C35.0125 58.6089 37.9959 54.2203 39.3975 54.4439Z" fill="#F8CDBA"/>
</g>
<g clip-path="url(#clip2_881_9226)">
<path d="M67.4432 56H32.5568C26.7265 56 22 60.7318 22 66.5688V74.1189C22 79.9559 26.7265 84.6877 32.5568 84.6877H67.4432C73.2735 84.6877 78 79.9559 78 74.1189V66.5688C78 60.7318 73.2735 56 67.4432 56Z" fill="#EC9B3D"/>
<path d="M35.3166 66.3787L41.1044 72.1731L36.2951 76.988L30.5072 71.1936C29.8694 70.555 29.5111 69.689 29.5111 68.7859C29.5111 67.8829 29.8694 67.0169 30.5072 66.3783C31.145 65.7398 32.0101 65.3811 32.9121 65.3811C33.8141 65.3811 34.6792 65.7398 35.317 66.3783L35.3166 66.3787Z" fill="#952F1F"/>
<path d="M42.0928 71.1943L36.3049 76.9887L31.4956 72.1739L37.2834 66.3795C37.9212 65.741 38.7863 65.3822 39.6883 65.3822C40.5903 65.3822 41.4553 65.741 42.0932 66.3795C42.731 67.018 43.0893 67.8841 43.0893 68.7871C43.0893 69.6901 42.731 70.5562 42.0932 71.1947L42.0928 71.1943Z" fill="#952F1F"/>
<path d="M47.6016 66.6719H49.4707V73.2507H52.4826V74.8835H47.6016V66.6719Z" fill="white"/>
<path d="M53.6602 66.6719H55.5293V74.8847H53.6602V66.6719Z" fill="white"/>
<path d="M61.5885 74.8827L59.291 72.2369V74.8827H57.4219V66.6699H59.291V69.1857L61.077 66.6711H63.4098L60.3147 70.7353L64.1481 74.8827H61.5885Z" fill="white"/>
<path d="M70.2183 73.2498V74.8827H64.8496V66.6699H70.1112V68.3028H66.7193V69.995H69.6959V71.6757H66.7193V73.2487L70.2183 73.2498Z" fill="white"/>
</g>
</g>
<defs>
<clipPath id="clip0_881_9226">
<rect width="100" height="90" fill="white"/>
</clipPath>
<clipPath id="clip1_881_9226">
<rect width="49" height="175.488" fill="white" transform="translate(26 4)"/>
</clipPath>
<clipPath id="clip2_881_9226">
<rect width="56" height="28.6877" fill="white" transform="translate(22 56)"/>
</clipPath>
</defs>
</svg>
