<svg width="234" height="62" viewBox="0 0 234 62" fill="none" xmlns="http://www.w3.org/2000/svg">
<g clip-path="url(#clip0_354_4871)">
<path fill-rule="evenodd" clip-rule="evenodd" d="M202.922 59.5527C187.104 59.5527 174.281 46.5866 174.281 30.5922C174.281 14.5978 187.104 1.63168 202.922 1.63168V16.1119C195.013 16.1119 188.602 22.595 188.602 30.5922C188.602 38.5894 195.013 45.0725 202.922 45.0725V59.5527Z" fill="#F7CA17"/>
<path fill-rule="evenodd" clip-rule="evenodd" d="M231.563 59.5527C215.745 59.5527 202.922 46.5866 202.922 30.5922C202.922 14.5978 215.745 1.63168 231.563 1.63168V16.1119C223.654 16.1119 217.242 22.595 217.242 30.5922C217.242 38.5894 223.654 45.0725 231.563 45.0725V59.5527Z" fill="#F7CA17"/>
<path fill-rule="evenodd" clip-rule="evenodd" d="M117 30.5923C117 14.5979 129.823 1.63176 145.641 1.63176C161.459 1.63176 174.282 14.5979 174.282 30.5923H159.961C159.961 22.5951 153.55 16.112 145.641 16.112C137.732 16.112 131.32 22.5951 131.32 30.5923H117Z" fill="#952F1F"/>
<path fill-rule="evenodd" clip-rule="evenodd" d="M117 59.5527C117 43.5584 129.823 30.5922 145.641 30.5922C161.459 30.5922 174.282 43.5584 174.282 59.5527H159.961C159.961 51.5556 153.55 45.0725 145.641 45.0725C137.732 45.0725 131.32 51.5556 131.32 59.5527H117Z" fill="#EC9B3D"/>
<path fill-rule="evenodd" clip-rule="evenodd" d="M2.43555 30.5922C2.43555 46.5866 15.2585 59.5527 31.0765 59.5527C46.8944 59.5527 59.7174 46.5866 59.7174 30.5922H45.3969C45.3969 38.5894 38.9855 45.0725 31.0765 45.0725C23.1675 45.0725 16.756 38.5894 16.756 30.5922H2.43555Z" fill="#952F1F"/>
<path fill-rule="evenodd" clip-rule="evenodd" d="M2.43555 1.63176C2.43555 17.6261 15.2585 30.5923 31.0765 30.5923C46.8944 30.5923 59.7174 17.6261 59.7174 1.63176H45.3969C45.3969 9.62894 38.9855 16.112 31.0765 16.112C23.1675 16.112 16.756 9.62894 16.756 1.63176H2.43555Z" fill="#EC9B3D"/>
<path fill-rule="evenodd" clip-rule="evenodd" d="M59.7168 1.63176C59.7168 17.6261 72.5398 30.5923 88.3577 30.5923C104.176 30.5923 116.999 17.6261 116.999 1.63176H102.678C102.678 9.62894 96.2667 16.112 88.3577 16.112C80.4488 16.112 74.0373 9.62894 74.0373 1.63176H59.7168Z" fill="#952F1F"/>
<path fill-rule="evenodd" clip-rule="evenodd" d="M59.7168 59.5527C59.7168 43.5584 72.5398 30.5922 88.3577 30.5922C104.176 30.5922 116.999 43.5584 116.999 59.5527H102.678C102.678 51.5556 96.2667 45.0725 88.3577 45.0725C80.4488 45.0725 74.0373 51.5556 74.0373 59.5527H59.7168Z" fill="#F7CA17"/>
</g>
<defs>
<clipPath id="clip0_354_4871">
<rect x="0.5" y="62" width="62" height="233" rx="31" transform="rotate(-90 0.5 62)" fill="white"/>
</clipPath>
</defs>
</svg>
