<svg width="71" height="103" viewBox="0 0 71 103" fill="none" xmlns="http://www.w3.org/2000/svg">
<path fill-rule="evenodd" clip-rule="evenodd" d="M38.0451 51.2255C38.355 51.2855 38.8687 52.1725 39.079 52.4246C39.7572 53.2377 40.4354 54.0507 41.1137 54.8638C41.3851 55.1892 41.7766 55.5309 41.9699 55.9075C42.1187 56.1972 42.1697 56.5967 42.2585 56.9072C43.3614 60.7645 44.44 64.6468 45.2433 68.5793C45.4163 69.4258 45.5803 70.2781 45.6765 71.1373C45.7239 71.562 45.8486 72.1861 45.6637 72.5966C45.4553 73.0591 44.7846 73.2514 44.3489 73.3948C43.5013 73.6739 42.6138 73.84 41.7358 73.9892C39.6201 74.3485 37.4779 74.5571 35.3397 74.726C34.6864 74.7776 34.014 74.7767 33.3649 74.8646C33.0549 74.9065 33.1478 74.8232 33.0501 75.0315C32.9141 75.3212 33.0043 75.9257 32.9882 76.2416C32.9501 76.9846 32.9121 77.7274 32.8741 78.4704L32.5629 84.55C32.4577 86.6045 32.3526 88.6591 32.2473 90.7137C32.2075 91.4921 32.1677 92.2706 32.1279 93.0492C32.1066 93.4652 32.17 94.0025 32.0585 94.4054C31.9741 94.7101 32.1128 94.6202 31.7394 94.6383C30.8747 94.6801 29.9787 94.5754 29.1136 94.5443C28.1326 94.5093 27.1514 94.4741 26.1701 94.4391C25.8899 94.429 25.5768 94.5085 25.4638 94.3075C25.3264 94.0628 25.4311 93.3898 25.4214 93.1165C25.3941 92.3549 25.3669 91.5932 25.3397 90.8316C25.2649 88.7408 25.1902 86.6501 25.1155 84.5593C25.0135 81.7079 24.9114 78.8565 24.8095 76.0049C23.7184 76.2246 22.6273 76.4443 21.5362 76.6639C19.924 76.9886 18.3116 77.3132 16.6993 77.6377C15.9599 77.7866 15.0817 78.1264 14.3181 78.0168C13.5597 77.9079 13.2462 77.5838 13.2036 76.8636C13.1579 76.0915 13.1757 75.3133 13.1861 74.5406C13.2031 73.2766 13.2394 72.0128 13.2871 70.7496C15.4413 70.5556 17.5956 70.3614 19.7497 70.1672C20.8967 70.0638 22.0439 69.9605 23.1908 69.857C23.4511 69.8336 24.0929 69.8839 24.209 69.6876C24.3897 69.3823 24.1886 68.3788 24.1832 68.0336L24.1319 64.7703L23.9435 52.7629C24.4593 52.7799 24.9751 52.7953 25.4908 52.8097C27.7347 52.8731 29.9896 52.9649 32.2341 52.8958C33.3597 52.8613 34.4262 52.5575 35.4889 52.199C36.0539 52.0084 36.6132 51.8009 37.168 51.5827C37.3427 51.5141 37.8566 51.189 38.0451 51.2255ZM35.0027 62.3961L33.8564 68.0056L37.7791 67.7455L35.0027 62.3961Z" fill="#EC9B3D"/>
<path fill-rule="evenodd" clip-rule="evenodd" d="M50.5698 1.8221C51.1799 1.42284 51.271 1.75469 51.7543 2.10021L51.7816 2.11941C52.3114 2.48708 52.7339 2.8572 53.154 3.3501C53.6876 2.42021 55.0115 2.85772 55.8346 3.0422C56.9068 3.28246 57.914 3.69049 59.0051 3.82792L59.1479 3.84428C59.7227 3.90341 60.239 4.0742 60.7923 4.22344C61.4782 4.40818 62.1835 4.50978 62.8679 4.70032C64.0427 5.02733 65.0097 5.70496 65.8699 6.55906C67.5981 8.27489 68.3471 10.4825 68.5662 12.8653C68.6874 14.1816 68.7852 15.5437 68.7011 16.865C68.6873 17.0847 68.4182 18.1086 68.5736 18.244C68.7042 18.3578 69.2479 18.3287 69.4224 18.3496C69.7568 18.3895 70.0913 18.4276 70.4227 18.4884C71.0475 18.6032 70.8078 19.3623 70.4479 19.5891C70.192 19.7503 69.9469 19.7583 69.8121 20.0644C69.6928 20.3355 69.6923 20.701 69.5989 20.988C69.1351 22.4155 68.5484 23.7871 67.8114 25.0921L67.4912 25.6601C66.9298 26.6538 66.3541 27.6396 65.627 28.5243C64.7845 29.5496 63.7892 30.4633 62.8136 31.3599C60.9266 33.0938 58.6142 34.2894 56.3352 35.3817C54.0074 36.4975 51.5984 37.0812 49.0942 37.5832L48.7521 37.6512C47.3096 37.9356 45.8523 38.2807 44.3969 38.4857C43.0596 38.6739 41.6898 38.5083 40.344 38.5051C40.4203 39.7369 40.5717 40.8236 41.0351 41.9778L41.2134 42.4194C42.051 44.4817 42.9685 46.5621 44.1027 48.4726C44.6686 49.426 45.4072 50.2512 46.0185 51.1731L46.1315 51.3471C46.5234 51.9634 47.2942 52.7566 47.2342 53.5415C47.1732 54.3353 45.8922 54.9331 45.2423 55.3059L45.1774 55.3437C44.7092 55.6205 44.2006 55.8415 43.6929 56.0358C43.4574 56.126 42.8767 56.176 42.7156 56.3732C42.4211 56.7336 43.3502 58.1768 43.5416 58.6336L43.5504 58.6553C43.9679 59.7178 44.4095 60.7088 44.6819 61.828C44.9786 63.0476 45.1515 64.2928 45.4261 65.5171L45.4819 65.7609C45.7186 66.7774 45.9997 67.8013 46.0328 68.8474L46.0355 68.973C46.0489 70.0723 46.4544 71.3937 46.1438 72.4688C45.8784 73.3877 44.8282 73.7997 44.0194 74.0985L43.9763 74.1144C42.0023 74.8424 39.6791 74.9785 37.5915 75.1633C36.7142 75.2411 35.8697 75.354 34.9823 75.4828C34.653 75.5306 33.9472 75.4964 33.734 75.7685C33.491 76.0788 33.5567 76.7431 33.545 77.1093C33.5104 78.1885 33.3643 79.2404 33.3528 80.3125C33.3405 81.4687 33.2669 82.6423 33.1938 83.7974C33.1144 85.0479 33.0111 86.2972 32.9651 87.5496C32.9232 88.6941 32.9533 89.8398 32.8444 90.9794L32.8223 91.1929C32.6871 92.4009 32.7754 93.6232 32.5142 94.8185C32.451 95.1078 32.3014 95.3967 32.4542 95.5992C32.6039 95.7976 33.0395 95.9402 33.2543 96.0662C33.7498 96.3568 34.2459 96.647 34.7602 96.9032C35.6922 97.3674 36.753 97.587 37.6313 98.1558L37.6934 98.1953C38.3929 98.6332 39.5999 99.1761 39.471 100.175C39.4183 100.582 39.0667 100.706 38.752 100.899L38.6522 100.962C38.494 101.062 38.3756 101.145 38.2758 101.318C38.1954 101.457 38.2755 101.599 38.1174 101.713C37.8223 101.926 36.948 101.809 36.5931 101.834C36.0173 101.873 35.4866 101.881 34.9145 101.797C32.578 101.453 30.1144 101.331 27.8346 100.707C27.2106 100.536 26.5985 100.326 25.9775 100.145L25.8778 100.117C25.3997 99.9847 24.9764 99.9014 24.6485 99.4845C23.9993 98.6595 24.3543 97.3025 24.5562 96.3544C24.6568 95.882 24.9873 95.2612 24.8661 94.7736C24.7605 94.349 24.5001 94.091 24.4559 93.6242C24.3392 92.3884 24.4558 91.1197 24.4015 89.8772C24.2971 87.4915 24.3798 84.9455 23.9168 82.5982L23.8877 82.4479C23.7897 81.928 23.7342 81.4689 23.8255 80.9383L23.8396 80.8619C23.9419 80.3408 23.8854 79.8359 23.8127 79.3178C23.7348 78.7621 23.8059 78.1953 23.7784 77.6326L23.7653 77.4268C23.7368 76.9185 23.7857 76.4912 23.1894 76.6171C20.8088 77.1193 18.4521 77.7268 16.0818 78.2905C15.8905 78.3359 15.703 78.4853 15.5362 78.521C15.3478 78.5614 15.2719 78.4789 15.0669 78.4651C14.9161 78.4549 14.6243 78.4911 14.4859 78.5501C14.2356 78.6567 14.2906 78.7422 14.1497 78.9261C13.577 79.6736 13.0048 78.8315 12.6748 78.3436C12.6715 79.7201 12.91 81.0998 13.0576 82.4681L13.0771 82.6546C13.1184 83.0624 13.413 83.9893 13.1202 84.318C12.8245 84.6499 11.7819 84.5243 11.3575 84.518L11.3295 84.5177C10.7267 84.5167 9.87727 84.6796 9.32491 84.4108C8.89709 84.2026 8.67098 83.6929 8.46153 83.2934C7.84468 82.1167 7.58414 80.8062 7.271 79.5234L7.16731 79.102C6.89293 77.979 6.65003 76.8664 6.59377 75.707L6.56584 75.0058C6.53883 74.2628 6.54002 73.4201 6.8531 72.7983C7.07353 72.3603 7.40043 72.1809 7.84644 72.0353C8.35531 71.8692 8.82534 71.632 9.33188 71.4554C10.2843 71.1233 11.2108 70.8942 12.1793 70.6936L12.3613 70.6563C12.6263 70.6026 12.5365 70.6653 12.6979 70.4266C12.7841 70.2992 12.8114 70.1628 12.9329 70.0482C13.2834 69.7183 13.857 69.7507 14.3031 69.7286L14.5553 69.7157C15.0126 69.6912 15.4444 69.6588 15.9061 69.571C16.3412 69.4882 16.7918 69.5098 17.2043 69.4591C18.1863 69.3381 19.2553 69.3586 20.2796 69.3137C20.8033 69.2908 21.327 69.2677 21.8505 69.2413L22.4347 69.2107C22.8619 69.1926 23.1309 69.2311 23.189 68.7528C23.2601 68.1686 23.1454 67.5112 23.1237 66.9213L23.0883 65.9167L23.0093 63.6152C23.0021 63.399 22.9952 63.1828 22.9887 62.9666C22.9771 62.573 23.1271 61.9246 22.9781 61.5684C22.7054 60.9157 20.8681 61.221 20.2574 61.0624L20.1482 61.0339C19.7806 60.936 19.3856 60.8062 19.2516 60.4601C19.0619 59.9699 19.1503 59.4029 19.1677 58.8902L19.1694 58.8289C19.1952 57.6509 19.242 56.4785 19.2447 55.2992C19.2473 54.0902 19.5672 52.9369 19.5183 51.7254C19.4694 50.5131 19.4705 49.3014 19.521 48.0886C19.5761 46.7657 19.7726 45.4532 19.7759 44.1285C18.9206 45.1516 18.2031 46.2695 17.3197 47.2785C16.4292 48.2956 15.4977 49.2259 14.4679 50.1018C13.4254 50.9885 12.4572 51.9612 11.409 52.8384C10.3614 53.7151 9.28503 54.5517 8.24833 55.4432L7.85042 55.7862C7.16802 56.3718 6.50938 56.9029 5.65146 57.2512L5.08299 57.4858C4.28128 57.8136 3.4678 58.0987 2.58109 57.9268C0.193687 57.4639 -0.0193872 54.8323 0.2093 52.8541C0.487803 50.4445 1.09604 48.2086 1.91748 45.933C2.08939 45.4568 2.38015 45.1169 2.622 44.6867C2.88992 44.2101 3.08054 43.6742 3.31362 43.1787C3.82055 42.1018 4.45976 41.0756 5.08078 40.0612C5.6605 39.114 6.30449 38.2746 7.08011 37.4885C7.42276 37.1414 7.61543 36.6015 7.80115 36.1501C7.96829 35.7437 7.93801 35.392 7.87564 34.9978L7.82322 34.679C7.43669 32.2747 6.80109 29.9555 6.27635 27.5814C6.02581 26.4472 5.68252 25.3626 5.35676 24.2546L5.28727 24.0167C5.1204 23.442 4.77595 21.4318 5.87125 21.5159C6.28471 21.5477 6.80303 22.1202 7.10702 22.4067L7.13328 22.4312C7.52536 22.793 7.88697 23.1875 8.21039 23.612C8.58052 24.0977 8.90535 24.6222 9.16566 25.1749C9.37318 25.6156 9.52069 26.0937 9.81984 26.4851C9.58225 25.4638 9.24967 24.4602 9.10526 23.4189L9.08826 23.2925C9.00105 22.62 8.92044 21.5595 9.38531 21.0426C10.0136 20.3441 11.0854 21.5631 11.4276 22.0595C11.8911 22.7314 12.1168 23.7227 12.7271 24.273C12.5326 22.9974 12.0253 21.4334 12.4119 20.1518C12.8705 18.6324 13.9553 20.7178 14.2196 21.2282C15.3947 23.4978 15.8907 26.0771 16.7639 28.473L16.8285 28.648C17.0098 29.1331 17.1515 29.4517 17.7213 29.5043C18.1739 29.5461 18.6567 29.4209 19.1147 29.3892L19.2778 29.3805C19.9774 29.3359 19.7574 29.0714 19.5239 28.5424C19.4425 28.3579 19.434 28.1737 19.291 28.0225C19.1595 27.8836 18.9702 27.8671 18.8527 27.6957C18.6961 27.4669 18.7677 27.2283 18.5324 27.0716C18.4092 26.9895 18.1632 27.0348 18.0184 26.952C17.6647 26.7497 17.6459 26.2671 17.5465 25.898L17.5366 25.8627C17.3681 25.2833 17.4614 24.7416 17.5087 24.1522L17.5142 24.0813C17.5565 23.5031 17.5724 22.9242 17.8371 22.3988L17.8694 22.3344C17.9785 22.1161 17.982 22.082 17.9156 21.8535L17.8597 21.6647C17.809 21.491 17.7856 21.375 17.8256 21.1487L17.856 20.979C17.9278 20.596 18.0315 20.2354 18.4459 20.1007C18.9753 19.9286 19.0565 20.1462 19.2137 19.6755L19.2338 19.613C19.409 19.049 19.7738 19.0879 20.2969 19.1644L20.2952 18.9085C20.2965 18.5572 20.3344 18.158 20.687 18.0372C20.9068 17.962 21.1333 18.2088 21.3032 18.1519C21.4255 18.1109 21.4147 18.0468 21.4982 17.9611L21.5193 17.9409C21.8263 17.6649 21.901 16.8914 22.3211 16.7251C22.7213 16.5668 22.9646 17.0087 23.1869 17.2681L23.2999 17.106C23.5718 16.7222 24.0729 16.0712 24.4494 16.1147C24.9341 16.1706 24.7252 16.7845 25.269 16.6263C25.6824 16.5061 26.0744 15.9665 26.5399 16.2598C26.8705 16.468 26.8657 17.0837 27.2747 17.2195C27.7529 17.3782 27.8492 16.8752 28.3007 17.373C28.6214 17.7267 28.7489 18.3407 29.1114 18.6321C29.3405 18.8163 29.6477 18.7422 29.8731 18.924C30.0016 19.0277 30.1383 19.3047 30.2317 19.4431L30.2858 19.524C30.4071 19.7086 30.492 19.8682 30.5227 20.1047C30.538 20.2226 30.4928 20.3264 30.522 20.4473C30.5404 20.5232 30.6271 20.5625 30.6474 20.6316C30.7256 20.8971 30.5949 21.0057 30.6078 21.2241C30.6189 21.4121 30.9046 21.5905 31.0819 21.7769C31.4141 22.1259 31.6925 22.5213 31.995 22.895C32.6204 23.6669 33.4535 24.3112 33.8197 25.2617C34.1861 26.2127 34.0997 27.0801 33.4979 27.8922C32.8957 28.705 32.1339 29.509 31.1861 29.9085C30.9046 30.0271 30.145 30.1077 30.4422 30.524C30.6758 30.8513 30.6788 30.5568 30.8464 30.3815C31.1814 30.0309 31.4232 30.4082 31.8449 30.3841C32.0413 30.3728 32.1954 30.2856 32.4035 30.304C32.663 30.327 32.933 30.4477 33.1881 30.5034C35.5188 31.0124 38.0222 30.8704 40.3813 30.681C41.5344 30.5883 42.6619 30.2658 43.7903 30.0203C44.9614 29.7654 46.1393 29.5806 47.2742 29.1827L48.1525 28.8747C50.0784 28.1966 51.9591 27.4986 53.7295 26.4439L54.0938 26.2257C55.8725 25.1548 57.6068 24.0115 58.9957 22.4529C59.3487 22.0569 59.671 21.6433 59.911 21.1699L59.9904 21.0083C60.1263 20.7361 60.4218 20.1659 60.3405 19.937C60.2405 19.6552 59.6696 19.5906 59.9023 19.099C60.0651 18.7549 60.4974 18.8264 60.8173 18.8024L60.4995 17.9008C59.0426 18.7249 57.5659 19.6117 56.1859 20.5585C55.6557 20.9221 55.1335 21.2974 54.6069 21.6664L54.211 21.9416C53.6777 22.3087 52.9724 23.103 52.3815 22.4956C51.4443 21.532 50.7506 20.2907 49.9485 19.2182C49.1095 18.0961 48.2644 16.9747 47.4221 15.8548C46.0773 14.0671 44.541 12.2841 43.545 10.1986L43.5073 10.1181C43.0061 9.02643 42.8293 7.73501 43.9279 6.96636C44.9581 6.24571 45.9145 5.43172 46.8937 4.64372L47.104 4.47531C48.2317 3.57627 49.3625 2.61231 50.5698 1.8221ZM25.9671 94.8527C25.9647 95.8872 25.6718 96.934 25.7057 97.9558C25.7207 98.41 25.9068 98.4053 26.3202 98.4946L26.3517 98.5015C26.8101 98.6032 27.2672 98.7086 27.7233 98.8209C29.6401 99.2931 31.6071 99.4457 33.5042 99.9874C34.4544 100.259 35.4263 100.259 36.4002 100.378C36.668 100.41 37.1012 100.582 37.3641 100.543C37.5714 100.512 37.8878 100.221 37.8553 99.9617C37.7944 99.475 35.8849 99.02 35.4025 98.8037C34.5452 98.4194 33.6983 97.9767 32.9335 97.4288C32.3903 97.0397 31.8747 96.5488 31.5716 95.9445L31.4922 95.783C31.2759 95.3374 31.2285 95.2294 30.6288 95.1733C29.0738 95.0275 27.5178 95.0298 25.9671 94.8527ZM26.1648 89.3125C26.0049 89.3224 26.1697 92.6254 26.1783 92.9523L26.1815 93.0401C26.2015 93.4547 26.2882 93.5025 26.7556 93.4622C27.301 93.415 27.8363 93.4722 28.3814 93.461C28.7402 93.4538 29.0778 93.3667 29.4351 93.4315C29.6226 93.4656 29.7946 93.547 29.9857 93.5766L30.1847 93.6098C30.5091 93.6607 31.0069 93.7051 30.9263 93.3442C30.8686 93.0865 29.6921 93.0275 29.4845 92.9498C28.9319 92.7429 28.435 92.3955 27.9931 92.0099C27.1281 91.2554 26.64 90.3381 26.1648 89.3125ZM27.223 85.2812C27.0141 85.2299 26.2414 84.8007 26.0504 84.9396C25.8472 85.0873 25.9713 85.5782 25.9792 85.776C26.0224 86.859 25.8643 87.9336 26.3027 88.9578L26.3528 89.0733C27.1727 90.94 28.4708 92.7357 30.6776 92.9502C31.3971 93.0201 31.2917 87.5772 31.3284 86.904C31.3497 86.5147 31.545 85.8304 31.426 85.459C31.2782 84.9978 31.0178 85.2034 30.5527 85.3139C29.4791 85.5691 28.2943 85.5439 27.223 85.2812ZM31.4139 83.8598C31.1871 83.7631 30.5551 83.9697 30.32 83.9867C29.1698 84.07 28.0047 84.1383 26.8521 84.0568L26.6205 84.039C26.2081 84.0116 25.6616 84.0543 26.1799 84.5292C26.5499 84.8684 27.2593 84.9798 27.7568 85.0568L27.8059 85.0644C28.4297 85.1614 29.0612 85.2044 29.6896 85.1477L29.8074 85.1358C30.2206 85.09 31.0033 85.1285 31.363 84.9028C31.6149 84.7448 31.7037 83.9834 31.4139 83.8598ZM31.0679 80.2402C30.0503 78.6947 28.4389 77.5138 26.5108 78.1374C25.4985 78.4646 25.7971 79.5679 25.8463 80.438C25.8879 81.1752 25.9474 81.9084 25.9461 82.6439L25.9434 82.914C25.94 83.5199 26.0539 83.6296 26.7162 83.6688C27.7736 83.7315 28.8269 83.6658 29.8843 83.6164C30.252 83.5992 31.024 83.711 31.3638 83.5602C31.6967 83.4126 31.6437 83.1703 31.6733 82.8151L31.6764 82.7815C31.7778 81.7379 31.6481 81.1216 31.0679 80.2402ZM12.5922 71.1444C11.2451 71.9269 9.83429 72.5487 8.47327 73.2957C7.84709 73.6392 7.69132 73.942 7.72242 74.636L7.74606 75.1638C7.77411 75.7801 7.80595 76.3973 7.86387 77.0106C7.99011 78.3451 8.35515 79.6266 8.74603 80.9014L9.05212 81.8948C9.21158 82.4215 9.32685 82.836 9.90966 83.0081C10.5933 83.2098 11.3223 83.2018 12.0276 83.2035C11.8157 81.5312 11.4151 79.8873 11.3875 78.1947L11.3844 77.9661C11.3784 77.2988 11.4041 76.5755 11.6704 75.9668C11.8169 75.6318 12.0712 75.3531 12.1967 75.0084C12.3212 74.6666 12.2998 74.3033 12.3198 73.9451C12.3722 73.0083 12.4545 72.0728 12.5922 71.1444ZM31.7564 73.452C31.2713 73.4538 30.7451 73.6759 30.2795 73.7915C29.2092 74.0576 28.127 74.2814 27.0424 74.4821L26.717 74.5416C26.1659 74.6413 25.9175 74.6124 25.8816 75.1964C25.8492 75.7266 25.8746 76.2699 25.8792 76.8033L25.8798 76.9808C25.8797 77.0047 25.7976 77.9462 25.8664 77.9972C25.9681 78.0725 26.767 77.6911 26.9265 77.6589C27.4521 77.5529 27.9944 77.5784 28.51 77.7248C29.4425 77.9895 30.2828 78.6184 30.8482 79.4C31.1243 79.7818 31.2755 80.3231 31.5847 80.6627L31.6193 80.6999C31.8867 80.9807 31.8054 80.7193 31.8037 80.3711C31.799 79.2977 31.8305 78.2116 31.8905 77.1393C31.9415 76.2286 32.0994 75.3257 32.1835 74.4122L32.2045 74.1628C32.2384 73.7119 32.2654 73.4501 31.7564 73.452ZM14.6636 71.4708C14.5441 71.3928 14.0175 71.3681 13.885 71.4274C13.4425 71.6253 13.7079 72.3786 13.7195 72.7682L13.7199 72.7921C13.7209 73.4981 13.7751 74.2043 13.773 74.9137C13.7717 75.3678 13.7216 75.8213 13.8115 76.2685L13.8266 76.336C13.8894 76.6025 14.119 77.461 14.3488 77.2519C14.5128 77.1026 14.0996 76.016 14.0775 75.8022C14.0135 75.184 14.1376 74.6061 14.2716 74.0093L14.29 73.9277C14.4333 73.2894 14.5757 72.6532 14.7404 72.0201L14.7548 71.9676C14.8251 71.7242 14.8957 71.6225 14.6636 71.4708ZM16.9493 71.6683C17.0143 71.0324 16.3396 71.3338 15.9117 71.3698L15.8082 71.3793C15.2934 71.431 15.1721 71.5265 15.0242 72.0833L14.9747 72.2714C14.6405 73.518 14.1446 74.9074 14.4166 76.1928L14.4513 76.355C14.5691 76.8887 14.6967 77.2303 15.31 77.102C15.656 77.0296 15.9993 76.9431 16.3431 76.8615C16.4297 76.8411 16.8109 76.8066 16.8591 76.74C16.9057 76.6757 16.7985 76.2648 16.7896 76.1751C16.6423 74.671 16.7962 73.1649 16.9493 71.6683ZM20.6194 70.5495C19.9914 70.4846 19.3602 70.675 18.7561 70.82C18.3881 70.9083 17.6991 70.934 17.4157 71.2006C17.0869 71.5099 17.175 72.2513 17.1398 72.6543L17.0865 73.2491C17.0518 73.6451 17.0216 74.0408 17.0145 74.4399C17.0045 74.9947 16.9529 75.6542 17.0567 76.2039C17.1803 76.8577 17.6437 76.4735 18.1126 76.3308C18.7424 76.1389 19.3879 76.0125 20.0371 75.9075C20.4008 75.8485 21.2916 75.9066 21.5661 75.632C21.7357 75.4623 20.7267 73.8623 20.6147 73.5793C20.2219 72.5879 20.253 71.5445 20.6194 70.5495ZM23.0939 71.4557C22.6743 70.9062 21.4766 69.9896 20.8616 70.7171C20.0825 71.6389 20.7923 73.4633 21.2672 74.3415L21.4302 74.6468C21.6657 75.0801 21.9215 75.4574 22.4536 75.4828L22.6931 75.4882C22.961 75.4917 23.3347 75.4781 23.4418 75.3139C23.7152 74.8952 23.4106 73.692 23.3822 73.2119C23.3485 72.6423 23.4562 71.9304 23.0939 71.4557ZM31.9084 69.8889C31.0342 69.5362 30.1592 69.4442 29.2407 69.6124C28.3336 69.7786 27.5012 70.0854 26.6952 70.5338C25.9366 70.9557 25.8912 71.268 25.9423 72.0835C25.969 72.5086 25.945 72.9349 25.9269 73.3599C25.9179 73.5726 25.793 74.0797 25.9607 74.2385C26.1375 74.4057 26.6642 74.2041 26.8742 74.1645C27.3144 74.0812 27.7529 73.9922 28.1913 73.899C29.1713 73.6906 30.1517 73.4866 31.133 73.2846C31.4552 73.2184 31.9769 73.2104 32.2212 72.9659C32.4806 72.7062 32.419 72.0984 32.4679 71.7579C32.5198 71.396 32.7838 70.7276 32.6298 70.3705C32.5165 70.108 32.1517 69.9871 31.9084 69.8889ZM34.8545 73.7137C34.919 73.0903 33.9225 73.148 33.9551 73.7283C33.9743 74.0717 34.814 74.1041 34.8545 73.7137ZM35.9809 73.738C36.0262 73.6257 35.1467 73.1255 35.1324 73.5891C35.1196 73.995 35.7588 73.774 35.9809 73.738ZM40.7122 70.9292C40.1835 70.3211 39.6778 70.552 38.9691 70.6105L38.845 70.6199C38.137 70.6758 37.8972 70.7728 37.5768 71.4454L37.5582 71.4848C37.2169 72.2173 36.7805 72.9089 36.5376 73.6844C37.4858 73.6208 38.4305 73.5131 39.3779 73.4391C40.1365 73.3799 40.9413 73.1546 41.6893 73.1933C41.9099 73.2048 42.1179 73.0734 42.292 72.9568L41.9081 72.4424C41.5232 71.9271 41.1326 71.4125 40.7122 70.9292ZM34.4757 69.8896C34.3998 70.3576 34.1915 70.9777 34.2607 71.4487C34.3104 71.7872 34.5518 72.1244 34.7193 72.4251L34.7465 72.4749C34.9412 72.8389 35.024 72.8854 35.3971 73.0296C35.5888 73.1037 36.158 73.4861 36.3425 73.3516C36.6528 73.1255 36.8523 72.3436 37.0139 72.0092L37.0331 71.971C37.192 71.6667 37.6568 70.974 37.3866 70.7187C37.1312 70.4772 36.1274 70.5734 35.7886 70.513L35.6896 70.4961C35.2483 70.4231 34.6633 70.342 34.4757 69.8896ZM45.0014 69.4566L40.6984 70.4203C41.1551 70.9492 41.5954 71.4935 42.0088 72.0569L42.178 72.2887C42.477 72.6925 42.7388 72.9623 43.3536 72.821C43.8866 72.6984 44.5954 72.4633 45.028 72.1188C45.549 71.7039 45.2338 71.1952 45.1261 70.6464C45.049 70.2546 45.0005 69.8564 45.0014 69.4566ZM34.2914 72.1347C34.0612 72.1723 34.0993 72.942 34.4157 72.8246C34.6466 72.7389 34.3542 72.2741 34.2914 72.1347ZM23.2159 71.0428L23.2156 70.9688C23.2116 70.533 23.1497 70.1112 22.556 70.2786C22.2287 70.3709 23.1202 70.9695 23.2159 71.0428ZM33.6089 63.8716C32.5305 64.2731 31.4945 64.8118 30.3938 65.1516C29.9282 65.2953 29.4734 65.293 29.0021 65.3699C28.5441 65.4445 28.1805 65.7456 27.7785 65.9596C27.114 66.3135 25.6489 66.567 25.6289 67.4236C25.6048 68.4547 25.809 69.5543 25.9076 70.5818L26.1826 70.43C27.1629 69.8912 28.1705 69.3708 29.2891 69.2043C29.8631 69.1189 30.4514 69.1217 31.0208 69.2387C31.6448 69.3669 32.1345 69.7349 32.7284 69.9164C33.0401 68.4331 33.2661 66.9151 33.4964 65.4168L33.5197 65.2715C33.5959 64.8102 33.6886 64.3369 33.6089 63.8716ZM37.9583 69.886C37.9437 69.4394 35.2933 69.7815 34.9385 69.9006L34.9616 69.9119C35.3841 70.1094 37.9899 70.8594 37.9583 69.886ZM38.9772 69.895L38.9022 69.8756C38.4066 69.7502 38.2836 69.8117 38.1235 70.3378C38.3717 70.3146 39.308 70.3905 39.5147 70.2012C39.7407 69.9944 39.1538 69.9376 38.9772 69.895ZM39.2416 55.3165L39.2236 55.2944C38.9809 55.0044 38.9706 54.8779 38.6327 55.0636C38.3562 55.2154 38.0588 55.6263 37.8149 55.8365C37.5249 56.0865 37.2253 56.3256 36.9141 56.549C36.6699 56.724 36.3122 56.8664 36.1287 57.105C35.7407 57.6094 35.8923 58.7454 35.8065 59.3776L35.8001 59.4208C35.6625 60.2796 36.2317 60.97 36.5902 61.7154L36.6269 61.7907C36.9331 62.4078 37.0905 62.4471 37.797 62.5592C39.3402 62.8038 39.4793 64.6839 39.368 65.9378C39.2914 66.8008 39.0647 67.6468 38.7983 68.4686C38.7311 68.6763 38.5256 69.001 38.5394 69.2111C38.5619 69.5533 38.8688 69.5155 39.1744 69.6051C39.9996 69.847 40.4664 70.1124 41.3491 69.9229L43.6815 69.4186C43.9483 69.3615 44.576 69.3566 44.781 69.1798C45.0042 68.9873 44.8856 68.6374 44.8384 68.3686L44.8338 68.3411C44.7372 67.7329 44.7341 67.1894 44.0562 67.1468L43.4615 67.1124C42.2559 67.0357 40.6894 66.8277 40.5694 65.3949C40.4499 63.9669 42.3407 63.5915 43.3484 63.4234C44.0664 63.3037 43.5233 62.36 43.377 61.8678C43.1714 61.1761 43.0192 60.3842 42.6056 59.7794L42.5367 59.8681C41.9891 60.5835 39.3961 64.07 38.8613 62.3947C38.6295 61.6691 39.5643 60.6348 40.0343 60.2014C40.6943 59.5932 41.4926 59.1608 42.3977 59.0826C42.1871 58.4638 42.0251 57.8566 41.8616 57.2261C41.6791 56.5222 41.3816 56.762 40.8022 56.8677C40.1619 56.9846 39.6007 55.7642 39.2416 55.3165ZM38.4633 68.5617C37.6042 68.5597 36.7495 68.5616 35.8918 68.5856L35.524 68.5973C35.2559 68.6069 34.8279 68.524 34.6421 68.7635C34.5516 68.8799 34.5053 69.3982 34.6296 69.5088C34.7987 69.6592 35.53 69.4387 35.7105 69.4207C36.1824 69.3736 36.656 69.3493 37.1301 69.3469C37.4093 69.3453 37.9334 69.46 38.18 69.2712C38.378 69.1198 38.4026 68.7827 38.4633 68.5617ZM35.1538 64.164C35.0999 64.6618 35.0397 65.1588 34.9784 65.6557L34.9168 66.1526C34.887 66.3936 34.5795 67.3635 35.0392 67.338C35.4605 67.3146 35.8746 67.2253 36.2913 67.1658L35.1538 64.164ZM38.2359 63.0505L38.1905 63.0272C37.7088 62.7878 37.0912 62.7498 37.2926 63.436C37.3871 63.7577 37.5478 64.0425 37.6109 64.3755L37.625 64.447C37.6749 64.6877 37.7063 64.7016 37.8332 64.8903C37.9022 64.9929 37.8705 65.3943 37.916 65.5443C37.9778 65.748 38.0444 65.9493 38.1037 66.1542C38.26 66.6933 38.4277 66.8448 38.882 67.1789L38.9118 67.0697C39.2123 65.9287 39.459 63.7025 38.2359 63.0505ZM43.8581 63.7422C43.7296 63.1676 41.6774 64.1232 41.3437 64.397C40.4738 65.1113 40.8917 66.1109 41.823 66.5157L41.856 66.5297C42.257 66.6957 44.1912 67.267 44.4061 66.7844C44.5329 66.4998 44.2218 65.7847 44.1655 65.4887C44.0558 64.9097 43.9866 64.3171 43.8581 63.7422ZM29.4187 53.6071L29.3736 53.5978C28.8975 53.4905 28.3347 53.106 28.3762 53.7881C28.4692 55.3201 28.3581 56.8078 28.3684 58.3331C28.3724 58.9229 28.4331 59.5959 28.1071 60.0885C27.7365 60.6483 27.3121 61.1279 26.7411 61.4922C26.4397 61.6847 26.1335 61.8317 25.7679 61.8404C25.4906 61.847 25.3344 61.7039 25.1794 61.9382C25.049 62.1356 25.2804 62.844 25.3033 63.0974C25.3375 63.4746 25.3529 63.8539 25.3725 64.2322C25.4133 65.0164 25.4637 65.8003 25.5109 66.5842C26.5628 66.3299 27.4846 65.742 28.4147 65.2134C27.3625 64.2247 28.4962 62.4626 29.1398 61.5689C30.0127 60.3568 31.1035 59.4201 32.2141 58.4375L32.0924 58.4365C30.7671 58.4163 29.0396 58.1062 28.9183 56.4918C28.8561 55.6645 29.2536 54.9389 29.9353 54.4853C30.2015 54.3081 31.8497 53.8424 31.8796 53.6549C31.0737 53.6529 30.2117 53.7561 29.4187 53.6071ZM34.1657 61.2987C32.8096 62.7039 31.1694 63.7824 29.5689 64.8829C30.0417 65.171 31.4117 64.377 31.8702 64.2051C32.3724 64.0167 33.6798 63.7979 33.8945 63.1862C33.9896 62.9152 33.9421 62.5609 34.0344 62.2643L34.0676 62.1561C34.1537 61.8706 34.2151 61.6073 34.1657 61.2987ZM34.8719 58.0835C34.7727 57.7084 34.3352 57.98 34.0518 58.0701C32.3196 58.6203 30.962 59.8123 29.8214 61.2078C29.2708 61.8817 28.7719 62.5998 28.4718 63.4201L28.4027 63.6141C28.2888 63.9256 28.1503 64.2704 28.313 64.5801C28.5432 65.0176 28.8928 64.9253 29.2399 64.7047C30.8243 63.6976 32.2785 62.5249 33.7429 61.3551C34.4711 60.7738 34.4259 59.9174 34.6328 59.0622C34.683 58.8551 34.9304 58.3042 34.8719 58.0835ZM42.4399 59.6535C42.7797 58.9675 41.1209 59.7728 40.9792 59.8559C40.2472 60.2845 39.4156 60.9801 39.1934 61.839C38.9078 62.9431 40.2041 62.1228 40.5691 61.7832C40.9008 61.4747 41.1821 61.1149 41.4795 60.7744C41.775 60.4359 42.2391 60.059 42.4399 59.6535ZM37.9619 53.4359L37.9427 53.4371C37.6881 53.468 37.1828 54.4312 37.0552 54.6036C36.6606 55.1368 36.2792 55.6854 35.8685 56.2062L35.7856 56.3097C35.5178 56.6366 35.3333 56.7674 35.1436 56.2762C34.9509 55.7768 34.9556 55.235 34.6587 54.7701C33.5185 52.9842 29.3375 54.0634 29.1815 56.1698C29.0929 57.3636 30.244 57.851 31.226 58.0216C31.9088 58.1402 32.5057 58.1334 33.1569 57.883C33.6936 57.6767 34.3165 57.6128 34.8304 57.3843C35.1956 57.2219 35.2821 56.8442 35.6389 56.7287C35.8855 56.6486 36.0381 56.7421 36.3033 56.5754C36.5889 56.3958 36.8544 56.1596 37.1216 55.9537C37.523 55.6442 38.3111 55.2112 38.5174 54.7265C38.6163 54.4938 38.307 53.434 37.9619 53.4359ZM37.428 52.0533C36.7277 52.4532 35.9679 52.6949 35.2152 53.0028C34.4522 53.3149 33.5339 53.1813 32.8146 53.5314C33.5004 53.8577 34.1539 53.5758 34.7137 54.2656C35.152 54.8058 35.2961 55.5457 35.4604 56.2034C36.008 55.6246 36.4477 54.9562 36.9185 54.3163C37.2755 53.8309 38.0121 53.2643 37.7065 52.6341L37.428 52.0533ZM32.3549 34.9634C31.664 35.9953 30.7874 36.644 29.5733 36.9759C28.2022 37.3507 26.9147 37.0923 25.5476 36.8636C25.8865 38.4955 26.0419 40.147 26.2582 41.7969C26.4545 43.2919 26.7232 44.7769 26.9803 46.2624L27.0501 46.6676C27.2575 47.8788 27.4729 49.0801 27.7167 50.2828L27.8095 50.7339C27.9387 51.3531 28.0681 51.6137 28.6978 51.7547C29.2095 51.8692 29.747 51.9454 30.2645 52.0333C31.4948 52.2421 32.9259 52.0038 34.1265 51.7037C34.7491 51.548 35.3718 51.3076 36.0103 51.2338C36.2551 51.2055 36.6193 51.2637 36.8296 51.1035L36.9256 51.0316C37.0048 50.9709 36.9591 50.987 36.952 50.8253C36.9407 50.5683 36.645 50.1756 36.5331 49.933C36.389 49.6208 36.247 49.3084 36.12 48.9888C35.8889 48.4069 35.6699 47.8161 35.4569 47.2274C34.9963 45.9551 34.6538 44.5989 34.5048 43.2585C34.3597 41.9538 33.9053 40.6012 33.5475 39.3293L33.5082 39.1884C33.117 37.7738 32.702 36.3907 32.3549 34.9634ZM12.8928 42.6839C12.1803 43.1981 11.8771 44.246 11.4387 44.9759C10.9012 45.8712 10.3296 46.7464 9.77106 47.6283C9.2521 48.4482 8.77046 49.2951 8.24381 50.1101L8.06649 50.3806C7.98402 50.5046 7.49322 51.1043 7.91485 51.0214C8.1002 50.9849 8.54318 50.3611 8.69431 50.1294L8.72713 50.078C9.13288 49.4201 9.63374 48.8407 10.1382 48.2266C10.2807 48.0532 10.3848 47.8673 10.4856 47.7045C10.6902 47.3745 11.0306 47.1357 11.2366 46.8037C11.4167 46.5131 11.4372 46.1785 11.5913 45.8882C11.7537 45.5824 12.0019 45.313 12.1701 45.0117C12.3656 44.6618 12.4851 44.2144 12.6256 43.8399C12.6947 43.656 12.8481 43.4003 12.8751 43.2072C12.8897 43.0331 12.8955 42.8587 12.8928 42.6839ZM30.5544 39.989C30.9158 39.9013 31.1249 41.1889 31.1824 41.3994L31.3135 41.8762C31.4327 42.3145 31.5428 42.7569 31.5915 43.2082L31.6081 43.3636C31.6322 43.6194 31.6266 43.8759 31.3537 43.8419C30.7988 43.7728 31.0755 42.9207 30.9025 42.6225C30.7132 42.2958 29.8082 42.3979 29.4938 42.3671C29.5605 42.6886 29.9416 43.6463 29.7733 43.9605C29.6068 44.2709 29.4643 44.1514 29.306 43.9093C28.9087 43.3022 28.8363 42.1607 28.7746 41.4922L28.7704 41.4542C28.7409 41.2073 28.6158 40.4438 28.8177 40.2835C29.0962 40.0623 29.2037 40.5671 29.2424 40.7948L29.2546 40.87C29.3207 41.2717 29.2852 41.5306 29.7269 41.5974L29.7668 41.6029C30.0585 41.6398 30.6034 41.6355 30.5779 41.3378C30.5651 41.1887 30.2798 40.0557 30.5544 39.989ZM32.0254 41.1016C32.3726 40.9446 33.2739 43.4996 32.6516 43.5901C32.1185 43.6676 31.6609 41.2663 32.0254 41.1016ZM31.6192 40.3064C31.6665 39.738 32.3354 40.0077 32.3098 40.4611C32.2766 41.0487 31.5743 40.8471 31.6192 40.3064ZM24.7559 30.3693L24.7325 30.4264C24.5662 30.8214 24.5132 30.7151 24.2088 30.5652C23.9384 30.4318 23.7507 30.4396 23.4476 30.4686C23.0765 30.5044 23.0339 30.6571 22.7128 30.8469C22.3323 31.0715 22.0207 30.8816 21.6881 30.6559C21.6942 31.4565 20.964 31.8655 20.3774 32.2558C19.7222 32.6918 19.1536 33.2556 18.472 33.6467C17.747 34.0629 16.9787 34.3683 16.1916 34.6385L16.0525 34.6858C15.1779 34.981 15.1046 35.3903 14.9368 36.2273C15.3655 36.2174 15.6336 36.4114 15.4716 36.8296C15.4164 36.9725 15.2571 37.0686 15.1989 37.2137C15.1424 37.3544 15.1505 37.4941 15.0947 37.6289L15.023 37.7993C14.9875 37.8834 14.9533 37.9662 14.9231 38.0496C14.9043 38.1023 14.7802 38.2629 14.7729 38.3091C14.7504 38.4513 14.8111 38.5775 14.7764 38.7261C14.7167 38.9803 14.5487 39.1743 14.5282 39.4485C14.9226 39.2177 15.2341 38.7627 15.5528 38.4392C15.9571 38.0288 16.3572 37.6143 16.7552 37.1976L18.511 35.3569C18.8039 35.0504 19.097 34.7441 19.3908 34.4384C20.1731 33.624 20.9827 32.8731 21.9583 32.2898C22.4744 31.9813 22.8562 31.9946 23.4376 31.9593C23.797 31.9375 24.4833 31.4396 24.7676 31.5894C24.9755 31.699 24.9646 31.9144 25.2476 31.8542C25.4471 31.8118 25.4715 31.7391 25.4812 31.578C25.499 31.2856 24.9665 30.5467 24.7559 30.3693ZM13.6644 21.9711L13.63 21.8896C13.52 21.6205 13.2858 21.0119 13.1072 21.123C13.0038 21.1873 13.1323 21.9575 13.1412 22.0565C13.3205 24.0702 14.165 25.9689 14.5254 27.9436L14.5559 28.118C14.6073 28.4254 14.6529 29.1829 14.1152 29.0568C13.7453 28.9702 13.5592 28.2176 13.4181 27.9262C13.0122 27.0889 12.5843 26.2717 12.2176 25.4145L12.126 25.1988C11.7611 24.3347 11.4081 23.4589 10.8474 22.6992L10.7979 22.6337C10.4919 22.2386 9.96369 21.7313 9.84384 22.5441C9.71595 23.4114 10.0773 24.4052 10.2959 25.2271C10.5662 26.244 10.9136 27.2333 11.264 28.2247C11.409 28.6353 11.9006 29.5005 11.7465 29.9378C11.6029 30.3452 11.335 30.2313 11.0837 29.9899C10.8657 29.7804 10.741 29.4222 10.5699 29.1738C10.2822 28.7564 9.96825 28.3632 9.6993 27.932C9.11119 26.9889 8.66879 25.9769 8.16199 24.9912C7.689 24.0716 7.02385 23.4194 6.19453 22.8141C5.87519 23.3489 6.15512 24.0028 6.34772 24.5305L6.36101 24.5671C6.60118 25.2331 6.79645 25.9045 6.97699 26.589L7.34679 27.9826C7.59318 28.9121 7.83604 29.843 8.05578 30.7781C8.39016 32.2005 8.56193 33.6389 8.69705 35.092C8.80417 36.2429 8.62504 37.0393 8.04932 37.9615C9.09777 37.8277 10.0954 37.539 11.1181 37.2831C11.6641 37.1466 12.2116 37.0163 12.759 36.8851C13.0372 36.8184 14.0108 36.7492 14.1645 36.4958C14.347 36.1952 14.1058 35.3358 14.1129 34.9877C14.1221 34.5276 14.1713 34.0068 14.4793 33.6359C14.7699 33.2858 15.3473 33.2095 15.7491 33.0235C16.2797 32.7775 16.8001 32.5085 17.3305 32.2628L17.3669 32.2468C17.8356 32.0489 19.6214 31.5643 19.4783 30.9666C19.2715 30.1019 17.2311 31.0691 16.661 30.6623C16.2591 30.3755 16.1027 29.6318 15.9486 29.1966L15.7783 28.7164C15.6655 28.3961 15.5552 28.0749 15.4547 27.7502C15.1803 26.8642 14.9592 25.9629 14.7148 25.0684C14.4274 24.0165 14.1142 22.9668 13.6644 21.9711ZM26.836 19.4196C26.4657 19.2206 26.2484 19.6465 25.9117 19.8572C25.4157 20.1674 24.8871 20.3918 24.4045 20.7316C23.9781 21.0318 23.5635 21.389 23.0629 21.551L22.9959 21.5733C22.5292 21.7329 22.3509 21.8999 22.3425 22.47C22.3358 22.9386 22.5208 23.4377 22.5999 23.8991C22.6879 24.4141 22.6435 25.0055 22.8474 25.4921C22.9535 25.7455 23.1682 25.9476 23.2614 26.2067L23.2803 26.2607C23.3868 26.5754 23.3105 26.5645 23.0039 26.5987C22.573 26.6468 22.1257 26.6007 21.7472 26.8992C21.2556 27.2869 21.0524 28.4836 21.6852 28.8133C22.1199 29.0399 22.5257 28.8308 22.8573 28.556C22.9624 28.469 23.2713 28.075 23.3985 28.0721C23.5915 28.0675 23.5665 28.2257 23.6833 28.3377C23.9808 28.6227 24.3053 28.5278 24.6264 28.8034C24.9591 29.0889 25.1996 29.5157 25.4354 29.888L25.477 29.9531C26.026 30.8041 26.4633 31.7454 26.368 32.7853C26.3165 33.3459 26.1822 33.3213 25.7763 33.5724C25.4881 33.7505 25.3289 34.0946 24.9502 33.8512C25.0696 34.3781 25.0887 35.192 25.3485 35.6647C25.574 36.0746 25.9663 35.9665 26.3787 35.9059L26.409 35.9015C27.617 35.732 28.7953 35.7007 29.9311 35.2034C30.4564 34.9735 30.9708 34.6889 31.4628 34.3951C31.9553 34.1012 32.0912 33.8703 31.9824 33.3166L31.9744 33.2774C31.8665 32.7663 31.7639 32.5008 31.2905 32.2783L31.2513 32.2604C30.7549 32.039 30.3423 31.772 30.0274 31.3163C29.4828 30.528 29.2712 29.2401 30.2902 28.7851L30.584 28.6536C31.5489 28.2193 32.5452 27.7214 33.0717 26.7346C33.5272 25.8814 32.7564 25.2889 32.1828 24.7547C31.3872 24.0139 30.8016 22.8423 29.8528 22.291C29.7651 23.2458 28.9006 22.1983 28.518 22.0747C27.9428 21.889 28.1223 22.5882 28.4853 22.8072L28.5189 22.8267C29.0983 23.152 31.201 23.8329 30.0392 24.6858L29.9903 24.7205C29.6345 24.9653 28.8973 25.311 28.7971 24.6421C28.7736 24.4842 28.8817 24.3949 28.8928 24.2583C28.9137 24.005 29.0213 24.2028 28.8557 23.9784C28.7138 23.7858 28.3722 23.652 28.189 23.485C27.7267 23.0635 27.5933 22.5279 27.5225 21.9269L27.516 21.8704C27.4406 21.1898 27.5679 21.0377 28.1153 20.69C27.7412 20.3403 27.276 19.656 26.836 19.4196ZM22.7457 26.9433L22.7673 26.944C22.9889 26.9564 23.2576 27.188 23.1212 27.4354C23.0387 27.5847 22.7335 27.6205 22.5914 27.633C21.8602 27.6977 22.2514 26.9379 22.7457 26.9433ZM27.7644 25.9715C27.5387 25.1286 28.6453 25.8185 29.0168 25.8792C29.5909 25.9731 30.4131 25.256 30.6101 26.0633C31.0032 27.6753 28.0851 27.1669 27.7644 25.9715ZM25.2628 22.6697C25.7703 22.4936 27.1688 23.1996 27.0316 23.8393C26.8351 24.7558 25.7836 23.2667 25.3809 23.858C25.1679 24.1711 25.3818 24.5243 25.4472 24.7995C25.4885 24.9725 25.6813 24.9252 25.5048 25.0985C25.3929 25.2081 25.1645 25.0706 25.0899 25.0129C24.5236 24.5749 24.5204 22.9274 25.2628 22.6697ZM51.1328 3.21003C49.9972 4.08066 48.8902 4.98795 47.7535 5.85742C47.2248 6.26188 46.6914 6.66015 46.1612 7.06254C45.7273 7.39213 44.9938 7.75386 44.6718 8.1893C44.3251 8.65805 45.0551 9.26533 45.3399 9.66346C45.6062 10.0359 45.8605 10.4169 46.1121 10.7996L46.4134 11.2592C47.0749 12.2683 47.7308 13.281 48.4072 14.2802L48.6985 14.7075C49.3035 15.5889 49.885 16.4851 50.462 17.3846L50.9558 18.1562C51.286 18.6728 51.6163 19.1893 51.9434 19.7077C52.1209 19.9889 52.2865 20.2829 52.4761 20.5559L52.5529 20.6665C52.6751 20.8384 52.6986 20.8242 52.9645 20.7583C53.46 20.6357 54.0069 20.1957 54.4571 19.9566L55.0006 19.6675C55.3627 19.4742 55.7237 19.2789 56.0811 19.077L56.3484 18.9244C57.4352 18.2961 58.6158 17.7189 59.6285 16.9803C60.0254 16.6906 59.185 15.5397 58.7723 15.6163C58.4186 15.6818 58.0221 15.9896 57.6911 16.1416C57.358 16.2943 57.0221 16.4406 56.6843 16.5826L56.3509 16.7218C55.7693 16.9697 54.9636 17.3762 54.3414 17.1421C53.5591 16.8477 53.8521 15.9844 54.1339 15.4433C53.2092 15.2288 51.762 16.2708 50.906 15.5567C49.7083 14.5579 51.93 13.4186 52.5424 13.0277C52.212 12.8415 51.5532 13.0921 51.1691 13.1606L51.1339 13.1665C50.6104 13.2473 50.0782 13.3888 49.5443 13.3803C48.6515 13.366 48.1595 12.4662 48.6604 11.6863C49.1689 10.8943 50.4003 10.3301 51.2052 9.91262C52.2951 9.3473 53.34 8.71963 54.3742 8.0593L54.0762 7.64875C53.0346 6.21035 52.0128 4.75426 51.1328 3.21003ZM54.3163 4.28192C54.5505 4.75132 54.7682 5.23156 55.0379 5.68211C55.269 6.06785 55.6622 6.44417 55.8416 6.85134C56.1512 7.55376 55.4169 8.66309 54.9721 9.17109C54.3827 9.84433 53.667 10.3487 52.892 10.7842C52.5281 10.9887 52.1617 11.191 51.7908 11.3833L51.5676 11.4974C51.465 11.5492 50.8383 11.7689 51.1921 11.8425C51.5405 11.9149 52.1781 11.6215 52.5357 11.5389C53.0456 11.4211 53.5539 11.2965 54.061 11.1671C54.5422 11.0442 55.0238 10.9184 55.4847 10.7308C55.7752 10.6127 56.2054 10.3004 56.5275 10.4663C57.9566 11.2024 53.6983 13.6841 53.2276 13.9989C54.6363 13.7832 56.1244 13.3284 57.4287 12.7448L57.5585 12.686C58.101 12.4375 58.5327 12.6404 58.3761 13.3201C58.2431 13.8985 57.4921 14.2766 57.0582 14.6146C57.2964 15.0526 59.8608 12.8303 60.3865 13.643C60.5406 13.8812 60.4726 14.2667 60.6156 14.55C60.7735 14.8631 60.9117 15.1687 61.0274 15.5008C61.2765 16.2155 61.5759 16.9469 61.7636 17.6796L61.7816 17.7524C61.9617 18.5039 61.8638 18.8403 62.7741 18.7501C63.519 18.6762 64.2633 18.5943 65.0097 18.5342C65.674 18.4809 66.3888 18.5237 67.0403 18.3713C67.7315 18.2098 67.6891 17.5512 67.7631 16.9368L67.7674 16.9027C67.8962 15.9007 67.8313 14.8724 67.7929 13.864L67.7876 13.7201C67.7525 12.7201 67.68 11.7173 67.3819 10.7561C66.873 9.11544 65.867 7.78871 64.4168 6.86515C63.732 6.4292 63.0145 6.2026 62.221 6.09147L62.1325 6.0796C61.1806 5.95708 60.2043 5.72006 59.2674 5.50808C58.4396 5.32076 57.6068 5.27971 56.7716 5.04876C56.3552 4.9336 55.9488 4.80825 55.5486 4.65333C55.1484 4.49854 54.7083 4.45439 54.3163 4.28192ZM42.4387 16.0343L42.5327 15.7808C42.6788 15.3941 42.9426 14.7793 43.2194 14.885C43.6262 15.0401 43.2379 15.4056 43.2157 15.5946C43.2041 15.6939 43.3012 15.7971 43.2795 15.9319C43.224 16.276 42.9248 16.9428 42.6503 17.1732C42.4649 17.3285 42.2351 17.1451 42.1708 16.9562C42.0932 16.7284 42.3459 16.2698 42.4387 16.0343ZM40.8756 11.4045C40.9705 11.8927 40.8523 12.2412 40.5951 12.6394C40.3814 12.9706 39.919 13.0964 39.7452 13.4387C39.6143 13.6966 39.3604 13.8298 39.0723 13.7879L39.0975 14.1792C38.1368 14.1769 38.6597 13.2605 39.0279 12.822C39.4684 12.2972 40.2173 11.6262 40.8756 11.4045ZM46.3832 7.87643C46.6945 7.62591 47.0564 8.02785 47.2289 8.27762C47.5669 8.76657 47.7159 9.3536 47.9804 9.88378C47.219 10.3064 46.5461 9.65292 46.2613 8.91938C46.1554 8.64692 46.1073 8.09859 46.3832 7.87643ZM36.6244 7.04552C36.9302 6.88722 37.3983 7.00202 37.7166 7.0518L37.9497 7.08614C38.222 7.1275 38.4062 7.17558 38.6116 7.41939C38.6842 7.50567 38.7736 7.47075 38.8206 7.57733C38.8767 7.70517 38.5907 7.71243 38.817 7.84353C38.562 8.03857 38.132 7.86553 37.8173 7.85852L37.4523 7.85283C37.1712 7.84708 36.9086 7.83036 36.609 7.74421C36.178 7.62023 36.3026 7.21215 36.6244 7.04552ZM38.9155 2.53C39.3 2.45727 40.2921 3.22396 40.601 3.50298L40.6416 3.54041C40.8949 3.77885 41.664 4.5777 41.1521 4.84856C40.7238 5.07504 39.3979 4.14361 39.0902 3.87919C38.8134 3.64119 38.1317 2.67836 38.9155 2.53ZM45.8958 0.999571C46.1062 0.974244 46.2932 1.83548 46.3136 2.08528C46.3393 2.4024 46.1822 2.66393 45.9338 2.89454C45.5112 3.28723 45.1971 1.08395 45.8958 0.999571Z" fill="#010101"/>
</svg>
