<svg width="120" height="65" viewBox="0 0 120 65" fill="none" xmlns="http://www.w3.org/2000/svg">
<path fill-rule="evenodd" clip-rule="evenodd" d="M22.1553 39.1848L22.4777 43.2276L28.6029 44.6831L33.2773 46.7854L36.9847 50.0197L38.7578 48.5643L41.0144 43.5511L43.5935 43.0659L52.9425 44.0362L56.1663 45.0065L55.0379 50.5049L53.9096 54.5477L72.6076 53.4157L71.9628 44.0362L68.0943 35.4653L52.7813 28.0264L41.3368 29.4818L33.2773 38.3762L29.7312 40.3168L23.4448 39.9933" fill="#952F1F"/>
<path fill-rule="evenodd" clip-rule="evenodd" d="M99.2526 2.02454C100.512 3.55591 98.6564 5.72149 97.6039 6.79001C97.0932 7.3088 96.6698 7.90835 96.1706 8.44003C95.6773 8.96543 95.0582 9.37894 94.6151 9.88612L94.2778 10.27C93.9056 10.694 93.5217 11.1427 93.2243 11.6009C92.9782 11.9806 92.6131 12.4046 92.4909 12.8452L92.473 12.9104C92.3287 13.4429 92.4651 13.1379 92.6817 13.4522L92.7357 13.5339C92.9346 13.8313 93.0113 13.8855 93.0846 14.3228L93.0919 14.3679C93.17 14.8636 93.2812 15.2263 93.549 15.6498L93.67 15.8392C94.0754 16.4676 94.4948 17.0733 94.7776 17.7745C95.1912 18.8003 95.4839 19.8417 95.8134 20.897C95.9419 21.3086 96.028 21.78 96.2355 22.1592L96.2807 22.2407C96.521 22.6665 96.5875 22.6395 96.9425 22.3681L97.0097 22.3167C98.3179 21.3139 99.6409 20.2539 101.005 19.2983C101.786 18.7508 102.597 18.2147 103.422 17.7351L103.491 17.6952C104.082 17.3599 105.215 16.7961 105.487 16.2091C105.862 15.3988 105.278 14.6553 106.083 13.9092C106.607 13.4233 107.461 13.1539 108.143 13.0359C109.108 12.8692 110.174 13.1073 111.138 13.1936C112.113 13.2806 113.066 13.1858 114.021 12.9864C115.484 12.6812 118.295 10.9925 119.243 13.0212C119.649 13.8904 119.389 14.8515 119.305 15.7454L119.299 15.8023C119.232 16.5953 118.999 17.4372 118.505 18.0895C117.94 18.8348 117.118 18.8738 116.264 19.0718C115.332 19.2874 114.377 19.3765 113.441 19.5682L113.207 19.6184C112.709 19.7306 112.218 19.7853 111.707 19.8088C111.252 19.8299 110.595 19.6455 110.196 19.7037C109.817 19.7588 109.947 19.9979 109.681 20.1637C109.573 20.2309 109.353 20.1827 109.286 20.2368C109.101 20.3855 109.047 20.5149 108.912 20.7842C108.484 21.6394 107.836 22.473 107.286 23.2565C106.822 23.9165 106.285 24.7247 105.739 25.3136C104.583 26.5624 103.46 27.9383 102.318 29.2432C101.738 29.9071 101.041 30.6134 100.366 31.1841C100.158 31.3603 99.7371 31.5187 99.6306 31.7654C99.4787 32.117 99.8918 32.8908 99.9883 33.2442C100.217 34.0844 100.249 34.9523 100.492 35.7798C100.714 36.5352 100.801 37.3558 100.853 38.1464L100.861 38.2591C100.977 40.1237 101.232 41.8922 101.172 43.7579L101.157 44.2053C101.105 45.6542 101.01 47.0568 100.503 48.4895C99.9944 49.9274 98.4709 51.4928 97.0539 52.0225L96.7748 52.1265C96.0356 52.4003 95.3327 52.6437 94.5783 52.7957L94.1885 52.8742C93.4694 53.0194 92.7287 53.1742 92.0245 53.3754C90.4803 53.8165 88.8527 54.1246 87.249 54.2757C85.1964 54.4689 83.0551 54.4875 81.0078 54.4164C80.0742 54.384 79.1146 54.3821 78.1932 54.3848C77.2384 54.3877 76.3389 54.5758 75.3845 54.6759C72.0163 55.0292 68.4567 54.7453 65.0904 55.0908C63.4266 55.2615 61.7654 55.5902 60.0727 55.6099C58.5572 55.6273 57.0206 55.5273 55.5387 55.5207C55.0687 55.5186 54.6591 55.5562 54.1895 55.4483C53.9418 55.3914 53.5936 55.1699 53.3435 55.2976C53.1251 55.409 52.9604 55.8789 52.8249 56.079C52.5291 56.5167 52.1685 56.8681 51.7878 57.231C50.3452 58.606 48.915 59.1105 47.0629 59.6126L46.6026 59.736C45.838 59.9421 45.4026 60.0864 44.7261 60.5683L44.6708 60.6081C44.048 61.0598 43.4178 61.3844 42.7009 61.6507C41.3173 62.1647 39.6895 61.7816 38.3787 61.3374L38.3155 61.3159C37.6757 61.0964 37.0033 60.8969 36.3496 60.6363C35.4591 60.2817 34.7242 59.6924 33.8467 59.33C33.9473 60.2664 32.9317 60.5809 32.6236 61.2101C32.4246 61.6167 32.5452 62.2551 32.3329 62.7147C32.1361 63.141 31.8318 63.544 31.3571 63.6555C30.7104 63.8074 29.5542 63.0879 29.0998 62.6681C28.8476 62.435 28.6225 61.8143 28.3136 61.711C27.9108 61.576 27.1724 62.1721 26.7912 62.3065C24.9666 62.9506 23.1178 63.2543 21.1587 62.9978C19.1738 62.7378 17.3542 62.0329 15.4928 61.3645C11.8472 60.0556 8.67405 57.9009 5.81941 55.3063C5.66062 55.1618 5.43015 55.0332 5.32064 54.8439C5.22497 54.6787 5.23335 54.2886 5.17086 54.1963C4.98485 53.9218 4.70623 53.9703 4.35739 53.944C3.27964 53.8626 2.42349 53.6024 1.58812 52.8802C0.273295 51.7433 -0.21308 49.0928 1.80248 48.3888C2.31768 48.2087 2.88474 48.1729 3.41734 48.2838C3.63701 48.3296 4.45418 48.8249 4.66291 48.7917C4.97937 48.7414 4.91785 48.334 5.00192 48.1163C5.21515 47.5648 5.51519 47.0792 5.87691 46.6112C6.47811 45.8332 7.21074 45.0512 7.96252 44.4181C8.65547 43.8343 9.4079 43.526 10.2139 43.2133L10.7307 43.0127C11.4052 42.7536 12.6116 42.3555 13.2782 42.5761C14.1817 42.8751 13.7394 43.8625 13.1701 44.2079C12.357 44.7013 11.3812 44.9035 10.5572 45.4028C9.64792 45.9538 8.81738 46.7084 7.98523 47.3707C7.31558 47.9037 6.73531 48.5614 6.05503 49.0725L5.96113 49.1442C5.7865 49.2796 5.57112 49.4569 5.52405 49.5197C5.50456 49.5456 5.52856 49.7564 5.43933 49.85L5.28709 50.0103C5.06634 50.2379 5.04604 50.2003 4.60611 50.0892L4.39962 50.0389C3.63539 49.8578 2.13158 49.566 1.68716 50.3833C1.26086 51.1671 3.00569 51.8734 3.57855 52.1125C4.41956 52.4633 4.61604 52.8157 5.21692 53.4843C5.81322 54.1482 6.79146 54.606 7.55308 55.0984L7.62609 55.1462C9.2928 56.2502 11.1663 57.0335 12.9512 57.9107C14.5021 58.6727 16.1568 59.2442 17.7818 59.7829L18.3653 59.9757C19.458 60.3362 20.7675 60.7229 21.9144 60.834C22.9954 60.9388 24.0135 60.7806 25.0686 60.5792L25.2874 60.537C25.7408 60.4488 26.083 60.3813 26.5572 60.2141C26.7683 60.1396 27.1128 60.1287 27.2805 59.9984C27.5404 59.7964 27.4323 59.635 27.4784 59.29C27.6777 57.7923 28.7082 59.4326 29.1795 59.9543L29.1936 59.9697C29.5519 60.3584 29.9048 60.8362 30.3765 61.0826L30.438 61.1139C30.9652 61.3752 31.0733 61.2329 31.2538 60.7638L31.2877 60.674C31.6333 59.7373 31.7933 58.7047 33.1337 58.8415C32.0516 57.9157 31.0204 57.1291 30.0942 56.0166C29.1804 54.9191 28.326 53.7396 27.4497 52.6116C26.7314 51.687 26.1059 50.4112 25.1736 49.6819L25.1287 49.6478C24.7967 49.4031 23.9671 48.9207 23.6418 48.9313C23.1314 48.9479 22.6783 49.7818 22.1284 49.8511C21.5211 49.9279 21.2415 49.7159 21.0681 49.2227C20.8882 48.7112 21.3182 48.1225 21.1729 47.7505C21.1325 47.647 20.874 47.5231 20.7941 47.3728C20.674 47.1471 20.6653 46.8502 20.7012 46.6003C20.7548 46.2272 20.8867 46.075 20.8585 45.6997C20.8258 45.2636 20.6347 44.9448 20.7853 44.4887C20.9432 44.0096 21.4295 43.7471 21.7329 43.3932C22.1837 42.8676 21.966 42.4689 21.7836 41.8037L21.7733 41.7658C21.3787 40.2936 20.9186 38.8382 20.5182 37.3668C19.5975 37.6581 18.6972 37.9884 17.7717 38.2599C16.9144 38.5115 15.8609 38.7382 15.0465 39.1226L14.9037 39.192C14.4668 39.4003 14.5964 39.2071 14.6318 39.7377C14.6553 40.0937 14.8057 40.4916 14.8756 40.8425C15.0046 41.4909 15.0609 43.164 15.5686 43.4737C15.8761 43.6614 16.3708 43.3887 16.7089 43.7676C16.9936 44.0861 16.9083 44.5496 17.0796 44.9038C17.1861 45.124 17.3921 45.2079 17.5203 45.4102C17.7787 45.8186 17.761 46.1642 17.802 46.6144L17.8066 46.663C17.8362 46.9614 17.7903 47.8555 17.9388 48.0875C18.1369 48.3968 18.5294 48.3432 18.8604 48.4396C19.6943 48.6823 20.4623 49.1047 21.1705 49.5972L21.1952 49.6268C21.6417 50.151 24.1455 52.6849 23.026 53.013C22.4744 53.1747 21.4984 51.9321 21.1014 51.5942C20.486 51.0707 19.8415 50.7269 19.0912 50.4381L18.6649 50.2747C16.9989 49.6402 15.4471 49.1231 13.6087 49.3928C12.7536 49.5181 11.715 49.8968 10.8561 49.8134C9.99177 49.7296 10.2156 48.9585 10.7561 48.5282C11.2394 48.1436 11.9121 48.2517 12.1242 47.6067C12.3383 46.9551 12.1085 46.1316 12.452 45.4787C12.7453 44.9211 13.4367 44.3423 13.9704 44.0192C14.2031 43.8785 14.602 43.7802 14.7236 43.5727C14.8211 43.4062 14.4305 42.4696 14.3598 42.2385L14.3554 42.2238C14.0765 41.2301 13.7724 40.2354 13.5362 39.2309L13.5027 39.0857C13.314 38.2488 13.3124 37.7993 14.2408 37.4794C15.7374 36.9636 17.3066 36.7224 18.8038 36.2481C18.5384 35.5567 17.7089 36.1385 17.113 36.1145C16.3831 36.0851 15.5385 35.8449 14.8434 35.6207C13.2655 35.1114 12.1917 33.8417 11.9479 32.2044C11.8943 31.8452 12.0632 31.1249 11.9324 30.8073C11.8091 30.5073 11.4602 30.3614 11.2053 30.1476C10.5482 29.5969 9.96616 28.8408 9.61169 28.0583C9.25641 27.274 9.23161 26.393 9.43807 25.5653L9.45942 25.4817C9.55913 25.0996 9.60567 25.0187 9.45531 24.6152C9.26913 24.1165 8.96555 23.6723 8.79387 23.1596C8.51267 22.32 8.35935 21.4148 8.37465 20.5282C8.39205 19.5335 8.79097 19.0872 9.05525 18.2102C9.26382 17.518 8.97924 16.5612 9.02691 15.793C9.08795 14.8101 9.33951 14.0204 9.77387 13.1455C10.4413 11.8013 11.4981 10.3604 12.8736 9.65559C13.1456 9.51614 13.5927 9.50791 13.8357 9.34589C14.1377 9.14454 14.1614 8.84774 14.2796 8.49501C14.5616 7.6538 14.9137 6.97235 15.5234 6.32926C17.5009 4.24364 20.9663 3.50496 23.7454 3.68101C24.2445 3.71277 24.7202 3.94894 25.1932 3.81014C25.521 3.71389 25.8682 3.37244 26.2061 3.23106C26.6337 3.05211 27.0621 2.94749 27.5222 2.9017C28.4308 2.8111 29.1699 2.90686 30.0074 3.21365C30.3235 3.32956 30.6263 3.45611 30.9379 3.58186C31.4299 3.78064 31.4019 3.686 31.8646 3.59379C32.7868 3.41017 33.3166 3.54607 34.1337 3.93959C34.3514 4.04438 34.6959 4.12225 34.883 4.26911C35.1481 4.47724 35.2562 5.10968 35.5512 5.22769C35.7149 5.2933 36.2209 5.05197 36.4319 5.01763C36.8042 4.95685 37.1688 5.01038 37.5392 5.00634L37.6666 5.00543C38.2843 5.00358 38.9272 5.04361 39.4875 5.33377C39.9386 5.56721 40.4815 6.01764 40.8699 6.31766C41.4074 6.73262 41.7432 7.51725 42.4143 7.73456C42.6771 7.81968 42.9615 7.7336 43.2298 7.80614C43.5796 7.90061 43.9156 8.15404 44.1989 8.37781C44.6862 8.76262 45.0983 9.6572 45.5949 9.81357C45.9262 9.91804 46.4412 9.80906 46.8203 9.91723C47.2961 10.053 47.6905 10.2497 48.0432 10.6096C48.7159 11.2964 48.9059 12.3116 48.9347 13.2427C48.9425 13.4938 48.7877 14.2015 48.9381 14.4243C49.0716 14.6219 49.5748 14.7359 49.7796 14.9387C50.42 15.5728 50.7092 16.6294 50.774 17.498C50.8457 18.4582 50.6078 19.1437 50.4327 20.0479L50.4159 20.1361C50.3081 20.7172 50.1692 20.3611 50.6383 20.6797L50.7466 20.7552C51.045 20.9652 51.2608 21.1343 51.4644 21.4783C51.9288 22.263 52.0456 23.188 51.969 24.0823C51.8731 25.198 51.3074 26.0296 51.0529 27.0852C52.2253 27.0852 53.4883 27.3951 54.6337 27.6112C55.0563 27.691 55.3837 27.9233 55.7588 28.1097C56.0825 28.2704 56.3239 28.2891 56.6295 28.3957L56.8322 28.4658C57.346 28.6394 57.2789 28.5559 57.7399 28.0829C59.7883 25.9817 62.704 24.7131 65.6443 24.7544C67.2843 24.7773 68.8708 24.9938 70.404 25.5841L70.6801 25.6904C71.2384 25.9065 71.8264 26.1473 72.3097 26.4761L72.4195 26.55C72.9769 26.9202 73.1107 26.9167 73.9233 26.9337C77.0498 26.9985 80.0835 28.6777 82.3588 30.713C82.5598 29.363 84.7302 28.5474 85.8168 27.9823L85.853 27.9633C86.2199 27.77 86.5569 27.6693 86.7375 27.307C86.9064 26.968 86.8964 26.2706 87.0093 25.8713L87.0541 25.7117C87.2495 25.0103 87.4548 24.1853 87.4374 23.4672C87.3838 21.2281 86.8657 18.9994 86.7985 16.7551C86.7816 16.1915 86.7177 15.5589 86.7926 15.0008C86.853 14.5512 87.0581 14.2708 86.7631 13.8546C86.203 13.0644 85.1701 12.8671 84.8229 11.827C84.2633 10.1508 85.2246 8.43681 86.5371 7.43986C87.293 6.86594 88.0314 6.74439 88.6371 5.93977C89.1826 5.21479 89.6437 4.35746 90.2655 3.69842C90.787 3.14594 91.2619 2.40565 91.8596 1.94586C92.4722 1.47448 93.3718 1.15576 94.1035 0.93183C95.8599 0.394021 98.0167 0.522349 99.2526 2.02454ZM44.3514 44.1313C43.9428 44.1487 43.5316 44.1946 43.1222 44.1942C42.8733 44.1938 42.2946 44.0594 42.0703 44.1542C41.6219 44.3439 41.259 45.3821 41.0495 45.7965C40.3707 47.1397 39.8362 48.5481 39.1739 49.8964C38.8294 50.5979 38.315 51.0591 37.5022 51.0704C36.5915 51.083 36.1629 50.4994 35.5849 49.9006C34.4324 48.7062 32.881 47.6794 31.4504 46.8487C29.9366 45.97 28.1376 45.1178 26.411 44.7856L26.2311 44.752C25.025 44.5192 22.433 43.6743 21.7345 45.1145L21.9276 45.0889C22.4435 45.0241 23.4969 44.9347 23.5481 45.4694C23.5924 45.9317 21.882 46.0107 21.6707 46.7357C22.118 46.7009 23.6616 46.2699 23.7702 46.9346C23.8278 47.288 23.1828 47.466 22.9559 47.5851C22.5063 47.8216 22.2355 48.0672 21.8815 48.4226C22.4277 48.4226 22.9661 47.9588 23.4846 48.0072C23.6985 48.0272 23.9557 48.347 24.1503 48.4446C24.4263 48.5827 24.7242 48.6516 25.0286 48.6893C25.6914 48.7713 26.0925 48.5843 26.6209 49.0161C27.0954 49.4036 27.5887 49.9153 28.0258 50.3467C28.9586 51.2677 29.7265 52.4367 30.5268 53.4717C31.5148 54.7495 32.5409 55.7638 33.8552 56.7209C34.7406 57.3655 35.6359 57.8221 36.6055 58.2854L37.2217 58.5776C38.4109 59.1403 39.9065 59.7927 41.2557 59.8237C42.3062 59.8479 43.613 59.5194 44.5857 59.0765L44.6563 59.0439C45.2259 58.7767 45.433 58.7771 46.003 58.6713C46.8876 58.5072 47.9116 58.0323 48.7305 57.6597C51.3022 56.4896 52.9319 53.9395 54.0914 51.4435C54.7308 50.0672 55.1377 48.7216 55.4126 47.2414L55.4774 46.8906C55.6043 46.2246 55.6472 46.0334 54.9035 45.7176C54.128 45.3885 53.2936 45.1777 52.4831 44.9481L52.3315 44.9048C49.816 44.1805 46.9488 44.0207 44.3514 44.1313ZM50.4963 28.9796C50.2397 29.0952 50.1033 30.3291 49.988 30.604C49.4741 31.8307 48.5624 32.5961 47.2253 32.7238C46.8103 32.7635 46.1334 32.3856 45.836 32.5642C45.4377 32.8034 45.3657 33.9469 44.9371 34.3221C44.5426 34.6676 43.7206 35.0327 43.2145 35.1656C42.8238 35.2681 42.4363 35.2399 42.0471 35.1496C41.825 35.0982 41.4014 34.8238 41.184 34.9273C40.8137 35.1036 40.6393 36.0427 40.2167 36.3613C39.5988 36.827 38.6175 37.172 37.861 37.1633C37.0809 37.1543 36.1405 36.538 35.4459 36.6855C34.6213 36.8605 34.7297 37.6276 34.3698 38.2272C33.6053 39.5004 32.7365 40.5972 31.3621 41.2051C29.8755 41.8625 27.7444 41.9462 26.1851 41.6117C25.3375 41.4298 24.4869 41.1727 23.7715 40.6868C23.2015 40.2996 22.7737 39.784 22.2458 39.3466L22.1596 39.2766L22.1816 39.3524L22.1996 39.4113C22.451 40.2128 22.5626 41.6351 23.062 42.2888C23.509 42.8738 25.0607 42.9065 25.8078 42.9852C27.8098 43.1962 29.5315 43.6649 31.2976 44.6693C32.9879 45.6306 34.5319 46.7939 35.9954 48.0476C36.2961 48.3051 36.5364 48.718 36.9 48.8837L36.9573 48.9088C37.491 49.1329 37.4512 48.8208 37.603 48.3095C37.9253 47.2247 38.267 46.1531 38.7581 45.1305C38.9683 44.6922 39.4467 44.1492 39.5493 43.6838C39.6476 43.2372 39.4458 42.75 39.5144 42.2706C39.6834 41.0882 40.2085 40.0759 40.8708 39.1171L40.9196 39.0471C41.3953 38.3673 42.8187 37.2097 42.6368 38.9209C42.5025 40.1845 41.58 41.3039 41.3531 42.5454C42.0525 42.415 42.4916 42.453 43.1213 42.4929C43.9805 42.5472 44.9576 42.2109 45.8434 42.208C47.5415 42.2027 49.2142 42.3134 50.8833 42.616C51.6563 42.7563 52.3924 42.9148 53.1377 43.1793C53.7233 43.3871 54.502 44.0491 55.1259 44.0995L55.1773 44.104C55.5659 44.1402 55.4254 44.18 55.5435 43.8095C55.6536 43.4647 55.5437 42.8546 55.515 42.4744L55.5121 42.4316C55.4635 41.6347 55.2814 40.8577 55.1717 40.0679L55.1508 39.9097C55.1056 39.5473 54.6732 38.0368 55.1294 37.744C55.82 37.301 56.113 39.0151 56.2054 39.3577L56.2085 39.3687C56.6639 40.9828 56.9569 42.573 56.9433 44.2606C56.9314 45.72 56.8345 47.1229 56.5615 48.5738C56.4001 49.4309 56.1041 50.254 55.772 51.0577C55.5971 51.481 54.5711 53.0857 54.7137 53.3683C54.8281 53.5948 56.5716 53.2005 56.8398 53.1776C57.7942 53.0959 58.751 53.1528 59.7065 53.0961C61.1188 53.0121 62.5415 53.0293 63.8938 52.7804C64.7002 52.6318 65.5559 52.7738 66.3615 52.7789C67.25 52.7848 68.1087 52.7027 69.003 52.7875C69.6822 52.8517 70.7013 53.2102 71.3565 53.0612C72.0159 52.9113 71.8356 52.4749 71.8337 51.8114L71.8338 51.7768C71.8448 50.1268 71.6979 48.228 71.3294 46.6236C71.135 45.7778 70.8736 44.959 70.7342 44.099C70.5947 43.2388 70.6019 42.3091 70.3425 41.4761C69.8822 39.9981 68.617 38.7151 67.5688 37.6229C66.4903 36.4989 65.2906 35.6829 63.9674 34.8768C62.8428 34.1918 61.6544 33.5486 60.4359 33.0127C58.9736 32.3695 57.313 31.9729 55.9577 31.126C54.8299 30.4214 53.1986 29.7265 51.8974 29.4002L51.8659 29.3914C51.6019 29.3118 50.6356 28.917 50.4963 28.9796ZM90.6673 15.32L90.61 15.3272C89.6596 15.4342 87.975 15.0194 87.9758 16.2873C87.9761 16.9969 88.2116 17.7411 88.2784 18.4511C88.3572 19.2889 88.3027 20.1321 88.4303 20.9667C88.6369 22.3176 88.94 23.5653 88.8386 24.9533C88.7279 26.4621 88.4135 27.9119 88.4429 29.4423L88.4466 29.6846C88.4639 31.0277 88.4319 32.3254 89.0465 33.5652L89.0842 33.6395C89.3762 34.2038 89.6131 34.8667 89.9344 35.3946C90.3109 36.0134 90.637 36.1946 91.3101 36.4438L91.3712 36.4654C91.8243 36.6188 92.7817 36.8221 93.0423 37.2236C93.4366 37.8307 92.9101 38.0763 92.3917 38.0556C90.7905 37.9919 89.1465 37.2775 87.6453 36.7556C86.939 36.5099 86.2592 36.2005 85.565 35.9324C85.0104 35.7182 84.5581 35.6442 84.0537 35.2787C82.8244 34.388 81.8755 33.157 80.6633 32.2434C78.3698 30.515 75.6201 29.4831 72.7396 29.1769C71.9984 29.0981 71.4246 29.1336 70.6823 29.1965C70.2716 29.2313 69.865 29.2424 69.4583 29.3178C69.2235 29.3615 68.3403 29.7812 68.1569 29.694C66.9652 29.1275 70.3394 27.403 70.7188 27.3086C70.2396 26.9709 69.2438 27.0291 68.6687 26.954L68.4246 26.9222C67.7755 26.8387 67.1383 26.7687 66.4792 26.8047C65.4426 26.8614 64.3401 26.8308 63.3227 27.0546C62.0937 27.3248 60.9274 27.7345 59.8129 28.3048L59.5093 28.4626C59.1556 28.6503 58.7642 28.899 58.7674 29.377C58.7708 29.9048 58.981 29.8184 59.4949 29.9353C60.848 30.2433 62.1025 31.1267 63.3101 31.8193L63.3942 31.8673C64.7058 32.6105 66.0121 33.4456 67.2292 34.3361C69.5623 36.0435 70.8939 38.4999 71.9301 41.1701C72.4661 42.5511 72.8547 44.1638 73.0159 45.6357C73.1877 47.2021 73.0581 48.7771 73.1587 50.3427L73.1808 50.6558C73.2126 51.1565 73.2766 52.5025 73.5474 52.7257C73.7687 52.9081 74.8669 52.5821 75.1764 52.5608C76.3626 52.4791 77.5555 52.4797 78.7238 52.424L79.0418 52.4073C81.7248 52.2527 84.4752 52.4685 87.1826 52.3093C88.4765 52.2332 89.7311 52.0566 90.9984 51.8034L91.1986 51.7628C92.44 51.5075 93.9869 51.477 95.1192 50.8869C97.2991 49.7512 98.6279 47.0131 98.7236 44.6947C98.8273 42.1816 98.6556 39.4467 98.1278 36.9431C97.8511 35.6303 97.6112 34.3809 97.2855 33.0836C96.9211 31.6313 96.5118 30.1852 96.1118 28.7507C95.4227 26.2815 94.3501 23.9812 93.8366 21.4505C93.569 20.1316 93.1957 18.756 92.802 17.4595L92.7362 17.2442C92.5822 16.7435 92.2786 15.7922 91.9203 15.4117C91.5437 15.0122 91.2276 15.2413 90.6673 15.32ZM14.1825 45.3923C13.6174 45.7539 13.2099 46.5669 13.2357 47.2372C13.2357 48.122 13.9701 47.7451 14.6621 47.7771C15.0834 47.7966 16.6414 48.2289 16.9154 47.8116C17.2425 47.3133 16.2588 47.5358 16.1343 47.2685C15.8825 46.728 17.0368 46.4997 16.8957 46.0312C16.7546 45.5629 15.5819 46.6438 15.3305 46.0999C15.0977 45.5964 16.2824 45.161 16.1006 44.8142C15.9463 44.5203 14.3822 45.2643 14.1825 45.3923ZM16.6365 40.7826C16.6336 41.1597 16.5036 41.6612 16.0348 41.5843C15.4494 41.4882 15.2719 40.3642 15.2184 39.9389C15.5934 38.5386 16.6428 39.9236 16.6365 40.7826ZM33.6352 28.7475C32.9583 28.8536 32.882 29.1566 32.5655 29.6217C32.421 29.5066 32.3315 29.354 32.297 29.1637C30.6967 29.8847 29.0316 30.448 27.2958 30.7144C25.3617 31.0116 23.3442 30.5619 21.3791 30.3788C21.1248 30.3551 20.3441 30.0407 20.1369 30.1655C19.9653 30.2688 19.9682 31.1362 19.9542 31.3038C19.8587 32.4465 20.0766 33.456 20.2444 34.5744C20.2892 34.8721 20.2453 35.517 20.4799 35.7711C20.645 35.9497 20.9387 35.8847 21.1478 36.1544C21.699 36.8663 21.8792 38.2307 22.1297 39.1683L22.1529 39.253L22.1541 39.2362C22.2344 38.2794 22.9823 38.7709 23.5389 39.0218C24.3756 39.399 25.2523 39.6007 26.1574 39.7276C26.8852 39.8296 27.7109 40.0735 28.4576 40.0345C29.2417 39.9937 30.2063 39.6832 30.9697 39.4598C31.6929 39.2483 32.092 38.7904 32.5913 38.2009C33.0681 37.6378 33.5871 37.2521 34.1018 36.7496C35.3982 35.4838 35.0433 32.861 33.917 31.6221L34.0008 31.5785C34.9204 31.0927 36.3669 30.0951 35.0227 29.0836C34.6645 28.8139 34.0672 28.6798 33.6352 28.7475ZM26.5925 37.0799C26.9518 37.1072 27.2099 37.3774 27.1154 37.7498C26.9959 38.2202 26.1781 38.5149 25.7692 38.541C24.6855 38.6706 25.7106 37.0133 26.5925 37.0799ZM23.17 35.2699L23.1771 35.3249C23.2049 35.5661 23.1867 35.7193 23.4071 35.8019C23.5881 35.8697 23.9302 35.7301 24.1528 35.8244C24.3749 35.9188 24.3819 35.9758 24.5184 36.1973C24.3639 36.6806 23.6551 37.2273 23.0865 36.9367C22.3793 36.5752 22.3134 35.1496 22.5073 34.5412L22.527 34.4822C22.8468 33.5638 23.1132 34.8706 23.17 35.2699ZM86.0503 29.8252C85.7552 29.9324 85.495 30.2363 85.2312 30.4017C84.5293 30.8416 83.7616 31.0752 83.0894 31.5569C83.5695 32.0749 83.8208 32.7773 84.2897 33.2758C84.5831 33.5877 84.9398 33.6224 85.2927 33.7917C86.3237 34.2864 87.5373 34.9824 88.6762 35.2189C88.0302 34.463 87.6129 33.7769 87.2274 32.8728L87.1902 32.7846C87.0486 32.4456 86.871 32.087 86.765 31.7349C86.613 31.2306 86.6948 30.697 86.566 30.1994C86.4271 29.6622 86.6186 29.6188 86.0503 29.8252ZM21.2247 32.7792C21.5246 33.1332 21.755 33.9311 21.7805 34.3831C21.4642 35.8984 20.4051 33.8078 20.4373 33.1292L20.441 33.0717C20.4879 32.4897 20.8092 32.2891 21.2247 32.7792ZM24.094 31.9501C24.595 32.3775 24.7671 33.0841 24.8248 33.6798L24.829 33.7254C24.887 34.381 24.7372 34.6598 24.0841 34.2383C23.5124 33.8693 23.2264 32.8869 23.1968 32.3112C23.1968 31.6551 23.596 31.5253 24.094 31.9501ZM34.4327 30.0734C34.5611 30.7576 33.0459 31.4608 33.2933 30.3894C33.2437 29.7057 34.2965 29.3486 34.4327 30.0734ZM105.972 17.6914C104.828 19.0887 103.442 19.9758 102.01 21.0316C100.741 21.967 99.5333 22.9775 98.1599 23.7539C97.7566 23.982 97.0961 24.1147 97.0232 24.5383C96.9547 24.9367 97.694 26.0065 97.8648 26.4384C98.4417 27.895 98.8675 29.3897 99.3185 30.8927L99.6856 30.3207C100.912 28.4123 102.168 26.4954 103.666 24.7732L104.002 24.3861C105.348 22.832 106.709 21.2136 107.882 19.5507C107.113 19.0821 106.476 18.4358 105.972 17.6914ZM114.361 14.4693C113.086 14.8676 111.618 15.0919 110.29 14.9561C109.774 14.9033 109.264 14.8581 108.746 14.8226L108.486 14.8057C108.031 14.7777 107.262 14.5557 106.87 14.9065C106.5 15.2381 106.544 15.8981 106.733 16.3103C106.855 16.5768 107.024 16.6199 107.135 16.8406C107.17 16.9117 107.065 17.0345 107.156 17.2017C107.408 17.6618 108.265 18.4306 108.727 18.6649C109.319 18.9655 109.408 18.6158 109.87 18.3129C110.842 17.6753 112.475 17.6637 113.614 17.5489C113.637 17.794 116.938 16.616 117.264 16.3998C117.873 15.9956 118.587 14.1354 117.939 13.584C117.157 12.9185 115.118 14.2324 114.361 14.4693ZM92.163 5.60203C91.7618 6.2414 91.2282 6.92785 90.6356 7.40617C89.9662 7.9464 89.0975 8.15614 88.3324 8.5258L88.2109 8.58493C87.5875 8.89113 87.0334 9.21301 86.6292 9.78544L86.519 9.94575C86.213 10.3827 85.7616 10.9586 85.9928 11.4908C86.2487 12.0798 87.2567 12.4928 87.6946 13.0046L87.7478 13.0664C88.2985 13.7009 88.3258 13.5651 89.2016 13.3762C89.6527 13.2789 90.0812 13.2486 90.5423 13.2647C90.7288 13.2711 91.3585 13.4539 91.5239 13.3313C91.7355 13.1741 91.5275 12.5215 91.5542 12.2676C91.5951 11.8813 91.7323 11.4828 91.8625 11.1186C92.3785 9.67283 93.3596 8.71942 94.3135 7.62316C95.3368 6.44695 96.7389 5.62137 97.7474 4.43968C98.3042 3.78725 98.0507 3.32601 97.2867 3.02051C96.8984 2.86543 96.4434 2.86607 96.045 2.74242C95.633 2.61458 95.266 2.36276 94.8245 2.35777C92.9486 2.28248 92.8888 4.445 92.163 5.60203Z" fill="#010101"/>
</svg>
