<svg width="112" height="95" viewBox="0 0 112 95" fill="none" xmlns="http://www.w3.org/2000/svg">
<path fill-rule="evenodd" clip-rule="evenodd" d="M22.3477 52.7913C23.0218 57.8713 23.6958 62.9513 24.37 68.0313L24.9143 72.1336C24.983 72.6513 24.9181 73.6723 25.1799 74.1358C25.2724 74.2992 25.5154 74.3768 25.6941 74.4732C26.3092 74.805 26.9244 75.1369 27.5394 75.4687C32.7425 78.2756 37.9457 81.0825 43.1485 83.8894C48.142 86.5831 53.1354 89.277 58.1288 91.9707C58.6455 92.2496 59.4813 92.9769 60.0391 92.7852C60.5694 92.6031 61.1113 92.1538 61.5927 91.8705C62.5168 91.3263 63.4408 90.7822 64.365 90.238C69.9567 86.9452 75.5484 83.6523 81.1401 80.3596C83.4472 79.0011 85.7542 77.6426 88.0613 76.284C88.6924 75.9123 89.3238 75.5407 89.955 75.1688C90.2852 74.9745 90.3281 74.9813 90.458 74.6513C90.9438 73.4177 91.1688 72.0046 91.5126 70.7246C91.8914 69.314 92.2702 67.9034 92.6491 66.4928C92.818 65.8634 92.7387 65.7822 92.4631 65.1746C91.918 63.9719 91.3728 62.7695 90.8276 61.567C89.6175 58.898 88.4076 56.2289 87.1974 53.5599C86.708 52.4806 85.5293 51.7211 84.6808 50.9273L71.505 38.6014C71.1704 38.2883 70.8357 37.9753 70.5011 37.6621C70.4459 39.5438 70.0759 41.5667 70.6187 43.3845C71.5094 46.3677 72.4001 49.3508 73.2907 52.334C73.7212 53.776 74.1516 55.2178 74.5822 56.6597C74.6621 56.9276 75.1491 57.9899 75.019 58.2256C74.9468 58.3562 74.3317 58.4883 74.1985 58.5391C73.6262 58.7579 73.0539 58.9767 72.4815 59.1955C70.8869 59.8051 69.2923 60.4147 67.6977 61.0242C66.2634 61.5725 64.8292 62.1208 63.395 62.669C62.9086 62.855 62.3374 63.1992 61.8238 63.1705C61.3643 63.1448 60.8418 62.9163 60.3972 62.8013C59.6156 62.599 58.8337 62.3967 58.0521 62.1943C56.5165 61.7969 54.9809 61.3996 53.4454 61.0021C51.7178 60.5549 50.2589 59.2416 48.7815 58.2697C46.242 56.5989 43.7025 54.9281 41.1631 53.2575C40.5818 52.875 40.5796 52.6567 40.3479 51.9584C39.8273 50.3889 39.3066 48.8195 38.786 47.25C38.508 46.4121 38.1661 45.5705 37.9562 44.7126C37.6099 43.2967 37.4045 41.8311 37.1302 40.3995C37.0475 39.9676 36.9647 39.5356 36.882 39.1037C35.8185 39.5373 34.755 39.971 33.6914 40.4048C33.5373 40.4676 32.7862 40.655 32.7194 40.809C32.6771 40.9063 32.9005 41.3481 32.9325 41.443C33.8143 44.0673 34.6961 46.6915 35.5781 49.3157C35.8555 50.1413 36.1327 50.9667 36.4102 51.7922C35.7474 50.7456 35.0844 49.6988 34.4215 48.6522C33.9008 50.4125 33.3799 52.1729 32.859 53.9331C31.6281 52.5059 30.3969 51.0786 29.1658 49.6513C28.7397 51.0786 28.3136 52.5059 27.8874 53.9331C26.5617 52.1729 25.236 50.4125 23.9102 48.6522C23.7526 49.5708 23.595 50.4894 23.4373 51.408C23.3897 51.6853 23.3992 52.4807 23.2156 52.7003C23.0643 52.881 22.6288 52.7913 22.3477 52.7913Z" fill="#952F1F"/>
<path fill-rule="evenodd" clip-rule="evenodd" d="M26.8948 1.59051C30.3079 1.24981 33.8454 2.21337 36.7739 3.94895C39.9191 5.81284 42.8427 8.01086 45.6543 10.3505L45.9673 10.6119C47.2202 11.6626 48.4794 12.7764 49.5489 14.0074C50.7766 15.4205 51.8101 17.0942 52.8898 18.6267C53.1909 17.8678 53.5865 17.1503 54.0123 16.4555L54.0417 16.4097C54.3145 16.0008 55.1482 15.1077 54.9972 14.6857C54.8948 14.3994 54.5223 14.4216 54.3049 14.2629C54.0299 14.0621 53.8488 13.7318 53.6992 13.4335C53.3533 12.7432 53.2002 11.9683 53.3404 11.2031C53.5702 9.94797 54.4806 8.97913 55.6554 8.53838C57.0033 8.03255 58.2431 8.53695 59.1597 9.58915C59.3584 8.48514 59.4061 7.29165 59.9266 6.27571C60.4503 5.25335 61.312 4.36172 62.2316 3.6929C62.306 3.85118 62.4672 4.04187 62.6133 3.94809C62.7476 3.86174 62.5282 3.72116 62.5523 3.66835C62.6483 3.46071 62.6749 3.47399 62.8374 3.37299L62.8853 3.34236C63.499 2.93803 64.1047 2.94551 64.7814 2.74469L64.8542 2.72234C66.6211 2.16128 68.688 2.33555 70.4608 2.82197C72.2182 3.3041 73.6532 4.24711 74.9743 5.481C75.2093 5.70051 75.5503 5.92388 75.6996 6.21633C75.8187 6.44955 75.7547 6.68434 75.9277 6.86132C76.0084 6.94396 76.184 6.82521 76.287 6.89572C76.4667 7.01861 76.4159 7.20787 76.4999 7.37928C76.6463 7.67859 76.79 7.7952 76.637 8.14231C76.7999 8.1984 76.9687 8.15701 77.0884 8.03284C77.1698 8.28832 77.4571 8.55865 77.4731 8.82469C77.4833 8.99597 77.2317 9.34237 77.3033 9.45498C77.8127 9.30954 77.7509 9.93398 77.8108 10.3299C77.8874 10.8355 78.1266 11.3514 78.1213 11.8648C78.1167 12.3174 78.0559 12.6194 78.1593 13.072L78.1888 13.2026C78.2745 13.5887 78.3321 13.9279 78.2591 14.3374C77.8745 14.1994 78.1158 14.5674 78.0385 14.7815C77.8841 15.2088 77.7819 14.796 77.4475 15.0074C78.3307 15.0514 78.2277 15.6006 78.2013 16.3583L78.1228 16.6724C78.1195 16.6869 78.118 16.6945 78.1192 16.6919L78.117 16.6999C77.9988 17.1077 77.9923 19.5285 77.1278 18.7347L77.101 18.7093L77.2667 19.6458L77.2116 19.6162C76.8337 19.4181 77.006 19.6315 76.8528 19.8257L76.8418 19.8389C76.7669 19.9247 76.7515 20.0155 76.6489 20.0955C76.5441 20.177 76.3792 20.1288 76.2812 20.225C75.8481 20.65 76.2013 21.2519 75.5444 21.5665C74.7621 21.9413 74.1306 22.3748 73.4219 22.8836C73.3282 22.9508 73.2309 23.0362 73.13 23.0901L73.0607 23.1339C72.9763 23.3156 72.8925 23.3435 72.8093 23.2176C72.757 23.1241 72.6986 23.1191 72.6341 23.2028L72.6219 23.2196L72.4929 23.3272C72.3533 23.3582 72.2394 23.5637 72.0981 23.3656L72.127 23.3287C72.3269 23.0821 72.6592 22.8117 72.41 22.4784C72.2132 23.1125 71.1083 22.8515 70.6417 22.8702C69.8618 22.9014 69.3909 23.1218 68.7101 22.6028C68.4729 22.422 68.2106 22.0618 67.8773 22.1234C67.5696 22.1802 67.2495 22.5961 67.0125 22.7694C66.336 23.2644 65.4765 23.5944 64.9481 24.2709C68.8434 25.1238 72.7344 26.1254 76.4303 27.648C79.6662 28.9812 82.7252 30.8216 85.6789 32.6914C88.6394 34.5658 91.5488 36.6934 94.1212 39.0774C95.4327 40.2929 96.8131 41.4734 98.0213 42.7943C99.0723 43.9435 99.9849 45.226 100.906 46.4826L101.044 46.6708C103.017 49.3521 104.862 52.222 105.802 55.4498C105.333 55.5404 103.131 55.4779 103.116 56.1864C102.633 55.5788 101.602 55.8144 100.931 55.7501L100.353 55.6947C99.6767 55.6292 98.9936 55.558 98.3279 55.4566C96.6527 55.2015 94.9931 54.5948 93.4803 53.8292L93.3546 53.765C92.1155 53.1272 90.1793 52.0251 89.7508 50.5742C89.5319 49.833 90.0944 49.1936 90.5635 48.6926C90.8664 48.369 91.6391 47.8035 91.5104 47.2754C91.8718 47.4607 91.9329 47.1604 92.2016 46.979C92.4718 46.7964 92.7668 46.7065 93.0733 46.4974C93.7383 46.0435 94.4107 45.7482 95.1063 45.3756C95.3056 45.2688 95.4473 45.0767 95.5807 44.9535C95.6576 44.8826 95.5921 44.7821 95.7782 44.697C95.9073 44.6381 96.0407 44.7242 96.1684 44.7008C96.686 44.6061 96.899 44.063 96.5202 43.6374C95.9275 42.9712 94.3928 44.1099 93.7928 44.4129C92.451 45.091 91.1867 45.9321 90.0669 46.9394L89.9557 47.0405C89.0503 47.8722 88.2233 48.8554 87.9918 50.0999C87.7502 51.3994 88.5564 52.5602 89.4242 53.4479C89.8277 53.8606 90.313 54.231 90.8435 54.4619C91.1383 54.5903 91.3165 54.6219 91.5617 54.8226C91.814 55.029 91.9985 55.226 92.2914 55.3924C93.6655 56.1728 95.2107 56.7068 96.7387 57.085C98.226 57.4532 99.911 57.7902 101.449 57.6703C101.864 57.6381 102.506 57.8075 102.898 57.6693C103.555 57.4377 103.076 56.9105 102.882 56.5034C103.09 56.5505 103.262 56.6926 103.35 56.8863C103.503 56.7667 103.672 56.6574 103.797 56.5061L103.885 56.6177C103.94 56.6862 103.991 56.7455 104.069 56.8085C104.133 56.8608 104.298 56.7382 104.339 56.7727C104.628 57.0158 104.481 57.3342 104.988 57.4468C104.936 57.0022 105.552 57.3274 105.722 57.4253C105.758 57.2917 105.75 57.1605 105.7 57.0315L105.762 57.0977C105.972 57.3221 105.97 57.2565 106.174 57.0161C106.194 57.4505 106.698 57.2507 106.924 57.4965C107.16 57.7535 107.105 58.3001 107.159 58.6126C107.376 59.8736 107.751 61.0219 107.694 62.3257C107.56 65.3964 107.836 68.4478 106.965 71.4433C106.667 72.4696 106.094 73.6812 105.119 74.2234C103.937 74.8805 103.238 73.7224 102.746 72.8024L102.616 73.0724C101.788 74.8008 100.868 76.8544 99.3378 78.0334C98.501 78.6782 97.5749 78.45 97.0883 77.5089C96.8998 77.1442 96.7901 76.7506 96.7861 76.3421C96.7831 76.0219 96.9388 75.5382 96.7341 75.2495C95.9092 76.8333 95.0395 78.3294 93.9333 79.7262L93.667 80.0585C92.7414 81.2206 91.888 82.4322 90.6394 83.2757L90.5756 83.3183C89.9769 83.7145 89.2896 84.0395 88.6703 83.4793C88.1516 83.0102 87.9546 82.2162 87.9071 81.5441C87.7891 79.8763 88.4422 78.2592 88.8259 76.6662C86.1309 77.967 83.8023 79.8774 81.2928 81.4853C76.8399 84.3383 72.0786 86.6817 67.5469 89.4068L67.1091 89.6718C65.9381 90.385 64.7294 91.0387 63.6087 91.8319C62.6625 92.5018 61.5665 93.6683 60.4355 93.9883C59.9364 94.1294 59.5201 93.8287 59.0789 93.6276C58.5776 93.3991 58.0554 93.1987 57.5343 93.0203C56.9535 92.8214 56.3773 92.7638 55.778 92.6785L55.4688 92.6333C55.1269 92.58 54.782 92.4918 54.6623 92.1171L54.5509 92.192C54.4062 92.2868 54.2713 92.3544 54.0853 92.3152C53.9897 92.2357 53.9307 92.1331 53.9083 92.0074L53.6834 92.0957C53.2678 92.078 53.2219 92.0121 52.8152 91.8808C52.5571 91.7975 52.2544 91.8344 52.0118 91.7918C51.8621 91.7656 51.8354 91.6998 51.6672 91.6869C51.3385 91.6621 51.1435 91.9374 50.8945 91.5623C50.7101 91.7613 50.224 91.5999 49.95 91.5261C49.7261 91.4656 49.6403 91.382 49.4701 91.2563L49.3866 91.1955C49.1993 91.0571 49.2829 91.0957 49.0895 91.0983C49.056 91.0987 48.7772 91.2273 48.6779 91.2372L48.6008 91.2438C48.4358 91.2555 48.2835 91.2464 48.1463 91.1598C47.9705 91.0489 48.0069 90.8367 47.7317 90.7933C47.5722 90.7683 47.4431 90.9151 47.3027 90.9028C47.0848 90.8839 47.1553 90.846 46.9689 90.7489C46.976 90.56 46.9216 90.4947 46.8057 90.5531C46.7142 90.5726 46.6222 90.5891 46.5296 90.6023C46.414 90.5811 46.2817 90.6683 46.1628 90.6315C45.9381 90.5617 45.8846 90.3229 45.6752 90.2558C45.542 90.2131 45.3908 90.2344 45.2397 90.273L45.1969 90.2843L45.1015 90.4478C45.0971 90.4225 45.0932 90.3984 45.0899 90.3756L45.0821 90.3176L44.9533 90.3564C44.6218 90.4522 44.3539 90.4794 44.3739 89.8597L44.3755 89.821C44.3017 89.8791 44.2239 89.8996 44.1417 89.8823C44.0856 89.6191 44.36 89.5373 44.0486 89.3214L43.9993 89.375C43.5991 89.8009 43.6821 89.4775 43.3249 89.3687C43.1936 89.3288 42.4982 89.4559 42.3817 89.584C42.4831 89.3622 42.2603 88.6488 41.9672 88.632C41.6005 88.6107 41.7542 89.1943 41.6881 89.4274C41.5286 89.2586 41.2936 89.0937 41.1793 88.8865C41.1486 88.8308 41.2522 88.6775 41.2221 88.6348C40.9827 88.296 40.8118 88.4207 40.552 88.6554C40.6319 88.7215 40.7212 88.7706 40.8196 88.8025C40.7891 88.8655 40.339 88.6815 40.2813 88.6614C40.1901 88.6415 40.1046 88.6615 40.0249 88.7212L39.9475 88.5311C39.905 88.4928 39.8992 88.2787 39.8766 88.2198L39.8513 88.2312C39.7168 88.2964 39.3633 88.5152 39.2742 88.3745L39.3849 88.2657C39.5522 88.0977 39.5563 88.049 39.2942 87.8647L38.9684 87.8216C38.8921 87.8091 38.8381 87.6521 38.7625 87.6102L38.7582 87.7147C38.7527 87.8861 38.7583 88.0913 38.856 88.2229C38.7074 88.1309 38.5628 87.9734 38.3956 87.9152C38.2996 87.8818 38.1133 87.9459 38.0338 87.8909C37.7265 87.6787 37.9672 87.2672 37.6202 87.052L37.5937 87.1723C37.5667 87.2997 37.5309 87.4831 37.5459 87.4907L37.517 87.4752C37.4045 87.4122 37.1846 87.2656 37.1779 87.2786C37.2142 87.208 37.2016 87.046 37.1878 86.9696C36.9412 87.0211 36.726 87.163 36.5093 87.2826C36.6063 87.0892 36.9419 86.6038 36.7843 86.3836C36.5365 86.0369 36.3945 86.5032 36.3492 86.7261L36.2759 86.5117C36.1574 86.177 36.1344 86.2562 35.6828 86.3304L35.6527 86.3352C35.3652 86.3803 34.9063 86.4111 34.6596 86.2094C34.5255 86.0998 34.4412 85.8729 34.3134 85.742C34.1273 85.5515 33.9776 85.5612 33.8883 85.2612C33.81 85.4576 33.3603 85.6721 33.1608 85.5891C32.8674 85.467 32.9564 85.094 32.9439 84.8313L32.8886 84.9069C32.7553 85.0845 32.5273 85.3443 32.4995 84.9557C32.354 85.1994 30.2603 84.8928 30.1706 84.6167C30.2286 84.6109 30.2785 84.6025 30.3213 84.5919L30.3336 84.5885L30.3256 84.5526C30.2882 84.3704 30.2307 83.9024 30.0404 83.8945L30.0209 83.8952C30.026 84.0087 30.151 84.5264 29.9689 84.5672L29.9155 84.4341C29.8286 84.2236 29.7121 83.9979 29.4665 83.9632C29.3005 83.9396 29.0753 84.1764 28.9256 84.1169C28.6721 84.016 28.8165 83.5357 28.4431 83.9379C28.1618 83.4419 27.484 83.6081 27.0113 83.483L26.8572 83.4423C26.66 83.389 26.4384 83.3206 26.2834 83.2127C26.1732 83.1361 26.0147 82.8693 25.9252 82.8252C25.6523 82.6906 25.353 82.753 25.0888 82.5737C25.0701 82.4817 25.0297 82.4005 24.9684 82.3301C24.8596 82.322 24.7505 82.3195 24.6415 82.3227C24.4419 82.1688 24.4168 81.9135 24.2709 81.7201L24.26 81.757C24.1777 82.052 24.1602 82.4793 23.7371 82.2663C23.6201 82.2073 23.6632 81.997 23.5681 81.9277C23.3897 81.7983 23.3579 81.8585 23.1383 81.8304L22.9872 81.8116C22.151 81.7106 21.23 81.6386 20.4895 81.1546C20.2256 80.982 20.0804 80.663 19.8191 80.5914C19.762 80.5757 19.6489 80.7774 19.5726 80.7681C19.4429 80.7522 19.3956 80.5834 19.2672 80.5202C19.1919 80.483 18.9743 80.514 18.8546 80.4882C18.6651 80.4472 18.4242 80.367 18.2601 80.255C17.9759 80.0609 17.9236 79.8075 17.7867 79.5061C17.6701 79.6391 17.6759 79.8342 17.6435 79.9961C17.3052 79.8834 16.6052 79.0376 16.3552 79.6691C16.189 79.5199 16.0171 79.229 15.7863 79.1741C15.637 79.1387 15.6591 79.2905 15.5919 79.2938C15.4181 79.3022 15.2533 79.3045 15.0716 79.2737C14.7919 79.2263 14.665 79.0784 14.4415 79.0025C14.1902 78.917 14.1106 78.9216 13.8436 78.8234C13.6657 78.7579 13.5294 78.5769 13.3465 78.5171C13.0248 78.4121 12.7868 78.5749 12.5905 78.2441C12.2727 78.6355 11.9121 78.1936 11.5261 78.2018L11.4998 78.2031L11.612 77.5802C11.0706 77.8641 11.0382 78.3014 10.5984 77.6421L10.5767 77.6093V78.0043C9.93357 77.7051 9.30146 77.7004 8.79933 77.1608L8.71964 77.4987C8.52703 77.2772 8.44081 76.9903 8.27376 76.7521C8.02831 76.9555 8.27533 77.1125 8.37447 77.3018C8.06169 76.9968 7.74024 77.159 7.3722 77.097C7.01254 77.0363 7.00374 76.8599 6.81496 76.6277C6.45814 76.1888 5.80203 76.5173 5.57249 75.9341L5.48147 75.9924C5.26726 76.1316 5.03893 76.2837 4.7722 76.2447L4.88726 75.8584C4.73058 75.8699 4.73015 76.0939 4.59976 76.1277C4.44905 76.1668 4.05714 75.954 3.93754 75.8932C4.03385 75.8177 4.29393 75.5208 4.25459 75.3946C4.16709 75.113 3.97021 75.5662 3.94734 75.5829L3.89363 75.6217C3.72721 75.7394 3.67868 75.7449 3.49465 75.7582L3.36595 75.7682C3.16226 75.7856 2.94024 75.7036 2.89436 75.9861C2.62291 75.5261 2.42575 75.4226 1.90629 75.5756C1.93697 75.2245 1.39479 75.6464 1.16226 75.618C0.766093 75.5696 0.739531 75.2428 0.666946 74.9186C0.332003 75.0629 0.169218 74.9065 -0.0452714 74.9346C-0.208055 74.956 -0.183908 75.1487 -0.396692 75.0729C-0.695271 74.9663 -0.531493 74.5628 -0.93547 74.536C-0.800242 74.6235 -0.7126 74.7695 -0.692571 74.9289L-0.724684 74.9231C-0.917299 74.8928 -1.27931 74.9034 -1.22055 74.6176C-1.44185 74.9625 -1.83479 74.9223 -2.19549 74.8458L-2.51122 74.7748C-2.66882 74.7385 -2.78526 74.7035 -2.9224 74.5976C-3.04428 74.5036 -3.13533 74.178 -3.30465 74.1522L-3.32962 74.1699C-3.38029 74.2045 -3.49514 74.2777 -3.55152 74.2736C-3.66771 74.2654 -3.84698 74.1874 -3.95834 74.1495C-4.08788 74.1054 -4.20251 74.0788 -4.31558 74.0163C-4.38121 73.9799 -4.35337 73.8408 -4.42666 73.8183C-4.63135 73.7557 -4.78263 74.0217 -4.99158 73.9608C-5.22411 73.893 -5.25607 73.5259 -5.33504 73.3413C-5.92467 73.6619 -6.30791 73.0495 -6.47766 72.5525C-6.69271 71.9236 -6.29456 71.6482 -6.08348 71.0954L-6.20258 71.1722C-6.44418 71.3249 -6.78267 71.5068 -7.03107 71.3556C-7.39754 71.1323 -7.19769 70.7839 -6.96899 70.5875C-6.45877 70.1489 -5.44143 70.0036 -4.81601 69.8425C-3.68845 69.5522 -2.5251 69.1822 -1.3974 68.9557C-1.20919 68.918 -1.23817 68.9749 -1.02624 68.8926C-0.899816 68.8435 -0.781065 68.7157 -0.649105 68.6586C-0.156208 68.4448 0.436547 68.3501 0.952456 68.217C3.23001 67.6289 5.65857 67.1154 8.00161 66.9077C8.63683 66.8515 9.29337 66.8581 9.92249 66.7874C10.4141 66.7323 10.8824 66.5423 11.3732 66.4677C12.0782 66.3604 12.7942 66.2973 13.5042 66.231C14.0351 66.1814 14.5699 66.2584 15.0972 66.2381L15.2105 66.2318L15.204 66.231C14.9491 66.189 15.5655 65.6889 15.6868 66.2559L15.6919 66.2824C15.8692 65.6868 16.7387 65.806 17.203 65.8194C17.5189 65.8285 17.7874 65.7636 18.0617 65.7188C18.2881 65.6816 18.5866 65.6782 18.8762 65.6381L19.0964 65.6045C19.7752 65.504 22.254 65.1813 22.1374 65.7984L22.2378 65.7588C22.7877 65.5469 23.0108 65.5373 22.9295 64.861L22.9243 64.8205C22.809 63.9512 22.7242 63.0836 22.6516 62.2082C22.4806 60.1428 22.2919 58.0807 22.0076 56.0272L21.9863 55.8762C21.8708 55.0706 21.7148 54.2732 21.2071 53.6163C20.6512 52.8966 19.9819 52.3038 19.4652 51.5459C18.3466 49.9052 17.5198 48.0863 16.8364 46.2257C15.5221 42.6478 14.3508 38.9501 13.4314 35.2496L13.3347 34.8601C13.1254 34.0146 12.9213 33.1578 12.7962 32.2984C12.6684 31.4193 12.7003 30.5657 12.4803 29.6977C12.0184 27.8749 11.8759 26.0202 11.9502 24.1409C12.1973 17.8849 14.7275 11.1866 18.8584 6.48695L18.9878 6.3407C21.1093 3.95867 23.6267 1.91683 26.8948 1.59051ZM70.1523 47.5893C69.3396 45.9441 65.6715 48.2418 64.7304 48.7991L64.7027 48.8155C62.6212 50.0415 60.6752 51.5136 58.8955 53.1494C57.3658 54.5556 55.9884 56.1299 54.7472 57.7971C54.3981 58.2662 54.0618 58.7451 53.7452 59.2369C53.4949 59.6254 53.3012 60.1548 53.0063 60.5014C52.5275 61.0646 51.6863 60.5165 51.055 60.3221C49.104 59.7212 47.1253 58.8274 45.3417 57.8308C44.4409 57.3272 43.605 56.7012 42.6587 56.2812C42.0128 55.9946 41.3665 55.9071 40.774 55.5173C39.8267 54.8941 38.8242 54.4106 37.8951 53.7415C37.1462 53.2022 36.3455 52.7328 35.6155 52.1679C35.1932 51.8412 34.7043 51.1288 34.2019 50.957C33.6655 50.7736 33.8787 51.3961 33.9266 51.806L33.9366 51.9059C34.0211 52.8124 34.1158 55.5026 32.6198 54.9551C31.8873 54.687 31.2381 53.9443 30.7611 53.3457C30.2387 52.69 30.0478 51.7704 29.4184 51.2059L29.4051 51.4933C29.3624 52.5608 29.3015 54.5356 28.0441 54.5661C27.155 54.5877 26.3303 53.6738 25.8475 53.0294C25.1925 52.1549 24.7473 51.1492 24.2326 50.1909C24.1235 51.2042 24.0591 52.2317 23.8963 53.2381C23.7569 54.0997 23.4912 54.7859 23.6233 55.6717C23.9162 57.6364 24.1527 59.6037 24.3647 61.5788L24.6061 63.8431C24.8905 66.4905 25.1978 69.1517 25.6698 71.7619L25.7384 72.1344C25.8395 72.6755 25.9891 73.1958 26.5115 73.4521C26.7684 73.5781 27.0635 73.5981 27.3236 73.7167C27.6404 73.8613 27.8742 74.1055 28.1513 74.3099C28.7695 74.7656 29.4988 74.9923 30.1891 75.3081C30.8458 75.6087 31.4121 76.0576 32.0515 76.3883C33.4965 77.1355 34.9228 77.7938 36.3003 78.6725C37.5948 79.4984 38.8847 80.3455 40.1971 81.142L41.5181 81.9448C43.8284 83.3479 46.1376 84.7327 48.5533 85.9604C51.4466 87.4311 54.4294 88.776 57.4037 90.0717C58.1408 90.3927 58.8922 90.691 59.6133 91.0469L59.6845 91.0826C60.2247 91.3564 60.6293 91.6286 61.207 91.2588C61.7858 90.8881 62.2256 90.3035 62.7755 89.8871C63.3949 89.4181 64.0356 88.9755 64.6807 88.5431C67.3651 86.7435 70.1169 84.9633 72.982 83.4674L74.2054 82.8287C76.7472 81.5001 79.244 80.1703 81.6679 78.5938C83.0492 77.6951 84.4368 76.8045 85.8506 75.9581C86.3138 75.6809 86.7762 75.4026 87.2378 75.123L87.9793 74.6729C88.4123 74.4154 88.8929 74.2216 89.2124 74.7638L89.3361 74.9612C90.1615 72.9708 90.8351 70.8727 91.465 68.8121C91.7365 67.9239 91.5188 67.2324 91.1378 66.419C90.7238 65.5352 90.3661 64.6283 89.9695 63.7367C89.1365 61.8634 87.9821 60.1548 87.1144 58.3209C86.9483 57.9696 86.7816 58.0069 86.615 57.7002C86.5412 57.5646 86.5672 57.3717 86.4809 57.2356C86.4145 57.1313 86.2871 57.2032 86.2299 57.1131C86.0246 56.7904 86.2012 55.808 85.5243 56.1219L85.6256 55.6409C85.4713 55.6212 85.2018 55.658 85.1016 55.5036C85.0442 55.4152 85.2445 55.3479 85.2419 55.2821C85.2267 54.9041 85.1105 54.6431 84.7657 54.5788C84.7125 54.6365 84.6483 54.6739 84.5731 54.6912C84.4893 54.6651 84.4124 54.6262 84.3425 54.5744C84.1294 54.5252 83.938 54.3956 83.7036 54.3552C83.6076 54.3635 83.514 54.3535 83.4226 54.3254C83.3079 54.2627 83.259 54.3104 83.276 54.4684C83.0882 54.4796 83.1438 54.6081 82.8799 54.424L82.8497 54.4934C82.666 54.9013 82.5278 54.948 82.7844 55.4265C78.9982 57.1734 75.3097 59.1206 71.5465 60.9148C69.7573 61.7678 67.8799 62.4122 66.0367 63.134C65.1662 63.4748 64.308 63.8949 63.4172 64.174L63.2131 64.2369C62.9833 64.3092 62.8035 64.3823 62.6205 64.5898C62.4469 64.7866 62.5539 65.0864 62.2478 64.7323L62.1981 65.321C62.6218 65.274 62.6138 65.815 62.4941 66.0897C62.4765 66.1301 62.3385 66.0836 62.2927 66.1972C62.2542 66.2929 62.2568 66.4841 62.264 66.5959L62.2661 66.6243C62.3059 67.1187 62.4121 66.7727 62.6259 67.1294C62.809 67.4345 62.6293 68.0981 62.6782 68.4408C62.7363 68.8487 62.7259 69.1067 62.6454 69.5155C62.7998 69.7226 62.7769 69.8381 62.5769 69.8619C62.4719 69.887 62.4017 69.9504 62.3664 70.0519C62.284 70.2016 62.2959 70.2436 62.3424 70.3961C62.4306 70.3994 62.5049 70.433 62.5648 70.4968C62.6012 70.6078 62.6158 70.7211 62.6086 70.8366C62.6466 71.1152 62.5351 71.4179 62.511 71.6944C62.4571 72.3044 62.4861 72.913 62.3993 73.5228C62.336 73.3972 62.2519 73.2871 62.1476 73.1929C62.0722 73.4725 62.0222 73.7587 61.9651 74.0424C62.9402 73.8099 61.9249 75.795 61.8755 76.1401C61.8241 76.4998 61.9956 76.774 61.9804 77.1209C61.9651 77.472 61.8054 77.7882 61.8086 78.1551C61.8152 78.9185 61.6567 79.6909 61.6799 80.4475L61.682 80.4851C61.7129 80.8689 62.0208 81.9843 61.4864 82.0552C60.8239 82.1431 60.852 80.3973 60.8098 80.01C60.656 78.5995 60.3709 77.207 60.305 75.7864C60.2338 74.2542 60.1844 72.7058 60.1537 71.1717C60.1213 69.5522 60.153 67.892 60.308 66.2793C60.3652 65.6821 60.6651 64.896 60.5772 64.3048C60.5141 63.8799 60.1773 63.7279 59.8214 63.5435C58.4451 62.8304 56.9005 62.3654 55.4282 61.8998C54.9076 61.7351 53.4752 61.5565 53.238 60.9774C53.5821 60.9441 53.5881 60.6912 53.8233 60.5293C53.9506 60.4417 54.077 60.5607 54.1583 60.4423C54.2026 60.3775 54.1655 60.098 54.1963 59.99C54.2427 59.8282 54.3741 59.6029 54.488 59.481C54.6432 59.3147 54.8312 59.3647 54.8922 59.3169C55.1168 59.1409 55.2326 58.7387 55.3465 58.4885C55.5545 58.0319 56.0193 57.5659 56.1306 57.0747L56.142 57.0161L56.1931 57.0606C56.2721 57.127 56.4168 57.2416 56.4624 57.2405L56.4696 57.239C56.4787 57.2347 56.5208 56.9183 56.5428 56.8786C56.6752 56.6416 56.9091 56.3645 57.0969 56.1675C57.4226 55.8257 57.966 55.6275 57.9429 55.0723C58.0456 55.1595 58.163 55.2144 58.2949 55.2373C58.2846 55.1423 58.2543 55.0544 58.2039 54.9733C58.7579 54.9562 58.66 54.5674 58.957 54.3108C59.0755 54.2086 59.4154 54.1899 59.6343 54.0303C60.0962 53.6934 60.3458 53.1391 60.8216 52.8169C61.1311 52.6073 61.4526 52.4292 61.762 52.2187L61.8938 52.1263C62.076 51.9945 62.2853 51.8744 62.4488 51.72C62.582 51.5938 62.661 51.3722 62.7848 51.2715C62.9243 51.1582 62.9465 51.3072 63.0901 51.2431C63.2823 51.1574 63.5407 51.0205 63.7039 50.8876C63.9753 50.6665 64.2071 49.9858 64.3696 50.5092L64.4988 50.0294L64.7863 50.0271C64.8866 49.9439 64.9503 49.8191 65.0554 49.7422C65.3434 49.5315 65.7337 49.489 66.0496 49.3153L66.1822 49.2415C66.4783 49.0747 66.8246 48.8659 67.0638 48.6819C67.2235 48.559 67.4084 48.2827 67.6194 48.243C67.4495 48.7021 68.1755 48.1812 68.3162 48.1054C68.8931 47.795 69.4777 47.547 70.1523 47.5893ZM45.2787 90.1445C45.3157 90.0515 45.0374 89.7583 45.0754 90.249L45.0821 90.3176L45.1594 90.2949L45.1969 90.2843L45.2787 90.1445ZM42.3992 88.2235L42.3967 88.2558C42.3825 88.401 42.3253 88.6713 42.5006 88.724L42.7361 88.6911C42.6364 88.5264 42.5189 88.3735 42.3992 88.2235ZM35.4539 85.4882L34.8865 85.8078L34.9745 85.8409C35.2268 85.9329 35.2466 85.8942 35.4539 85.4882ZM30.4915 83.7154C30.1266 83.8793 30.6376 84.373 30.3833 84.5702L30.375 84.5758L30.391 84.5702C30.7171 84.4443 30.472 84.122 30.49 83.7399L30.4915 83.7154ZM105.838 58.0513C104.578 60.3538 102.708 62.288 100.633 63.8605C100.152 64.2249 99.6669 64.4765 99.1472 64.7755C98.6911 65.038 98.3161 65.4159 97.8804 65.7085C96.8195 66.4212 95.6449 67.0397 94.5029 67.6131C94.0679 67.8313 93.4517 67.9726 93.0617 68.2695C92.6277 68.5999 92.5459 69.1296 92.4424 69.6411C92.2092 70.7955 91.9252 71.9151 91.5833 73.04L91.5091 73.2811C91.0765 74.6716 90.6746 76.0713 90.2338 77.4592L90.0521 78.0308C89.7017 79.1404 89.3752 80.2757 89.3752 81.4447C90.0554 81.3764 90.6 80.6326 91.0414 80.1468L91.1037 80.0793C91.8269 79.3104 92.4238 78.4888 92.9765 77.5899C94.0752 75.8028 95.0733 73.9813 96.0493 72.1249C96.3712 71.5126 96.8132 70.1375 97.4954 69.8294C98.1952 69.5131 98.6017 70.4988 98.7358 71.0386C99.1296 72.6224 98.5439 74.2955 98.329 75.8624C99.9709 74.6599 100.736 72.4914 101.475 70.6743C101.686 70.1538 101.911 69.6375 102.112 69.113C102.248 68.7585 102.34 68.1968 102.687 67.9693C103.368 67.523 103.766 68.6023 103.885 69.0965C104.106 70.0199 103.882 70.924 103.96 71.8368C104.04 72.7667 104.752 71.7097 104.962 71.3704C106.265 69.2679 106.213 66.1637 106.288 63.7724C106.318 62.7953 106.374 61.8115 106.344 60.8338C106.314 59.8802 106.043 58.9763 105.838 58.0513ZM15.6598 78.2389C15.2216 77.9453 15.3337 78.3565 15.4777 78.3527L15.6598 78.2389ZM12.0161 77.8206C12.1331 77.4925 12.0552 77.3827 11.782 77.4912C11.7421 77.7611 11.8202 77.871 12.0161 77.8206ZM61.6881 77.5781L61.7458 77.2177L61.2341 77.3472L61.6881 77.5781ZM9.632 76.8669C9.47107 76.9749 9.29351 77.0292 9.34365 77.2698L9.41326 77.248C9.61595 77.1829 9.61733 77.1558 9.632 76.8669ZM5.44277 76.077C5.51266 76.4575 5.82303 76.5468 6.15285 76.6138C6.34192 76.6522 6.41038 76.7234 6.50413 76.8894L5.2993 76.6152L5.44277 76.077ZM1.97561 74.8944L1.95496 74.8667C1.90537 74.8034 1.7869 74.6638 1.74834 74.7077C1.64905 74.8203 1.8803 75.307 1.92561 75.4105C1.98768 74.9636 2.34862 75.2298 2.6195 75.2896L2.84976 75.166C2.62135 74.994 2.21268 74.4125 1.97561 74.8944ZM0.0165896 75.1952C-0.0886135 74.9581 0.0538588 75.0589 0.181437 75.1698L0.330238 75.3041L0.312289 75.3125C0.185169 75.3671 0.0902247 75.3352 0.0273533 75.217L0.0165896 75.1952ZM62.2154 74.1956C62.0516 74.2337 62.1566 74.5047 61.931 74.4199C61.9425 74.4241 62.0252 74.8971 62.0405 74.9522C62.2017 74.7194 62.274 74.4777 62.2154 74.1956ZM61.4797 73.8998C61.2644 74.0329 61.2814 74.2634 61.4134 74.4268C61.5695 74.2662 61.5023 74.1206 61.4797 73.8998ZM61.782 65.7677C61.1266 65.3997 61.3167 65.8923 61.4985 65.8698L61.782 65.7677ZM94.1766 28.0709C94.9799 27.4595 95.6488 28.6134 96.1826 28.9287C96.1452 28.9066 96.4015 28.9393 96.4809 28.98C96.4642 28.9715 96.7723 29.2173 96.7756 29.2132L96.7746 29.2115L96.8506 29.2875C97.1374 29.5858 97.3612 29.9423 97.6381 30.2533L97.715 30.3369C97.9842 30.6193 98.2704 30.8915 98.5225 31.1894C98.8157 31.5362 98.9457 31.9483 99.2119 32.3068C99.5191 32.7207 99.8343 32.9582 100.059 33.4142L100.092 33.4843C100.265 33.8708 100.513 33.9506 100.763 34.2451C100.993 34.5154 101.016 34.991 101.203 35.1814L101.446 35.4259C101.742 35.7249 102.011 36.0107 102.258 36.4183C102.508 36.8303 102.811 37.1806 103.081 37.5778C103.301 37.9006 103.358 38.2636 103.552 38.5854C103.699 38.8282 103.89 39.0318 104.031 39.2814C104.153 39.4962 104.256 39.7157 104.394 39.9214C104.329 40.1131 104.387 40.1957 104.568 40.1694L104.698 40.2722C104.914 40.6621 105.032 41.0173 105.303 41.3865C105.602 41.7943 105.834 42.2319 106.042 42.693C106.256 43.1674 106.378 43.6773 106.586 44.1493C106.748 44.5164 107.192 44.7774 106.95 45.207C107.625 45.2142 107.036 45.4428 107.064 45.5938C107.109 45.8469 107.397 45.9512 107.497 46.1655C107.522 46.2194 107.593 46.5109 107.628 46.6208C107.663 46.7325 107.619 47.5745 107.648 47.5939C107.803 47.6968 107.952 47.4814 108.087 47.4483C108.187 47.6658 108.563 48.0655 108.542 48.3087C108.52 48.5572 108.167 48.6165 108.229 48.8823C108.277 49.0873 109.256 49.2869 108.924 49.7688C108.84 49.8914 108.567 49.7608 108.507 49.9358C108.389 50.2792 109.062 50.3414 109.193 50.5004C109.427 50.7854 109.237 51.2119 109.352 51.5346C109.432 51.7588 109.672 51.9478 109.832 52.1309L109.775 52.1317C109.364 52.144 109.583 52.2972 109.684 52.5882C109.77 52.8353 109.794 53.1042 109.83 53.362L109.836 53.3978C109.894 53.7275 110.127 54.2461 109.693 54.0329L110.001 54.4082C110.159 54.5031 110.175 54.6174 110.049 54.7514L110.089 54.9626C110.143 55.2339 110.198 55.3714 110.484 55.5459C110.376 55.6725 110.519 56.4374 110.555 56.6854L110.56 56.7255C110.61 57.1535 110.747 57.5615 110.834 57.9819C111.024 58.8984 110.831 59.8687 111.144 60.7621C111.269 61.1193 111.05 61.4928 110.864 61.7811C110.592 61.0807 110.577 60.3101 110.517 59.5704C110.451 58.7659 110.288 57.9874 110.082 57.2084C109.765 56.0063 109.454 54.9027 108.995 53.7513C108.701 53.0116 108.38 52.2832 108.076 51.5472C107.861 51.0249 107.838 50.4199 107.526 49.9747C107.169 49.4673 106.856 48.8643 106.663 48.2517C106.607 48.075 106.626 47.8053 106.54 47.6493C106.49 47.5595 106.29 47.4649 106.266 47.4051C105.546 45.6264 104.357 44.0689 103.402 42.419C102.618 41.0647 101.712 39.7911 100.883 38.4632L100.707 38.1778C99.7884 36.6756 98.7764 35.2525 97.8589 33.7519C97.4903 33.1491 96.7982 32.4738 96.6168 31.7824C96.5509 31.531 96.595 31.4519 96.5045 31.2907C96.367 31.0465 96.1587 31.1664 96.1988 30.8052C95.8055 31.108 95.3326 30.051 95.1791 29.8323C95.0369 30.1184 94.3785 29.4401 94.2518 29.3025C93.9568 28.9823 93.7541 28.3925 94.1766 28.0709ZM68.6738 52.2218C68.2543 52.1862 67.8259 52.5437 67.4788 52.7575L67.4432 52.779C66.8708 53.1196 66.3101 53.4666 65.7638 53.8488C64.8023 54.5216 63.852 55.2187 62.9965 56.0257L62.8564 56.1589C61.8958 57.0803 59.6315 59.4295 60.9469 60.6147C61.8151 61.397 63.6803 61.1592 64.3026 60.1682C64.5614 60.4851 65.2823 60.2276 65.5525 59.9805C65.6931 59.8518 65.6784 59.623 65.7652 59.5351L65.8497 59.4497C65.9643 59.3365 65.8693 59.46 66.1031 59.4345L66.1294 59.4312C66.3363 59.4019 66.361 59.5088 66.534 59.3584C66.6648 59.2445 66.6148 59.0796 66.7812 58.9746C66.9215 58.8861 67.0525 59.0451 67.1992 58.9091C67.3303 58.7875 67.3151 58.5317 67.3547 58.3704C67.509 58.3537 67.4888 58.522 67.4614 58.6182C67.7633 58.4493 67.8152 58.2832 67.6111 57.9922C68.099 58.2522 68.6435 57.6101 68.7806 57.2C68.8438 57.0109 68.877 56.5469 68.5955 56.5392C68.5716 56.4564 68.7063 56.3365 68.6888 56.163C68.6726 56.0026 68.5843 55.7917 68.4837 55.6607C68.3181 55.4449 68.1245 55.3553 67.8604 55.3177C67.2357 55.2291 66.5803 55.531 65.9513 55.531L66.7358 55.1061L66.3931 55.0066C66.4796 54.8455 66.9432 54.9087 67.0955 54.8245C67.3314 54.6942 67.3793 54.3582 67.6958 54.3987C68.0851 54.4484 68.23 54.2724 68.1506 53.8986C68.4013 53.9234 68.5596 53.728 68.79 53.6805C68.926 53.6525 69.0708 53.7042 69.2081 53.6772C69.4419 53.6313 70.1286 53.3261 70.3035 53.1374C70.6773 52.7335 70.1016 52.6619 69.8053 52.6185C69.3955 52.5584 69.063 52.2549 68.6738 52.2218ZM66.9775 56.7069L66.9922 56.7076C67.554 56.7693 66.8516 57.3556 66.5822 57.5664L66.3401 57.7519C65.2298 58.5992 63.6745 59.7509 62.2523 59.4165C62.5708 58.8385 63.1547 58.6177 63.6322 58.2106C63.9701 57.9226 64.2881 57.3695 64.8121 57.6106L64.8059 57.5471C64.7595 57.0249 64.9443 57.5038 65.1677 57.4094C65.3058 57.3508 65.5081 57.0001 65.6219 57.1624L65.6323 57.1791C65.8163 57.5111 66.7057 56.7105 66.9775 56.7069ZM105.786 56.4202L105.771 56.5241C105.744 56.6941 105.717 56.7122 105.535 56.8343L105.524 56.7239C105.503 56.472 105.532 56.4667 105.786 56.4202ZM64.2507 56.3797C64.4172 56.5079 64.1724 56.6799 64.0846 56.735L63.9692 56.8121C63.9927 56.6329 64.1003 56.4759 64.2507 56.3797ZM77.5344 56.2445C77.8937 56.1075 76.7664 55.9188 76.7698 56.106C76.7739 56.318 77.4107 56.2916 77.5344 56.2445ZM64.7737 56.2362L64.7479 55.6819L64.7631 55.6849C64.8992 55.7084 65.4692 55.7372 65.1877 55.9599C65.0535 56.0577 64.9154 56.1499 64.7737 56.2362ZM81.5353 51.7484L81.7221 52.2841C81.4597 52.1752 81.1868 51.9279 80.9144 52.1766C81.1686 52.3918 80.866 52.5915 80.6553 52.6335C80.524 52.6276 80.3956 52.6056 80.2698 52.5679C80.164 52.5953 80.1334 52.6617 80.1782 52.7668C80.2057 52.8918 80.1721 52.9973 80.0776 53.0829C79.9445 53.1359 79.8108 53.1875 79.6767 53.2379C79.5103 53.3083 79.353 53.3998 79.1824 53.4613C78.6358 53.6584 78.0512 53.6602 77.5177 53.9059L77.4693 53.9286C77.0347 54.1364 76.625 54.4214 76.3519 53.8201C76.0542 54.1429 75.8074 54.5677 75.302 54.5028L75.4334 54.7319C75.6749 55.1459 76.1066 55.8025 76.5 55.5588C76.9172 55.3005 77.4979 55.2225 77.9685 55.0972C78.5106 54.9528 79.0573 54.7672 79.6177 54.7236C80.1086 54.6853 80.208 54.6269 80.6282 54.423C81.0436 54.2211 81.5722 54.1799 82.0335 54.0982L82.2006 54.0666C82.6399 53.9801 84.1602 53.654 83.9016 53.2012C83.7576 52.9489 82.8678 53.1446 82.9638 52.6616C83.114 52.7589 83.2775 52.7946 83.4543 52.7689C83.3536 52.4221 83.0285 51.9753 82.656 51.8908L82.6945 51.9372C82.7999 52.0688 83.0116 52.3659 82.8904 52.4619C82.5648 52.7197 82.5411 51.9545 82.4583 51.8519C82.3148 51.9878 82.3408 52.3244 82.0911 52.3433C82.0517 52.3463 81.6654 51.8039 81.5353 51.7484ZM15.7441 33.2745L15.7043 33.2619C15.4033 33.1631 14.639 32.8554 14.4195 33.149C14.2613 33.3606 14.4475 33.9248 14.4948 34.1473C14.7127 35.1715 15.062 36.1676 15.386 37.1613C15.9017 38.7434 16.3238 40.3561 16.8341 41.9408C17.4039 43.71 17.9992 45.4763 18.743 47.1803L18.9147 47.5689C19.5143 48.9393 20.0979 50.6113 21.3573 51.4918L21.3651 51.4555C21.4408 51.064 21.4016 49.99 22.0168 50.1504C22.5289 50.2839 22.5444 51.402 22.6681 51.8081C23.5306 51.6571 22.6042 47.0304 22.908 46.281C23.4458 44.9545 24.7798 47.9329 25.2756 49.1226L25.4607 49.5761C25.6593 50.0525 27.3546 53.3511 27.9873 52.0401C28.4475 51.0864 27.991 49.5354 27.8351 48.5009L27.8175 48.3827C27.7448 47.9202 27.5423 46.9742 27.8848 46.6226C28.1701 46.3299 28.2701 46.601 28.4689 46.8023C28.7785 47.1154 29.1267 47.1284 29.2581 47.6517C29.5516 48.821 29.9651 49.7889 30.6122 50.8055L30.8883 51.2334C31.3576 51.9571 31.9495 52.802 32.776 53.0178C32.776 52.1343 32.7608 51.2457 32.7123 50.3636L32.7033 50.2181C32.6653 49.6484 32.606 49.0416 32.9925 48.572C33.9685 47.3863 35.0755 49.4433 35.9489 49.8324C34.7777 48.063 34.1601 45.9956 33.3454 44.0523C32.4409 41.8951 31.43 39.787 30.5711 37.6102C30.3408 37.0267 30.2089 35.902 29.589 35.6081C29.2827 35.4628 28.7946 35.5019 28.4722 35.4628C27.975 35.4026 27.4782 35.3406 26.9816 35.2753C24.9942 35.0135 23.0232 34.6645 21.0478 34.327C19.2698 34.023 17.4746 33.7977 15.7441 33.2745ZM100.35 48.7697C99.9925 48.0891 98.7454 48.3868 98.131 48.397L98.1003 48.3973C97.0523 48.3977 95.9797 48.5087 95.0409 49.0131L94.9646 49.0547C94.27 49.4379 93.1793 50.1825 93.7463 51.0577C94.1968 51.7531 95.18 52.1156 95.9551 52.3758L96.1178 52.4301C96.5722 52.5812 98.0563 53.0188 98.3644 52.6182C98.7917 53.0639 99.5168 52.7478 99.9086 52.6643C99.9205 52.6617 100.033 52.7663 100.112 52.7531C100.302 52.7207 100.423 52.529 100.494 52.3695C100.604 52.1226 100.573 51.4786 100.473 51.2229C100.244 50.6384 99.3216 50.4433 98.7473 50.4119L98.6721 50.4086C98.4039 50.3996 97.9581 50.417 97.9577 50.7875C97.9573 51.1352 98.4829 51.2457 98.7195 51.3896C98.5198 51.8165 95.902 50.8832 95.6976 50.4977C95.8292 50.5369 96.0455 50.2927 96.1648 50.2663C96.2823 50.2403 96.555 50.2859 96.6924 50.2784C97.3836 50.241 98.0603 50.2428 98.7505 50.3016C99.802 50.391 100.881 50.6373 101.934 50.6373C101.833 50.293 101.754 49.921 101.572 49.6082L101.526 49.5273C101.469 49.4297 101.397 49.3151 101.316 49.2658C101.246 49.2232 101.096 49.3387 101.072 49.3227C100.864 49.1813 100.59 48.2994 100.35 48.7697ZM80.9151 49.7289C80.8294 49.7331 80.7597 49.9021 80.7499 49.9013C80.6942 49.8974 80.5719 49.9721 80.4986 49.9714C80.3559 49.97 80.2705 49.7973 80.1536 49.8157C79.974 49.8441 80.0424 50.0351 79.9008 50.0886C79.7918 50.1299 79.6826 50.1006 79.6307 50.1064C79.578 50.1126 79.4959 50.0043 79.349 50.0638C79.2688 50.0963 79.2915 50.2956 79.1904 50.3404C78.7844 50.5206 78.7591 50.2051 78.8071 49.9232C78.6732 50.1062 78.2604 50.3942 78.4267 50.6649L78.3987 50.6572C78.1558 50.5861 77.6959 50.3545 77.7799 50.811L77.7257 50.7737C77.4332 50.5683 77.372 50.4681 77.0157 50.7048C77.6897 51.034 76.7104 51.062 76.4606 51.0697C76.3851 51.072 76.1665 51.0546 76.116 51.0653C75.9262 51.1053 75.8209 51.2787 75.6652 51.3223C75.2498 51.4388 75.4662 51.1738 75.1195 51.1422C75.1868 51.8599 74.5492 51.1441 74.3382 51.5644C74.2039 51.8325 74.1726 52.38 74.3613 52.632C74.5762 52.9195 74.8473 52.8434 75.1773 52.7889C75.9117 52.6677 76.4775 52.1238 77.2 52.0013C77.434 51.9616 77.6306 52.065 77.8384 52.0521L77.9996 52.1596C78.0655 52.0727 78.1444 51.9993 78.2358 51.9395C78.6151 51.7491 78.9686 51.6014 79.3831 51.4989C80.1483 51.3099 81.3759 51.3693 81.9844 50.8087C81.6481 50.642 81.3564 50.4381 81.1371 50.1256C81.0914 50.0601 81.0404 49.7228 80.9151 49.7289ZM37.4233 49.3694C37.2888 49.7392 37.6166 50.0132 37.0963 49.865L37.035 49.8468L37.2385 50.0759L37.4564 50.3791C36.901 50.5246 37.8029 51.0186 37.9927 51.1596L38.0012 51.1661C38.2875 51.3887 38.8203 52.0269 39.2432 51.9623L39.2732 51.9565L38.6368 49.3774C38.2685 50.001 37.8888 49.6808 37.4233 49.3694ZM102.11 50.4968C101.886 50.722 102.615 50.9795 102.665 50.6541L102.11 50.4968ZM77.9 46.9422C77.7861 46.9858 77.6824 47.3161 77.5667 47.4009C77.5093 47.443 77.3104 47.4015 77.2321 47.4242C77.0601 47.4738 76.9481 47.6203 76.7907 47.6961L76.6507 47.7659C76.5332 47.8226 76.4211 47.8616 76.2775 47.8211C76.1782 47.793 76.2293 47.567 76.0762 47.6024C75.7226 47.6841 75.8218 48.1766 75.4063 48.1816C75.09 48.1855 74.9755 47.761 74.6182 47.8558C74.9618 48.0125 74.9851 48.3693 74.5785 48.4096C74.3603 48.431 74.2202 48.1996 73.9881 48.2971C73.8114 48.3714 73.8563 48.7221 73.6313 48.7571C73.3142 48.8063 73.5113 48.3533 73.3475 48.2142L73.335 48.2746C73.2282 48.8376 73.3278 49.6222 73.9472 49.6549C74.3935 49.6784 75.1165 49.2995 75.536 49.1672C76.0524 49.0043 76.5601 48.8694 77.0912 48.782L77.2367 48.7594C77.5189 48.718 79.0088 48.5735 79.0296 48.1038C79.0327 48.0309 78.786 48.077 78.7773 48.0235C78.7584 47.9073 78.8221 47.9103 78.8408 47.8004C78.8878 47.5271 79.2384 47.4263 78.7677 47.2305C78.9462 47.6194 78.0758 47.5214 78.0758 47.2066C78.1951 47.3128 78.2711 47.2963 78.3039 47.1568C78.2503 47.1391 77.8767 46.951 77.9 46.9422ZM37.8664 45.8788C37.7634 46.2846 37.9496 46.8587 37.4459 47.0435C37.3803 47.0676 36.6442 47.0219 36.6454 47.0255C36.6983 47.1885 36.4144 47.3382 36.3959 47.5184C36.378 47.6919 36.5442 48.0373 36.6334 48.192L36.6456 48.2127C36.9606 48.7381 37.0019 48.4929 37.3748 48.2979C37.8111 48.0699 38.3868 48.2263 38.341 47.5214C38.3208 47.2094 38.1032 46.9607 38.028 46.669C37.964 46.4208 38.074 46.0707 37.8664 45.8788ZM30.6423 47.6128L31.2655 48.2435C31.1232 48.3733 30.7922 48.0997 30.6633 48.0291L30.6507 48.0225C30.4488 47.924 30.5275 47.7392 30.6423 47.6128ZM47.8915 34.4707C46.1369 33.1059 43.5092 34.9555 41.9717 35.9367L41.7328 36.0896C40.7546 36.7223 38.2497 38.459 39.6574 39.468C39.7614 39.183 40.1159 39.0019 40.3553 38.8288L40.3858 38.8062C40.4762 38.738 40.6776 38.6338 40.7356 38.5283C40.7741 38.4581 40.7356 38.3137 40.7685 38.2382L40.7744 38.2272L40.7743 38.2286C40.7861 38.2618 41.3726 37.988 41.3533 38.006L41.3514 38.0073L41.3855 37.9886C41.8379 37.7273 42.214 37.3173 42.6341 37.0032L42.7134 36.9455C43.0568 36.7025 43.415 36.4814 43.7753 36.2645L44.1788 36.0228C44.9278 35.5783 45.8996 35.0671 46.7846 35.2363C48.0388 35.4762 47.8929 37.0786 47.723 38.0366L47.7172 38.069C47.4914 39.3205 47.0566 40.5619 46.5123 41.709C46.0006 42.7869 45.3522 43.7931 44.6306 44.7403C44.2937 45.1823 43.9454 45.6276 43.5642 46.0318C43.3316 46.2785 42.7782 46.6885 42.8586 47.0944C42.959 47.07 43.0289 47.0098 43.0682 46.9138L43.1079 46.9715C43.3323 47.3109 43.408 47.629 43.8425 47.1882C43.985 47.0436 44.0802 46.8445 44.2252 46.6937C44.4353 46.4753 44.4878 46.5557 44.6476 46.2546C44.7529 46.0562 44.7618 45.9047 44.9088 45.7347C44.981 45.651 45.1417 45.6045 45.2333 45.486C45.466 45.1852 45.7202 44.8676 45.9537 44.5582C45.5304 44.5582 46.5178 43.665 46.6402 43.4711L46.6682 43.4233C46.8353 43.1227 47.4079 41.9087 46.9775 41.8406L47.0626 41.7099C47.4347 41.1353 47.6582 40.7317 47.8341 40.0136C48.0042 39.3202 48.3654 38.8383 48.3765 38.0986C48.3864 37.434 48.45 36.8007 48.3756 36.1506L48.36 36.0284C48.2904 35.5366 48.3334 34.8144 47.8915 34.4707ZM70.808 47.162C70.6117 47.0867 70.0713 46.7202 69.8765 47.0127C69.6419 47.3646 70.234 47.2042 70.3066 47.2696C70.5054 47.4483 70.6462 47.2743 70.808 47.162ZM75.4486 44.1129C75.3628 44.2065 75.2851 44.438 75.1921 44.4996L75.0164 44.6157C74.7303 44.8078 74.6378 44.9122 74.6606 45.3572C74.5042 45.2781 74.3076 45.066 74.132 45.0483C73.9407 45.0292 73.9158 45.1994 73.7907 45.203C73.7954 45.2029 73.7276 45.3823 73.662 45.4058C73.5215 45.4565 73.3733 45.1255 73.2949 45.071C73.1377 45.3106 72.7637 45.3266 72.533 45.4512C72.5296 45.5921 72.6919 45.6422 72.6999 45.7675C72.7061 45.8657 72.6384 45.8696 72.6373 45.9355C72.6331 46.1455 72.5228 46.4298 72.7154 46.6661C72.9602 46.9664 73.2898 46.843 73.5902 46.7106L73.6948 46.6641C74.1344 46.4702 75.4932 45.523 75.8671 46.2094C76.0517 45.7034 76.656 45.5929 77.1245 45.6847C76.9042 45.1511 76.5617 44.8545 76.012 44.7506L75.8523 44.7208C75.5244 44.6575 75.3772 44.5927 75.4486 44.1129ZM41.9721 40.3607L41.9618 40.292C41.8668 39.7236 41.5774 39.5402 41.0445 39.8251C40.4151 40.1618 39.7347 40.7235 39.2915 41.2818C39.0583 41.5756 38.9198 41.9218 38.6944 42.218C38.4885 42.4882 38.2128 42.5902 38.4496 42.9692C37.9908 42.6185 37.612 43.5821 37.2401 43.753C36.75 43.9785 35.7324 43.8548 35.3505 44.2133C35.11 44.439 35.1857 44.8856 35.379 45.1322C35.6613 45.4926 35.8931 45.3529 36.2847 45.2614L36.65 45.1775C37.2904 45.0253 37.7471 44.845 37.6459 44.0261C38.0722 44.2807 38.4451 44.2465 38.857 44.0302L38.8958 44.0094C39.1357 43.8776 39.591 43.7018 39.7851 43.5291C40.0776 43.2693 39.9614 43.002 40.2988 42.7691C40.6834 42.5037 41.0392 42.3148 41.3925 41.9772C41.5356 41.8405 41.4468 41.7344 41.5435 41.5893C41.599 41.5062 41.7824 41.5052 41.838 41.4167C42.0123 41.1393 42.0138 40.6734 41.9721 40.3607ZM106.259 43.842L106.204 43.9145C106.066 44.0994 106.115 44.0889 106.215 44.3323L106.233 44.2868C106.309 44.1098 106.407 43.9876 106.259 43.842ZM72.9128 41.9541C72.2589 41.8192 71.7567 42.8985 71.9133 43.4211C72.162 44.2516 73.8179 43.2965 74.3534 43.166C74.0142 42.9887 74.1848 42.4982 73.8463 42.3056C73.6954 42.2199 73.4121 42.2635 73.238 42.1805C73.1133 42.1211 73.0736 41.9872 72.9128 41.9541ZM38.299 39.9672C37.5296 39.7584 37.2783 41.0602 37.1722 41.5262C36.9595 41.1243 36.9942 40.407 36.5326 40.1813L36.4971 40.1653L36.4354 40.5947C36.0858 40.2608 36.03 40.6561 35.8772 40.8793C35.6229 41.251 35.427 41.3122 35.0505 41.2149C34.9517 41.2185 34.8583 41.2427 34.7701 41.2877C34.9081 41.0285 34.988 41.0159 35.2714 41.0655C35.1591 40.3227 34.3691 41.3446 33.987 41.3151L34.4799 42.6506L34.6292 42.5871C35.2254 42.331 35.8077 42.0546 36.4635 42.0187C36.6971 42.0059 36.9973 42.1481 37.1895 42.0925C37.4135 42.028 37.2981 41.6021 37.5917 42.06C37.7252 41.6943 39.1628 40.2017 38.299 39.9672ZM39.8074 41.7473C39.7887 41.7655 39.8437 42.0391 39.5554 42.0983C39.5356 41.9382 39.6197 41.8213 39.8074 41.7473ZM89.0537 37.255C88.6743 36.8858 87.184 37.7161 86.7415 37.8761C85.0265 38.4962 83.2266 38.7985 81.4489 39.1743C80.6706 39.3389 80.0522 39.6797 79.3148 39.9423C79.0223 40.0465 78.7229 40.0412 78.4364 40.1396C78.2171 40.2149 78.3039 40.3504 78.0361 40.2937C78.1452 40.3167 77.5148 40.6861 77.5441 40.5782C77.4377 40.97 78.2106 41.0432 78.4885 41.0351C78.6556 41.0302 78.9954 40.9367 79.1833 40.9022C79.4228 40.8581 79.5952 40.8995 79.6658 40.5967C80.3888 41.1293 81.7206 40.6784 82.5053 40.497C83.5553 40.2542 84.6373 39.9348 85.659 39.5915C86.0894 39.4469 86.5245 39.3301 86.9577 39.2011L87.1742 39.1353C87.3803 39.0714 87.6996 39.0083 87.8652 38.8623C88.0164 38.7291 87.811 38.5385 88.1046 38.4307C88.3719 38.3326 88.6307 38.5796 88.9279 38.4634C89.3428 38.3011 89.351 38.1648 89.324 37.8261C89.3273 37.8671 89.0137 37.2159 89.0537 37.255ZM70.8948 39.7671C70.9625 39.9893 70.9689 40.478 71.1516 40.6414C71.2625 40.7408 71.7938 40.8137 71.7936 40.5212C71.7934 40.1309 71.2036 39.8451 70.8948 39.7671ZM38.5635 39.3834C38.6093 39.338 37.9757 39.4566 38.2253 39.7217C38.3388 39.6096 38.4515 39.4969 38.5635 39.3834ZM30.5195 16.4759C29.8652 16.2553 29.156 16.3756 28.4959 16.4998L28.5201 16.5622C28.6475 16.8822 28.8035 17.1688 28.5782 17.5013L28.5647 17.4566C28.498 17.2191 28.5095 17.0035 28.2107 17.0795C27.9094 17.1563 28.0205 17.6249 27.7451 17.7613C27.7351 17.6375 27.6979 17.5224 27.6331 17.4165C27.5833 17.6389 27.539 18.1758 27.7218 18.3647C27.9756 18.6266 28.1564 18.3184 28.2787 18.6985C28.3236 18.8378 28.2368 19.3085 28.1601 19.437C28.0324 19.6511 28.0185 19.5393 27.7397 19.6576C27.4113 19.7974 27.4213 19.9748 27.1687 20.2093C26.8147 20.5378 26.2337 20.7234 25.8098 20.9422C24.8283 21.4492 23.8283 21.912 22.8232 22.3693C20.7865 23.2961 18.7305 24.0571 16.5602 24.5945L16.3353 24.6493C16.0248 24.7236 13.4508 25.0275 13.8455 25.4604C14.3604 26.0256 15.4032 26.2114 15.8405 25.4511C16.1189 25.7606 16.4402 25.4764 16.7402 25.3749C17.0738 25.2622 17.2236 25.3027 17.5642 25.3424C17.8367 25.374 18.1336 25.3976 18.4057 25.3464C18.6431 25.3017 18.8321 25.0769 19.0022 25.0315C19.0857 25.0092 19.2559 25.1238 19.3718 25.0859C19.4476 25.0609 19.4712 24.9683 19.5353 24.9467C19.851 24.8395 20.0704 24.7204 20.4262 24.6718C21.1338 24.5751 21.661 24.1426 21.7833 23.4111C22.5243 24.4904 23.5222 22.4213 24.1445 23.0292C24.2047 22.7343 24.5654 22.8705 24.7485 22.6736C24.5069 22.54 25.1544 22.2606 25.4579 22.4857L25.4514 22.3801C25.4164 21.7598 25.5084 22.2758 25.6324 22.2464C26.265 22.097 26.7502 21.5962 27.4192 21.4676L27.5356 21.4446C27.982 21.3526 27.8306 21.3185 27.8692 20.7358C28.2246 21.1139 28.0574 21.7082 28.1108 22.1802C28.1881 22.8635 28.4069 23.52 28.4586 24.2062C28.5084 24.8681 28.4451 25.5206 28.7177 26.1425C28.9191 26.6019 29.0954 27.0171 29.2577 27.4887C29.3633 27.7953 29.7026 28.1187 29.7611 28.4202C29.7948 28.5933 29.653 28.7556 29.6884 28.9261C29.7414 29.1809 29.9576 29.3732 30.0509 29.6174C30.2221 30.0648 30.2539 30.55 30.4343 30.9987C30.5512 31.2893 30.9008 31.7757 30.6776 32.0843L30.4121 31.7997C30.5358 32.1985 30.6723 32.8417 30.8746 33.1933L30.9138 33.2602C31.0562 33.4973 31.0919 33.466 31.3205 33.1677C31.5756 33.7892 32.1945 33.9686 32.2138 34.7248C32.2316 35.4074 31.8468 35.7701 31.1782 35.7701L31.4863 36.3461C31.7257 36.7951 31.9611 37.2476 32.1665 37.7115C32.3969 38.2316 32.5562 38.7971 32.8782 39.2715C33.2042 39.7516 33.3555 39.6473 33.8485 39.4604L33.8804 39.4483C34.459 39.2315 35.0253 39.0359 35.6285 38.8918C35.9367 38.8181 36.2878 38.8172 36.4456 38.5123C36.6266 38.1622 36.4176 37.351 36.3768 36.9599L36.3735 36.9245C36.2509 35.4233 36.0144 33.9358 35.7785 32.4491C35.2833 29.3279 35.2167 26.1553 34.6902 23.0442L34.601 22.5172C34.4114 21.41 34.1894 20.2534 33.7512 19.2373C33.6205 18.9343 33.4675 18.637 33.2756 18.3681C33.1228 18.1538 32.787 17.9065 32.7427 17.6312C32.6444 17.0194 33.4431 17.0864 33.536 16.5968C33.3853 16.7418 33.1339 16.5158 32.8411 16.7077C32.4804 16.9442 32.3864 17.1773 31.8972 17.1032C31.3976 17.0274 30.9927 16.6354 30.5195 16.4759ZM39.0287 39.3052L38.8929 38.7925L38.8511 38.8577C38.7263 39.0559 38.7515 39.0767 39.0287 39.3052ZM38.4266 34.0554C37.8806 34.9331 36.4704 35.9576 36.9868 37.1401C37.1655 37.0038 36.9066 36.6993 37.0381 36.6245C37.4087 36.8047 37.1526 36.4014 37.2596 36.3392C37.2925 36.3199 37.5819 36.235 37.5488 36.2772L37.6494 36.1475C37.9274 35.7847 38.27 35.2955 38.3912 34.8739L38.4052 34.8215C38.4722 34.5496 38.6936 34.3017 38.4266 34.0554ZM62.9684 8.73249C62.3962 8.5969 61.3961 9.95254 61.0239 10.3296C60.1925 11.1723 59.4549 12.098 58.6887 12.9991L58.2206 13.5466C56.6593 15.3821 55.1977 17.2548 53.9817 19.3541C53.8385 19.6013 53.7144 19.8319 53.686 20.1195C53.665 20.3322 53.7577 20.5543 53.687 20.7661C53.5644 21.1339 53.2302 21.1215 53.0209 21.4333L52.9627 21.5208C52.5382 22.1647 51.9606 23.1718 51.9745 23.9184C52.0043 25.5469 51.9157 27.1633 52.2515 28.7688C52.5415 30.1562 53.0087 31.5198 53.6199 32.7972L53.6841 32.9294C54.6378 34.8628 56.1109 36.5451 58.3273 36.9202C59.3238 37.0888 60.3439 37.0315 61.1066 36.2995C61.996 35.4457 62.606 34.0839 63.0912 32.9568L63.2357 32.6203C63.4512 32.1131 63.6598 31.5677 63.6485 31.0221C63.6336 30.2962 63.6625 29.6245 63.7026 28.8964C63.7829 27.4446 63.1272 26.0403 63.7549 24.6299C62.7824 24.7839 61.7589 24.5532 60.8198 24.3102C60.9529 25.9838 61.5229 27.611 62.1405 29.1647L62.241 29.416C62.3591 29.7101 63.211 31.4624 62.613 31.4698C62.2387 31.4744 61.9303 30.6149 61.7927 30.363C61.4981 29.823 61.1712 29.3034 60.8983 28.7507C60.2697 27.478 59.8589 26.1231 59.71 24.7119L59.6968 24.5795C59.6238 23.8002 59.4733 23.1755 59.066 22.5019L58.9318 22.2798C58.6071 21.7394 58.3132 21.2127 58.1786 20.5777L58.1656 20.5145C58.0561 19.9691 57.8782 18.7278 58.2796 18.3221C58.5672 18.0315 58.6397 18.4359 58.7279 18.7383C58.8745 19.2412 58.9033 19.7702 59.0559 20.2719L59.0992 20.4122C59.1704 20.6357 59.2628 20.8768 59.4212 21.0401C59.6133 21.2382 59.8772 21.2686 60.0694 21.466C60.2909 21.6935 60.3492 22.0355 60.5776 22.2653C60.7684 22.4573 61.0435 22.5781 61.2924 22.6662C61.8118 22.85 62.3807 22.8917 62.9275 22.8612C64.2255 22.7885 65.2502 22.1146 66.2357 21.3203L66.3561 21.2225C66.6894 20.9499 68.0191 20.1342 67.9407 19.6389C67.2748 19.7691 66.657 18.5829 67.1063 18.0811C67.363 17.7943 67.6419 18.0036 67.9262 18.1747C68.0745 18.2642 68.2263 18.3231 68.3337 18.468C68.4547 18.6314 68.4091 18.8906 68.5857 19.0182C69.0302 18.3597 69.4373 17.6766 69.8799 17.0173L69.9144 16.9674C70.2042 16.5594 70.6718 16.1411 70.3309 15.6505C69.9888 15.1584 69.2783 14.7543 68.7826 14.4001L68.7284 14.361C68.125 13.9192 67.5016 13.5095 66.8846 13.0878C65.8963 12.4132 65.0596 11.5776 64.3341 10.6258C64.0593 10.2653 63.8106 9.89801 63.5844 9.50594C63.4476 9.26887 63.2713 8.80429 62.9684 8.73249ZM46.3456 27.9671C45.8484 27.5951 45.1693 27.8976 44.681 28.1421L44.6495 28.158C43.314 28.8303 42.0792 29.8239 41.0735 30.934L40.9925 31.0242C40.2494 31.8596 39.222 32.7036 38.8858 33.8161L38.8648 33.8891C38.8358 33.9958 38.761 34.8474 39.1456 34.4237L39.161 34.2423C39.1747 34.0961 39.1972 33.9065 39.2275 33.8547C39.3225 33.6924 39.4782 33.561 39.6262 33.4409L39.7057 33.3764C40.0979 33.0558 40.4608 32.8049 40.8008 32.4311C40.9973 32.2147 41.2557 32.053 41.43 31.8486C41.4475 31.8282 41.5408 31.5949 41.6186 31.5038C41.9404 31.128 42.3573 30.8872 42.6905 30.5132L42.7606 30.4309C42.9383 30.2123 43.1025 30.138 43.2955 29.9812C43.3917 29.9031 43.4831 29.8042 43.5809 29.7201C43.6023 29.7017 43.753 29.7936 43.7699 29.7712C43.7996 29.7007 43.8025 29.6291 43.7786 29.5563C43.799 29.4375 43.8674 29.4023 43.9833 29.4507C44.0604 29.3746 44.291 29.2754 44.4114 29.1648C44.6896 28.9088 45.0009 28.7468 45.3474 28.6036L45.5343 28.5284C45.843 28.4073 46.2326 28.2879 46.4252 28.6264C46.525 28.802 46.3434 29.5125 46.5358 29.5884L46.5604 29.524C46.7446 29.0216 46.8232 28.3241 46.3456 27.9671ZM78.2635 29.5768C78.1621 29.517 78.081 29.5407 78.0201 29.6479C77.6616 29.6078 77.306 29.6747 76.9597 29.7638C76.309 29.9311 75.6983 30.2246 75.0783 30.4794L74.8074 30.5894C73.9405 30.9459 72.7686 31.521 72.4272 32.4247C72.0444 33.4382 73.1103 33.614 73.7992 33.9322C73.8827 34.0134 73.9763 34.0805 74.08 34.1331C74.1499 34.1136 74.21 34.0766 74.2601 34.0224C74.4647 34.0544 74.5855 34.1964 74.8029 34.2607C75.1165 34.3537 75.5292 34.2939 75.8641 34.305L75.9259 34.308C76.2796 34.3305 78.852 34.6772 78.7104 33.995C79.1581 34.7734 80.7719 34.1628 81.4023 34.0001C81.8633 33.8809 82.3448 33.9102 82.6809 33.606L82.719 33.5707C82.9791 33.3263 83.4232 32.8511 83.5571 33.4954C84.2722 33.0564 83.251 32.3956 82.8027 32.3383C82.2406 32.2665 81.6589 32.5509 81.113 32.6694L81.0502 32.6823C80.7306 32.744 77.0081 33.1249 77.0669 32.7136C77.0685 32.7029 78.3655 32.4007 78.5134 32.3633C79.1547 32.2013 79.8167 31.957 80.4675 31.8485L80.5615 31.8341C80.9997 31.7715 81.4145 31.76 81.1098 31.1648L81.0801 31.1086C80.8747 30.7336 80.8283 30.9556 80.4607 30.9679C80.4084 30.8549 80.3238 30.8063 80.2069 30.822L80.1831 30.826C80.0442 30.8473 79.9089 30.8819 79.7772 30.9302C79.459 31.0247 79.1422 31.1366 78.8283 31.2442C78.2276 31.4503 77.6375 31.6822 77.0878 32.0036L76.9716 32.0725C76.0934 32.5975 75.2206 33.2155 74.2209 32.5346C74.5432 32.084 75.1881 32.0402 75.637 31.7791C75.8455 31.6578 76.0475 31.4048 76.2902 31.3515L76.3552 31.3733C76.4167 31.3933 76.5049 31.4192 76.5414 31.4143C77.1634 31.3308 77.7265 30.9908 78.3303 30.8397C78.5306 30.7896 79.2606 30.771 79.3567 30.548C79.5022 30.2107 78.7742 30.011 78.5765 29.8583C78.4469 29.7928 78.3427 29.699 78.2635 29.5768ZM84.0566 31.9907C83.6851 32.5978 84.313 32.4569 84.5401 32.7672C84.6829 32.6619 84.1067 32.2052 84.0566 31.9907ZM30.0412 31.8429C29.5647 31.8626 29.8898 32.5833 30.0722 32.1257C30.0829 32.0292 30.0725 31.935 30.0412 31.8429ZM72.6667 27.6254C72.1299 27.5602 71.5217 28.0673 71.0801 28.3402L71.0436 28.3624C69.8686 29.0674 68.7537 29.8628 67.6908 30.7282L67.5141 30.8731C67.3578 31.0023 66.7843 31.6458 67.3273 31.8284C67.206 31.7877 67.8246 31.5642 67.8154 31.5707C68.2839 31.2433 68.7995 31.0562 69.2929 30.7606C69.8073 30.4523 70.2529 30.0504 70.7307 29.6912C71.3121 29.2537 72.0084 28.9912 72.588 28.564C72.6716 28.5024 72.7424 28.3776 72.8326 28.3324C72.9121 28.2924 73.1696 28.2703 73.2022 28.2152C73.3765 27.9208 72.898 27.6537 72.6667 27.6254ZM81.4628 30.9419L81.4114 31.1206L81.1944 31.0899L81.2003 31.101C81.2707 31.2275 81.741 31.9448 81.8482 31.4389C81.8964 31.2108 81.4953 31.1302 81.4647 30.9611L81.4628 30.9419ZM29.5125 31.116C29.5792 31.2136 29.6478 31.3096 29.7184 31.4042C29.9226 31.6612 30.1811 31.6511 30.2118 31.2854C29.9529 31.5252 29.758 31.1658 29.5125 31.116ZM29.5297 29.3672C29.3755 29.2263 29.2637 29.2917 29.2383 29.5107C29.2115 29.7404 29.9395 30.5077 30.0641 30.1857C29.8918 30.026 29.655 29.8527 29.5375 29.6409C29.505 29.5824 29.5807 29.4138 29.5297 29.3672ZM28.3536 25.5285L28.0627 24.9216L28.0566 24.9926C28.0255 25.3877 28.0725 25.451 28.3536 25.5285ZM27.8385 25.3578V24.7289L27.7857 24.7721C27.4243 25.0721 27.431 25.1721 27.7866 25.3347L27.8385 25.3578ZM21.7236 23.8142L21.6324 24.1367C21.7787 24.2075 21.9579 23.9398 22.0439 23.8634L21.7236 23.8142ZM27.1819 22.0097C27.1819 22.2216 27.1326 22.4861 27.2602 22.677L27.2807 22.705L27.3813 22.5943C27.4337 22.3783 27.3843 22.1325 27.1819 22.0097ZM73.3785 21.8491C73.2517 21.7764 73.1414 21.8395 73.0479 22.0382C72.5049 22.5657 73.1793 22.3138 73.3785 21.8491ZM62.9332 20.7561C63.3822 20.8006 64.7583 21.65 64.0171 22.0816C63.6414 22.3003 62.9406 22.0157 62.6634 21.7345C62.3738 21.4406 62.3783 20.755 62.9332 20.7561ZM65.6507 18.206C65.7817 17.8957 65.8952 16.5066 66.4264 16.8289C67.143 17.2637 66.477 19.3217 66.2132 19.8425C65.851 20.5579 64.2408 21.1172 64.0957 19.9346C64.0358 19.4441 64.2334 18.6379 64.7719 18.4907C65.2598 18.3574 65.4313 18.7256 65.6507 18.206ZM35.1005 7.97646C34.7776 7.98702 34.3937 8.03541 34.0922 8.15244C33.8241 8.25649 33.7155 8.51669 33.4874 8.61645C33.5542 8.58727 33.2305 8.49692 33.2249 8.49176C33.0927 8.47886 32.8611 8.60903 32.7338 8.65142C32.2735 8.805 31.8134 8.95929 31.3588 9.12899C30.5076 9.44671 29.6642 9.79439 28.8306 10.1561C27.247 10.8434 25.7052 11.6504 24.1935 12.487L23.927 12.635C21.0035 14.2629 17.6807 16.1978 15.7381 19.0138C15.1404 19.8805 16.2227 20.1975 16.8881 20.2773L16.9348 20.2826C17.4165 20.334 18.7178 20.7985 18.8452 20.0354C19.0966 20.4802 19.8891 20.1135 20.2611 19.9479C20.4172 19.8786 20.6519 19.8796 20.7902 19.8065C20.9829 19.7049 20.9081 19.5026 21.0922 19.431C21.2181 19.382 21.237 19.5365 21.3831 19.5066C21.4932 19.4842 21.5881 19.3847 21.6968 19.3616L21.7207 19.3578C21.9558 19.328 23.1109 19.3311 22.4152 19.0391C22.6238 18.8558 22.913 18.8358 23.1089 18.6328C23.239 18.7433 23.256 18.8673 23.1597 19.0047C23.5492 18.9723 24.2455 18.5974 24.5728 18.4072C24.886 18.2252 24.8658 18.0571 25.0546 17.784C25.2077 17.5626 25.4481 17.3778 25.6446 17.1877L25.6927 17.1401L25.7418 17.7511C26.1164 17.726 26.0317 17.3967 26.0444 17.1211C26.5846 17.182 27.0182 16.928 27.3539 16.5406C27.4529 16.4261 27.4134 16.1988 27.6189 16.1879C27.7265 16.1822 27.8896 16.439 27.9208 16.4576L27.9234 16.4582L27.9942 16.4287C28.0822 16.393 28.2164 16.3413 28.2073 16.3573L28.2044 16.3605C28.3875 16.1996 28.3364 15.1575 28.687 15.8572L28.7164 15.9179C28.9537 15.7393 29.0023 15.5827 29.1036 15.4149C29.2056 15.2459 29.281 15.1898 29.4919 15.015C29.8672 14.7037 29.9486 14.1072 30.4428 13.9177C30.3922 14.0787 30.2243 14.2372 30.2767 14.4228C30.7732 14.2394 30.7547 13.2518 30.608 12.8543C30.3628 12.1912 29.6107 12.3013 29.0431 12.4381C28.1908 12.6434 27.4661 13.1305 26.6877 13.5122L26.6207 13.5443C26.082 13.7967 25.2377 14.0802 25.1186 14.7339L25.3921 14.6233C25.7482 14.4787 26.0718 14.3353 26.3749 14.0671C26.5174 13.9409 26.6681 13.6482 26.8846 13.6336C26.9391 13.6299 27.0549 13.6913 27.0807 13.6832L27.2648 13.6253C27.6926 13.4937 28.3885 13.3101 28.6604 13.5541C28.7022 13.4617 28.7412 13.2407 28.8549 13.195C29.1378 13.0814 28.9236 13.2723 29.1022 13.3281C29.3546 13.4067 29.5709 13.5396 29.8333 13.6473C29.7601 13.909 29.6218 13.6486 29.509 13.6822C29.3617 13.7258 29.2596 13.7715 29.1189 13.8747C28.8184 14.0955 28.5873 14.3637 28.2617 14.5631C27.7488 14.8771 26.9135 15.1828 26.6035 15.7356C26.4617 15.9885 26.6054 16.1641 26.2901 16.2409C26.2446 16.252 26.2015 16.0476 26.1293 16.0478C25.9969 16.0481 25.8989 16.0958 25.7769 16.139L25.7353 16.1532C25.3839 16.2674 25.0503 16.4343 24.7537 16.6579C24.5429 16.8171 24.305 17.207 24.0304 17.2528L24.0353 17.2043C24.0622 16.8731 23.89 17.0797 23.5738 17.2186L23.0081 17.4588C22.5543 17.6509 22.1003 17.8437 21.6387 18.0167C21.1481 18.2005 20.6477 18.3544 20.1463 18.5048L19.9313 18.569C19.4049 18.7263 18.8705 18.8832 18.3267 18.9674C18.0802 19.0055 17.8465 19.0175 17.5978 19.0142C17.5251 19.0134 17.4567 18.9708 17.3902 18.9541L17.3571 18.9483L17.3405 18.9465L17.3378 18.9492C17.3224 18.9621 17.2913 18.9797 17.2365 19.0031L17.1877 19.0229C17.0956 18.9568 16.9066 18.6634 17.0517 18.5649C17.1106 18.584 17.1624 18.6151 17.2069 18.6583C17.3036 18.1486 17.7302 17.8084 18.0877 17.4773C17.9738 17.6727 18.0431 17.8641 18.2302 17.975C18.4839 17.6009 18.9424 17.3855 19.3026 17.1345C19.4019 17.065 19.5002 16.9939 19.5972 16.9214C19.789 16.8699 19.86 16.7611 19.8103 16.5951C19.9047 16.5188 19.929 16.3052 20.0979 16.4854C20.128 16.4755 20.2829 16.0874 20.3222 16.0265L20.3369 16.0785C20.4611 16.4992 20.518 16.1491 20.7454 15.9149C20.8827 15.7734 21.0485 15.5628 21.2391 15.4937C21.6546 15.3432 21.5603 15.5403 21.8387 15.1583C22.141 14.7436 22.6319 14.6954 23.0919 14.4762C23.5371 14.2642 23.9618 14.0347 24.4213 13.8503C24.2942 13.8085 24.1803 13.7431 24.08 13.6542C24.504 13.278 24.9248 13.8801 24.9314 13.0212C25.3956 13.083 26.2516 12.9994 26.6726 12.7563C27.2554 12.4199 27.8533 12.1114 28.4485 11.8019C28.9503 11.5407 29.558 11.4078 30.1086 11.1847L30.2179 11.1387C30.9414 10.8236 31.7253 10.6846 32.4273 10.3185C32.7895 10.1297 33.062 10.052 33.433 9.93812C33.6662 9.86647 33.9029 9.65323 34.1472 9.64025C34.3527 9.62926 34.4809 9.78683 34.7108 9.75029C34.9564 9.71132 35.1223 9.49224 35.38 9.47068C35.6005 9.45213 35.7249 9.56902 35.9762 9.49366C36.2314 9.41702 36.4454 9.20592 36.7222 9.1955C37.2142 9.17695 38.0435 9.58744 38.3851 9.87575C38.533 10.0008 38.6181 10.184 38.8172 10.1474C39.1848 10.0798 39.0482 9.81323 38.7546 9.85562C39.1679 9.27472 38.276 9.11686 37.9104 8.95986C37.61 8.83083 37.2793 8.65999 37.054 8.41478C36.9755 8.32929 36.8985 8.11034 36.8115 8.05425L36.7907 8.06096C36.7318 8.08155 36.5665 8.14214 36.5472 8.13931C36.4932 8.13146 36.5012 7.99673 36.4115 8.00301C36.2364 8.01557 36.0844 8.10092 35.9056 8.09492C35.6334 8.08565 35.3861 7.96704 35.1005 7.97646ZM16.0349 1.40446C16.258 0.889497 16.8035 1.11658 16.7599 1.62683C16.7256 2.0279 16.4969 1.8993 16.3241 2.07685C16.1425 2.26326 16.1846 2.44638 16.0441 2.63335C15.8269 2.92252 15.357 3.04027 15.043 3.30346C15.0117 3.39024 14.9756 3.47502 14.9349 3.5578C14.8546 3.57978 14.7729 3.59434 14.69 3.60148C14.6462 3.65529 14.5934 3.86467 14.6028 3.85325L14.4804 3.9995C14.4347 4.05496 14.39 4.11055 14.3738 4.13471C14.254 4.31241 14.708 4.29086 14.2741 4.4039C14.1758 4.42959 14.0451 4.2546 13.9089 4.27616L13.8211 4.2908C13.6293 4.32579 13.8211 4.32683 13.7876 4.53178L13.7663 4.65893C13.7046 5.01761 13.6503 5.18421 13.3342 5.50676L13.3077 5.53229C13.1416 5.68574 12.7167 5.98496 12.8469 6.22868C12.1485 6.15546 12.6529 6.50158 12.3781 6.84898C12.3809 6.84527 11.7154 6.79317 11.5981 6.89565C11.4876 6.99213 11.279 7.52751 11.1616 7.72761C11.0377 7.93885 10.9979 8.14253 10.9157 8.36433C10.8843 8.52861 10.8181 8.67761 10.7173 8.81135C10.6519 8.81906 10.5935 8.8005 10.5423 8.75569C10.418 8.89856 10.4522 9.02844 10.3552 9.20271C10.2108 9.46228 10.1664 9.37839 9.97316 9.44603L9.95107 9.4542C9.63203 9.57809 9.48232 9.53926 9.30021 9.92663C9.1201 10.3093 9.42521 10.3311 9.37038 10.7437C9.30831 11.2125 8.72436 11.716 8.48501 12.1107L8.44386 12.1817C8.29943 12.4387 8.10955 12.8212 7.89623 12.3547C7.96314 13.0374 7.6005 13.5693 7.32408 14.1551C7.20376 14.4099 7.11356 14.6522 7.03018 14.9216C6.93487 15.2293 6.78714 15.3269 6.65675 15.5792C6.50987 15.8634 6.28402 17.3384 5.82038 17.3228C5.96967 17.4958 6.23871 18.3303 5.76342 18.226C5.77337 18.3584 5.77678 18.491 5.77393 18.6238L5.63331 18.6202L5.51158 18.6396C5.31552 18.3375 5.77291 17.0087 5.85215 16.6638L5.92868 16.2988C6.09791 15.4977 6.2785 14.7194 6.55305 13.9382C7.20376 12.0863 8.03629 10.3196 9.05064 8.6405C10.0116 7.0499 11.1484 5.56692 12.3159 4.12252L12.6285 3.73783C13.0009 3.29472 15.4419 0.670544 16.0349 1.40446ZM77.734 17.6759L77.4704 18.3852C77.6497 18.1236 77.901 17.9906 77.734 17.6759ZM28.0287 17.941C28.1143 17.9895 28.1868 18.053 28.2463 18.1318L28.2049 18.1635C28.0453 18.2815 28.036 18.2276 27.8517 18.0734L28.0287 17.941ZM62.3894 15.4735C62.5709 15.8501 62.2985 16.4201 62.8276 16.5661C63.2167 16.6735 63.6356 16.1544 64.005 16.376C64.4127 16.6208 64.1114 17.1225 63.885 17.3754C63.4762 17.8321 62.912 17.8984 62.3364 17.7699C61.3502 17.5498 61.7223 15.8595 62.3894 15.4735ZM34.0648 16.2854C34.4222 16.3285 34.5334 15.6404 34.1169 15.8736C33.9637 15.9595 33.7338 16.2456 34.0648 16.2854ZM39.08 10.4314C38.8391 10.4153 39.032 10.0864 38.7106 10.3039C38.5042 10.4437 38.4226 10.9211 38.3478 11.1437L38.299 11.2871C38.0812 11.9206 37.8753 12.3997 37.4096 12.941C36.8463 13.5952 36.1883 14.2123 35.5877 14.8239C35.1526 15.2669 34.3188 15.2656 34.609 16.0583C34.9462 15.6792 35.0989 15.8331 35.4455 15.6577C35.6422 15.5582 35.6019 15.4519 35.7799 15.2647C36.0009 15.0324 36.2553 15.1059 36.4958 15.0372C36.8394 14.9392 37.086 14.7576 37.3338 14.4947C37.8827 13.9127 38.1871 13.1512 38.7138 12.5499C38.9847 12.2408 39.788 11.6778 39.604 11.133C39.5506 10.9746 39.4462 10.9775 39.4027 10.8995C39.435 10.9575 39.1887 10.7464 39.2008 10.7599C39.0939 10.6395 39.4689 10.4572 39.08 10.4314ZM7.13515 13.8491C7.09524 13.9517 7.06285 14.0569 7.03785 14.1642C7.01953 14.3118 7.11925 14.3796 7.21783 14.2599C7.29524 14.1655 7.16229 13.9491 7.13515 13.8491ZM57.4414 10.0514C55.8767 9.81366 52.8029 11.5601 54.9182 13.098C56.075 13.9388 56.8026 12.5082 57.5175 11.8154C57.7682 11.5726 58.4212 11.1342 58.4493 10.7408C58.4837 10.2595 57.8084 10.1071 57.4414 10.0514ZM22.1344 8.82013C21.3723 8.76032 20.6868 9.51579 20.1044 9.90515C19.6654 10.1987 18.659 10.534 18.7891 11.2245C18.6956 11.1326 18.6022 11.1268 18.5089 11.2068C18.4286 11.3638 18.3215 11.4967 18.334 11.6847C18.6333 11.3851 19.0661 11.5318 19.1006 10.9909C19.4792 11.1816 19.6858 10.7999 19.9148 10.588C20.1459 10.374 20.4053 10.2433 20.6654 10.0679L20.6844 10.0541C20.9647 9.83913 21.8199 8.71984 21.987 9.64495L22.3006 9.1828L21.7449 9.11044L22.1344 8.82013ZM8.65476 11.073C8.37422 10.949 8.25092 11.0436 8.27095 11.3485C8.72166 11.3835 8.78303 11.4721 9.13161 11.1708C8.99723 11.1303 8.763 11.121 8.65476 11.073ZM9.66514 9.72644C9.80037 9.77925 9.74227 9.97978 9.72821 10.1205C9.74966 9.90628 9.33034 10.386 9.66514 9.72644ZM29.2712 5.35297C28.7824 5.08007 27.9992 5.61559 27.5716 5.82269C26.7287 6.23075 25.8829 6.62354 25.0537 7.061C24.1857 7.51887 23.3837 8.15987 22.4625 8.50655C22.2404 8.59005 22.14 9.14241 22.3902 9.25117C22.5701 9.32924 22.9749 8.95172 23.1167 8.85438C23.6667 8.47687 24.5267 8.1974 24.8097 7.55898L24.932 7.94634C25.1222 7.41087 25.4108 7.51362 25.8453 7.37704L25.8766 7.36687C25.9668 7.33647 26.2819 7.26439 26.3123 7.24897C26.4358 7.18617 26.3871 7.15534 26.4958 7.10196C26.9759 6.86632 28.0735 6.01195 28.5767 6.23032C28.3942 5.91461 28.6998 5.4005 28.787 5.96799C29.0228 5.84039 29.9307 5.72149 29.2712 5.35297Z" fill="#010101"/>
</svg>
