<svg width="120" height="63" viewBox="0 0 120 63" fill="none" xmlns="http://www.w3.org/2000/svg">
<path fill-rule="evenodd" clip-rule="evenodd" d="M-1.12207 22.7337C-0.655232 20.9149 -0.215252 19.0565 0.477421 17.3086C0.910977 16.2148 1.37032 15.1309 1.83047 14.0481C1.89426 13.8978 1.92121 13.7529 2.04541 13.6781C2.2112 13.5781 2.55428 13.5802 2.74139 13.5459C5.39912 13.0575 8.08451 12.6846 10.7787 12.4749C13.8533 12.2356 16.8507 12.3451 19.893 12.8471C22.4948 13.2765 25.0709 13.8682 27.6189 14.5458C27.9935 14.6453 28.3675 14.7471 28.7407 14.8516C28.9147 14.9003 29.2034 14.9252 29.355 15.0269C29.6791 15.2442 29.789 16.1347 29.9104 16.512C30.0732 17.0177 30.1679 17.7125 30.4817 18.1427C30.9488 18.7831 31.6597 19.3386 32.2387 19.8709C34.2594 21.7289 36.4745 23.4237 39.0841 24.3423C43.1214 25.7634 47.3787 26.654 51.5609 27.5346C51.6583 27.5551 51.7556 27.5755 51.853 27.5957C50.7703 28.797 49.6876 29.9983 48.6049 31.1997C47.9945 31.8769 47.3842 32.5541 46.7739 33.2313C46.4601 33.5795 46.4944 33.6417 46.0506 33.5447C43.8267 33.0584 41.6067 32.5284 39.4231 31.8823C38.3527 31.5657 37.2638 31.2369 36.2679 30.7239C34.8971 30.0179 33.6104 29.1452 32.3581 28.2488C31.2387 27.4475 30.1455 26.6092 29.0721 25.7472C28.8605 25.5773 28.0969 24.7581 27.8493 24.8114C27.6357 24.8575 27.2659 25.3445 27.1095 25.4863C26.6958 25.8616 26.2805 26.235 25.8625 26.6054C25.1974 27.1947 24.5181 27.9165 23.7412 28.3601C22.9226 28.8276 21.9843 29.146 21.1202 29.5183C20.6382 29.7259 20.1557 29.9327 19.6732 30.139C19.5471 30.1928 19.3712 30.31 19.2354 30.3129C18.8331 30.3214 18.249 29.9939 17.876 29.8663C16.9176 29.5384 15.9662 29.1898 15.0247 28.8161C13.0144 28.0179 10.8051 27.1508 9.15051 25.7145C8.86186 25.4641 8.57981 25.1836 8.38877 24.8489C8.32257 24.7328 8.22406 24.5712 8.21728 24.4342C8.20648 24.2158 8.32908 24.1729 8.51137 24.0363C9.45245 23.3315 10.4671 22.7173 11.4651 22.0979C11.6996 21.9524 11.9345 21.8076 12.1702 21.6641L0.50999 22.6024C-0.0340303 22.6462 -0.578051 22.6899 -1.12207 22.7337Z" fill="#EC9B3D"/>
<path fill-rule="evenodd" clip-rule="evenodd" d="M16.2406 0.487816C17.4725 0.544116 18.7354 0.60149 19.9566 0.775224C21.1739 0.948331 22.3099 1.39112 23.4101 1.92727C25.3938 2.89395 27.4214 4.069 28.6972 5.92843C29.2938 6.79781 29.7804 7.7081 30.6038 8.39248C30.7965 8.55252 31.0064 8.74487 31.2621 8.79383C31.4653 8.83276 31.6446 8.75033 31.8437 8.74048C32.2236 8.72159 32.3676 8.92227 32.3676 9.30044C32.6528 9.18641 32.9632 9.0832 33.2743 9.12509C33.5343 9.16018 33.741 9.31727 33.9906 9.38332C34.4411 9.50255 34.8821 9.32425 35.3105 9.19142C36.3926 8.85594 37.5812 8.60192 38.7181 8.72159C39.4669 8.80045 40.3744 9.12581 39.9866 10.0923C39.665 10.894 38.4625 11.2999 37.7029 11.4993C37.0569 11.669 36.1882 11.5175 36.2428 12.4107C36.2809 13.0341 36.3751 13.7029 37.0364 13.9052C37.399 14.0161 38.6837 14.1814 37.9335 14.7439C37.3795 15.1593 37.1861 15.8905 36.7647 16.4396C36.2276 17.1396 35.4995 17.7054 34.6484 17.9609C33.6961 18.2468 32.6883 18.1919 31.71 18.3028C32.3991 19.2555 33.3939 19.9108 34.2994 20.6353C35.2515 21.3971 36.1701 22.2296 37.272 22.7726C38.2597 23.2594 39.3267 23.5974 40.3468 24.0101C41.4182 24.4436 42.4972 24.872 43.603 25.2097C45.8338 25.8909 48.1802 26.3667 50.4736 26.7845C51.6053 26.9908 52.715 26.9605 53.8582 26.9788C55.0309 26.9977 56.2029 27.2038 57.354 27.4154C57.9121 27.518 58.4755 27.5828 59.0335 27.685C59.3013 27.734 60.3612 27.8421 60.3992 28.2351C60.4611 28.8751 59.7703 29.2338 59.2644 29.4123C59.0483 29.4885 58.7004 29.4774 58.5133 29.5823C58.311 29.6957 58.3899 29.8626 58.3668 30.0822C58.333 30.4013 58.1627 30.6308 57.9014 30.8079C57.6865 30.9535 57.4275 30.9478 57.5756 31.2236C57.6439 31.3507 57.8148 31.4309 57.8936 31.565C57.9837 31.718 58.0251 31.8858 58.0068 32.0619C57.9748 32.3701 57.7716 32.6054 57.4881 32.7144C57.0349 32.8887 56.5031 32.7653 56.0389 32.7088C55.2622 32.6141 54.4742 32.6047 53.7079 32.4344C52.9089 32.2569 52.1314 31.9834 51.3316 31.8016C50.9214 31.7084 50.5104 31.6303 50.1096 31.501C49.8488 31.417 49.4718 31.1987 49.194 31.2671C48.9338 31.3311 48.7305 31.6459 48.5604 31.8285C48.3256 32.0806 48.0983 32.3395 47.8597 32.588C47.7017 32.7526 47.5395 32.9138 47.3669 33.0632C47.3108 33.1117 46.9642 33.324 46.9594 33.381C46.9459 33.5421 47.3242 33.5393 47.4052 33.6033C47.8761 33.9762 47.1685 34.2121 46.8632 34.1934C46.1595 34.1504 45.4522 34.0639 44.7552 33.9603C43.0957 33.7136 41.4409 33.4474 39.8542 32.8904C38.2847 32.3395 36.7532 31.7535 35.3016 30.9324C33.9082 30.1443 32.5605 29.2532 31.2443 28.3425C30.6056 27.9005 29.9626 27.4426 29.4233 26.8796C28.896 26.3289 28.466 25.6967 28.0287 25.0746C26.9813 26.0881 25.9734 27.1538 24.8483 28.0829C23.7781 28.9667 22.4915 29.4389 21.2467 30.0129C21.287 30.2737 22.5038 30.4299 22.726 30.4976C23.7409 30.8071 24.7148 31.3036 25.7019 31.6929C27.344 32.3407 28.9021 33.1837 29.449 34.9827C29.9867 36.7514 29.3631 38.5319 28.6024 40.1298C27.7047 42.0161 26.6384 43.7632 25.3493 45.4076C24.801 46.1072 24.2103 46.7512 23.6085 47.4026C23.0952 47.9585 22.655 48.6169 22.8702 49.4069C23.2833 49.2775 23.3591 49.6005 23.0889 49.8739C22.8488 50.1169 22.4338 50.1641 22.1132 50.2044C21.1413 50.3265 20.1374 50.2833 19.1644 50.1926C17.3928 50.0273 15.6173 49.5793 14.0134 48.8084C13.2155 48.4249 12.9267 49.0433 12.3779 49.5223C11.9461 49.899 11.3516 50.1433 11.0234 50.6308C10.7535 51.0319 10.9297 51.6656 11.4904 51.5153C11.9267 51.3983 12.2772 50.9107 12.7393 50.8919C13.5595 50.8586 12.012 52.031 11.814 52.1741C12.206 52.5253 12.6504 52.0437 13.0457 51.9633C13.4248 51.8861 13.5307 52.0828 13.3287 52.3994C13.1711 52.6462 12.6763 52.821 13.0054 53.1213C13.2781 53.3701 13.8826 53.501 14.2174 53.6101C15.2618 53.9503 16.3008 54.1923 17.3881 54.3477C17.7392 54.3978 18.3021 54.3658 18.5868 54.6151C18.9622 54.9441 18.7812 55.4892 18.5911 55.866C17.8713 57.2934 16.3745 57.995 14.8373 58.0978C13.8907 58.161 12.9351 58.0997 11.9853 58.1509C10.9446 58.2071 9.90155 58.2904 8.85851 58.2559C7.18155 58.2006 6.11473 56.9863 5.27871 55.6509C4.74763 54.8025 4.25809 53.9294 3.79831 53.0404C3.61872 52.6931 3.24257 52.3333 3.17859 51.9431C3.12088 51.5918 3.3446 51.31 3.56199 51.0614C4.13399 50.4073 4.82224 49.908 5.49466 49.3675C5.87859 49.059 6.02619 48.8034 6.19712 48.3543C6.34105 47.9762 6.61776 47.8145 6.86141 47.5129C7.12937 47.181 7.0452 47.1223 6.83622 46.8511C6.6175 46.5671 6.70345 46.1486 6.7953 45.8273C6.92699 45.3662 7.2096 45.2647 7.63159 45.1162C8.01641 44.9808 8.34262 44.7432 8.68383 44.5227C10.3692 43.4339 11.9572 42.2018 13.6634 41.1433C15.3467 40.099 17.1059 39.1765 18.7125 38.0113C17.4079 37.8355 16.2577 37.1298 15.0271 36.7119C14.3956 36.4974 13.77 36.2684 13.159 35.9999C12.9256 35.8974 12.6537 35.8063 12.4455 35.6556C12.2364 35.5042 12.0756 35.3049 11.8564 35.1616C11.3361 34.8215 10.7176 34.6279 10.1581 34.3628C9.55381 34.0764 8.95742 33.7635 8.39596 33.3991C7.87175 33.0589 7.36846 32.6701 6.93262 32.2208C6.58542 31.8628 6.24777 31.3963 5.75618 31.2319C5.80774 31.9178 6.65583 32.4857 7.12061 32.8985C7.87479 33.5683 8.65882 34.1375 9.5019 34.6906C8.55634 35.5023 7.40376 36.0308 6.29647 36.579C5.05141 37.1954 3.8412 37.8787 2.60114 38.5046C1.55068 39.0349 0.445543 39.4435 -0.62216 39.9361C-1.77412 40.4677 -2.95976 40.9134 -4.16166 41.3178C-5.24938 41.6838 -6.2734 42.0741 -7.29973 42.5878C-8.29748 43.0872 -9.365 43.4691 -10.4323 43.7897C-11.6316 44.1498 -12.7757 44.4923 -13.9291 44.986C-14.9691 45.4311 -16.0134 45.7157 -17.114 45.9577C-17.4776 46.0376 -17.9444 46.1843 -18.1991 45.8317C-18.3921 45.5644 -18.4211 45.1523 -18.4765 44.838C-18.6887 43.6352 -18.7055 42.4131 -18.8963 41.2085C-19.6209 41.4275 -20.307 41.697 -21.0714 41.7317C-21.5519 41.7536 -21.8439 41.8032 -21.9636 42.3288C-21.6857 42.3602 -20.6925 42.374 -20.6657 42.7685C-20.6414 43.1243 -21.2423 43.1279 -21.4554 43.1377C-21.8368 43.1551 -22.1824 43.0924 -22.3859 43.4664C-22.086 43.5774 -21.4212 43.3751 -21.2884 43.7791C-21.1173 44.3003 -21.8943 44.299 -22.1739 44.341C-22.6616 44.4142 -22.6115 44.798 -22.5781 45.2082C-22.5341 45.7479 -22.5008 46.2884 -22.4281 46.8253C-22.2726 47.9727 -22.0063 49.1027 -21.8803 50.2543C-21.7713 51.2501 -21.7102 52.2065 -22.4206 53C-22.7062 53.3191 -23.1033 53.6863 -23.5521 53.7243C-24.0077 53.7628 -23.9994 53.4431 -24.283 53.2078C-24.4568 53.0637 -24.6869 53.0343 -24.8916 52.9565C-25.1407 52.8619 -25.3822 52.7235 -25.606 52.58C-26.0183 52.3156 -26.3787 51.9874 -26.6703 51.5929C-27.8104 50.0495 -28.2181 47.7436 -28.331 45.8721C-28.4028 44.6821 -28.3312 43.4905 -28.2222 42.3052C-28.1635 41.6667 -28.1044 41.028 -28.0273 40.3915C-28.0034 40.1943 -27.9635 39.9968 -27.9487 39.799C-27.9402 39.6858 -27.9947 39.4569 -27.937 39.3483C-28.0107 39.4868 -28.1412 39.3844 -28.2709 39.2754C-28.5385 39.0502 -28.4561 38.6178 -28.3129 38.3218C-27.8817 37.4295 -26.5892 37.3947 -25.7483 37.3254C-23.4881 37.1388 -21.3408 36.5317 -19.177 35.8831C-19.4824 35.425 -19.002 35.1226 -18.6297 34.9651C-18.0556 34.7224 -17.4627 34.5089 -16.8832 34.2771C-15.5745 33.7535 -14.2931 33.2653 -12.9226 32.9312C-11.6813 32.6286 -10.4802 32.1263 -9.25555 31.7581C-7.99021 31.3776 -6.74774 30.9428 -5.50313 30.4996C-3.03812 29.6219 -0.570877 28.7251 1.82132 27.6604C2.42602 27.3913 3.00365 27.0793 3.58718 26.768C4.06126 26.5151 4.61763 26.3297 5.01951 25.9644C5.40326 25.6156 5.63306 25.1305 6.05023 24.8138C6.42585 24.5285 6.93977 24.5246 7.25097 24.1702C7.67179 23.6912 8.17429 23.4806 8.74557 23.1997C8.92909 23.1094 10.1373 22.6535 10.1128 22.3947C9.24931 22.3947 8.36299 22.6521 7.50909 22.7719C6.60597 22.8987 5.70356 23.0396 4.79382 23.1097C3.31967 23.2232 1.84624 23.1925 0.378353 23.0325C0.159004 23.0086 -0.72098 22.8276 -0.872692 23.0633C-0.988308 23.2429 -0.700876 23.4567 -0.698017 23.6497C-0.693727 23.9329 -0.921566 24.0848 -1.1796 23.9864C-1.68191 23.7951 -1.60829 22.9841 -1.56138 22.5726C-1.47159 21.7854 -1.2718 21.0054 -1.09722 20.2341C-2.13356 20.7626 -3.11764 21.441 -4.01004 22.1867C-4.70132 22.7642 -5.32551 23.5473 -6.13669 23.9591C-6.91554 24.3545 -7.37863 24.0171 -7.34673 23.1466C-7.33208 22.7478 -7.25139 22.3692 -7.11353 21.9978C-7.0484 21.8222 -6.7808 21.3255 -6.90615 21.1385C-7.61799 21.7071 -8.32508 22.2773 -9.0723 22.7993C-9.60052 23.1683 -10.3663 23.7439 -11.056 23.5974C-11.6651 23.4681 -11.6055 22.7966 -11.4124 22.3443C-11.245 21.9519 -10.944 21.6032 -10.6458 21.3035C-10.3992 21.0559 -10.0486 20.8339 -9.92512 20.4906C-10.7432 20.8589 -11.5855 21.1376 -12.4425 21.3965C-13.0519 21.5805 -13.4779 22.3449 -14.1866 22.2319C-14.8961 22.1189 -14.6135 21.2405 -14.3304 20.8586C-14.1322 20.5914 -13.8581 20.3561 -13.5922 20.1587C-13.3329 19.966 -12.9385 19.7982 -12.8109 19.4777C-13.6397 19.6335 -14.4729 19.9045 -15.3257 19.8545C-15.8322 19.8248 -16.6776 19.6033 -16.5776 18.9212C-16.4764 18.2306 -15.5584 18.1777 -15.0422 18.0489C-14.3384 17.8732 -13.6649 17.5433 -12.9858 17.2918C-11.6158 16.7843 -10.2192 16.3772 -8.81746 15.9727L-8.37467 15.8449C-6.79251 15.3881 -5.2014 14.999 -3.59958 14.6195C-2.80787 14.4319 -2.01893 14.2273 -1.22097 14.0672C-0.449003 13.9124 0.335377 13.8227 1.10144 13.6376C0.455816 12.6613 1.23761 11.8589 2.08185 11.3943C1.54639 11.2858 1.00191 11.2205 0.471096 11.0891C0.017746 10.9768 -0.419163 10.8043 -0.875818 10.705C-1.66065 10.5343 -2.44449 10.4445 -3.11442 9.9576C-4.38057 9.03747 -4.48823 7.57322 -3.42142 6.4652C-2.34478 5.3469 -0.76458 4.82328 0.756205 4.77128C2.45836 4.7131 4.39506 5.04365 5.98786 5.64747C6.77028 5.94409 7.58495 6.32119 8.25568 6.82637C8.71189 7.16998 9.43337 7.8284 10.0458 7.8284C9.31231 6.93977 8.41222 6.0208 8.2798 4.81729C8.15436 3.67786 8.67026 2.46673 9.53595 1.72973C11.2656 0.257514 14.12 0.39079 16.2406 0.487816ZM6.37935 49.324C5.92786 50.0275 5.30349 50.5987 4.71399 51.1825C4.51064 51.3839 4.10249 51.6401 4.08283 51.9555C4.06692 52.213 4.38227 52.5027 4.52002 52.7051C5.24825 53.7754 5.84795 54.9575 6.73752 55.908C7.74303 56.9823 8.89058 57.1911 10.3144 57.1941C11.8953 57.1977 13.4973 57.3958 15.0754 57.3122C16.4123 57.2415 17.73 56.6451 18.3948 55.4328C17.9617 55.2092 17.3455 55.3158 16.8761 55.3208C16.2361 55.3275 15.6114 55.316 14.9792 55.2045C14.4061 55.1035 13.8397 54.9518 13.3007 54.7304C13.0219 54.6158 12.746 54.4848 12.4892 54.3256C12.3011 54.2091 12.1598 54.0307 11.975 53.9164C11.2937 53.4949 10.507 54.8351 9.77873 54.8093C9.33269 54.7936 9.49412 54.3541 9.67978 54.1082C10.0148 53.6642 10.5992 53.3901 11.0405 53.0664C10.6297 52.6876 10.1655 53.0849 9.77435 53.2829C9.28531 53.5304 8.77724 53.8342 8.23082 53.9272C8.27176 53.2217 9.22963 52.8435 9.75808 52.5566C9.99326 52.4289 10.288 52.3104 10.3459 52.0295C10.3894 51.8183 10.3149 51.5179 10.2928 51.3046C10.2648 51.0334 10.2441 50.9468 9.95589 50.8704C9.60639 50.7776 9.25439 50.8044 8.90426 50.6887C7.94603 50.3716 7.20063 49.9011 6.37935 49.324ZM-24.7627 38.2063C-24.9967 38.2713 -25.2331 38.3275 -25.4708 38.3778C-25.9412 38.4772 -26.4122 38.5805 -26.8843 38.6707C-27.121 38.7159 -27.3839 38.6872 -27.4537 38.9136C-27.4896 39.0297 -27.3993 39.2383 -27.3838 39.3588C-27.356 39.5762 -27.3542 39.7966 -27.3516 40.0156C-27.3269 42.0327 -27.7479 44.0383 -27.5626 46.0553C-27.406 47.76 -27.0396 49.9156 -25.7897 51.1852C-25.2503 51.7331 -24.5866 52.3283 -23.9073 52.7028C-23.3748 52.9962 -22.6309 52.2596 -22.5222 51.7497C-22.4442 51.3843 -22.5742 50.9986 -22.6588 50.6463C-22.7673 50.1949 -22.8773 49.7438 -22.9847 49.2921C-23.2141 48.3282 -23.4227 47.3551 -23.4887 46.3642C-23.5103 46.0386 -23.5057 45.7249 -23.4873 45.4008C-23.4774 45.2248 -23.3946 44.8006 -23.5176 44.6498C-23.6765 44.4548 -24.0397 44.5822 -24.2547 44.5989C-24.4905 44.6172 -24.7206 44.6031 -24.951 44.5428C-25.4993 44.3992 -25.5954 43.9626 -24.9967 43.7603C-24.5787 43.6191 -23.8146 43.8237 -23.4634 43.552C-23.0508 43.2327 -23.8847 43.1889 -24.0795 43.1806C-24.3388 43.1696 -25.1988 43.2375 -25.1549 42.7532C-25.1225 42.3943 -24.3821 42.3705 -24.123 42.3552C-23.5696 42.3226 -22.8694 42.5302 -22.6302 41.8618C-22.5343 41.594 -23.1115 41.458 -23.2564 41.3252C-23.6083 41.0024 -23.7237 40.449 -23.754 39.9956C-23.7838 39.5498 -23.3457 38.0043 -24.0131 37.9634C-24.218 37.9509 -24.5587 38.1496 -24.7627 38.2063ZM8.06144 47.1257C7.66865 47.5942 7.32917 48.1075 6.96334 48.5972C7.82136 49.0715 8.69894 49.453 9.58614 49.8609C9.98961 50.0464 10.2724 50.1934 10.6629 49.9122C10.943 49.7105 11.153 49.4237 11.4264 49.2139C11.8193 48.9126 12.2299 48.6363 12.6326 48.349C11.4442 47.9146 10.2376 47.5334 9.04955 47.098C8.60524 46.9352 8.38224 46.7428 8.06144 47.1257ZM-1.72401 45.6374C-1.4699 45.8955 -1.95915 46.6108 -2.05548 46.8556C-1.26748 46.793 -0.486074 46.6685 0.287741 46.5083C0.551252 46.4538 0.454109 46.7752 0.35552 46.8812C0.233614 47.0124 -0.0102901 47.0521 -0.173313 47.0989C-0.773081 47.2711 -1.3883 47.354 -2.00379 47.4459C-1.72212 47.7931 -1.04436 48.3363 -1.2626 48.8584C-1.65624 48.5186 -1.93927 48.0664 -2.37466 47.7725C-2.50045 47.9606 -2.76143 48.6239 -3.04744 48.5833C-3.49648 48.5195 -3.04157 47.7444 -2.94768 47.5577C-3.25005 47.5577 -4.38624 47.8236 -4.54474 47.4507C-4.70695 47.0692 -3.61053 47.0816 -3.40783 46.9915L-3.44562 46.9453L-3.48356 46.8994C-3.63513 46.7164 -3.78067 46.5359 -3.8012 46.2846C-3.46214 46.4016 -3.23577 46.9338 -2.86319 46.9415C-2.50985 46.9489 -2.35216 46.417 -2.22628 46.1652C-2.15471 46.022 -1.91162 45.4467 -1.72401 45.6374ZM36.5083 40.6208C37.2681 41.2628 36.752 42.5575 36.1771 43.1396C35.5331 43.7917 34.0992 44.3907 33.2828 43.726C32.836 43.3622 32.9972 42.8071 33.1073 42.3232C33.2296 41.7854 33.3057 41.332 33.7503 40.963C34.442 40.3888 35.7376 39.9696 36.5083 40.6208ZM34.9663 40.9938C34.2251 41.1517 33.474 41.8936 33.2979 42.6582C33.0668 43.6608 34.1058 43.7341 34.7902 43.5834C35.6512 43.3939 36.5659 42.7613 36.6098 41.7692C36.6477 40.913 35.5421 40.8712 34.9663 40.9938ZM-18.9665 36.6591C-20.0764 37.0729 -21.1197 37.6392 -22.2841 37.8847C-22.6395 37.9596 -22.7855 38.0416 -22.8733 38.3733C-22.9964 38.8375 -23.113 39.3079 -23.0252 39.7929C-22.8427 40.7998 -21.444 40.6765 -20.6673 40.637C-20.2685 40.6167 -19.5016 40.6897 -19.1556 40.4404C-18.9029 40.2584 -19.0089 39.917 -19.0483 39.6513C-19.1956 38.6577 -19.0349 37.652 -18.9665 36.6591ZM41.5455 27.0635C41.1369 27.1407 40.4304 27.4744 41.0162 27.8927C41.4071 28.1716 41.9888 28.2055 42.448 28.2744C43.3449 28.409 44.3025 28.5253 45.0808 29.0322C46.523 29.9715 46.3464 31.7439 45.915 33.1945C46.2257 33.3778 47.1384 32.1792 47.3103 31.9843C48.0076 31.1936 48.7078 30.4053 49.4109 29.6196C49.7119 29.2837 47.245 28.123 47.0234 28.0185C45.8515 27.4662 44.7577 27.1025 43.4432 27.0077C42.8199 26.9628 42.1624 26.9471 41.5455 27.0635ZM36.4577 24.1236C36.3457 24.4064 36.5419 24.5346 36.7221 24.73C37.7298 25.822 38.4393 27.3678 39.0004 28.7235C39.2802 29.3995 39.4762 30.0812 39.6494 30.7895C39.8194 31.4845 40.3593 31.6702 41.0062 31.8675C42.4963 32.322 44.0649 32.4741 45.5602 32.9229C45.9609 33.0432 46.0395 32.1607 46.0646 31.9369C46.1362 31.3002 46.0697 30.6356 45.7357 30.0744C45.1043 29.0133 43.8387 28.7878 42.7096 28.607C42.064 28.5037 41.2133 28.397 40.7023 27.9548C40.4459 27.7328 40.4096 27.4782 40.6096 27.2025C40.9743 26.6995 41.6164 26.6349 42.1901 26.5938C42.4695 26.5738 44.1997 26.7491 44.2562 26.544C43.3948 26.2628 42.5105 26.0773 41.6617 25.7557C40.9996 25.5047 40.3322 25.2678 39.664 25.0329L38.9957 24.7983C38.3162 24.5596 37.6941 24.2692 37.0421 23.9817C36.7972 23.8739 36.5726 23.8338 36.4577 24.1236ZM51.0701 28.725C50.8544 29.0157 50.6404 29.2597 50.4786 29.5863C50.2899 29.9673 49.9769 30.2103 49.7151 30.5374C51.0743 30.7777 52.3709 31.0828 53.6804 31.523C54.3527 31.749 55.0472 31.8607 55.7349 32.0225C56.3119 32.1583 56.9267 32.3688 57.524 32.2443C56.8436 31.305 55.029 31.5647 54.5513 30.427C54.2262 29.6531 55.0251 29.0358 55.6785 28.9015C56.8195 28.6669 58.0359 28.6488 59.1949 28.5653C59.2071 28.121 54.9999 27.891 54.584 27.855C53.8453 27.791 53.0745 27.6523 52.3373 27.6266C51.653 27.6028 51.4293 28.2411 51.0701 28.725ZM35.0161 25.4759C34.6108 25.8683 34.2141 26.2693 33.8093 26.6623C33.5431 26.9206 33.1826 27.1958 32.9728 27.5036C32.7049 27.8965 33.1741 28.0854 33.4867 28.2714C34.2759 28.7409 35.0914 29.1793 35.8944 29.6259C36.6158 30.0272 37.3661 30.538 38.1624 30.7727C38.5883 30.8982 38.9882 31.0931 39.3989 31.2579C39.2008 29.4762 38.1797 27.8579 37.238 26.3725C37.0218 26.0314 36.7985 25.6951 36.5822 25.3541C36.4733 25.1825 36.2712 24.7773 36.0428 24.7424C35.7052 24.6906 35.2207 25.2776 35.0161 25.4759ZM55.6632 30.0106C56.1569 30.2939 56.6517 30.4379 57.2084 30.2238C57.3453 30.1678 57.481 30.1086 57.6149 30.0463C57.2439 29.5394 56.1467 29.8483 55.6632 30.0106ZM14.78 23.8101C13.905 24.2053 12.9691 24.599 12.2081 25.1953C11.9272 25.4154 11.2995 25.8778 11.4464 26.2972C11.5721 26.6563 12.2669 26.9621 12.5969 27.0716C14.3326 27.6472 16.3082 27.2284 17.9064 28.2848C18.339 28.5707 18.4799 28.9444 18.8013 29.3203C19.0919 29.6602 19.4596 29.618 19.8501 29.477C20.3629 29.2917 20.8354 29.008 21.3502 28.8261C21.6134 28.7331 22.0607 28.6715 22.0881 28.3156C22.2168 26.6382 21.8596 24.501 20.3837 23.4747C18.7269 22.3225 16.4413 23.0598 14.78 23.8101ZM13.8416 27.7191C13.7993 27.9318 15.4416 28.3169 15.6199 28.3661C16.6116 28.6398 17.538 29.2904 18.5652 29.3954C18.7438 28.9963 17.321 28.3609 17.096 28.279C16.0691 27.9053 14.92 27.8376 13.8416 27.7191ZM46.0905 26.9741C47.3356 27.4853 48.5424 28.1112 49.586 28.9815C49.9459 29.2816 50.8204 27.8573 51.0163 27.6389C49.358 27.5699 47.7238 27.2529 46.0905 26.9741ZM22.8204 16.9546C21.6662 17.7185 20.661 18.7174 19.3938 19.303C19.7903 19.3655 20.2232 19.1084 20.6018 19.0181C20.9706 18.9303 21.3435 18.8724 21.7025 18.748C21.9231 18.6716 22.8338 18.1784 23.0047 18.5127C23.2717 19.0348 21.3909 19.3961 21.1235 19.4852C20.2204 19.7858 19.3233 20.1008 18.4294 20.428C17.5637 20.745 16.6985 21.086 15.8039 21.3136C14.8952 21.5448 13.9318 21.6044 13.0583 21.9634C12.2858 22.2809 11.6219 22.8063 10.8769 23.1771C10.1296 23.549 9.28031 23.779 8.63624 24.3324C9.33663 25.0813 10.1649 25.7084 11.071 26.1857C11.2162 25.0438 12.5522 24.3935 13.4661 23.9546C15.4588 22.9976 18.4514 21.5546 20.4823 23.1762C21.9666 24.3615 22.1678 26.6104 22.1678 28.371C22.5698 28.2427 22.9369 28.0387 23.3104 27.8461C23.5691 27.7126 23.572 27.341 23.6045 27.0929C23.6578 26.6864 23.7675 26.2928 23.8935 25.9029C24.1721 25.0404 24.521 24.199 24.8535 23.3564C25.3915 21.9934 26.0546 20.6492 26.3853 19.2153C26.6011 18.2795 26.8579 16.671 25.7317 16.2065C24.7574 15.8047 23.6115 16.431 22.8204 16.9546ZM17.7799 13.1456C17.5916 13.2719 17.6619 13.651 17.6747 13.8412C17.7214 14.5329 17.6921 15.2274 17.7152 15.9203C17.7433 16.7645 17.7495 18.3126 18.6184 18.786C19.2128 19.1098 19.9519 18.6246 20.4262 18.2943C21.2287 17.7355 21.9649 17.0866 22.7785 16.5411C23.743 15.8945 25.5706 14.9999 26.4936 16.2164C26.9931 16.8748 26.923 17.8559 26.7984 18.622C26.6339 19.6327 26.2497 20.5913 25.8679 21.5358C25.0794 23.4862 24.2565 25.4684 23.8181 27.5329C24.8178 26.9376 25.5952 26.0797 26.4677 25.326C27.1144 24.7673 28.0749 24.1258 28.2242 23.2153C28.2579 23.0097 28.4566 22.8632 28.5933 22.7256C28.7711 22.5466 28.8964 22.3653 29.0091 22.1369C29.2578 21.6324 29.4194 21.0876 29.5212 20.5356C29.735 19.3774 29.6331 18.2247 29.4361 17.0734C29.3469 16.5527 29.4777 15.9941 29.3566 15.4865C29.2724 15.1341 29.0243 15.155 28.694 15.0749C27.5049 14.7862 26.3134 14.5064 25.1236 14.2204C24.6403 14.1042 24.1148 13.8862 23.613 13.8935C23.2011 13.8995 22.8551 14.1455 22.4996 14.3237C21.916 14.6163 20.9883 15.1281 20.3181 14.8372C19.5372 14.4981 20.4473 13.7326 20.0557 13.3705C19.7872 13.1221 18.9846 13.271 18.6207 13.2093C18.4211 13.1756 17.9629 13.0227 17.7799 13.1456ZM30.0685 23.1469C29.5005 23.2366 29.1717 23.4835 28.8589 23.9677C28.541 24.4599 28.5032 24.7036 28.9564 25.0888C29.4452 25.5042 29.9566 25.9144 30.4756 26.2885C31.1333 26.7626 31.863 27.1216 32.5131 27.6073C32.7977 27.82 34.0899 26.1523 34.3141 25.9236C34.6234 25.6082 34.9408 25.2918 35.2727 25.0014C35.394 24.8953 35.7742 24.6492 35.7743 24.4687C35.7748 24.0126 34.7651 23.6044 34.4402 23.4788C33.7122 23.1975 32.949 23.084 32.1734 23.0722C31.4859 23.0618 30.7495 23.0393 30.0685 23.1469ZM32.5993 21.1402C32.0661 21.4238 31.5092 21.6628 30.9726 21.9406C30.7823 22.0391 29.582 22.5442 29.6426 22.8462C30.9933 22.7604 32.338 22.5314 33.6844 22.7934C34.289 22.9111 34.8652 23.1083 35.3705 23.4723C35.7532 23.7478 36.0449 24.2772 36.4249 23.806C35.6492 23.3656 34.9506 22.7818 34.2627 22.215C33.9616 21.9669 33.6518 21.7335 33.3462 21.4921C33.1644 21.3486 32.8647 20.9991 32.5993 21.1402ZM0.650894 14.5457C0.228348 14.6052 -0.183483 14.7173 -0.59844 14.8136C-2.27952 15.2037 -3.96694 15.5539 -5.64355 15.9668C-8.98777 16.7901 -12.432 17.5841 -15.6208 18.9032C-15.3527 19.2001 -14.6422 18.985 -14.3095 18.9268C-13.6581 18.8128 -13.026 18.6135 -12.3825 18.4632C-11.7531 18.3161 -11.1214 18.1408 -10.4868 18.0182C-10.1945 17.9618 -9.67895 17.8874 -9.66716 18.3265C-9.65047 18.9489 -10.8574 19.4143 -11.3004 19.6418C-11.7741 19.8851 -12.2327 20.154 -12.6836 20.4369C-13.0401 20.6605 -13.6976 20.9586 -13.8132 21.4031C-12.6563 20.9121 -11.4988 20.423 -10.3491 19.9154C-9.91598 19.7242 -9.47718 19.5441 -9.0649 19.3108C-8.79002 19.1552 -8.43621 18.8822 -8.11071 18.8577C-7.66995 18.8245 -7.59693 19.2254 -7.78262 19.549C-8.01501 19.9539 -8.4946 20.1824 -8.84734 20.4658C-9.29702 20.8272 -9.69502 21.2535 -10.0999 21.6626C-10.436 22.0022 -10.8688 22.3365 -11.0443 22.7956C-10.44 22.998 -9.75349 22.349 -9.30952 22.0283C-8.61182 21.5242 -7.96198 20.9758 -7.29633 20.4311C-6.95583 20.1524 -6.54989 19.701 -6.10172 19.6179C-5.53374 19.5123 -5.58079 20.1629 -5.71855 20.5215C-6.02637 21.3231 -6.7471 21.9915 -6.79862 22.8952C-6.83031 23.4515 -6.36 23.2397 -6.04619 23.0166C-5.51776 22.6407 -5.16012 22.0681 -4.68053 21.637C-3.52564 20.5989 -2.20364 19.7133 -0.775034 19.0984C-0.519346 18.9883 -0.427387 18.5932 -0.349628 18.3557C-0.233658 18.0013 -0.100189 17.6576 0.0392609 17.3112C0.344767 16.5524 0.595274 15.7322 1.02336 15.0313C1.14272 14.8358 1.45072 14.6365 1.19593 14.5215C1.05746 14.4591 0.793915 14.5255 0.650894 14.5457ZM12.8463 13.2621C12.4136 13.3127 11.9756 13.308 11.5421 13.3539C10.8345 13.4286 11.1431 14.291 11.0291 14.8106C10.6935 16.3403 9.07519 16.6292 7.84886 15.9075C7.15895 15.5014 6.74472 14.9194 6.37376 14.2386C6.16226 13.8505 6.00467 13.788 5.56711 13.8851C5.26685 13.9519 4.99359 13.9377 4.68814 13.9599C4.30368 13.9878 4.27016 14.0695 4.26229 14.436C4.25541 14.7615 4.20866 14.987 3.99234 15.2507C3.58008 15.753 2.88883 16.0837 2.29993 16.3361C1.70996 16.589 1.04169 16.777 0.717655 17.3747C0.55434 17.6761 0.379318 18.0359 0.332031 18.3785C0.280365 18.7527 0.407118 18.9849 0.189276 19.3302C-0.263569 20.0479 -0.47113 20.8323 -0.700056 21.648C-0.774696 21.9137 -0.804197 22.0231 -0.514666 22.0961C-0.0992737 22.201 0.490698 22.0419 0.916994 22.0251C1.2211 22.0132 1.39871 21.476 1.49758 21.2583C1.68976 20.835 1.92539 20.4342 2.16138 20.0336C2.6962 19.1261 3.26802 18.2247 3.96659 17.4317C4.4939 16.8333 5.2723 16.0883 5.94746 16.9293C6.60546 17.7488 7.07967 18.7087 7.87103 19.4231C8.56701 20.0514 9.28418 20.0615 10.006 19.4659C10.7166 18.8797 11.2567 18.0798 11.6984 17.2817C12.1761 16.4187 12.5363 15.4973 13.0019 14.6291C13.1478 14.357 13.8217 13.6208 13.6163 13.3056C13.4777 13.0926 13.0409 13.2394 12.8463 13.2621ZM16.4704 13.0738C16.0895 13.0919 15.7062 13.049 15.3253 13.0413C14.6359 13.0277 14.0593 13.0518 13.7131 13.7138C13.4075 14.2979 13.1472 14.9193 12.8683 15.5174C12.2624 16.8169 11.668 18.1464 10.7378 19.2521C9.91374 20.2317 8.84909 20.7252 7.77703 19.7894C7.30172 19.3745 6.94061 18.8392 6.59952 18.313C6.32607 17.8912 6.01402 17.1488 5.55587 16.9029C5.04508 16.6287 4.4603 17.2576 4.14807 17.5989C3.62307 18.1726 3.18431 18.8474 2.76288 19.4989C2.45727 19.9714 2.16461 20.4539 1.86757 20.9319C1.74721 21.1258 1.2567 21.7599 1.41996 22.0014C1.58367 22.2436 2.38265 22.078 2.61383 22.0559C3.16581 22.0031 3.71708 21.9841 4.26933 21.9365C5.98712 21.7884 7.67944 21.4103 9.40162 21.3094C10.5361 21.2428 11.6539 21.0231 12.7705 20.8235C13.8564 20.6294 14.9492 20.497 16.0234 20.2405C16.655 20.0897 17.2877 19.9387 17.9181 19.7823C18.1362 19.7282 19.1672 19.5806 19.2313 19.2965C18.5214 19.1724 18.1486 18.8965 17.8969 18.2026C17.5816 17.3335 17.545 16.365 17.5181 15.4493C17.5078 15.097 17.5061 14.7446 17.5059 14.3922L17.5059 13.9693C17.5058 13.7166 17.6147 13.258 17.3874 13.0827C17.1769 12.9205 16.7142 13.0622 16.4704 13.0738ZM30.5632 18.686C30.593 19.8312 30.3886 20.9854 29.9192 22.0316C30.4103 22.1104 30.9944 21.4931 31.4064 21.2863C31.5651 21.2066 32.6159 20.824 32.264 20.5316C31.6167 19.9937 31.1923 19.2421 30.5632 18.686ZM44.6464 19.6173C44.7905 19.902 44.6126 20.2634 44.5162 20.5336C45.2656 20.714 46.0119 20.8912 46.767 21.0444C47.336 21.1598 47.1375 21.5017 46.6436 21.4782C45.9566 21.4454 45.3175 21.1538 44.6339 21.116C43.9827 21.0799 43.9061 21.6495 43.3509 21.7591C43.3698 21.4457 43.6228 21.2281 43.8046 20.993C43.505 20.839 43.1989 20.6958 42.9083 20.5261C42.7577 20.4382 42.3419 20.0696 42.502 19.8738C42.6637 19.6762 43.0875 20.0466 43.2383 20.1282C43.4527 20.2442 43.8808 20.4998 44.133 20.4265C44.4785 20.326 44.4066 19.829 44.6464 19.6173ZM33.8486 12.1559C33.5446 12.177 33.2139 12.0745 32.9259 12.2086C32.6388 12.3423 32.2961 12.6349 32.056 12.8379C31.8236 13.0344 31.708 13.273 31.4189 13.389C31.1302 13.505 30.8345 13.4947 30.7232 13.8484C30.9851 13.9203 31.4992 13.8249 31.7044 14.0178C32.0028 14.2985 31.4821 14.6074 31.2662 14.6957C30.9564 14.8224 30.7031 14.7813 30.3864 14.7575C30.2486 14.7473 30.2498 14.7048 30.137 14.7732C29.7183 15.0267 30.008 15.9286 30.1438 16.2577C30.8082 17.8681 33.0785 17.3258 34.3877 17.1609C33.9711 16.7404 33.2888 16.2765 33.2544 15.616C33.2441 15.4193 33.2928 15.0678 33.5448 15.0514C33.7464 15.0384 33.9881 15.3434 34.1136 15.4636C34.4856 15.8199 34.9669 16.4107 35.5049 16.4618C36.224 16.5302 36.7772 15.3632 37.0755 14.8542C36.709 14.7852 36.3073 14.7893 36.0943 14.4289C35.841 14.0007 35.8365 13.3445 35.841 12.8624C35.8448 12.4519 35.9754 12.0027 35.4276 11.9826C34.9231 11.964 34.358 12.1205 33.8486 12.1559ZM-14.4397 13.2088C-14.5445 13.4378 -14.9998 13.5276 -15.1997 13.5888C-15.96 13.8215 -16.7025 14.1171 -17.4437 14.4069C-18.9403 14.9922 -20.4204 15.6387 -21.7869 16.4988C-22.0423 16.6597 -21.9172 16.3495 -21.8509 16.2376C-21.7022 15.9868 -21.3897 15.8093 -21.1563 15.6557C-20.5248 15.2399 -19.856 14.9478 -19.1577 14.6696C-17.7605 14.1131 -16.3419 13.523 -14.909 13.0722C-14.7427 13.0199 -14.299 12.9011 -14.4397 13.2088ZM2.91648 14.3428C2.63869 14.3716 2.31331 14.3083 2.04615 14.3991C1.698 14.5175 1.75542 14.757 1.65236 15.0514C1.47762 15.5513 1.29057 16.0469 1.10821 16.5442C1.78324 16.5126 2.42974 15.9772 3.00181 15.669C3.32568 15.4946 4.45156 14.9156 4.1121 14.3855C3.89713 14.05 3.22493 14.3107 2.91648 14.3428ZM10.5989 13.4714C10.1809 13.4638 9.72132 13.5906 9.29825 13.6116C8.73104 13.6399 8.17245 13.748 7.60597 13.7741C7.23327 13.7914 6.86737 13.8681 6.49865 13.9184C6.86546 14.7699 7.58151 15.5147 8.48119 15.8232C9.19099 16.0665 10.1843 16.1078 10.6693 15.4345C10.9483 15.0472 11.4041 13.4859 10.5989 13.4714ZM32.3643 9.95402C31.9086 10.2574 31.5432 10.6921 31.1625 11.08C30.2088 12.0513 29.2219 13.0914 28.8091 14.4229C28.7524 14.6053 29.1824 14.7665 29.2987 14.7736C29.5447 14.7885 29.5947 14.6642 29.6913 14.456C29.9302 13.9405 30.0218 13.3645 30.4041 12.925C30.8699 12.389 31.4309 11.8665 31.9716 11.4061C32.3391 11.0932 33.2396 10.6527 33.3452 10.1354C33.4701 9.52396 32.6403 9.77035 32.3643 9.95402ZM20.6072 13.4924C20.3494 13.5675 20.3289 13.8065 20.27 14.0639C20.0331 15.0984 22.4293 13.9698 22.7629 13.8007C22.652 13.4685 21.5599 13.5291 21.307 13.5161C21.11 13.506 20.7975 13.4369 20.6072 13.4924ZM34.7615 14.0297C34.4064 14.0434 34.5701 12.5902 34.9738 12.7364C35.3199 12.8618 34.9891 14.0208 34.7615 14.0297ZM-15.1561 12.3588C-15.6997 12.8291 -16.5534 12.8921 -17.2293 13.0431C-18.2255 13.2655 -19.2129 13.5489 -20.2009 13.8047C-20.8248 13.9662 -20.4736 13.5811 -20.1612 13.4364C-19.6241 13.1875 -19.016 13.0549 -18.4419 12.918C-17.8204 12.7698 -17.1853 12.6708 -16.5673 12.5091C-16.1394 12.397 -15.5875 12.1105 -15.1561 12.3588ZM1.75868 2.25274C2.36289 2.36391 2.96604 2.55753 3.49574 2.87469C3.93425 3.13724 3.91684 3.54574 3.36094 3.30872C0.76792 2.20284 -2.44965 2.87273 -4.98175 3.85196C-5.26112 3.95993 -5.24034 3.72433 -5.15589 3.54271C-5.03965 3.29253 -4.79118 3.14729 -4.55266 3.03113C-3.83602 2.68196 -3.0099 2.48451 -2.23066 2.33945C-0.932018 2.09772 0.453915 2.01278 1.75868 2.25274ZM2.13762 0.664334C2.46705 0.753879 2.84562 0.97598 3.04712 1.25772C3.283 1.58744 3.09543 1.75595 2.76817 1.56205C2.4029 1.34564 2.06894 1.12986 1.64975 1.01556C1.42844 0.955288 1.4374 0.816226 1.59637 0.694152C1.74512 0.579849 1.97611 0.620419 2.13762 0.664334Z" fill="#010101"/>
<path fill-rule="evenodd" clip-rule="evenodd" d="M76.4317 28.0259C79.9043 27.7491 83.2174 29.0458 85.9929 31.0668C89.5701 33.6716 92.6021 37.3967 94.6543 41.322C94.8726 41.4905 95.0877 41.6632 95.3013 41.8376C96.4435 42.7699 97.5594 43.7547 98.5486 44.8508C99.1008 45.4626 100.549 46.9504 99.9204 47.8888C99.787 48.0881 99.5678 48.2025 99.3483 48.2813C98.7329 48.5021 98.0913 48.614 97.4843 48.8723C96.735 49.1911 95.9581 49.6375 95.4781 50.3182C95.3415 50.5118 95.3059 50.7402 95.1224 50.8255C94.9278 50.916 94.5608 50.8807 94.3481 50.9016C93.9205 50.9437 93.4928 50.9857 93.0651 51.0276C92.0603 51.1263 91.01 51.1372 90.0271 51.3803L85.5054 52.4991C84.5805 52.7279 83.5176 52.8539 82.6405 53.23C81.3318 53.7912 80.0831 54.613 78.8308 55.2902C78.2253 55.6176 77.6197 55.9451 77.0141 56.2726C76.7184 56.4325 76.516 56.4347 76.1694 56.4614L73.6684 56.6542C73.265 56.6853 73.0713 56.8481 73.0184 56.4435L72.4371 51.9961L72.1298 49.6443C72.1115 49.5044 72.1169 48.8116 72.0025 48.728C71.9307 48.6755 71.5097 48.7884 71.4318 48.798L70.2967 48.9373C69.4791 49.0376 68.6616 49.1379 67.844 49.2382C67.7777 49.2463 67.4101 49.2421 67.3688 49.2965C67.3205 49.3603 67.4124 49.7259 67.4207 49.8046C67.5074 50.6304 67.5942 51.4562 67.6809 52.2821C67.6911 52.3778 67.8071 52.8219 67.746 52.9005C67.7034 52.9551 67.3954 52.9617 67.3329 52.9719C66.5442 53.1009 65.7556 53.2299 64.9669 53.359C64.4021 53.4513 63.664 53.4467 63.1301 53.6595C62.8235 53.7817 62.5201 54.0941 62.2553 54.2894L58.4089 57.1254C57.8255 57.5554 57.0393 57.4459 56.3288 57.5001L48.1338 58.1257C48.1406 57.87 48.1474 57.6143 48.1542 57.3585C48.1903 56.004 48.2263 54.6495 48.2623 53.295L48.3095 51.5234C48.3125 51.4113 48.2678 51.0832 48.3409 51.0003C48.4382 50.8903 48.8727 50.8426 49.0075 50.8026C49.4598 50.6684 49.9121 50.5343 50.3643 50.4002C51.6912 50.0067 53.0179 49.6131 54.3447 49.2197C55.6561 48.8308 56.9672 48.4418 58.2785 48.0529C58.7272 47.9198 59.1758 47.7868 59.6244 47.6537C59.7281 47.6229 60.0901 47.5821 60.1621 47.4942C60.2529 47.3836 60.2123 46.9116 60.2268 46.7713C60.298 46.0869 60.3995 45.4056 60.5231 44.7289C61.4145 39.8475 63.4981 34.8892 67.3615 31.6327C69.9153 29.48 73.1187 28.2899 76.4317 28.0259ZM77.0441 37.8148C76.7003 37.4103 76.1228 36.7505 75.5155 36.8601C75.0219 36.9491 74.7529 37.5622 74.5809 37.9698C73.8893 39.6081 73.6748 41.4859 73.4598 43.2368C73.3248 44.3354 73.2163 45.4388 73.1468 46.5435C75.6103 46.3537 78.0737 46.1638 80.5371 45.9739C80.4209 45.1874 80.3277 44.3936 80.1877 43.6109C80.1175 43.2185 79.9235 42.8653 79.7576 42.5029C79.0155 40.8817 78.2056 39.1812 77.0441 37.8148Z" fill="#EC9B3D"/>
<path fill-rule="evenodd" clip-rule="evenodd" d="M111.24 5.87793L111.301 5.87898C112.935 5.92256 114.377 6.97664 115.495 8.09218C116.048 8.64375 116.552 9.29255 116.789 10.0475C117.063 10.9196 116.973 11.8789 116.765 12.7542C116.304 14.6885 115.742 16.6327 115.109 18.5179C114.797 19.4452 114.346 20.3545 114.111 21.3036C113.917 22.0856 114.733 22.6551 114.764 23.4587C114.795 24.2693 114.251 25.0309 113.503 25.3206C113.185 25.444 112.799 25.3409 112.505 25.4674C112.237 25.5829 112.143 25.9241 112.091 26.1859C112.021 26.5431 112.034 26.8999 112.054 27.2602C112.066 27.4806 112.011 27.8404 112.118 28.037C112.192 28.172 112.326 28.2161 112.442 28.3085C112.6 28.4346 112.705 28.5915 112.844 28.7364C113.072 28.9756 113.292 29.1051 113.354 29.454C113.387 29.3747 113.42 29.2955 113.452 29.2163C113.623 29.5282 113.749 29.6777 113.587 29.9738C114.089 29.9244 114.386 30.8369 114.518 31.1829C114.759 31.8162 114.924 32.4742 115.166 33.1078C115.497 33.9766 115.932 34.8339 116.143 35.7428C116.321 36.5068 116.461 37.2915 116.619 38.0608C116.708 38.4939 116.785 38.934 116.948 39.347C117.011 39.5073 117.128 39.6153 117.201 39.7582C117.3 39.9539 117.261 40.0572 117.266 40.2715C117.274 40.6535 117.515 40.9015 117.591 41.2726C117.671 41.669 117.737 42.0699 117.819 42.4672C117.983 43.2674 118.287 44.0665 118.36 44.8771C118.445 45.8183 118.628 46.748 118.72 47.6894C118.8 48.5121 118.663 49.3953 118.835 50.1911C118.987 50.8975 118.799 51.5434 118.731 52.2447C118.714 52.4228 118.988 53.4829 118.548 53.2793C118.631 53.5293 118.747 53.6484 118.753 53.9226C118.759 54.179 118.693 54.4427 118.639 54.6913C118.535 55.1718 118.465 55.6956 118.261 56.1457C118.031 56.6549 117.679 56.7159 117.202 56.8906C116.878 57.0089 116.296 57.4309 116.041 56.9795C115.889 57.4429 115.593 57.1226 115.26 57.0967C115.262 57.0968 115.07 57.1681 115.034 57.1731C114.917 57.1888 114.778 57.1336 114.662 57.1239C114.372 57.0998 114.087 57.1386 113.804 57.1975C113.15 57.3332 112.517 57.521 111.854 57.6156C110.558 57.8004 109.288 57.713 107.99 57.7939C105.45 57.9522 102.868 57.8194 100.326 57.7508C100.053 57.7435 99.7589 57.7817 99.4897 57.7397C99.1994 57.6944 99.1361 57.5567 98.91 57.4189C98.5341 57.19 98.117 57.4127 97.727 57.4963C96.582 57.7419 95.3863 57.76 94.2321 57.9976C91.8873 58.4801 89.7268 59.4323 87.4808 60.2355C86.5071 60.5837 85.3642 61.1475 84.3142 61.1725C83.0417 61.1996 83.3422 59.9437 83.5761 59.1364C82.8408 59.332 81.6863 60.2256 80.9389 59.707C80.0483 59.089 81.1815 58.0617 81.2349 57.3353C79.6431 57.6664 77.8375 58.3924 76.2218 57.8022C75.911 57.6887 75.6404 57.4486 75.3067 57.4096C74.9597 57.369 74.593 57.4918 74.2422 57.4897C73.4432 57.4846 72.6672 57.378 71.8684 57.4767C70.0874 57.6964 68.3317 57.8167 66.5363 57.8642C64.7289 57.9118 62.9213 58.0191 61.113 58.0146C60.1951 58.0123 59.2602 57.9033 58.3442 57.9522C57.9846 57.9713 57.2105 58.2331 56.9578 57.8669C56.7041 58.1716 56.4885 57.968 56.1631 58.0018C56.2234 57.9956 55.9935 58.1287 55.959 58.1416C55.7879 58.2053 55.6279 58.1859 55.4493 58.184C54.9734 58.1792 54.5289 58.4023 54.0555 58.3807C53.9358 58.3753 53.8453 58.3404 53.7437 58.2992C53.7196 58.2895 53.7254 58.1857 53.6868 58.177C53.4552 58.1251 53.5151 58.2672 53.368 58.3389C53.205 58.4182 52.9638 58.2898 53.0566 58.534C52.6143 58.5145 52.1952 58.6639 51.7928 58.4011C51.9831 58.8224 51.3185 58.4724 51.1447 58.4656C50.8561 58.4539 50.6033 58.5985 50.3154 58.6319C49.9701 58.6717 49.6232 58.5113 49.2853 58.6092C49.0206 58.6859 48.93 58.8704 48.6545 58.776C48.4205 58.6959 48.2743 58.5219 48.1608 58.3316C48.0041 58.0691 47.984 57.952 47.6061 57.9473C47.3259 57.9439 47.0442 58.0043 46.7613 58.0037C46.4371 58.0031 46.0809 57.9686 45.785 58.123C45.4662 58.2894 45.2789 58.5426 44.9254 58.6728C43.3356 59.2586 41.5904 59.1035 39.9316 59.0936C39.2318 59.0894 38.7182 59.1538 38.5217 58.354C38.3557 57.6782 38.2892 56.9715 38.1308 56.2901C37.9368 55.4552 37.7235 54.6806 37.2929 53.9342C36.8752 53.2103 36.5238 52.4625 36.1602 51.7107C35.4038 50.1469 34.351 48.8164 33.1772 47.5457C32.7313 47.0628 32.2202 46.5249 32.1988 45.8297C32.1842 45.2293 32.4482 44.6073 32.7944 44.129C33.1035 43.7021 33.6128 43.2206 34.1889 43.3201C34.5359 43.3801 34.7633 43.6605 35.0222 43.8709C35.3052 44.1007 35.6135 44.2573 35.9546 44.3827C36.7499 44.675 37.417 44.9949 38.1057 45.4994C38.8027 46.01 39.4542 46.5818 40.0569 47.201C41.2139 48.3897 42.3994 49.6247 43.0642 51.1639C43.3262 51.7704 43.4936 52.3552 43.6722 52.984C43.8477 53.6014 44.3254 53.4312 44.8626 53.3425C45.5172 53.2343 46.1751 53.1763 46.8342 53.1077C47.0822 53.0819 47.4319 53.0743 47.5813 52.8394C47.746 52.5804 47.5573 52.2449 47.5424 51.9762C47.5344 51.8327 47.5819 51.727 47.5937 51.587C47.6074 51.4278 47.5605 51.2825 47.5603 51.124C47.5601 50.7831 47.7193 50.4795 47.9839 50.2731C48.479 49.8866 49.2011 49.6562 49.7873 49.4436C50.5876 49.1533 51.4451 49.0106 52.2693 48.8034C53.1973 48.57 54.1309 48.3598 55.0639 48.1478C55.9806 47.9396 56.896 47.7254 57.8226 47.565C58.3661 47.471 58.9557 47.5053 59.4826 47.3334C60.0425 47.1507 59.9497 46.5862 59.948 46.086C59.9453 45.26 60.0473 44.4096 60.1681 43.593C60.425 41.8569 61.0369 40.158 61.5931 38.499C62.129 36.9011 62.7928 35.3676 63.8888 34.0709C64.9556 32.8086 66.265 31.6662 67.6233 30.7282C69.0386 29.7507 70.6134 29.0446 72.0908 28.172C71.7679 27.9246 71.3828 27.7135 71.1973 27.3324C70.9878 26.9022 71.0766 26.3879 71.0855 25.9282C71.0955 25.4093 71.1113 24.9538 71.2963 24.4595C71.3975 24.1888 71.7888 23.6753 71.7288 23.3809C71.6283 22.8866 70.5491 22.5256 70.1517 22.3222C69.5285 22.0031 68.904 21.6791 68.3297 21.2763C67.7784 20.8899 67.2598 20.4249 66.9259 19.8318C66.8312 19.6635 66.7532 19.4867 66.6927 19.3033C66.6254 19.0986 66.6725 19.0288 66.4683 19.0138C66.1424 18.9898 65.6537 19.3176 65.3791 19.4624C63.9631 20.209 62.4081 21.2137 60.7374 21.147C60.1313 21.1229 59.4498 20.9321 59.2355 20.2987C58.9534 19.4647 59.5425 18.6033 60.0594 18.0009C59.0511 18.1597 57.1918 18.656 56.3962 17.7545C55.8659 17.1539 56.2659 16.2004 56.7105 15.6796C57.2979 14.9916 58.1354 14.5727 58.909 14.1349C57.9598 13.7723 56.9089 13.5404 56.0741 12.9336C55.2757 12.3534 55.3744 11.4619 56.005 10.7774C56.6792 10.0457 57.858 9.67101 58.7851 9.39937C59.9223 9.06617 61.0521 9.09289 62.224 9.11524C64.3272 9.15529 66.1338 9.93213 67.8588 11.1066C68.7709 11.7277 69.6699 12.3979 70.4789 13.1501C71.2376 13.8555 72.047 14.5114 72.7946 15.2245C73.519 15.9154 74.0888 16.7714 74.8533 17.4168C75.5034 17.9656 76.2162 18.7435 77.042 18.9871C77.9178 19.2454 78.7061 19.6727 79.5893 19.927C80.5912 20.2154 81.4518 20.6977 82.3802 21.1578C86.2767 23.0889 90.4596 24.3456 94.5675 25.7319C96.6686 26.441 98.7837 26.9408 100.929 27.4823C102.006 27.7542 103.006 27.8993 104.118 27.8502C104.374 27.8389 104.619 27.8322 104.872 27.8679C105.057 27.8939 105.198 27.9641 105.364 27.8531C105.602 27.6937 105.691 27.2787 105.833 27.0425C105.042 26.7967 104.268 26.5309 103.907 25.7185C103.679 25.2066 103.561 24.6096 103.462 24.0604C103.408 23.7648 103.407 23.4665 103.361 23.1707C103.336 23.0074 103.259 22.8367 103.265 22.6698C103.247 22.7627 102.657 22.4573 102.572 22.4006C102.242 22.1817 102.182 21.7403 102.185 21.3678C102.188 20.9471 102.315 20.4847 102.6 20.1656C102.735 20.0146 102.895 19.9013 103.091 19.8444C103.231 19.804 103.414 19.8569 103.537 19.8162C104.082 19.6358 104.143 18.2854 104.22 17.7938C104.39 16.7106 104.56 15.6764 104.927 14.6381C105.597 12.7451 106.46 10.9053 107.487 9.18174C108.367 7.70484 109.246 5.89899 111.181 5.87793H111.24ZM94.5135 51.3526C93.7303 51.4885 92.98 51.766 92.2235 52.0013C91.5169 52.2211 90.8008 52.361 90.076 52.5039C88.6335 52.7883 87.1593 53.0486 85.7377 53.4193C85.3374 53.5237 85.1268 53.7593 84.7776 53.9231C84.5187 54.0445 84.2756 53.9215 84.0063 53.9112C83.4199 53.8888 82.7694 54.0804 82.2054 54.2233C80.8741 54.5603 79.6928 55.1457 78.4881 55.7928C78.3802 55.8506 77.6513 56.1848 77.6859 56.3232C77.714 56.4362 78.6406 56.1329 78.788 56.1104C79.5341 55.9965 80.2629 55.7608 81.0035 55.6144C81.6114 55.4942 82.2262 55.4128 82.8315 55.2794C83.5052 55.1309 84.9401 54.6147 84.9972 55.7295C85.0588 56.9343 83.731 57.3048 82.9328 57.8669C83.0218 58.0206 84.3023 57.5136 84.461 57.4624C85.0056 57.2865 85.5107 56.9694 86.0651 56.8344C87.0296 56.5994 86.9128 57.6668 86.3803 58.1417C85.7887 58.6691 84.8102 58.8286 84.4826 59.6403C84.9128 59.7958 85.4753 59.5038 85.8705 59.3586C86.3894 59.168 86.9103 58.9803 87.4325 58.7985C88.6045 58.3904 89.7177 57.8282 90.896 57.4394C93.3135 56.6419 95.8689 56.4132 98.3961 56.2714C98.1709 55.3962 97.9246 54.526 97.7223 53.645C97.6357 53.2679 97.5564 52.8891 97.4908 52.5077C97.4451 52.2425 97.484 51.6079 97.3016 51.3987C97.0796 51.1439 96.5013 51.5018 96.1866 51.495C95.8784 51.4883 95.6535 51.3288 95.3686 51.2786C95.0981 51.2309 94.7781 51.3067 94.5135 51.3526ZM49.0892 56.4191C49.0892 56.8375 49.0168 57.3451 49.5661 57.394C50.0103 57.4335 50.8794 57.4844 51.2338 57.1679C50.8942 57.002 50.5082 56.973 50.1475 56.8774C49.7717 56.7777 49.4246 56.6139 49.0892 56.4191ZM58.155 48.7954C57.9879 48.7966 57.706 48.9828 57.5536 49.0347C57.2747 49.1297 56.9912 49.2099 56.7065 49.2854C55.8509 49.5125 54.7493 49.5478 54.3564 50.4681C54.1603 50.9274 54.0244 52.1085 53.3429 52.1042C52.7373 52.1003 52.3745 51.2244 51.9424 50.9127C51.4959 50.5907 50.7879 50.8099 50.3063 50.9497C49.8168 51.0918 49.0573 51.274 49.1123 51.8955C49.1518 52.3423 49.2323 52.749 49.2284 53.2054C49.2237 53.7864 49.1747 54.3662 49.1747 54.9472C49.5183 54.4755 49.818 53.5272 50.4268 53.3376C51.0418 53.1459 51.3896 54.2225 51.5496 54.6351C51.7478 55.1464 51.997 55.7262 52.0121 56.2803C52.0169 56.4542 51.9115 56.9322 52.0322 57.0752C52.1394 57.2022 52.5516 57.1101 52.6847 57.0962C53.509 57.0103 54.3289 56.9033 55.1558 56.8316C55.5804 56.7948 55.696 56.7014 55.6545 56.2437C55.6219 55.8842 55.6118 55.5416 55.6567 55.1808C55.8575 53.5696 56.8477 52.0958 58.5218 51.8161C59.5307 51.6474 60.7089 51.7707 61.7161 51.9327C62.1043 51.9951 62.5257 52.1835 62.9202 52.1671C63.2115 52.155 63.1177 52.1384 63.1773 51.8636C63.2191 51.6715 63.3084 51.5076 63.4542 51.3744C63.5694 51.2692 63.7157 51.3286 63.8244 51.191C63.903 51.0915 63.8912 50.9559 63.9283 50.8412C64.0007 50.6179 64.1315 50.3167 64.392 50.2603C64.8113 50.1695 65.2569 50.732 65.4685 51.0221C65.6871 51.3221 65.7532 52.2175 66.1048 52.3348C66.5105 52.4699 66.9931 51.9371 67.0777 51.6015C67.1914 51.15 67.0481 50.6616 66.9796 50.2145C66.9748 50.1825 66.9548 49.8854 66.9328 49.866C66.8736 49.8138 66.4276 49.8284 66.3486 49.8245C65.96 49.806 65.5708 49.805 65.1818 49.804C63.657 49.8002 62.1633 49.65 60.6486 49.4898C60.8685 49.8492 61.2452 50.4392 60.8586 50.8186C60.5721 51.0997 60.055 50.9587 59.6951 51.0166C59.1867 51.0984 58.3297 51.5818 57.8453 51.2284C57.1625 50.7301 57.9348 49.8741 58.1884 49.4033C58.2427 49.3024 58.444 48.9472 58.3587 48.8288C58.2848 48.7263 58.2632 48.7946 58.155 48.7954ZM46.7843 54.3325C46.4357 54.439 46.0845 54.5415 45.7284 54.6204C45.3106 54.7131 44.6628 54.6231 44.4596 55.0836C44.3049 55.4338 44.3817 55.9987 44.5073 56.3474C44.6512 56.7468 44.9889 56.8496 45.3874 56.88C45.8524 56.9156 46.3236 56.8404 46.7832 56.7767C46.9644 56.7516 47.1575 56.7062 47.3415 56.706C47.4507 56.7057 47.6712 56.8058 47.7683 56.7239C47.894 56.6179 47.8112 56.0153 47.8014 55.8709C47.7769 55.5132 47.7092 55.1603 47.6907 54.802C47.6775 54.5447 47.7743 54.195 47.4733 54.1402C47.2858 54.106 46.9473 54.2828 46.7843 54.3325ZM74.9356 47.2516C74.6751 47.2967 74.416 47.329 74.1514 47.325C73.9884 47.3225 73.7933 47.267 73.6426 47.3566C73.3643 47.5221 73.4058 47.958 73.4153 48.23C73.4269 48.5601 73.4557 48.895 73.4908 49.2234C73.5244 49.5374 73.6963 50.0545 73.4535 50.3236C73.2822 50.1357 73.1977 49.5216 72.8671 49.544C72.5036 49.5686 72.6717 50.1506 72.7039 50.3591C72.8821 51.5111 73.0852 52.6638 73.2444 53.8192C73.32 54.3684 73.4178 54.9137 73.4684 55.4656C73.5024 55.8361 73.5138 56.1697 73.927 56.2464C74.3099 56.3175 74.7402 56.1961 75.1273 56.1868C75.5258 56.1772 75.7541 56.1501 75.9834 55.7892C75.4344 55.6687 74.5647 55.7424 74.2554 55.1606C73.8948 54.4818 74.6554 53.8711 75.0297 53.4071C75.317 53.0508 75.9044 51.8663 76.4376 52.5698C76.6297 52.8231 76.6643 53.2097 76.7613 53.5043C76.919 53.9831 77.1116 54.4549 77.3007 54.9219C79.0302 54.0273 80.8048 53.2209 82.691 52.7186C82.2102 51.9043 81.6149 51.1709 81.2549 50.2882C80.8516 49.2989 80.5175 48.2826 80.1051 47.2965C79.4513 47.6789 78.7523 46.752 78.1012 46.7146C77.0728 46.6557 75.9439 47.0765 74.9356 47.2516ZM64.6907 53.9209C64.3322 54.1349 63.8048 54.5511 63.7187 54.9813C63.57 55.7251 64.4171 55.2278 64.6787 55.065C65.2262 54.7243 65.7626 54.6154 66.3913 54.8254C67.1977 55.0946 67.9407 55.5492 68.8062 55.2039C69.2368 55.0319 70.1919 54.6647 69.9342 54.0056C69.7565 53.5514 69.2365 53.941 68.9617 54.1039C68.2421 54.5303 67.6463 54.2601 66.9273 53.9524C66.2082 53.6445 65.3986 53.4985 64.6907 53.9209ZM39.1554 50.1039C38.8675 50.5127 39.4527 50.4244 39.7096 50.4643C40.2468 50.5474 40.8 50.9767 40.652 51.584C40.5076 52.1762 39.9421 52.5464 39.8344 53.168C39.7418 53.7018 39.831 54.3774 40.3455 54.6704C40.6344 54.835 41.2659 54.9028 41.5567 54.7137C42.0008 54.4251 41.4493 53.9952 41.1555 53.8522C40.7662 53.6627 40.4518 53.5601 40.6444 53.0623C40.8793 52.4554 41.3354 51.9897 41.2949 51.2952C41.2615 50.7199 40.9584 50.0661 40.4062 49.827C40.0109 49.656 39.425 49.7209 39.1554 50.1039ZM78.4561 48.3402C78.9537 48.3189 78.9734 48.9214 78.9484 49.2177C78.9141 49.6229 78.9875 50.0547 78.9959 50.4612C79.0072 50.9996 79.1196 52.7626 78.1695 52.5007C77.5586 52.3324 77.0558 51.7457 76.5647 51.3687C76.1128 51.0217 74.9641 50.6056 74.8896 49.9477C74.8056 49.2047 75.7114 49.0656 76.2304 48.9476C76.9713 48.779 77.6906 48.3732 78.4561 48.3402ZM76.0321 28.757C75.243 28.8333 74.4583 28.9507 73.7074 29.2133C73.1993 29.391 72.4189 29.5184 72.0587 29.9544C71.7474 30.3315 71.8823 30.869 71.7811 31.3145C71.6442 31.9172 71.229 31.8348 70.8263 31.4585C70.3443 31.0079 70.2049 30.6817 69.534 31.1045C68.145 31.9797 67.0438 33.2718 65.942 34.4688C66.7939 34.7273 68.4653 34.7899 68.7483 35.8565C68.9029 36.4396 68.4366 36.8638 68.0177 37.182C67.4767 37.593 66.912 37.973 66.3828 38.4004C65.889 38.7993 64.7817 40.3873 64.4685 38.9911C64.2746 38.1268 64.638 37.2337 64.4838 36.3799C63.8139 37.4622 63.1337 38.5419 62.5194 39.6573C61.9966 40.6069 61.6926 41.6227 61.4419 42.6725C61.8328 42.6981 62.2397 42.4993 62.6261 42.6168C62.9982 42.7298 63.1724 43.0826 63.1985 43.448C63.2429 44.0675 62.9574 44.6982 62.8138 45.2932C62.7151 45.7018 62.6019 46.6292 62.1052 46.7622C61.539 46.9137 61.1837 46.041 60.9313 45.6864C60.6909 46.0566 60.6949 46.5981 60.6598 47.0225C60.6357 47.3142 60.4733 47.8597 60.8008 48.021C61.1073 48.172 61.7536 47.9828 62.0814 47.9689C62.6896 47.943 63.3096 47.8937 63.918 47.9116C64.4928 47.9287 65.3385 48.2365 65.5631 47.5287C65.716 47.0468 65.8506 45.3149 66.6661 46.2545C67.0283 46.6718 67.3116 47.1475 67.6615 47.5727C68.0145 48.0015 68.3354 48.0296 68.8626 48.0079C69.9061 47.9651 70.9251 48.1659 71.9461 48.328C72.842 48.4702 72.7245 47.7083 72.7112 47.0299C72.6908 45.9785 72.8989 44.8789 73.0124 43.8332C73.2823 41.3467 73.8362 38.8901 74.6883 36.5384C73.9755 36.2952 72.6976 37.2765 72.1705 36.5312C71.7373 35.9186 72.2939 35.0746 72.5205 34.5019C72.8031 33.7873 72.946 33.0408 73.407 32.4076C73.5525 32.2076 73.7594 31.9397 74.041 32.0071C74.2827 32.0649 74.379 32.3737 74.5149 32.5479C74.9465 33.1009 75.4978 33.5156 75.8815 34.1188C76.1162 34.4877 76.2987 34.882 76.3749 35.3152C76.3959 35.4343 76.3693 35.6782 76.453 35.7781C76.7124 36.0878 77.5296 36.0832 77.8928 36.2731C79.1328 36.9215 79.5686 38.809 80.0501 39.9991C80.1858 40.3343 80.3202 40.6703 80.3924 41.0255C80.4405 41.263 80.4382 41.5649 80.5667 41.7779C80.8473 42.2429 81.7191 41.8276 82.1469 41.7556C82.8639 41.6349 83.5774 41.5198 84.2973 41.4185C84.7365 41.3568 85.3758 41.1973 85.7105 41.5872C86.0574 41.9914 85.8579 42.6281 85.6837 43.0618C85.3994 43.7696 85.0362 44.4459 84.7362 45.1473C84.4969 45.7068 84.3778 46.4276 83.9179 46.8587C83.5196 47.2323 82.8604 47.3394 82.3914 47.0353C82.1237 46.8618 81.4365 45.1835 81.2552 45.2585C81.5825 46.5548 82.0625 47.8766 82.5695 49.1138C82.7252 49.4938 82.9926 50.2687 83.386 50.4748C83.7121 50.6457 84.4521 50.3228 84.7858 50.2602C85.1021 50.2008 85.7267 49.9434 86.0292 50.132C86.3958 50.3607 86.4405 50.9707 86.4817 51.3493C86.5123 51.6301 86.4568 51.8396 86.7977 51.8257C87.0379 51.8159 87.2802 51.6986 87.5107 51.6395C88.0458 51.5027 88.6011 51.4122 89.1458 51.3241C90.4056 51.1202 91.6649 50.917 92.9241 50.708C94.0067 50.5283 95.0751 50.5294 96.0533 50.0149C96.5491 49.7541 97.1175 49.6745 97.6455 49.5001C98.1691 49.3271 98.6911 49.2149 99.2391 49.1499C100.437 49.008 101.603 48.869 102.786 48.6258C103.434 48.4927 104.081 48.3533 104.725 48.2042C105.299 48.0715 105.854 47.8607 106.424 47.7306C106.899 47.6224 107.289 47.7037 107.493 47.1636C107.639 46.7763 107.605 46.3422 107.642 45.9368C107.814 44.0847 107.166 42.222 107.034 40.38C106.991 39.7834 106.978 39.185 106.933 38.5889C106.913 38.3158 106.925 37.5205 106.607 37.3733C106.578 37.5917 106.601 37.9592 106.353 38.0675C106.474 38.0146 106.315 38.6599 106.306 38.7247C106.273 38.9823 106.357 39.2579 106.312 39.5107C106.348 39.5996 106.332 39.6666 106.266 39.7116C106.221 39.7481 106.189 39.7943 106.168 39.8501C106.165 40.0303 106.218 39.9241 106.22 39.9864C106.245 40.6062 106.141 41.2488 106.185 41.8837C106.233 42.5548 106.382 43.2132 106.496 43.8751C106.598 44.4693 106.707 45.0646 106.793 45.6615C106.852 46.0803 106.896 46.5611 106.672 46.9424C106.244 47.6663 105.008 47.5876 104.288 47.7059C103.091 47.9028 101.893 48.0804 100.691 48.2476C100.23 48.3118 99.7635 48.4584 99.2969 48.4657C98.7985 48.4736 98.5318 48.2718 98.2175 47.9033C97.5844 47.1608 97.1762 46.3174 96.6488 45.5098C96.3526 45.0561 96.1063 44.9365 95.6076 44.798C95.1445 44.6694 94.7729 44.3308 94.3961 44.0492C93.6046 43.4577 92.5826 42.8145 92.0632 41.9433C91.5167 41.0266 92.2868 40.7222 93.0243 40.4721C92.8448 39.9942 92.4929 39.6103 92.2029 39.1992C91.8733 38.7317 91.5744 38.2461 91.2194 37.7962C90.496 36.8792 89.7734 35.967 89.0714 35.0329C88.4712 34.2345 87.8647 33.4782 87.0988 32.8315C86.3296 32.1819 85.4731 31.6495 84.6284 31.1056C84.1871 30.8215 83.4125 30.0956 82.8548 30.1698C82.3138 30.2419 82.0998 31.2515 81.9647 31.6759C81.8096 32.1629 81.7548 32.8418 81.3935 33.2252C80.8624 33.7886 80.311 32.9011 80.0576 32.4921C79.5936 31.743 79.1186 31.0005 78.6552 30.2506C78.4441 29.9088 78.1391 29.5835 78.0137 29.1959C78.0122 29.1912 77.9535 28.858 78.0128 28.9046L78.0168 28.9083L78.0128 28.9038C77.8803 28.7723 77.3907 28.7449 77.2076 28.7291L77.1909 28.7276C76.8058 28.6912 76.4161 28.7199 76.0321 28.757ZM70.8596 49.7645C70.416 49.7618 69.9737 49.8135 69.5321 49.8498C69.1443 49.8815 68.7888 49.8221 68.4016 49.7987C67.9226 49.7698 67.6857 49.8201 67.796 50.3158C67.8762 50.6765 67.9726 51.1569 68.3422 51.3094C68.8415 51.5154 69.514 51.4876 70.046 51.5657C70.4365 51.6229 70.826 51.6746 71.2149 51.7399C71.4731 51.7833 71.6058 51.8286 71.7267 51.5354C71.8278 51.2896 71.7626 50.9613 71.7282 50.7074C71.7016 50.5126 71.7175 50.17 71.6256 49.9967C71.4886 49.738 71.1294 49.7662 70.8596 49.7645ZM91.5398 44.8216C92.1915 45.4185 92.6301 46.1817 93.1222 46.9055C93.4227 47.3473 94.0105 48.0518 93.5836 48.5876C93.22 49.0443 92.3743 48.9398 91.8656 48.9617C91.0661 48.9963 90.4131 49.3583 89.6523 49.545C87.7362 50.0153 89.3276 46.788 89.593 46.1145C89.7793 45.642 89.9714 45.1717 90.1967 44.7162C90.2982 44.5108 90.5009 43.9121 90.7536 43.8336C91.1197 43.7199 91.308 44.6093 91.5398 44.8216ZM75.0765 38.0362C74.772 38.6196 74.7225 39.427 74.5781 40.064C74.1368 42.012 73.8787 43.9959 73.6758 45.9813C74.685 45.5803 75.7503 45.5525 76.8159 45.4544C77.5879 45.3832 78.2969 45.3017 79.0691 45.3348C79.2007 45.3404 79.5792 45.4073 79.6877 45.2952C79.8333 45.1447 79.6569 44.7248 79.6139 44.5665C79.3799 43.7067 79.277 42.8182 79.011 41.9637C78.7398 41.0922 78.4102 40.222 78.0594 39.3795C77.8029 38.7633 77.4506 38.1623 76.8289 37.8601C76.2847 37.5957 75.4144 37.3892 75.0765 38.0362ZM70.9202 41.8275C71.336 42.4556 71.8627 43.0051 72.2689 43.6391C72.5568 44.0888 72.894 44.9205 72.2023 45.2064C71.9596 45.3067 71.673 45.2633 71.4186 45.2678C71.0252 45.2746 70.6356 45.3085 70.2415 45.2991C69.8688 45.2902 69.4997 45.2449 69.1279 45.2254C68.8936 45.2132 68.5993 45.2313 68.3929 45.0965C67.8396 44.7349 68.2397 43.9965 68.4179 43.5241C68.6071 43.0222 68.8626 42.5476 69.1091 42.072C69.2801 41.7422 69.5356 41.0701 69.9244 40.9356C70.3848 40.7764 70.7284 41.5378 70.9202 41.8275ZM91.0832 34.7107C91.9971 35.7754 92.7906 36.9369 93.5378 38.1231C93.9025 38.702 94.2566 39.2876 94.6101 39.8734C94.8414 40.2567 95.0152 40.747 95.2969 41.0942C95.9398 41.886 96.1186 40.1583 96.2133 39.7827C96.5629 38.3978 96.9957 37.0242 97.3807 35.648L96.9861 35.648C95.4131 35.6471 93.905 35.6238 92.3735 35.1594C91.9399 35.028 91.5446 34.7428 91.0832 34.7107ZM87.7607 34.9791C88.2583 35.3473 91.4434 37.5092 90.1036 38.3434C89.8264 38.5161 89.3733 38.4378 89.06 38.4625C88.6585 38.4943 88.2507 38.5332 87.854 38.6045C87.3406 38.6968 86.8417 38.8579 86.3258 38.9394C85.9156 39.0043 85.3721 39.0801 85.0057 38.8242C84.4012 38.4019 84.7681 37.5727 84.9676 37.036C85.2514 36.2733 85.5201 35.2523 86.2239 34.798C86.3877 34.6923 86.5883 34.3149 86.7645 34.2803C87.0405 34.2261 87.5589 34.8298 87.7607 34.9791ZM105.333 17.0462C105.093 17.2303 105.082 17.6127 105.02 17.8826C104.81 18.7903 104.518 19.674 104.344 20.5915C104.175 21.4863 104.122 22.3673 104.205 23.2741C104.261 23.879 104.267 24.6232 104.634 25.1383C105.073 25.7546 105.943 25.723 106.6 25.9055C107.233 26.0812 107.86 26.6251 107.17 27.1906C106.925 27.3914 106.603 27.4241 106.36 27.6176C106.061 27.8565 105.889 28.2845 105.762 28.6345C105.658 28.9226 105.661 28.9776 105.973 29.0794C106.116 29.1259 106.26 29.1554 106.411 29.1429C106.753 29.1144 107.058 28.8881 107.344 28.7181C108.074 28.2844 108.918 27.7054 109.79 27.64C110.069 27.6191 110.385 27.7334 110.656 27.6427C110.909 27.558 110.831 27.5063 110.875 27.2709C111.049 26.3382 111.119 25.4227 111.594 24.5789C111.828 24.1625 112.448 23.3108 112.863 23.959C113.036 24.2298 113.099 24.362 113.484 24.2789C113.796 24.2114 114.14 23.9634 114.078 23.6013C114.02 23.2596 113.571 23.027 113.3 22.8772C112.938 22.6779 112.684 22.7009 112.29 22.6537C111.207 22.524 111.966 20.9369 112.122 20.3413C112.22 19.9671 112.335 19.4833 112.077 19.1453C111.685 18.6313 110.831 18.8003 110.293 18.8732C109.549 18.9741 108.736 19.0278 108.04 18.6894C107.303 18.3314 106.989 17.524 106.298 17.1315C106.043 16.9864 105.595 16.8449 105.333 17.0462ZM108.567 23.6028C109.079 23.5959 108.83 24.3274 108.69 24.5734C108.394 25.0921 107.762 25.2927 107.206 25.1014C106.767 24.9501 106.292 24.2816 106.98 24.1708C107.31 24.1177 107.637 24.1393 107.949 23.982C108.127 23.8924 108.358 23.6056 108.567 23.6028ZM107.282 19.713C107.6 19.9066 107.058 21.1425 106.966 21.3926C106.817 21.8009 106.685 22.0644 107.063 22.3791C107.327 22.5979 107.846 22.7868 107.598 23.2229C107.369 23.6264 106.581 23.4572 106.261 23.2598C105.795 22.9727 105.932 22.4228 106.035 21.9715C106.102 21.6758 106.716 19.3685 107.282 19.713ZM57.1885 11.5979C58.1696 12.0178 59.1728 12.3971 60.2108 12.6502C61.118 12.8713 62.01 13.1098 62.945 13.0579C63.81 13.0099 63.9131 13.8613 63.4191 14.451C63.1507 14.7714 62.8392 14.7633 62.448 14.7757C61.9901 14.7903 61.5742 14.9176 61.1326 15.0315C60.46 15.2051 59.779 15.3525 59.1273 15.5976C58.7909 15.724 58.459 15.8727 58.159 16.0726C57.9704 16.1983 57.5496 16.4248 57.7722 16.6004C58.094 16.8542 59.049 16.5065 59.4319 16.4836C60.3235 16.4304 61.2133 16.3497 62.0998 16.2379C62.534 16.183 63.0002 16.1288 63.4114 15.9708C63.6805 15.8674 63.9784 15.6108 64.283 15.676C64.9258 15.8135 64.6073 16.779 64.3155 17.0931C63.8821 17.5596 63.2242 17.7656 62.6644 18.0306C62.2731 18.2159 61.8843 18.4122 61.5043 18.6196C61.3249 18.7175 60.4884 19.0845 60.5149 19.3631C60.5427 19.656 61.2029 19.5083 61.3662 19.4817C62.456 19.3041 63.4394 18.8819 64.4463 18.4498C64.887 18.2606 65.334 18.0791 65.7655 17.8694C66.0669 17.7229 66.3632 17.4995 66.6962 17.433C67.4813 17.2759 67.4469 18.1545 67.7561 18.6291C68.6748 20.0398 70.4501 20.6416 71.8313 21.4568C72.3538 21.7651 72.8522 22.1202 73.3317 22.4917C73.6742 22.7569 73.8111 23.1219 74.1935 22.7722C74.5122 22.4806 74.6659 22.053 74.8702 21.6821C75.1081 21.2504 75.4257 20.8693 75.6695 20.4411C76.0297 19.8085 76.1376 19.2051 75.3465 18.9723C74.516 18.7279 73.8588 18.3636 73.1529 17.8436C71.4206 16.5676 69.9832 14.9382 68.256 13.6525C66.6558 12.4612 64.9589 11.3433 62.9528 11.0235C61.0515 10.7202 58.9654 10.7948 57.1885 11.5979ZM109.087 20.7608C109.046 21.112 108.96 21.8612 108.473 21.8892C107.881 21.9232 108.279 20.1229 108.614 19.9202C109.15 19.5958 109.121 20.4631 109.087 20.7608ZM103.583 20.6174C102.845 20.6786 102.634 21.4889 103.372 21.7758L103.583 20.6174ZM106.321 19.9062C106.226 20.274 106.26 20.8641 105.965 21.1463C105.55 21.5441 105.369 20.9604 105.372 20.6276C105.375 20.2984 105.538 19.4749 105.978 19.4315C106.353 19.3945 106.041 19.8309 106.321 19.9062ZM114.288 11.7244C114.019 12.2872 114.309 12.8426 114.47 13.3957C114.139 13.5027 113.692 13.4218 113.49 13.7727C113.363 13.9939 113.385 14.3269 113.423 14.5664C113.454 14.7629 113.615 15.0275 113.481 15.2098C113.306 15.4485 112.871 15.3381 112.678 15.6036C112.384 16.0074 112.549 16.9297 112.961 17.2337C113.54 17.6606 113.195 16.6128 113.159 16.422C113.071 15.944 113.565 16.009 113.902 15.8159C114.083 15.7124 114.116 15.6924 114.157 15.4713C114.196 15.2676 114.175 15.106 114.127 14.8866C113.963 14.1418 114.25 14.2635 114.84 14.0994C115.35 13.9577 115.309 13.5499 115.18 13.1213C115.078 12.7853 114.775 12.2341 115.103 11.9476C115.233 11.8339 115.431 11.9058 115.459 11.6685C115.478 11.5084 115.263 11.2458 115.151 11.1537C114.762 10.8361 114.446 11.3953 114.288 11.7244Z" fill="#010101"/>
</svg>
