<svg width="189" height="82" viewBox="0 0 189 82" fill="none" xmlns="http://www.w3.org/2000/svg">
<g clip-path="url(#clip0_354_3176)">
<path fill-rule="evenodd" clip-rule="evenodd" d="M0.691596 33.4367C0.145015 22.1708 13.0652 0.535263 21.5385 18.6749C24.1829 25.1568 24.6813 33.0372 29.7618 38.1704C31.7637 40.0801 34.4627 38.9755 35.4583 35.6805C38.9796 25.6413 39.2064 13.9575 46.1603 5.49456C50.5869 0.383393 58.152 1.94942 60.3498 8.42708C63.3841 16.1976 64.4305 25.1776 68.6886 32.2758C71.4078 27.7666 71.8727 21.8416 73.7821 16.8381C75.8108 6.51477 88.0639 -8.81701 96.0893 6.42201C99.6852 14.4293 100.487 23.8861 104.558 31.5914C108.768 25.6044 113.942 2.6307 120.779 1.75518C129.539 -0.292937 131.187 9.70098 133.165 16.022C134.334 18.0759 137.005 32.177 138.919 30.9255C144.232 20.7237 154.24 -9.14945 168.386 7.48186C172.257 14.0994 173.999 22.2009 176.929 29.3793C183.802 27.7008 184.345 18.858 186.054 13.0582C186.226 12.2732 185.637 10.1132 187.878 11.0683C188.133 11.1772 188.434 11.6294 188.41 11.8931C187.573 19.1077 186.599 30.6641 178.536 32.9933C176 32.7496 173.077 31.6198 172.187 28.7065C169.309 21.086 169.685 11.063 163.032 5.57912C155.599 4.03222 151.036 14.0188 148.383 19.7588C145.27 25.1194 143.7 39.5105 135.218 32.4544C127.469 25.9093 131.917 13.474 125.94 5.54563C119.291 -1.82617 115.269 19.7105 112.581 23.6796C111.201 27.0108 109.915 30.3973 108.292 33.6057C107.089 35.9851 101.846 35.674 100.435 32.867C96.0588 24.2925 95.359 14.2607 92.1416 5.31689C89.9625 -0.276366 86.4267 1.49979 83.2471 4.8266C76.242 12.1924 76.9291 23.0586 72.9824 31.9378C71.085 35.5416 64.8001 35.3631 63.7182 30.9706C61.0803 25.7332 58.5889 -3.06505 49.227 6.00637C39.2873 13.3842 43.7225 47.5833 27.6238 39.6781C20.822 35.0228 21.7518 24.3675 18.5037 17.3582C11.4054 3.00005 0.423115 27.2083 2.5956 34.9541C2.63745 36.6467 4.16515 38.1975 3.65468 39.9347C3.24411 39.7975 2.54683 39.7552 2.46752 39.5087C1.74746 37.2704 1.13524 34.9964 0.691596 33.4367Z" fill="#952F1F"/>
</g>
<g clip-path="url(#clip1_354_3176)">
<path fill-rule="evenodd" clip-rule="evenodd" d="M0.691596 74.4367C0.145015 63.1708 13.0652 41.5353 21.5385 59.6749C24.1829 66.1568 24.6813 74.0372 29.7618 79.1704C31.7637 81.0801 34.4627 79.9755 35.4583 76.6805C38.9796 66.6413 39.2064 54.9575 46.1603 46.4946C50.5869 41.3834 58.152 42.9494 60.3498 49.4271C63.3841 57.1976 64.4305 66.1776 68.6886 73.2758C71.4078 68.7666 71.8727 62.8416 73.7821 57.8381C75.8108 47.5148 88.0639 32.183 96.0893 47.422C99.6852 55.4293 100.487 64.8861 104.558 72.5914C108.768 66.6044 113.942 43.6307 120.779 42.7552C129.539 40.7071 131.187 50.701 133.165 57.022C134.334 59.0759 137.005 73.177 138.919 71.9255C144.232 61.7237 154.24 31.8506 168.386 48.4819C172.257 55.0994 173.999 63.2009 176.929 70.3793C183.802 68.7008 184.345 59.858 186.054 54.0582C186.226 53.2732 185.637 51.1132 187.878 52.0683C188.133 52.1772 188.434 52.6294 188.41 52.8931C187.573 60.1077 186.599 71.6641 178.536 73.9933C176 73.7496 173.077 72.6198 172.187 69.7065C169.309 62.086 169.685 52.063 163.032 46.5791C155.599 45.0322 151.036 55.0188 148.383 60.7588C145.27 66.1194 143.7 80.5105 135.218 73.4544C127.469 66.9093 131.917 54.474 125.94 46.5456C119.291 39.1738 115.269 60.7105 112.581 64.6796C111.201 68.0108 109.915 71.3973 108.292 74.6057C107.089 76.9851 101.846 76.674 100.435 73.867C96.0588 65.2925 95.359 55.2607 92.1416 46.3169C89.9625 40.7236 86.4267 42.4998 83.2471 45.8266C76.242 53.1924 76.9291 64.0586 72.9824 72.9378C71.085 76.5416 64.8001 76.3631 63.7182 71.9706C61.0803 66.7332 58.5889 37.935 49.227 47.0064C39.2873 54.3842 43.7225 88.5833 27.6238 80.6781C20.822 76.0228 21.7518 65.3675 18.5037 58.3582C11.4054 44 0.423115 68.2083 2.5956 75.9541C2.63745 77.6467 4.16515 79.1975 3.65468 80.9347C3.24411 80.7975 2.54683 80.7552 2.46752 80.5087C1.74746 78.2704 1.13524 75.9964 0.691596 74.4367Z" fill="#952F1F"/>
</g>
<defs>
<clipPath id="clip0_354_3176">
<rect width="189" height="41" fill="white"/>
</clipPath>
<clipPath id="clip1_354_3176">
<rect width="189" height="41" fill="white" transform="translate(0 41)"/>
</clipPath>
</defs>
</svg>
