<svg width="106" height="102" viewBox="0 0 106 102" fill="none" xmlns="http://www.w3.org/2000/svg">
<g clip-path="url(#clip0_354_3189)">
<path fill-rule="evenodd" clip-rule="evenodd" d="M105.482 53.2604C103.821 102.631 11.2128 123.524 0.875759 69.2434C-5.93649 37.2439 28.1343 -16.6296 63.4648 4.97041C45.5063 -4.00834 32.9588 5.24691 20.2108 18.0479C-8.99274 49.0737 0.165257 107.863 52.3683 96.6689C78.6465 94.3082 110.334 66.4944 96.3538 38.6044C85.516 15.5032 55.2385 29.0289 40.1188 40.3939C27.7045 48.8432 24.2628 78.0662 45.3045 74.9619C50.835 73.8989 56.378 71.7844 61.3153 69.0534C66.6613 66.0964 67.87 58.3817 64.7678 53.2807C62.9373 50.2709 56.9128 51.0444 53.2455 54.5747C52.6805 55.1187 51.357 54.8747 50.3843 54.9952C56.5783 40.3204 77.7785 53.2632 68.4923 66.6519C60.0805 83.9224 22.9868 81.3869 25.9893 58.8209C26.973 37.2459 48.78 28.9394 66.419 23.9167C84.1643 18.3064 106.658 32.9344 105.482 53.2604Z" fill="#EC9B3D"/>
</g>
<defs>
<clipPath id="clip0_354_3189">
<rect width="105.526" height="101.32" fill="white"/>
</clipPath>
</defs>
</svg>
