<svg width="118" height="99" viewBox="0 0 118 99" fill="none" xmlns="http://www.w3.org/2000/svg">
<path fill-rule="evenodd" clip-rule="evenodd" d="M15.1221 38.2196C15.8966 35.2081 16.6266 32.1309 17.7758 29.2368C18.4951 27.4256 19.2572 25.6309 20.0206 23.8381C20.1265 23.5892 20.1712 23.3493 20.3772 23.2254C20.6523 23.0599 21.2215 23.0634 21.5319 23.0066C25.9413 22.1978 30.3967 21.5805 34.8666 21.2333C39.9677 20.8371 44.9407 21.0183 49.9881 21.8495C54.3047 22.5604 58.5787 23.5402 62.806 24.6621C63.4275 24.8269 64.0481 24.9954 64.6673 25.1685C64.9558 25.2492 65.4349 25.2903 65.6864 25.4587C66.2241 25.8185 66.4064 27.2931 66.6079 27.9178C66.8779 28.7551 67.0352 29.9055 67.5557 30.6178C68.3306 31.6781 69.5102 32.5979 70.4708 33.4794C73.8232 36.5558 77.4983 39.3621 81.8279 40.8831C88.5261 43.236 95.5894 44.7108 102.528 46.1688C102.69 46.2027 102.851 46.2364 103.013 46.2699C101.216 48.259 99.4201 50.2482 97.6239 52.2373C96.6111 53.3586 95.5986 54.48 94.586 55.6013C94.0653 56.1779 94.1223 56.2808 93.386 56.1201C89.6963 55.3151 86.0132 54.4375 82.3904 53.3677C80.6144 52.8434 78.8079 52.2989 77.1555 51.4496C74.8813 50.2806 72.7466 48.8356 70.6689 47.3514C68.8116 46.0246 66.998 44.6366 65.2171 43.2092C64.866 42.9279 63.5991 41.5714 63.1883 41.6598C62.8339 41.7361 62.2204 42.5424 61.9609 42.7773C61.2746 43.3986 60.5855 44.0169 59.8921 44.6302C58.7886 45.606 57.6616 46.8012 56.3727 47.5356C55.0144 48.3097 53.4577 48.837 52.0241 49.4534C51.2244 49.797 50.424 50.1395 49.6234 50.4811C49.4142 50.5702 49.1224 50.7642 48.897 50.7691C48.2296 50.7832 47.2606 50.2408 46.6416 50.0295C45.0516 49.4867 43.4732 48.9095 41.9111 48.2906C38.5758 46.9691 34.9103 45.5333 32.1652 43.1552C31.6863 42.7404 31.2184 42.2761 30.9015 41.7219C30.7916 41.5297 30.6282 41.2621 30.6169 41.0353C30.599 40.6735 30.8024 40.6025 31.1049 40.3764C32.6662 39.2094 34.3497 38.1924 36.0053 37.1669C36.3944 36.9259 36.7841 36.6861 37.1753 36.4486L17.8298 38.0021C16.9272 38.0747 16.0247 38.1471 15.1221 38.2196Z" fill="#EC9B3D"/>
<path fill-rule="evenodd" clip-rule="evenodd" d="M43.9288 1.38519C45.9727 1.47841 48.068 1.57341 50.0941 1.86108C52.1137 2.1477 53.9984 2.88087 55.8237 3.76862C59.1149 5.36922 62.4788 7.31485 64.5956 10.3937C65.5854 11.8332 66.3927 13.3404 67.7588 14.4736C68.0784 14.7386 68.4268 15.0571 68.8509 15.1381C69.1881 15.2026 69.4856 15.0661 69.8159 15.0498C70.4462 15.0185 70.685 15.3508 70.685 15.977C71.1582 15.7882 71.6733 15.6173 72.1893 15.6866C72.6207 15.7447 72.9637 16.0048 73.3779 16.1142C74.1253 16.3116 74.8568 16.0164 75.5676 15.7965C77.3629 15.241 79.3349 14.8204 81.2212 15.0185C82.4636 15.1491 83.969 15.6878 83.3257 17.2881C82.7922 18.6156 80.7971 19.2876 79.5369 19.6178C78.465 19.8988 77.0239 19.648 77.1145 21.1269C77.1776 22.1592 77.3338 23.2666 78.4311 23.6015C79.0326 23.7851 81.1641 24.0587 79.9194 24.9902C79.0003 25.678 78.6794 26.8887 77.9803 27.7979C77.0892 28.9569 75.8813 29.8938 74.4692 30.3168C72.8891 30.7902 71.2172 30.6993 69.5941 30.8829C70.7373 32.4604 72.3878 33.5454 73.8902 34.745C75.4698 36.0064 76.9938 37.3848 78.822 38.284C80.4606 39.0899 82.231 39.6495 83.9234 40.3329C85.7009 41.0507 87.491 41.7601 89.3257 42.3193C93.0267 43.4471 96.9197 44.235 100.725 44.9268C102.602 45.2683 104.443 45.2182 106.34 45.2485C108.286 45.2798 110.23 45.621 112.14 45.9713C113.066 46.1413 114.001 46.2485 114.926 46.4177C115.371 46.4989 117.129 46.678 117.192 47.3286C117.295 48.3883 116.149 48.9823 115.309 49.2778C114.951 49.404 114.374 49.3857 114.063 49.5592C113.728 49.747 113.859 50.0234 113.82 50.3869C113.764 50.9153 113.482 51.2954 113.048 51.5886C112.692 51.8297 112.262 51.8202 112.508 52.2768C112.621 52.4874 112.904 52.6201 113.035 52.8422C113.185 53.0955 113.253 53.3734 113.223 53.6649C113.17 54.1754 112.833 54.5648 112.362 54.7453C111.61 55.0339 110.728 54.8297 109.958 54.736C108.669 54.5794 107.362 54.5636 106.091 54.2818C104.765 53.9879 103.475 53.535 102.148 53.234C101.468 53.0797 100.786 52.9503 100.121 52.7363C99.688 52.5971 99.0626 52.2356 98.6017 52.3489C98.1701 52.4548 97.8327 52.9761 97.5504 53.2786C97.1609 53.6959 96.7838 54.1247 96.388 54.5361C96.1257 54.8086 95.8567 55.0755 95.5703 55.3229C95.4772 55.4032 94.9022 55.7548 94.8942 55.8492C94.8718 56.1158 95.4994 56.1112 95.6339 56.2172C96.4151 56.8346 95.2412 57.2252 94.7347 57.1943C93.5672 57.1231 92.3937 56.9798 91.2374 56.8083C88.484 56.3999 85.7385 55.959 83.106 55.0369C80.5021 54.1247 77.9612 53.1544 75.5528 51.7947C73.241 50.4898 71.0051 49.0144 68.8214 47.5064C67.7618 46.7746 66.6949 46.0164 65.8002 45.0842C64.9253 44.1724 64.212 43.1257 63.4864 42.0955C61.7487 43.7736 60.0765 45.5383 58.2099 47.0766C56.4343 48.54 54.2997 49.3218 52.2345 50.2722C52.3014 50.7041 54.32 50.9627 54.6887 51.0749C56.3725 51.5872 57.9883 52.4093 59.626 53.054C62.3504 54.1266 64.9355 55.5224 65.8429 58.5011C66.735 61.4298 65.7003 64.3779 64.4383 67.0236C62.9489 70.1469 61.1798 73.0397 59.0411 75.7625C58.1313 76.9209 57.1514 77.9872 56.153 79.0658C55.3012 79.9862 54.571 81.0764 54.928 82.3845C55.6134 82.1703 55.7391 82.705 55.2908 83.1578C54.8925 83.5602 54.204 83.6383 53.6721 83.705C52.0596 83.9071 50.394 83.8357 48.7797 83.6854C45.8405 83.4117 42.8947 82.6699 40.2337 81.3936C38.9099 80.7585 38.4308 81.7824 37.5203 82.5755C36.8039 83.1993 35.8175 83.6037 35.273 84.411C34.8252 85.0751 35.1175 86.1244 36.0479 85.8756C36.7717 85.6819 37.3532 84.8744 38.1199 84.8433C39.4807 84.7882 36.9133 86.7294 36.5848 86.9663C37.2351 87.5479 37.9724 86.7504 38.6282 86.6173C39.2572 86.4896 39.4328 86.8152 39.0977 87.3394C38.8363 87.7481 38.0154 88.0376 38.5614 88.5348C39.0138 88.9466 40.0167 89.1635 40.5722 89.344C42.3049 89.9073 44.0287 90.3081 45.8326 90.5653C46.4152 90.6483 47.3491 90.5953 47.8214 91.0082C48.4443 91.5528 48.1439 92.4554 47.8286 93.0793C46.6343 95.4428 44.151 96.6045 41.6006 96.7747C40.0301 96.8793 38.4447 96.7779 36.8689 96.8627C35.1423 96.9556 33.4118 97.0936 31.6813 97.0365C28.899 96.945 27.1291 94.9343 25.742 92.7232C24.8609 91.3184 24.0487 89.8728 23.2859 88.4008C22.988 87.8258 22.3639 87.23 22.2578 86.5838C22.162 86.0021 22.5332 85.5356 22.8938 85.124C23.8428 84.0409 24.9847 83.2143 26.1003 82.3192C26.7373 81.8084 26.9822 81.3853 27.2658 80.6416C27.5046 80.0155 27.9637 79.7479 28.3679 79.2484C28.8125 78.6989 28.6728 78.6017 28.3261 78.1526C27.9632 77.6824 28.1058 76.9895 28.2582 76.4575C28.4767 75.6941 28.9456 75.526 29.6457 75.28C30.2841 75.0559 30.8254 74.6624 31.3915 74.2974C34.1876 72.4945 36.8222 70.4544 39.653 68.7018C42.4457 66.9727 45.3645 65.4453 48.0299 63.5158C45.8655 63.2249 43.9573 62.0563 41.9155 61.3643C40.8678 61.0092 39.83 60.63 38.8162 60.1855C38.429 60.0158 37.9779 59.8649 37.6325 59.6153C37.2855 59.3646 37.0188 59.0347 36.655 58.7974C35.7919 58.2342 34.7656 57.9137 33.8374 57.4747C32.8348 57.0006 31.8454 56.4824 30.9139 55.8791C30.0442 55.3158 29.2091 54.672 28.486 53.928C27.91 53.3353 27.3498 52.5629 26.5342 52.2906C26.6197 53.4263 28.0268 54.3667 28.7979 55.0502C30.0492 56.1592 31.35 57.1016 32.7487 58.0176C31.1799 59.3615 29.2677 60.2366 27.4306 61.1444C25.3649 62.1649 23.3571 63.2963 21.2997 64.3327C19.5569 65.2107 17.7234 65.8872 15.9519 66.7029C14.0407 67.5831 12.0736 68.3212 10.0796 68.9908C8.27494 69.5968 6.576 70.2429 4.87321 71.0935C3.21786 71.9205 1.44673 72.5529 -0.324095 73.0836C-2.31372 73.6798 -4.21188 74.247 -6.12546 75.0645C-7.85093 75.8015 -9.58352 76.2726 -11.4096 76.6734C-12.0128 76.8057 -12.7873 77.0486 -13.2098 76.4647C-13.53 76.0222 -13.5782 75.3398 -13.6701 74.8194C-14.0221 72.8278 -14.05 70.8043 -14.3667 68.8097C-15.5687 69.1723 -16.7072 69.6186 -17.9753 69.6761C-18.7725 69.7122 -19.257 69.7945 -19.4556 70.6647C-18.9944 70.7168 -17.3466 70.7396 -17.3022 71.3927C-17.2619 71.9818 -18.2589 71.9879 -18.6124 72.0041C-19.2451 72.0328 -19.8185 71.9291 -20.1562 72.5483C-19.6587 72.732 -18.5557 72.3971 -18.3354 73.0661C-18.0515 73.9291 -19.3406 73.927 -19.8044 73.9965C-20.6136 74.1177 -20.5305 74.7531 -20.475 75.4323C-20.4021 76.326 -20.3468 77.2209 -20.2261 78.1099C-19.9682 80.0098 -19.5265 81.8809 -19.3173 83.7877C-19.1364 85.4364 -19.0351 87.02 -20.2137 88.3338C-20.6876 88.8622 -21.3463 89.4703 -22.0911 89.5331C-22.8469 89.5968 -22.8332 89.0676 -23.3037 88.678C-23.592 88.4393 -23.9738 88.3906 -24.3134 88.2618C-24.7266 88.1053 -25.1274 87.876 -25.4986 87.6385C-26.1827 87.2007 -26.7807 86.6572 -27.2644 86.0041C-29.156 83.4484 -29.8323 79.6304 -30.0196 76.5317C-30.1388 74.5613 -30.0199 72.5883 -29.8391 70.6256C-29.7417 69.5685 -29.6437 68.5109 -29.5158 67.457C-29.4762 67.1305 -29.4099 66.8034 -29.3853 66.4759C-29.3713 66.2884 -29.4617 65.9094 -29.3659 65.7297C-29.4882 65.9589 -29.7048 65.7894 -29.9199 65.6089C-30.3638 65.236 -30.2272 64.52 -29.9897 64.0299C-29.2742 62.5525 -27.1298 62.495 -25.7347 62.3801C-21.9848 62.0712 -18.4222 61.066 -14.8323 59.9921C-15.3389 59.2336 -14.542 58.7328 -13.9243 58.4721C-12.9717 58.0702 -11.9881 57.7167 -11.0266 57.3328C-8.85538 56.4658 -6.72938 55.6575 -4.45573 55.1043C-2.39629 54.6034 -0.403547 53.7716 1.62832 53.1619C3.72765 52.5319 5.78902 51.8119 7.85394 51.0782C11.9436 49.6249 16.037 48.14 20.0059 46.3771C21.0092 45.9315 21.9675 45.4148 22.9356 44.8994C23.7222 44.4807 24.6452 44.1736 25.312 43.5688C25.9487 42.9912 26.3299 42.1881 27.0221 41.6636C27.6452 41.1913 28.4979 41.1848 29.0142 40.598C29.7124 39.8048 30.5461 39.4563 31.4939 38.9911C31.7984 38.8417 33.803 38.0867 33.7622 37.6582C32.3297 37.6582 30.8591 38.0843 29.4425 38.2828C27.9441 38.4926 26.4469 38.7261 24.9376 38.8421C22.4918 39.03 20.0473 38.9792 17.6119 38.7142C17.248 38.6746 15.788 38.375 15.5363 38.7652C15.3445 39.0626 15.8213 39.4167 15.8261 39.7362C15.8332 40.2051 15.4552 40.4566 15.0271 40.2938C14.1937 39.9769 14.3158 38.6342 14.3937 37.9527C14.5427 36.6493 14.8741 35.3578 15.1638 34.0807C13.4444 34.9557 11.8117 36.0791 10.3311 37.3138C9.18421 38.27 8.14864 39.5667 6.8028 40.2484C5.51063 40.9032 4.74232 40.3446 4.79524 38.9032C4.81955 38.2428 4.95341 37.616 5.18213 37.001C5.2902 36.7103 5.73417 35.8878 5.52619 35.5782C4.3452 36.5197 3.17205 37.4638 1.93235 38.3281C1.05598 38.9392 -0.214548 39.8921 -1.35878 39.6497C-2.36931 39.4355 -2.27044 38.3237 -1.9501 37.5747C-1.6723 36.9249 -1.17304 36.3477 -0.678232 35.8515C-0.2691 35.4414 0.312578 35.0739 0.517441 34.5053C-0.839809 35.1152 -2.23723 35.5767 -3.65911 36.0053C-4.67023 36.31 -5.37702 37.5757 -6.55283 37.3887C-7.72982 37.2015 -7.2611 35.7472 -6.79134 35.1148C-6.46255 34.6724 -6.00776 34.2827 -5.56661 33.9558C-5.13643 33.6369 -4.48197 33.359 -4.27029 32.8283C-5.64533 33.0863 -7.02778 33.5349 -8.44269 33.4522C-9.28289 33.403 -10.6855 33.0362 -10.5196 31.9069C-10.3517 30.7633 -8.8287 30.6757 -7.97234 30.4625C-6.80468 30.1715 -5.68728 29.6254 -4.56053 29.209C-2.28763 28.3686 0.0295658 27.6946 2.35515 27.0248L3.08978 26.8132C5.71474 26.0568 8.35454 25.4126 11.0121 24.7842C12.3256 24.4735 13.6346 24.1347 14.9585 23.8697C16.2392 23.6134 17.5406 23.4648 18.8116 23.1584C17.7404 21.5417 19.0375 20.2132 20.4381 19.4439C19.5498 19.2643 18.6464 19.1562 17.7658 18.9385C17.0136 18.7527 16.2887 18.4671 15.5311 18.3026C14.229 18.02 12.9285 17.8713 11.817 17.0651C9.71638 15.5415 9.53776 13.1171 11.3077 11.2824C13.0939 9.43077 15.7156 8.56377 18.2388 8.47767C21.0628 8.38133 24.276 8.92865 26.9186 9.92844C28.2167 10.4196 29.5683 11.044 30.6811 11.8804C31.438 12.4494 32.635 13.5396 33.651 13.5396C32.4342 12.0682 30.9408 10.5466 30.7211 8.55384C30.513 6.6672 31.3689 4.66184 32.8052 3.44153C35.6749 1.00386 40.4106 1.22454 43.9288 1.38519ZM27.5681 82.2473C26.819 83.4121 25.7832 84.3578 24.8051 85.3245C24.4677 85.6579 23.7906 86.0821 23.758 86.6044C23.7316 87.0308 24.2548 87.5105 24.4833 87.8455C25.6915 89.6177 26.6865 91.575 28.1623 93.1489C29.8306 94.9277 31.7345 95.2734 34.0968 95.2785C36.7196 95.2843 39.3775 95.6123 41.9957 95.474C44.2137 95.3569 46.4 94.3694 47.5029 92.362C46.7844 91.9918 45.762 92.1683 44.9832 92.1766C43.9214 92.1878 42.8849 92.1686 41.836 91.984C40.8852 91.8167 39.9456 91.5656 39.0514 91.1991C38.5887 91.0093 38.131 90.7924 37.7049 90.5288C37.3929 90.3359 37.1584 90.0406 36.8519 89.8513C35.7215 89.1534 34.4162 91.3723 33.208 91.3297C32.468 91.3037 32.7358 90.5759 33.0438 90.1688C33.5997 89.4336 34.5693 88.9798 35.3014 88.4439C34.6198 87.8166 33.8497 88.4745 33.2007 88.8023C32.3894 89.2121 31.5464 89.7152 30.6399 89.8691C30.7078 88.7009 32.297 88.0748 33.1737 87.5996C33.5639 87.3882 34.0529 87.192 34.149 86.727C34.2212 86.3772 34.0975 85.8799 34.0609 85.5267C34.0145 85.0777 33.98 84.9343 33.5019 84.8077C32.9221 84.6541 32.3381 84.6985 31.7572 84.5068C30.1674 83.9819 28.9307 83.2027 27.5681 82.2473ZM-24.0995 63.8387C-24.4877 63.9463 -24.88 64.0394 -25.2743 64.1226C-26.0547 64.2873 -26.8362 64.4583 -27.6194 64.6076C-28.0122 64.6826 -28.4484 64.635 -28.5641 65.0099C-28.6236 65.2021 -28.4739 65.5475 -28.4482 65.747C-28.4021 66.107 -28.3991 66.4719 -28.3948 66.8345C-28.3538 70.1745 -29.0522 73.4953 -28.7447 76.835C-28.485 79.6576 -27.8772 83.2268 -25.8035 85.329C-24.9085 86.2362 -23.8073 87.2217 -22.6803 87.8417C-21.7968 88.3276 -20.5627 87.108 -20.3822 86.2636C-20.253 85.6585 -20.4686 85.02 -20.609 84.4367C-20.789 83.6893 -20.9714 82.9423 -21.1496 82.1945C-21.5303 80.5983 -21.8764 78.9872 -21.9858 77.3464C-22.0217 76.8073 -22.014 76.288 -21.9835 75.7513C-21.9671 75.4598 -21.8298 74.7574 -22.0337 74.5078C-22.2974 74.1849 -22.8999 74.3959 -23.2567 74.4234C-23.6479 74.4538 -24.0297 74.4304 -24.4119 74.3306C-25.3216 74.0928 -25.481 73.3699 -24.4877 73.035C-23.7942 72.8012 -22.5265 73.14 -21.9439 72.69C-21.2593 72.1613 -22.6429 72.0888 -22.966 72.075C-23.3962 72.0568 -24.8231 72.1693 -24.7503 71.3675C-24.6964 70.7732 -23.468 70.7337 -23.0382 70.7084C-22.1201 70.6545 -20.9583 70.9983 -20.5615 69.8914C-20.4024 69.448 -21.3601 69.2228 -21.6003 69.003C-22.1843 68.4685 -22.3758 67.5522 -22.4259 66.8015C-22.4753 66.0633 -21.7486 63.5042 -22.8559 63.4366C-23.1959 63.4158 -23.761 63.7448 -24.0995 63.8387ZM30.3589 78.6073C29.7072 79.3831 29.1439 80.2329 28.537 81.0438C29.9605 81.8292 31.4165 82.4608 32.8885 83.1361C33.5579 83.4433 34.0271 83.6868 34.6749 83.2211C35.1397 82.8871 35.4881 82.4123 35.9416 82.0649C36.5934 81.566 37.2746 81.1085 37.9428 80.6328C35.9712 79.9135 33.9693 79.2823 31.9982 78.5615C31.2611 78.2919 30.8911 77.9734 30.3589 78.6073ZM14.1239 76.143C14.5455 76.5704 13.7337 77.7548 13.5739 78.1601C14.8813 78.0564 16.1777 77.8504 17.4615 77.585C17.8987 77.4948 17.7376 78.027 17.574 78.2024C17.3717 78.4197 16.9671 78.4855 16.6966 78.5629C15.7015 78.848 14.6808 78.9853 13.6597 79.1375C14.127 79.7124 15.2515 80.6118 14.8894 81.4763C14.2363 80.9137 13.7667 80.1649 13.0444 79.6784C12.8357 79.9898 12.4027 81.088 11.9282 81.0207C11.1832 80.9151 11.9379 79.6317 12.0937 79.3227C11.592 79.3227 9.70697 79.7628 9.444 79.1455C9.17488 78.5138 10.994 78.5342 11.3302 78.3851L11.2676 78.3085L11.2046 78.2326C10.9531 77.9296 10.7117 77.6308 10.6776 77.2147C11.2401 77.4084 11.6157 78.2896 12.2339 78.3024C12.8201 78.3145 13.0817 77.4339 13.2906 77.0169C13.4093 76.7798 13.8126 75.8273 14.1239 76.143ZM77.555 67.8366C78.8154 68.8996 77.9592 71.0434 77.0054 72.0073C75.9369 73.087 73.5579 74.0788 72.2036 72.9782C71.4621 72.3758 71.7297 71.4567 71.9124 70.6554C72.1152 69.7649 72.2415 69.0143 72.9792 68.4032C74.1267 67.4525 76.2763 66.7584 77.555 67.8366ZM74.9965 68.4543C73.7668 68.7157 72.5207 69.9441 72.2285 71.2101C71.8451 72.8702 73.5689 72.9915 74.7044 72.742C76.1329 72.4282 77.6505 71.3809 77.7234 69.7382C77.7861 68.3204 75.9519 68.2512 74.9965 68.4543ZM-14.4831 61.2769C-16.3245 61.9621 -18.0554 62.8997 -19.9873 63.3063C-20.5769 63.4303 -20.8191 63.5661 -20.9648 64.1152C-21.1691 64.8838 -21.3626 65.6628 -21.2168 66.4658C-20.9141 68.1331 -18.5935 67.9288 -17.3048 67.8634C-16.6433 67.8298 -15.3708 67.9507 -14.7968 67.538C-14.3775 67.2366 -14.5535 66.6712 -14.6188 66.2313C-14.8632 64.5862 -14.5966 62.921 -14.4831 61.2769ZM85.912 45.3887C85.2341 45.5165 84.062 46.069 85.034 46.7616C85.6825 47.2235 86.6476 47.2796 87.4094 47.3937C88.8976 47.6166 90.4861 47.8091 91.7774 48.6485C94.1703 50.2037 93.8772 53.1384 93.1615 55.5403C93.6769 55.8438 95.1912 53.8592 95.4764 53.5365C96.6334 52.2272 97.7951 50.922 98.9615 49.6211C99.4609 49.0648 95.3682 47.143 95.0004 46.9699C93.0562 46.0555 91.2414 45.4533 89.0606 45.2963C88.0265 45.2219 86.9356 45.1959 85.912 45.3887ZM77.471 40.5208C77.2851 40.9891 77.6107 41.2014 77.9096 41.5249C79.5815 43.3331 80.7587 45.8925 81.6896 48.1373C82.1538 49.2567 82.4789 50.3854 82.7663 51.5582C83.0483 52.7089 83.9441 53.0165 85.0173 53.3431C87.4895 54.0955 90.092 54.3474 92.5729 55.0906C93.2376 55.2897 93.368 53.8286 93.4098 53.458C93.5285 52.4037 93.4181 51.3033 92.8641 50.374C91.8165 48.6172 89.7167 48.2438 87.8435 47.9445C86.7723 47.7734 85.361 47.5968 84.5132 46.8645C84.0878 46.497 84.0275 46.0754 84.3593 45.6188C84.9644 44.7859 86.0297 44.679 86.9816 44.611C87.4451 44.5779 90.3156 44.8681 90.4093 44.5285C88.9802 44.0628 87.5132 43.7557 86.1049 43.2232C85.0064 42.8077 83.8991 42.4154 82.7905 42.0265L81.6818 41.638C80.5544 41.2427 79.5223 40.7619 78.4405 40.2859C78.0342 40.1074 77.6615 40.041 77.471 40.5208ZM101.714 48.1397C101.356 48.6211 101.001 49.0251 100.733 49.5659C100.42 50.1967 99.9005 50.5991 99.4663 51.1407C101.721 51.5386 103.872 52.0439 106.045 52.7726C107.16 53.1469 108.313 53.3318 109.454 53.5998C110.411 53.8245 111.431 54.1732 112.422 53.967C111.293 52.4116 108.282 52.8417 107.49 50.958C106.951 49.6766 108.276 48.6545 109.36 48.432C111.253 48.0436 113.271 48.0137 115.194 47.8753C115.214 47.1397 108.234 46.7589 107.544 46.6993C106.319 46.5933 105.04 46.3636 103.817 46.3212C102.681 46.2817 102.31 47.3386 101.714 48.1397ZM75.0791 42.7599C74.4068 43.4097 73.7487 44.0737 73.0769 44.7243C72.6354 45.1521 72.0372 45.6077 71.6891 46.1174C71.2447 46.768 72.0231 47.0808 72.5418 47.3888C73.8511 48.1662 75.2042 48.8919 76.5364 49.6315C77.7333 50.2959 78.9781 51.1416 80.2993 51.5303C81.0058 51.7381 81.6693 52.0608 82.3507 52.3337C82.022 49.3835 80.3279 46.704 78.7656 44.2446C78.4068 43.6799 78.0363 43.1229 77.6776 42.5583C77.4968 42.2741 77.1615 41.6033 76.7825 41.5454C76.2225 41.4596 75.4187 42.4317 75.0791 42.7599ZM109.335 50.2684C110.154 50.7375 110.975 50.9759 111.898 50.6214C112.125 50.5288 112.351 50.4307 112.573 50.3275C111.957 49.4882 110.137 49.9997 109.335 50.2684ZM41.5056 40.0017C40.0538 40.6561 38.5011 41.308 37.2386 42.2953C36.7725 42.6598 35.731 43.4255 35.9748 44.1199C36.1833 44.7145 37.3362 45.2209 37.8835 45.4021C40.7633 46.3552 44.0409 45.6618 46.6926 47.4109C47.4102 47.8843 47.6441 48.503 48.1773 49.1254C48.6594 49.6883 49.2695 49.6184 49.9174 49.3849C50.7681 49.0781 51.552 48.6083 52.4062 48.3072C52.8429 48.1533 53.585 48.0512 53.6304 47.462C53.844 44.6844 53.2514 41.1458 50.8027 39.4464C48.0539 37.5387 44.2618 38.7594 41.5056 40.0017ZM39.9487 46.4743C39.8785 46.8264 42.6032 47.464 42.8991 47.5456C44.5443 47.9987 46.0814 49.076 47.7856 49.2498C48.082 48.589 45.7213 47.5369 45.348 47.4013C43.6443 46.7826 41.7379 46.6704 39.9487 46.4743ZM93.4527 45.2407C95.5184 46.0871 97.5205 47.1235 99.252 48.5645C99.8492 49.0615 101.3 46.7031 101.625 46.3415C98.8738 46.2271 96.1624 45.7023 93.4527 45.2407ZM54.8453 28.6505C52.9304 29.9154 51.2626 31.5693 49.1602 32.539C49.8181 32.6426 50.5363 32.2167 51.1645 32.0674C51.7764 31.922 52.3951 31.826 52.9907 31.6201C53.3566 31.4936 54.8675 30.677 55.1511 31.2305C55.5941 32.095 52.4737 32.6932 52.0301 32.8406C50.5317 33.3385 49.0433 33.86 47.5603 34.4018C46.1239 34.9266 44.6886 35.4913 43.2043 35.8682C41.6968 36.251 40.0984 36.3496 38.6491 36.9441C37.3675 37.4698 36.266 38.3398 35.0299 38.9537C33.7901 39.5695 32.3811 39.9503 31.3125 40.8666C32.4745 42.1066 33.8487 43.1449 35.352 43.9353C35.5929 42.0444 37.8094 40.9678 39.3258 40.241C42.6317 38.6564 47.5967 36.2671 50.9662 38.9523C53.4289 40.9147 53.7626 44.6385 53.7626 47.5536C54.4296 47.3412 55.0387 47.0034 55.6583 46.6845C56.0875 46.4635 56.0924 45.8482 56.1463 45.4373C56.2347 44.7644 56.4167 44.1127 56.6258 43.467C57.088 42.039 57.6668 40.6457 58.2184 39.2506C59.1111 36.9938 60.2113 34.768 60.7599 32.3938C61.118 30.8443 61.5439 28.181 59.6755 27.4119C58.0591 26.7466 56.1578 27.7836 54.8453 28.6505ZM46.4826 22.3437C46.1704 22.5529 46.2869 23.1806 46.3081 23.4955C46.3857 24.6407 46.3371 25.7907 46.3754 26.9379C46.422 28.3358 46.4323 30.8992 47.8739 31.683C48.86 32.2191 50.0863 31.4158 50.8731 30.8688C52.2046 29.9437 53.426 28.8692 54.7758 27.966C56.3761 26.8952 59.4082 25.414 60.9395 27.4283C61.7682 28.5185 61.6519 30.1429 61.4453 31.4114C61.1723 33.0849 60.5349 34.6721 59.9015 36.2361C58.5933 39.4655 57.228 42.7475 56.5006 46.1659C58.1592 45.1802 59.4491 43.7597 60.8966 42.5117C61.9696 41.5867 63.5631 40.5244 63.8108 39.017C63.8667 38.6765 64.1964 38.4339 64.4231 38.2062C64.7181 37.9098 64.926 37.6095 65.113 37.2314C65.5256 36.3961 65.7937 35.4939 65.9627 34.5799C66.3173 32.6623 66.1483 30.7536 65.8214 28.8472C65.6735 27.9851 65.8905 27.0601 65.6895 26.2198C65.5499 25.6363 65.1382 25.6709 64.5903 25.5381C62.6174 25.0602 60.6406 24.5968 58.6665 24.1234C57.8647 23.9309 56.9928 23.57 56.1603 23.582C55.477 23.5919 54.9029 23.9993 54.3132 24.2943C53.3449 24.7788 51.8057 25.6264 50.6939 25.1446C49.3982 24.5832 50.9082 23.3157 50.2584 22.716C49.8129 22.3048 48.4815 22.5514 47.8776 22.4493C47.5465 22.3933 46.7863 22.1402 46.4826 22.3437ZM66.8706 38.9037C65.9283 39.0522 65.3827 39.4609 64.8638 40.2628C64.3365 41.0777 64.2736 41.4813 65.0256 42.1191C65.8366 42.8068 66.685 43.4861 67.546 44.1055C68.6373 44.8905 69.8478 45.4849 70.9264 46.2891C71.3987 46.6414 73.5425 43.88 73.9146 43.5013C74.4277 42.979 74.9543 42.4552 75.505 41.9743C75.7061 41.7987 76.3369 41.3912 76.3372 41.0924C76.3379 40.337 74.6627 39.6612 74.1237 39.4532C72.9159 38.9875 71.6498 38.7994 70.3629 38.78C69.2223 38.7628 68.0005 38.7255 66.8706 38.9037ZM71.0695 35.581C70.1849 36.0506 69.2608 36.4464 68.3707 36.9063C68.0549 37.0694 66.0635 37.9058 66.164 38.4058C68.405 38.2638 70.636 37.8846 72.8698 38.3183C73.8729 38.5132 74.8289 38.8398 75.6672 39.4425C76.3021 39.8986 76.7861 40.7753 77.4165 39.9951C76.1295 39.2658 74.9706 38.2992 73.8292 37.3607C73.3297 36.9498 72.8157 36.5634 72.3087 36.1638C72.0071 35.9261 71.5098 35.3474 71.0695 35.581ZM18.0641 24.662C17.363 24.7604 16.6797 24.9461 15.9913 25.1055C13.2022 25.7514 10.4026 26.3314 7.62097 27.015C2.0726 28.3783 -3.64166 29.6929 -8.93215 31.877C-8.48735 32.3687 -7.30863 32.0125 -6.75659 31.9161C-5.67592 31.7273 -4.62724 31.3974 -3.5596 31.1484C-2.51537 30.905 -1.46728 30.6147 -0.414457 30.4117C0.0704823 30.3183 0.925867 30.1952 0.945417 30.9221C0.973116 31.9527 -1.0293 32.7234 -1.76426 33.1001C-2.55018 33.5029 -3.31106 33.9481 -4.05921 34.4164C-4.65064 34.7868 -5.74139 35.2804 -5.9332 36.0163C-4.01388 35.2033 -2.09338 34.3936 -0.185909 33.5531C0.532612 33.2365 1.26061 32.9381 1.94462 32.5519C2.40068 32.2943 2.98767 31.8423 3.52771 31.8017C4.25898 31.7467 4.38013 32.4106 4.07205 32.9463C3.6865 33.6168 2.8908 33.9952 2.30559 34.4644C1.55951 35.0628 0.899204 35.7687 0.227488 36.446C-0.330179 37.0083 -1.04826 37.5618 -1.33931 38.322C-0.336843 38.6572 0.802187 37.5826 1.53878 37.0515C2.69632 36.2168 3.77448 35.3089 4.87885 34.4068C5.44378 33.9454 6.11727 33.1981 6.86082 33.0604C7.80315 32.8856 7.72509 33.9628 7.49655 34.5567C6.98584 35.8839 5.79007 36.9905 5.70461 38.4868C5.65203 39.4081 6.43232 39.0573 6.95295 38.6879C7.82967 38.0656 8.42303 37.1173 9.21872 36.4037C11.1348 34.6848 13.3281 33.2184 15.6983 32.2003C16.1225 32.018 16.2751 31.3638 16.4041 30.9705C16.5965 30.3837 16.8179 29.8146 17.0493 29.241C17.5562 27.9846 17.9718 26.6266 18.682 25.466C18.88 25.1423 19.391 24.8124 18.9683 24.622C18.7386 24.5186 18.3013 24.6286 18.0641 24.662ZM38.2975 22.5365C37.5795 22.6203 36.8528 22.6127 36.1335 22.6886C34.9595 22.8123 35.4716 24.2402 35.2826 25.1006C34.7257 27.6335 32.0408 28.1118 30.0062 26.9169C28.8615 26.2444 28.1743 25.2808 27.5588 24.1535C27.2079 23.5108 26.9465 23.4074 26.2205 23.5682C25.7224 23.6787 25.269 23.6553 24.7622 23.692C24.1244 23.7382 24.0688 23.8735 24.0557 24.4803C24.0443 25.0193 23.9667 25.3927 23.6078 25.8293C22.9238 26.661 21.777 27.2085 20.8 27.6264C19.8212 28.0452 18.7124 28.3565 18.1748 29.3462C17.9039 29.8452 17.6135 30.4409 17.535 31.0082C17.4493 31.6279 17.6596 32.0124 17.2982 32.584C16.5469 33.7725 16.2025 35.0712 15.8227 36.4219C15.6989 36.8618 15.6499 37.0429 16.1303 37.1638C16.8195 37.3375 17.7983 37.074 18.5055 37.0463C19.0101 37.0265 19.3048 36.137 19.4688 35.7765C19.7876 35.0757 20.1786 34.4121 20.5701 33.7488C21.4574 32.2461 22.4061 30.7535 23.5651 29.4406C24.44 28.4497 25.7314 27.2162 26.8516 28.6086C27.9432 29.9656 28.73 31.555 30.0429 32.7378C31.1976 33.7782 32.3875 33.7949 33.5851 32.8088C34.7641 31.8381 35.6601 30.5137 36.3929 29.1923C37.1855 27.7633 37.7831 26.2377 38.5555 24.8001C38.7975 24.3495 39.9156 23.1306 39.575 22.6086C39.3449 22.2559 38.6203 22.499 38.2975 22.5365ZM44.3102 22.2249C43.6782 22.2547 43.0423 22.1837 42.4102 22.1711C41.2664 22.1485 40.3099 22.1885 39.7355 23.2844C39.2285 24.2516 38.7966 25.2806 38.3339 26.271C37.3287 28.4225 36.3425 30.624 34.7992 32.4548C33.432 34.0768 31.6656 34.8939 29.887 33.3445C29.0984 32.6574 28.4993 31.771 27.9334 30.8998C27.4797 30.2014 26.962 28.9721 26.2019 28.565C25.3544 28.111 24.3842 29.1523 23.8662 29.7174C22.9952 30.6673 22.2672 31.7846 21.568 32.8633C21.061 33.6457 20.5755 34.4446 20.0826 35.2362C19.8829 35.5572 19.0691 36.6071 19.34 37.007C19.6116 37.4079 20.9372 37.1339 21.3207 37.0972C22.2365 37.0098 23.1511 36.9783 24.0674 36.8995C26.9174 36.6544 29.7251 36.0282 32.5823 35.8611C34.4645 35.7509 36.319 35.3871 38.1717 35.0566C39.9732 34.7353 41.7862 34.516 43.5684 34.0913C44.6163 33.8416 45.6662 33.5916 46.712 33.3326C47.0739 33.243 48.7843 32.9986 48.8906 32.5283C47.7129 32.3227 47.0945 31.866 46.6768 30.717C46.1538 29.278 46.093 27.6743 46.0484 26.1581C46.0312 25.5748 46.0284 24.9913 46.0281 24.4078L46.0281 23.7077C46.0279 23.2892 46.2086 22.5298 45.8315 22.2396C45.4823 21.971 44.7146 22.2056 44.3102 22.2249ZM67.6914 31.5175C67.7408 33.4136 67.4018 35.3246 66.6229 37.057C67.4377 37.1875 68.4068 36.1653 69.0904 35.823C69.3537 35.691 71.097 35.0575 70.5132 34.5733C69.4392 33.6826 68.7352 32.4382 67.6914 31.5175ZM91.0568 33.0594C91.2958 33.5309 91.0006 34.1293 90.8408 34.5766C92.0841 34.8753 93.3223 35.1688 94.575 35.4224C95.5192 35.6134 95.1898 36.1796 94.3703 36.1406C93.2306 36.0863 92.1702 35.6035 91.036 35.5409C89.9557 35.4811 89.8286 36.4242 88.9075 36.6059C88.9388 36.0869 89.3586 35.7266 89.6601 35.3373C89.163 35.0823 88.6553 34.8452 88.1731 34.5642C87.9233 34.4187 87.2334 33.8084 87.499 33.4842C87.7672 33.1569 88.4704 33.7703 88.7207 33.9053C89.0764 34.0974 89.7865 34.5207 90.2049 34.3993C90.7782 34.2329 90.6589 33.41 91.0568 33.0594ZM73.1422 20.7049C72.6378 20.7399 72.0891 20.5702 71.6113 20.7922C71.135 21.0136 70.5665 21.4982 70.1682 21.8343C69.7825 22.1596 69.5907 22.5547 69.1111 22.7467C68.6322 22.9387 68.1415 22.9217 67.9569 23.5073C68.3914 23.6265 69.2444 23.4685 69.5848 23.7878C70.0798 24.2526 69.216 24.7641 68.8577 24.9103C68.3437 25.1201 67.9235 25.052 67.398 25.0127C67.1695 24.9957 67.1715 24.9254 66.9843 25.0386C66.2897 25.4584 66.7702 26.9518 66.9956 27.4966C68.0979 30.1632 71.8645 29.2652 74.0367 28.9921C73.3455 28.2958 72.2134 27.5277 72.1563 26.4342C72.1393 26.1085 72.22 25.5265 72.6382 25.4994C72.9726 25.4778 73.3737 25.9828 73.5818 26.1818C74.1991 26.7717 74.9975 27.75 75.8901 27.8346C77.0832 27.9478 78.0011 26.0156 78.4959 25.1728C77.8878 25.0586 77.2215 25.0653 76.868 24.4686C76.4477 23.7595 76.4404 22.6731 76.4477 21.8748C76.454 21.195 76.6707 20.4514 75.762 20.418C74.9248 20.3873 73.9874 20.6464 73.1422 20.7049ZM-6.97272 22.4484C-7.1466 22.8276 -7.90194 22.9762 -8.23359 23.0776C-9.49504 23.4629 -10.7268 23.9522 -11.9566 24.4322C-14.4395 25.4013 -16.8952 26.4717 -19.1624 27.8959C-19.5861 28.1623 -19.3786 27.6486 -19.2685 27.4634C-19.0218 27.0481 -18.5034 26.7543 -18.1162 26.4999C-17.0685 25.8114 -15.9588 25.3277 -14.8003 24.8671C-12.4821 23.9456 -10.1287 22.9685 -7.75125 22.2221C-7.47544 22.1356 -6.73916 21.9389 -6.97272 22.4484ZM21.8229 24.326C21.362 24.3737 20.8222 24.2689 20.3789 24.4193C19.8013 24.6153 19.8966 25.0118 19.7256 25.4993C19.4357 26.327 19.1253 27.1477 18.8228 27.971C19.9427 27.9188 21.0153 27.0323 21.9645 26.522C22.5018 26.2331 24.3697 25.2744 23.8065 24.3967C23.4499 23.8412 22.3346 24.2729 21.8229 24.326ZM34.5687 22.8831C33.8752 22.8706 33.1127 23.0805 32.4108 23.1154C31.4698 23.1622 30.543 23.3412 29.6032 23.3844C28.9848 23.413 28.3778 23.5401 27.766 23.6233C28.3746 25.0332 29.5626 26.2665 31.0553 26.7772C32.2329 27.1801 33.8809 27.2485 34.6855 26.1337C35.1484 25.4923 35.9046 22.9072 34.5687 22.8831ZM70.6796 17.0592C69.9235 17.5615 69.3174 18.2813 68.6857 18.9235C67.1035 20.5319 65.4661 22.2539 64.7811 24.4587C64.6871 24.7607 65.4005 25.0276 65.5935 25.0393C66.0015 25.0639 66.0846 24.8582 66.2448 24.5134C66.6413 23.6598 66.7932 22.7062 67.4274 21.9784C68.2003 21.091 69.131 20.2258 70.0281 19.4635C70.6378 18.9454 72.1318 18.216 72.307 17.3596C72.5142 16.3471 71.1376 16.755 70.6796 17.0592ZM51.1734 22.9179C50.7458 23.0423 50.7117 23.438 50.614 23.8643C50.2209 25.5771 54.1964 23.7083 54.75 23.4283C54.5659 22.8784 52.7541 22.9787 52.3344 22.9571C52.0077 22.9405 51.4893 22.826 51.1734 22.9179ZM74.6568 23.8076C74.0677 23.8303 74.3392 21.4242 75.0089 21.6661C75.5833 21.8739 75.0344 23.7928 74.6568 23.8076ZM-8.16118 21.041C-9.06321 21.8196 -10.4794 21.924 -11.601 22.1739C-13.2536 22.5422 -14.8918 23.0115 -16.5311 23.435C-17.5662 23.7025 -16.9835 23.0647 -16.4652 22.8251C-15.5741 22.4131 -14.5652 22.1935 -13.6127 21.9668C-12.5816 21.7214 -11.5278 21.5575 -10.5026 21.2898C-9.79262 21.1043 -8.87703 20.6298 -8.16118 21.041ZM19.902 4.30751C20.9044 4.49159 21.9051 4.81219 22.7839 5.33733C23.5114 5.77206 23.4826 6.44844 22.5603 6.05598C18.2582 4.2249 12.92 5.33409 8.71897 6.95547C8.25546 7.13425 8.28994 6.74415 8.43005 6.44343C8.62291 6.02918 9.03514 5.7887 9.43087 5.59637C10.6198 5.01821 11.9905 4.69128 13.2833 4.4511C15.4379 4.05083 17.7372 3.91019 19.902 4.30751ZM20.5307 1.67747C21.0772 1.82573 21.7053 2.19348 22.0396 2.65998C22.431 3.20592 22.1198 3.48495 21.5768 3.16388C20.9708 2.80555 20.4167 2.44828 19.7213 2.25901C19.3541 2.15922 19.3689 1.92897 19.6327 1.72684C19.8795 1.53758 20.2627 1.60475 20.5307 1.67747Z" fill="#010101"/>
</svg>
