<svg width="862" height="565" viewBox="0 0 862 565" fill="none" xmlns="http://www.w3.org/2000/svg">
<g clip-path="url(#clip0_354_3115)">
<path fill-rule="evenodd" clip-rule="evenodd" d="M260.075 29.0014C251.173 29.0804 242.381 33.0194 239.382 41.2727C236.113 50.2703 238.701 60.6041 246.549 66.2247C254.408 71.8526 265.039 70.9007 272.9 65.2757C280.759 59.6522 285.142 49.9291 281.948 40.8948C278.92 32.3316 269.282 28.9197 260.075 29.0014Z" fill="#F7CA17"/>
<path fill-rule="evenodd" clip-rule="evenodd" d="M114.118 0.0072263C158.427 0.406129 202.193 20.2928 217.121 61.962C233.395 107.389 220.513 159.562 181.444 187.939C142.325 216.354 89.4073 211.547 50.2769 183.148C11.1571 154.756 -10.6636 105.666 5.23623 60.0545C20.3071 16.8207 68.2834 -0.405404 114.118 0.0072263Z" fill="#EC9B3D"/>
<path fill-rule="evenodd" clip-rule="evenodd" d="M411.449 382.005C379.008 382.296 346.966 396.803 336.036 427.199C324.121 460.337 333.553 498.396 362.157 519.096C390.798 539.823 429.541 536.317 458.19 515.601C486.831 494.89 502.807 459.08 491.166 425.808C480.132 394.27 445.007 381.704 411.449 382.005Z" fill="#F7CA17"/>
<path fill-rule="evenodd" clip-rule="evenodd" d="M517.075 492.001C508.173 492.08 499.381 496.019 496.382 504.273C493.113 513.27 495.701 523.604 503.549 529.225C511.408 534.853 522.039 533.901 529.9 528.276C537.759 522.652 542.142 512.929 538.948 503.895C535.92 495.332 526.282 491.92 517.075 492.001Z" fill="#EC9B3D"/>
<path fill-rule="evenodd" clip-rule="evenodd" d="M462.735 539.001C457.197 539.051 451.726 541.549 449.86 546.783C447.826 552.488 449.436 559.042 454.319 562.606C459.209 566.175 465.824 565.571 470.715 562.004C475.605 558.438 478.333 552.272 476.345 546.543C474.462 541.113 468.465 538.949 462.735 539.001Z" fill="#721620"/>
<path fill-rule="evenodd" clip-rule="evenodd" d="M778.449 154.995C746.008 154.704 713.966 140.197 703.036 109.801C691.121 76.6632 700.553 38.6042 729.157 17.9041C757.798 -2.82309 796.541 0.682907 825.19 21.3993C853.831 42.1101 869.807 77.9197 858.166 111.192C847.132 142.73 812.007 155.296 778.449 154.995Z" fill="#952F1F"/>
<path fill-rule="evenodd" clip-rule="evenodd" d="M217.735 3.00091C212.197 3.05101 206.726 5.54886 204.86 10.7827C202.826 16.4885 204.436 23.0417 209.319 26.6059C214.209 30.1748 220.824 29.5712 225.715 26.0041C230.605 22.438 233.333 16.2721 231.345 10.5431C229.462 5.11274 223.465 2.94908 217.735 3.00091Z" fill="#721620"/>
</g>
<defs>
<clipPath id="clip0_354_3115">
<rect width="862" height="565" fill="white"/>
</clipPath>
</defs>
</svg>
