<svg width="49" height="39" viewBox="0 0 49 39" fill="none" xmlns="http://www.w3.org/2000/svg">
<g clip-path="url(#clip0_405_2924)">
<path fill-rule="evenodd" clip-rule="evenodd" d="M32.7875 14.2714C32.3785 15.0711 31.9463 15.8496 31.51 16.6348C31.279 17.0504 30.534 18.7696 30.3416 18.8352C30.1344 18.906 28.8652 18.1596 28.501 18.0134C27.8537 17.7536 27.2386 17.5076 26.5625 17.3474C25.8054 17.168 25.0423 17.0357 24.2569 17.1024C23.913 17.1316 23.3437 17.2148 23.6855 16.7316C23.9347 16.3792 24.1761 16.0548 24.5146 15.8002C24.7609 15.6149 25.122 15.275 25.4104 15.1513C25.713 15.0214 26.1594 15.0501 26.4846 15.0578C26.8362 15.0661 28.512 15.589 28.6042 15.044C28.7751 15.1995 28.8746 15.1394 29.0705 15.2153C29.2912 15.3009 29.4289 15.4671 29.6481 15.5675C29.7903 15.6326 30.0525 15.8901 30.2105 15.8917C30.4207 15.8938 30.4773 15.7197 30.6282 15.5912C30.9664 15.3034 31.4166 15.1139 31.7835 14.8638C32.1066 14.6434 32.4142 14.4138 32.7875 14.2714ZM29.1059 7.94999C29.0771 8.31507 29.1757 8.6543 29.1733 9.02995C29.1723 9.19388 29.1648 9.35774 29.2146 9.51568C29.2593 9.65726 29.2281 9.9116 29.2518 10.0598C28.8336 9.93253 28.0567 9.74373 27.6297 9.9154C27.2215 10.0795 27.1702 10.8385 27.1558 11.2076C27.146 11.4592 27.2577 11.8467 27.173 12.0876C27.1335 12.2 27.1332 12.2362 27.1357 12.2463L27.136 12.2474C27.1279 12.2433 27.0951 12.2434 26.9796 12.3267C26.865 12.4094 26.7282 12.4549 26.6149 12.5462C26.409 12.7123 26.3737 12.9006 26.2721 13.1414C26.1734 13.3753 25.9104 13.5831 25.6168 13.5747C25.8528 13.147 26.1804 12.7475 25.9924 12.2452C25.8506 11.866 26.0992 11.4211 26.2948 11.0609C26.3596 10.9416 27.0775 10.0277 26.7594 9.96328C26.5528 9.92141 26.0787 10.8915 25.9879 11.0609C25.7349 10.8898 25.6213 10.679 25.816 10.4214C25.9656 10.2235 26.1492 10.0543 26.2948 9.84946C26.5312 9.51696 26.7615 9.1201 27.0423 8.82476C27.5353 8.30618 28.3959 7.95315 29.1059 7.94999ZM35.7318 7.38337C36.0468 7.6852 36.4454 7.93554 36.7498 8.25229C37.0163 8.52959 37.3752 8.996 37.5018 9.36645C36.8522 9.49165 35.7728 9.87515 35.5141 10.5569C34.5038 9.62945 34.113 11.325 33.9125 12.0341C33.3212 11.7782 33.4391 10.9264 33.4469 10.4291C33.453 10.0346 33.6933 9.5676 33.1205 9.53527C32.6924 9.51121 32.2767 9.68555 31.8906 9.84879C31.4088 10.0525 30.9035 10.3572 30.5143 10.7072L30.1089 10.3916C30.774 10.0182 31.1207 9.30429 31.51 8.65057C31.6342 8.44216 31.8 8.21041 31.8906 7.98513C31.9532 7.82934 31.9973 7.5149 32.066 7.37638C32.174 7.15863 33.2293 7.09868 33.5088 7.04257C34.2467 6.89444 35.1288 6.80566 35.7318 7.38337Z" fill="#4D4D4D"/>
<path fill-rule="evenodd" clip-rule="evenodd" d="M30.6545 0.45023L30.6412 0.447955C30.8275 0.477588 30.906 0.548369 31.0636 0.627704C31.2152 0.704008 31.369 0.724886 31.5337 0.773982C31.6802 0.81769 31.8087 0.83978 31.9077 0.967469C31.986 1.06849 31.9541 1.23841 32.0331 1.32549C32.1111 1.41129 32.2653 1.39883 32.3582 1.50072C32.4474 1.59851 32.5008 1.76014 32.5471 1.88184C32.6098 2.04576 32.6171 2.10732 32.7274 2.23851C32.8235 2.353 32.962 2.44506 33.0422 2.57565C33.2313 2.88349 33.2361 3.32865 33.1758 3.67495C33.1553 3.79288 32.9844 4.09769 33.0111 4.19803C33.0366 4.29353 33.1968 4.26841 33.2694 4.32882C33.3321 4.38102 33.3873 4.61357 33.4368 4.62778C33.5436 4.65842 33.6754 4.44742 33.7564 4.41577C33.8971 4.36075 33.9559 4.30431 34.0339 4.51167C34.0916 4.66556 34.0112 4.8744 33.9688 5.02128C33.9149 5.20824 33.8554 5.43338 33.7125 5.57474C33.5446 5.74095 33.4102 5.6501 33.2249 5.73961C32.9473 5.87376 33.0292 6.2932 32.6876 6.41308C32.362 6.5273 32.0033 6.16793 31.7571 6.00273C31.8081 6.40378 32.0001 6.79022 31.9079 7.20124C32.6567 6.90787 33.3973 6.49154 34.2133 6.39981L34.2985 6.39019C34.6866 6.3465 35.0765 6.30935 35.4425 6.47032C35.9023 6.6725 36.184 7.11847 36.4952 7.48901C37.08 8.18545 37.6801 8.86235 38.2415 9.58121C38.7563 10.2406 39.1904 11.0047 39.7571 11.6221C40.3318 12.2482 40.7654 13.2641 40.7025 14.1311C40.6969 14.2094 40.6362 14.3872 40.6457 14.4715C40.6531 14.5362 40.7119 14.6182 40.711 14.6703C40.7078 14.8457 40.6498 14.9467 40.4826 15.0441C40.1926 15.2129 39.7607 15.2984 39.433 15.3403C38.9977 15.3959 38.4646 15.4019 38.0291 15.3425C37.5799 15.2811 37.1851 15.0296 36.7721 14.8777C36.4097 14.7444 36.0458 14.6611 35.6651 14.5761C35.4551 14.5291 35.2226 14.3992 35.0929 14.5249C34.9737 14.6405 34.9489 15.2334 34.9212 15.3911C34.62 17.1 34.262 18.7509 33.945 20.4511C33.5857 22.3781 33.3399 24.3045 33.0901 26.2479C32.947 27.3604 32.8646 28.4809 32.8105 29.5988L32.8104 29.5929C32.8124 29.6643 32.8143 29.7357 32.8162 29.8072C32.8143 29.7377 32.8124 29.6681 32.8105 29.5988C32.7787 30.2561 32.7567 30.9125 32.7379 31.566C32.7136 32.4079 32.7101 33.2408 32.7153 34.0834C32.7182 34.5553 32.954 36.1303 32.2546 36.1906C31.8435 36.2262 31.5147 35.6368 31.4045 35.3154C31.2391 34.8325 31.1529 34.3126 31.1265 33.8053C31.0731 32.7784 31.0031 31.7507 30.9617 30.7234C30.9168 29.6105 30.9739 28.4769 31.0654 27.3676C31.1575 26.2509 31.3895 25.1504 31.4606 24.032C31.2471 24.3367 31.1788 24.3939 30.8232 24.5266C30.4511 24.6655 30.0932 24.8298 29.7177 24.9593C29.59 25.0034 29.3906 25.031 29.2859 25.1031C29.0927 25.2362 29.2196 25.0852 29.1579 25.3442C29.092 25.621 29.0796 25.9532 29.0621 26.2375C28.9798 27.572 28.6102 28.897 28.4397 30.2244C28.3985 30.5449 28.4572 31.9054 27.9057 31.4766C27.4809 31.1464 27.4893 30.1092 27.4289 29.6234C27.3484 28.9758 27.3932 28.3099 27.406 27.6584C27.4204 26.9164 27.4329 26.1381 27.61 25.4136C27.2932 25.3594 26.8525 25.5071 26.5337 25.5319C26.2576 25.5534 25.9824 25.5671 25.7079 25.5822C25.0532 25.6181 24.3788 25.6468 23.713 25.634C23.5918 25.6316 22.7999 25.5208 22.6987 25.6101C22.6659 25.6391 22.6558 26.0384 22.6497 26.0871C22.6264 26.2706 22.5948 26.4538 22.5712 26.6363C22.496 27.2194 22.4281 27.8456 22.4497 28.4286C22.4663 29.132 22.4409 29.8396 22.4559 30.5463C22.472 31.301 22.5688 32.0406 22.6149 32.7877C22.6564 33.4572 22.7468 34.1141 22.8202 34.7805C22.8625 35.1643 22.9112 35.5313 22.9761 35.9123C23.037 36.2687 23.0473 36.5828 22.6212 36.6787C21.8065 36.862 21.6799 35.6899 21.5224 35.196C21.2873 34.459 21.1366 33.6852 21.0201 32.9212C20.9554 32.496 20.8842 32.0726 20.8133 31.6495L20.8129 31.7357L20.8132 31.6493C20.6467 30.6566 20.4814 29.6661 20.4025 28.66C20.3333 27.7763 20.2328 26.9017 20.1758 26.0188C20.1646 25.8458 20.2088 25.5793 20.0568 25.5022C19.9654 25.456 19.7138 25.4556 19.5984 25.422C19.2771 25.3285 18.9806 25.1909 18.6671 25.048C18.8896 26.2117 18.9631 27.3695 19.1301 28.5433C19.2186 29.1661 19.3881 29.8115 19.535 30.4245C19.6872 31.0598 19.721 31.7437 19.8966 32.3652C19.9739 32.6391 20.0394 32.7506 19.9272 33.0318C19.7894 33.3768 19.8808 33.4594 20.0535 33.7983C20.3711 34.4218 20.6136 35.1576 20.5597 35.8605C20.5158 36.4346 20.082 36.7351 19.5447 36.89C18.8726 37.0837 18.1689 37.0608 17.4927 37.2807C16.9036 37.4723 16.3051 37.6139 15.733 37.8669C15.5023 37.9688 15.2831 38.0898 15.027 38.1086C14.6757 38.1341 14.4388 37.9302 14.107 37.8877C13.8996 37.8613 13.596 37.9602 13.4765 37.7428C13.3818 37.5705 13.489 37.1944 13.6079 37.0557C13.9419 36.6658 14.6107 36.3261 15.0611 36.096C15.5802 35.8309 16.0825 35.499 16.5634 35.1568C16.855 34.9493 17.1523 34.7502 17.4436 34.5424C17.6363 34.4048 17.7095 34.4039 17.6898 34.1854C17.6741 34.0111 17.5956 33.8421 17.5818 33.6636C17.5713 33.5269 17.6192 33.3405 17.5546 33.2513C17.5071 33.1855 17.3287 33.1391 17.2586 33.0893C17.0021 32.9074 16.9438 32.6825 16.8273 32.4059C16.5628 31.7777 16.2588 31.1671 16.0033 30.5339C15.4547 29.1742 15.12 27.7445 14.6653 26.3571C14.2007 24.9396 13.7852 23.4516 13.5294 21.981C13.187 22.0852 12.8639 22.5462 12.5912 22.7743C12.2228 23.0827 11.8454 23.3808 11.4841 23.6975L11.3764 23.7918C10.8197 24.2784 10.2628 24.7594 9.8031 25.3436C9.56736 25.6431 9.37434 25.9654 9.1609 26.28C9.03761 26.4618 8.92267 26.6675 8.78914 26.8405C8.76771 26.8682 8.76711 26.9252 8.744 26.9488C8.69313 27.0008 8.59605 26.9316 8.56344 26.9658C8.36227 27.1762 8.36489 27.7736 8.30217 28.0512C8.2158 28.4338 8.11878 28.8737 7.82005 29.1373C7.35861 29.5446 6.50762 29.6077 5.92364 29.6288C5.17418 29.656 4.44716 29.8648 3.73611 30.0892C3.40443 30.1938 3.08144 30.3161 2.74855 30.4177C2.55708 30.4762 2.33866 30.5928 2.13418 30.5704C1.8876 30.5434 1.69289 30.3359 1.51226 30.1816C1.2233 29.9349 0.955762 29.6917 0.96508 29.287C0.975503 28.8585 1.2076 28.5351 1.57323 28.3223C2.28011 27.9108 3.07073 27.6471 3.83265 27.3628C4.12465 27.2537 4.3746 27.1331 4.65379 26.9864C5.04826 26.7789 5.50235 26.6096 5.85236 26.3358C5.95557 26.255 6.33481 26.0074 6.36715 25.8797C6.3714 25.8631 6.2766 25.6681 6.2762 25.6372C6.27525 25.5577 6.32235 25.4715 6.35132 25.4034C6.53363 24.9748 6.83944 24.5621 7.07322 24.158C7.50137 23.4177 7.93115 22.6735 8.42755 21.9773C9.41739 20.5892 10.5293 19.2301 11.7294 18.0184C12.3145 17.4277 12.8201 16.7576 13.4133 16.1751C13.6484 15.9444 13.8965 15.7565 14.1862 15.6067C14.509 15.4397 14.8714 15.407 15.2415 15.356C16.1383 15.2326 16.8872 15.4978 17.7292 15.7287C18.5251 15.9469 19.3219 16.131 20.1223 16.3583C21.0014 16.6079 21.8713 16.8473 22.7476 17.1193C23.2158 17.2646 23.6974 17.3539 24.1678 17.4933C24.3943 17.5604 25.2506 17.9809 25.4395 17.8428C24.8446 17.5636 24.2351 17.3092 23.5986 17.1407C23.4112 17.0911 23.2915 17.146 23.2984 16.9308C23.3023 16.8134 23.4342 16.6549 23.4817 16.5583C23.5954 16.327 23.7242 16.1009 23.8355 15.8689C23.432 15.9834 22.3474 16.38 22.0433 15.97C21.7251 15.5409 21.9908 14.6997 22.1902 14.2796C22.7108 13.1829 23.5962 12.2677 24.4589 11.4411C24.6455 11.2623 25.0478 11.0289 25.1473 10.8013C25.1775 10.732 25.1117 10.6303 25.18 10.5404C25.2205 10.487 25.3835 10.4504 25.4486 10.3927C25.4677 10.3759 25.4864 10.3575 25.5049 10.3379C25.5248 10.2326 25.5668 10.1434 25.6615 10.0929C25.619 10.1638 25.5764 10.2347 25.5338 10.3057C25.7319 10.0769 25.8952 9.70713 26.039 9.46558C26.2107 9.17726 26.3654 8.86504 26.5811 8.60636L26.6159 8.56469C26.958 8.15433 27.317 7.73172 27.8696 7.63603C28.1498 7.58754 28.4475 7.6134 28.716 7.51662C29.0408 7.39957 29.3495 7.21518 29.6774 7.09395C29.596 6.92666 29.5301 6.66064 29.3722 6.64239C29.2202 6.62475 28.9973 6.7554 28.8233 6.75446C28.5693 6.75304 28.3524 6.71243 28.1072 6.66401C27.8359 6.61033 27.7465 6.6201 27.6475 6.32573C27.5438 6.01734 27.5699 5.65919 27.5708 5.33889C27.5712 5.18238 27.6023 4.98808 27.5889 4.83446C27.5689 4.60299 27.5239 4.5941 27.3425 4.44688C27.1158 4.26296 26.8363 4.01957 27.114 3.7C27.2641 3.52733 27.5724 3.66162 27.7054 3.47608C27.8407 3.2871 27.8342 2.81237 27.8754 2.5904C27.4581 2.79553 27.6111 2.02866 27.611 1.84412C27.611 1.57561 27.431 1.09273 27.6901 0.869345C27.8105 0.765631 27.8999 0.851431 28.0375 0.791829C28.1945 0.723808 28.2934 0.545406 28.4605 0.476241C28.7926 0.338718 29.1317 0.504325 29.4727 0.476982C29.8148 0.449589 30.1516 0.399883 30.4938 0.429869C30.5486 0.422956 30.6045 0.403472 30.6545 0.45023ZM45.9848 33.7187C46.4144 33.8043 46.8605 33.9168 47.27 34.0758C47.6956 34.2409 48.0763 34.2754 48.1785 34.7579C48.3961 34.6558 48.5598 34.641 48.5338 34.941C48.5262 35.0292 48.4622 35.1251 48.4468 35.216C48.4242 35.35 48.4638 35.4913 48.4414 35.6257C48.36 36.1143 47.7011 36.4763 47.2929 36.6681C46.7894 36.9047 46.1399 37.2542 45.5778 37.3004C44.9789 37.3496 44.3262 37.1144 43.7316 37.0927C43.622 36.9872 43.292 36.9918 43.1545 36.9596C42.8838 36.8964 42.617 36.8306 42.3426 36.7831C41.8974 36.7061 41.194 36.6716 41.1457 36.094C41.1054 35.614 41.6854 35.5 42.0247 35.3374C42.5348 35.0927 43.0553 34.867 43.5784 34.6512C44.0689 34.449 44.5665 34.278 45.0659 34.1032C45.1633 34.0691 45.2424 34.0738 45.3219 33.9959C45.3846 33.9343 45.3652 33.8149 45.434 33.7507C45.5914 33.6035 45.7956 33.6809 45.9848 33.7187ZM17.8195 33.3942C18.0406 33.8071 18.5059 34.4113 18.172 34.8892C18.0472 35.0677 17.8396 35.1186 17.6542 35.2092C17.4298 35.3189 17.2226 35.4593 17.0105 35.5899C16.1356 36.1286 15.2466 36.6748 14.3248 37.137C14.6133 37.2302 15.057 37.2946 15.3542 37.2135C15.7003 37.1189 16.0207 36.9019 16.3761 36.807C17.0135 36.6369 17.6844 36.492 18.332 36.4048C18.8614 36.3334 20.1864 36.4946 20.1221 35.6985C20.061 34.9427 19.6095 34.2216 19.4752 33.4744C19.1455 33.5476 18.831 33.5348 18.4942 33.5401C18.2693 33.4914 18.0444 33.4428 17.8195 33.3942ZM45.2839 34.4407C44.3343 34.9819 43.2716 35.3542 42.2713 35.7934C42.565 36.052 43.2257 36.0631 43.5927 36.1456C43.8607 36.2057 44.1157 36.2879 44.3724 36.3831C44.6114 36.4719 44.9965 36.676 45.2485 36.6828C45.4613 36.6885 45.6342 36.4791 45.8174 36.3664C46.0584 36.218 46.2983 36.0722 46.5411 35.9275C47.055 35.6213 47.5355 35.246 48.0232 34.9005C47.7914 34.7013 47.5611 34.7217 47.2742 34.6613C47.0099 34.6057 46.7532 34.51 46.4895 34.4462C46.2826 34.3963 46.0777 34.3286 45.8716 34.2814C45.5804 34.2146 45.5517 34.2881 45.2839 34.4407ZM48.1891 35.4453C47.7643 35.7795 47.3695 36.0949 46.9095 36.3854C47.2347 36.3752 48.3161 35.8567 48.1891 35.4453ZM20.5882 25.5606C20.5882 26.0097 20.7637 26.5196 20.8452 26.9639C20.9212 27.3782 20.9836 27.7949 21.0464 28.2112C21.1821 29.1126 21.2207 30.0265 21.3681 30.9304C21.5017 31.7499 21.6778 32.566 21.775 33.3855C21.8283 33.8353 21.9361 34.2596 22.02 34.7092C22.0638 34.9436 22.2234 35.9091 22.4244 36.004C22.4669 35.6577 22.2933 35.2395 22.2622 34.8892C22.2301 34.5277 22.2052 34.1637 22.1466 33.8002C22.0778 33.3735 22.043 32.9362 22.0166 32.5042C22.0005 32.2399 21.9956 31.9764 21.9727 31.7122C21.9562 31.5206 21.8837 31.2301 21.9357 31.0421C21.9315 29.8304 21.9143 28.6083 21.9342 27.4056C21.9397 27.0716 21.9669 26.7113 22.0153 26.3799C22.0457 26.1716 22.2246 25.7288 22.107 25.6289C22.0065 25.5435 21.4759 25.5997 21.3456 25.5967C21.093 25.5909 20.8413 25.5796 20.5882 25.5606ZM33.9514 14.1492C33.9429 14.4282 33.8485 14.6705 33.8083 14.9482C33.7528 15.3314 33.6467 15.7036 33.5832 16.0856C33.4625 16.8117 33.2389 17.5222 33.0419 18.2303C32.8411 18.9522 32.774 19.6959 32.5896 20.4214C32.4375 21.0191 32.3598 21.6775 32.2749 22.292C32.069 23.7827 31.7755 25.2763 31.5521 26.7678C31.3427 28.1661 31.3217 29.5929 31.3337 31.0043C31.3411 31.866 31.4726 32.7252 31.4657 33.588C31.464 33.8013 31.4819 34.0139 31.4931 34.2269C31.5009 34.3771 31.4202 34.7936 31.4886 34.9195C31.5319 34.9992 31.7181 35.0726 31.784 35.1833C31.8882 35.3583 31.9102 35.5676 32.0776 35.7C32.2133 35.1527 32.1491 34.4303 32.1195 33.8718C32.0908 33.3336 32.1465 32.7774 32.1575 32.2309C32.1789 31.159 32.2357 30.1027 32.2907 29.0302C32.3509 27.854 32.5222 26.6493 32.6896 25.482C32.8418 24.4206 32.9433 23.3403 33.0629 22.2847C33.2485 20.9523 33.4746 19.5978 33.7276 18.2827C33.9834 16.9538 34.2908 15.637 34.6367 14.3131L33.9514 14.1492ZM42.7432 29.097C42.8103 29.322 42.908 29.9413 42.7275 30.1328C42.4908 30.3842 41.9426 30.3039 41.6364 30.3693C41.6822 30.4995 41.8185 30.5881 41.7714 30.7432C42.2004 30.7635 42.2763 31.1688 42.3435 31.5471C42.413 31.9385 42.2774 32.0941 42.6515 32.298C43.1729 32.582 43.7252 32.8689 43.715 33.5455C43.7098 33.8856 43.6718 34.3986 43.3225 34.5751C42.9808 34.7478 42.4245 34.7186 42.0479 34.7812C41.3187 34.9027 40.5869 35.0452 39.8532 35.118C39.072 35.1957 38.2779 35.2594 37.4954 35.2941C37.069 35.3131 36.7007 35.3775 36.289 35.234C35.8841 35.093 35.4881 34.99 35.0704 34.8852C34.6581 34.782 33.3958 34.6428 33.7636 33.9376C33.8225 33.8248 34.0236 33.7351 34.0561 33.6284C34.1085 33.4563 33.9315 33.322 33.9389 33.1664C33.9524 32.8819 34.2734 32.8462 34.4951 32.8462C34.1152 32.6086 34.624 32.3272 34.621 32.1255C34.616 31.7951 34.2338 31.5725 34.1598 31.3035L34.1598 31.3072C34.1304 31.2337 34.1337 31.1625 34.1656 31.0929L34.1647 31.1198C34.3741 30.6103 36.4107 31.2812 36.7421 31.4281C36.4696 31.8322 35.2053 31.4825 34.8287 31.4212C34.8801 31.5561 34.9292 31.6775 34.9441 31.8156C34.9561 31.9282 34.9131 32.0568 34.9525 32.1701C35.0146 32.3493 35.0125 32.315 35.2325 32.3638C35.3952 32.4 35.5562 32.4417 35.7184 32.48C35.9676 32.5388 36.3596 32.6965 36.6065 32.6879C36.8231 32.6804 36.7803 32.7475 36.82 32.507C36.8414 32.3777 36.8049 32.2403 36.7831 32.1137C36.7376 31.8483 36.6711 31.5971 36.9029 31.4067C37.1239 31.2251 37.5897 31.1386 37.8608 31.0746C38.4624 30.9325 39.1568 30.8976 39.7741 30.905C40.244 30.8652 40.7144 30.8342 41.1856 30.8177C41.7243 30.7988 41.3327 30.7127 41.3214 30.3842C40.6133 30.4971 39.8989 30.5194 39.193 30.6159C38.6082 30.696 37.9116 30.905 37.3151 30.7928C37.0337 30.7398 36.7464 30.7194 36.4472 30.6895C36.1648 30.6613 35.8984 30.5297 35.6195 30.497C35.3064 30.4603 34.9865 30.6363 34.675 30.6828C34.543 30.7026 34.5123 30.7921 34.45 30.6332C34.3853 30.4684 34.5705 30.3336 34.6434 30.2351C34.7286 30.12 34.6932 30.3069 34.7405 30.1271C34.7537 30.0767 34.7178 29.9502 34.7112 29.8959C34.6945 29.7587 34.6514 29.6098 34.6447 29.4728C34.6385 29.3471 34.6374 29.1551 34.774 29.0817C34.8573 29.0369 34.9164 29.1022 34.989 29.0896C35.556 28.991 36.223 28.9829 36.7981 29.0781C37.4215 29.1812 37.9581 28.9081 38.5726 28.7974C39.2934 28.6675 40.0218 28.648 40.7489 28.5931C41.3705 28.5462 42.5064 28.3029 42.7432 29.097ZM34.2834 33.2555C34.3987 33.4775 34.3472 33.7715 34.2087 33.9706C34.7083 34.1659 35.2387 34.2368 35.7426 34.4147C36.1931 34.5737 36.6114 34.7875 37.055 34.9492C37.0809 34.7434 37.0947 34.3949 37.0187 34.201C36.9112 33.9264 36.628 33.9196 36.3492 33.8218C35.6707 33.5838 34.957 33.5336 34.2834 33.2555ZM42.8342 33.2525C41.755 33.2842 40.7237 33.5353 39.6602 33.6906C39.1426 33.7661 38.6246 33.8336 38.1065 33.9041C37.9072 33.9312 37.5439 33.8992 37.399 34.0718C37.2789 34.2148 37.4105 34.7027 37.3572 34.9123C37.5753 34.9284 37.9626 34.7246 38.1993 34.6908C38.5679 34.6384 38.9317 34.565 39.3042 34.5416C39.8941 34.5045 40.4738 34.4729 41.0627 34.4072C41.6616 34.3404 42.2411 34.2164 42.8447 34.171C43.1381 34.1489 43.2562 34.204 43.2735 33.8942C43.2803 33.7731 43.2969 33.5703 43.2629 33.4509C43.3172 33.3041 43.269 33.2328 43.1184 33.237C43.0228 33.2262 42.9281 33.2314 42.8342 33.2525ZM41.363 32.6428C40.7764 32.7771 40.1746 32.7817 39.5871 32.9134C38.9798 33.0496 38.3645 33.1751 37.7459 33.2444C37.4514 33.2773 37.1353 33.3441 36.8443 33.2663C36.8207 33.2494 36.797 33.2325 36.7734 33.2157C36.7479 33.1074 36.6773 33.0785 36.5615 33.1289C36.4144 33.1009 36.2271 33.1371 36.079 33.1408C36.073 33.1999 36.6201 33.3854 36.7244 33.4314C36.9757 33.542 37.1462 33.6231 37.4146 33.5756C38.019 33.4689 38.6136 33.3414 39.2257 33.2626C40.4221 33.1539 41.6095 32.9159 42.8127 32.9159C42.7276 32.8309 42.5423 32.809 42.4364 32.7626C42.3157 32.7098 42.2018 32.5972 42.0838 32.551C41.8471 32.4584 41.6061 32.5871 41.363 32.6428ZM41.5942 31.2131C41.3178 31.2124 41.0316 31.2709 40.7563 31.2978C39.5063 31.4203 38.2626 31.4721 37.0264 31.7047C37.1016 32.0252 37.1871 32.3558 37.0971 32.6835C37.6901 32.7141 38.3411 32.5999 38.9207 32.4829C39.5131 32.3632 40.1416 32.3038 40.747 32.2638C41.0388 32.2365 41.3319 32.1972 41.6244 32.1808C41.6838 32.1774 41.9847 32.1955 42.0338 32.1403C42.1034 32.0623 42.0259 31.7769 42.0131 31.6886C41.9697 31.3883 41.9218 31.2138 41.5942 31.2131ZM34.9975 29.421C35.0063 29.5354 35.0129 29.6499 35.0171 29.7647C35.0638 29.947 35.2602 29.8641 35.4292 29.8841C35.6561 29.911 35.8818 29.9893 36.1015 30.0483C36.5006 30.1555 36.8997 30.2613 37.2971 30.3747C37.2814 30.2141 37.3169 29.8488 37.2321 29.7064C37.1431 29.5572 36.7212 29.4918 36.5248 29.4462C36.0295 29.3317 35.5006 29.3969 34.9975 29.421ZM41.2815 29.0135C40.4449 29.0356 39.594 29.1133 38.7686 29.2468C38.322 29.2488 37.85 29.4455 37.4093 29.4016C37.4027 29.4836 37.5437 29.4156 37.5827 29.4923C37.6659 29.4925 37.6949 29.5197 37.6694 29.5739C37.671 29.6109 37.6521 29.6326 37.6127 29.6388C37.5932 29.6406 37.5738 29.6422 37.5544 29.6439C37.4692 29.6466 37.4552 29.7041 37.5126 29.8164C37.488 29.9556 37.5249 30.1324 37.5303 30.2721C38.3222 30.1643 39.0916 30.0522 39.8892 30.0041C40.2657 29.9814 40.6419 29.9815 41.018 29.9505C41.4317 29.9164 41.8834 29.9895 42.2879 29.912C42.5041 29.8706 42.4814 29.8735 42.4657 29.5923C42.4561 29.4215 42.4596 29.2186 42.3206 29.094C42.0882 28.8859 41.5593 29.0062 41.2815 29.0135ZM6.51537 26.173C6.39518 26.2997 6.32471 26.5334 6.22385 26.6816C5.99391 27.0196 5.72084 27.2499 5.3641 27.4448C4.72218 27.7954 4.12404 28.066 3.4365 28.2952C3.05759 28.4216 2.7082 28.5988 2.33785 28.7381C2.04114 28.8497 1.63165 28.8837 1.40372 29.132C1.14656 29.4123 1.54184 29.5142 1.76154 29.7036C1.94156 29.8588 1.94507 29.8945 2.19131 29.8191C2.37477 29.7629 2.53741 29.6556 2.71359 29.5828C3.31705 29.3335 4.04744 29.1677 4.70264 29.0952C4.92658 29.1349 5.29134 29.0064 5.53564 28.9929C5.96285 28.9694 6.40279 28.9287 6.82131 28.8398C7.14874 28.7702 7.52186 28.709 7.69844 28.3921C7.85629 28.1088 7.91208 27.7541 7.9971 27.445C8.04224 27.2809 8.15873 27.0429 8.15873 26.8731C8.15873 26.6523 8.12895 26.6958 7.89874 26.575C7.60735 26.4221 7.32385 26.2091 7.00955 26.1224C6.91449 26.1038 6.81936 26.0856 6.72416 26.0677C6.601 25.9963 6.53147 26.0314 6.51537 26.173ZM28.8129 25.2008C28.6144 25.2247 28.4141 25.2442 28.218 25.284C27.9505 25.3384 27.9457 25.3298 27.9649 25.5923C27.9936 25.9864 27.956 26.3728 27.9356 26.7668C27.8949 27.5556 27.9942 28.3575 27.9282 29.1413C27.987 29.1563 28.0059 29.1154 27.9849 29.0187C27.9666 28.4332 28.2288 27.7293 28.3773 27.1559C28.5458 26.5061 28.6345 25.8434 28.8129 25.2008ZM39.6279 25.8409C39.861 25.8624 40.1231 25.9566 40.3529 25.9568C40.5871 25.9571 40.8325 25.9049 41.0743 25.9109C41.3555 25.918 41.6264 25.8972 41.9164 25.9434C42.1385 25.9788 42.6573 25.9974 42.8271 26.1625C43.3929 26.7129 42.0511 26.9657 41.8202 27.0275C42.0552 27.2849 42.0454 27.6252 42.01 27.9492C42.1219 27.9492 42.3147 27.9006 42.3726 28.026C42.4445 28.1818 42.1783 28.2222 42.1154 28.2404C41.7534 28.345 41.3297 28.3163 40.9566 28.3543C40.2107 28.4302 39.4739 28.474 38.7357 28.6153C38.376 28.6842 38.0184 28.7694 37.659 28.8364C37.5969 28.848 37.5345 28.8573 37.4718 28.8643C37.3756 28.8561 37.3445 28.9164 37.3785 29.0457C37.2787 29.0944 36.9067 28.973 36.7916 28.9544C36.1331 28.8476 35.544 28.892 34.8916 29.0507C34.6089 29.0501 34.9979 28.7286 35.049 28.6967C34.7359 28.6967 34.6601 28.5089 34.7508 28.2073C34.8363 27.9232 34.8995 28.0102 34.6845 27.7736C34.5227 27.5954 34.4982 27.4642 34.689 27.265C34.8831 27.0624 35.2763 27.1198 35.4483 26.9525C35.7412 26.6678 35.3633 26.1008 35.7691 25.8828C36.0434 25.7354 36.4856 25.7537 36.7884 25.7225C37.0811 25.6925 37.3841 25.6867 37.6788 25.6827C38.3211 25.6739 38.9884 25.7816 39.6279 25.8409ZM36.108 28.9863C35.9294 28.9874 35.7507 28.9885 35.5722 28.9896C35.7504 28.9562 35.9291 28.9558 36.108 28.9863ZM36.4294 28.9889C36.3222 28.9879 36.215 28.9869 36.108 28.9859C36.2155 28.9566 36.3227 28.9576 36.4294 28.9889ZM35.1286 27.6798C35.1727 27.8996 35.0711 28.0861 34.9214 28.2377H35.1485C35.5769 28.2358 35.9818 28.3975 36.4103 28.4394C36.6667 28.4645 36.5861 28.4963 36.764 28.625C37.0411 28.8256 37.1209 28.7188 37.0862 28.4462C36.9685 27.5243 35.8012 27.731 35.1286 27.6798ZM39.5598 27.4732C38.8117 27.5291 38.0773 27.6628 37.3239 27.6442C37.0619 27.625 37.2442 27.7422 37.3089 27.9137C37.3884 28.1244 37.3714 28.3908 37.3897 28.6126C38.1563 28.3202 39.0484 28.1491 39.8635 28.0507C40.25 28.0041 40.6422 27.9907 41.0309 27.9708C41.1458 27.9649 41.5608 28.013 41.6449 27.9357C41.7073 27.8782 41.6635 27.561 41.6035 27.491C41.2773 27.1108 40.0161 27.4391 39.5598 27.4732ZM39.7793 27.054C39.163 27.064 38.5461 27.099 37.9342 27.0862C37.6603 27.0805 37.3054 27.0262 37.0369 27.0729C36.8403 27.1071 36.6758 27.2073 36.4601 27.2445C36.7769 27.4151 36.9376 27.2998 37.2706 27.261C37.6035 27.2223 37.9412 27.223 38.2753 27.2028C38.8241 27.1696 39.409 27.0381 39.9497 27.0739C39.9595 26.9977 39.9028 26.9911 39.7793 27.054ZM35.7132 26.1664V26.6049C36.6172 26.5123 37.507 26.6795 38.4128 26.625C39.0917 26.6902 39.7472 26.684 40.4261 26.7857C40.3746 26.3542 40.4361 26.244 39.9466 26.2211C39.5104 26.2008 39.0755 26.1843 38.6413 26.1845C37.6648 26.1851 36.6907 26.1664 35.7132 26.1664ZM40.6586 26.2719C40.6944 26.4355 40.7303 26.599 40.7662 26.7625C41.3855 26.603 42.0138 26.5096 42.637 26.3752C41.9836 26.2657 41.3197 26.2387 40.6586 26.2719ZM15.3416 20.6158C15.6536 20.9212 16.121 21.0389 16.4962 21.24C16.8029 21.4044 17.2824 21.5099 17.4762 21.7807C17.6023 21.957 17.6656 22.2807 17.7608 22.4874C17.8662 22.7161 17.9634 22.9484 18.061 23.1806C18.159 23.4141 18.261 23.6478 18.3406 23.8884C18.3898 24.0376 18.4111 24.347 18.5274 24.4491C18.713 24.612 19.3343 24.6842 19.5844 24.7384C20.0515 24.8396 20.5842 24.8261 21.0606 24.8331C21.2574 24.836 21.4558 24.8629 21.644 24.8665C21.9081 24.8716 21.8829 24.8259 21.8792 24.5965C21.877 24.4588 21.8798 24.2084 22.064 24.3218C22.1895 24.3991 22.1031 24.7414 22.0799 24.863C23.1313 24.9678 24.2284 25.0204 25.2749 24.9854C26.3041 24.9509 27.2977 24.8182 28.3143 24.6984C28.5384 24.5697 28.9036 24.6044 29.1514 24.5504C29.4314 24.4895 29.713 24.3902 29.98 24.2867C30.2504 24.1819 30.5058 24.0747 30.7529 23.9436C30.8659 23.8836 31.0165 23.8245 31.1209 23.7414C31.205 23.6743 31.2357 23.5497 31.3133 23.4889C31.5157 23.3302 31.5752 23.4298 31.6023 23.1235C31.6318 22.7909 31.4452 22.6025 31.2129 22.3536C31.0049 22.1308 30.7347 21.9383 30.4734 21.7816C30.3578 21.7123 30.2343 21.6343 30.1163 21.5682C29.9378 21.4679 29.6986 21.3014 29.605 21.5164C29.8 21.5662 29.843 21.8153 29.667 21.9048C29.5703 21.954 29.424 21.8818 29.315 21.9341C29.1467 22.0147 28.9848 22.2399 28.8407 22.3611C28.3679 22.7592 27.9157 22.9084 27.2968 22.9404C26.0037 23.0071 24.6495 22.8596 23.3812 22.6679C23.0547 22.6186 22.7289 22.672 22.3994 22.6603C22.0788 22.6488 21.7446 22.5787 21.4295 22.5246C20.8225 22.4203 20.1828 22.3345 19.5852 22.1811C18.8626 21.9955 18.1375 21.7555 17.459 21.4447C16.8082 21.1465 16.0726 20.6538 15.3416 20.6158ZM33.4498 14.0388C33.2049 14.0995 33.1482 14.6605 33.074 14.8716C32.9377 15.2588 32.7892 15.6309 32.6141 16.0017C32.3359 16.591 32.0407 17.1595 31.7268 17.7308C31.3958 18.3334 31.0462 18.9129 30.6328 19.4632C30.497 19.6441 30.3126 19.7858 30.225 19.9841C30.0873 20.2961 30.0294 20.668 29.8979 20.9927C29.9906 21.0397 30.2298 21.0514 30.3434 21.0738C30.5547 21.1155 30.7027 21.1526 30.9056 21.253C31.2631 21.43 31.5635 21.6398 31.8023 21.9582C31.8623 21.7948 31.878 21.6156 31.8999 21.4426C32.1562 20.1844 32.3093 18.9049 32.6117 17.6557C32.7626 17.0325 32.8689 16.4008 33.0162 15.7775C33.0848 15.4875 33.1366 15.1947 33.2034 14.9053C33.271 14.6122 33.4166 14.3418 33.4498 14.0388ZM32.7887 14.2679C32.4251 14.4074 32.1576 14.6407 31.8351 14.8372C31.4441 15.0754 30.9855 15.2985 30.6346 15.5927C30.5062 15.7004 30.434 15.8862 30.2568 15.8983C30.1074 15.9085 29.8823 15.7407 29.7441 15.6733L29.731 15.6671C29.5017 15.5618 29.2827 15.4023 29.0523 15.3085C28.8629 15.2314 28.7791 15.2472 28.6152 15.0973C28.5233 15.6443 26.8514 15.133 26.5007 15.1246C26.1762 15.1169 25.731 15.1554 25.429 15.2858C25.1413 15.41 24.9163 15.6835 24.67 15.8699C24.3324 16.1254 24.0102 16.3838 23.7616 16.7375C23.4206 17.2225 23.9351 17.0852 24.2782 17.0559C25.0614 16.989 25.8233 17.1755 26.5783 17.3555C27.2532 17.5164 27.9197 17.7094 28.5658 17.9703C28.9291 18.1171 29.3115 18.252 29.6532 18.4427C29.8334 18.5433 30.1256 18.7896 30.3323 18.7186C30.5219 18.6535 30.7108 18.1101 30.8257 17.893C31.0489 17.4717 31.2837 17.0575 31.5142 16.6402C31.9495 15.8522 32.3807 15.0707 32.7887 14.2679ZM25.405 11.2765C25.2106 11.5312 24.9869 11.7624 24.7801 12.0066C24.4209 12.4306 24.0399 12.8818 23.6389 13.2742C23.1975 13.7061 22.8165 14.2269 22.5312 14.7798C22.4785 14.8819 22.1581 15.4832 22.2948 15.6012C22.4203 15.7094 23.1185 15.4569 23.2458 15.4273C23.7953 15.2998 24.419 15.2542 24.9382 15.0226C25.2027 14.9045 25.7864 14.7636 25.9954 14.581C26.1896 14.4112 26.1808 13.9999 26.0681 13.7606C25.7527 13.9568 23.4722 14.6972 23.6755 13.9967C24.0446 13.8799 24.3944 13.7568 24.7742 13.6772C25.1715 13.5938 25.1981 13.4984 25.4221 13.1577C25.5919 12.8994 25.7979 12.698 25.7498 12.3817C25.7189 12.1788 25.6078 12.0799 25.6413 11.8517C25.6619 11.7103 25.728 11.5559 25.7757 11.4214C25.8341 11.2564 25.9553 11.0692 25.6735 11.0611C25.5179 11.0566 25.5103 11.1387 25.405 11.2765ZM32.8784 10.1136C32.4184 10.0957 31.8326 10.4973 31.4279 10.6866C30.9749 10.8986 30.6838 10.9312 30.6791 11.4566C30.6745 11.9542 30.535 12.4499 30.4741 12.9395C30.4475 13.1534 30.4285 14.2642 30.0371 13.8543C29.8854 13.6953 29.9826 13.4508 29.9939 13.2546C30.0092 12.9848 30.0001 12.7108 30.0094 12.4402C30.0208 12.2149 30.0334 11.9897 30.0584 11.7653C30.0753 11.6147 30.2184 11.1777 30.1375 11.0454C30.0496 10.9015 29.7549 10.8923 29.6131 10.8578C29.3412 10.7915 29.0805 10.7372 28.8042 10.6934C28.5501 10.6532 28.3106 10.6448 28.0545 10.6331C27.7757 10.6205 27.7066 10.5465 27.6449 10.8538C27.5965 11.0954 27.5315 11.3471 27.5224 11.5945C27.5139 11.8268 27.5841 12.0283 27.3539 12.1848C27.8593 12.1848 28.5175 11.7349 28.9786 12.1372C29.6383 12.7126 28.4903 12.8783 28.1876 13.0053C28.4392 13.1276 28.8128 13.2237 28.9313 13.503C29.0642 13.8161 28.8713 13.9493 28.5761 13.9743C28.6039 14.095 28.7102 14.1734 28.7418 14.3185C28.7882 14.5313 28.6378 14.4608 28.8297 14.6254C29.0823 14.8421 29.6024 14.9869 29.9123 15.1249C29.9848 15.1574 30.0583 15.1878 30.1325 15.2163C30.2486 15.3196 30.3343 15.3 30.3897 15.1573C30.5486 15.0567 30.6901 14.8322 30.8311 14.7016C31.1448 14.4111 31.491 14.1561 31.8638 13.9463C31.7093 13.8823 31.5245 14.0269 31.3762 13.9565C31.2563 13.8996 31.3014 13.7961 31.2297 13.7186C31.2585 13.6175 31.2281 13.5805 31.1385 13.6077C31.0938 13.6125 31.0522 13.6049 31.0136 13.585C30.9386 13.492 30.905 13.4616 30.9 13.3181C30.8947 13.1658 30.9829 13.1121 31.0167 12.9902C31.1267 12.9152 31.1243 12.8415 31.0093 12.7693C30.962 12.692 30.9362 12.6082 30.9319 12.5177C30.91 12.1819 31.2166 12.0465 31.4503 11.8689C31.0318 11.8229 31.0477 11.3319 31.3374 11.1173C31.6376 10.8947 32.2732 10.9859 32.6362 11.036C32.7118 11.0464 32.9157 11.1438 32.992 11.0817C33.0389 11.0436 33.0058 10.7219 33.0079 10.6652C33.0129 10.5363 33.0442 10.3826 33.0236 10.2543C32.9807 9.98583 33.0717 10.1211 32.8784 10.1136ZM27.1825 12.6281C26.8013 12.8444 26.5094 13.2323 26.4534 13.6634C26.3883 14.1651 26.6427 14.5602 27.1437 14.6833C27.3527 14.7346 27.5071 14.7403 27.7004 14.8175C27.8276 14.8682 28.2392 14.9948 28.3264 14.8667L28.2505 14.8389C28.2588 14.7069 27.9173 14.7122 27.8537 14.5606C27.7247 14.2526 28.0188 14.308 28.1996 14.2762C28.1351 14.1049 26.9279 14.1673 27.2092 13.7049C27.4043 13.3842 28.1442 13.8751 28.3419 13.5703C28.4719 13.3701 28.1181 13.3425 27.9779 13.3225C27.7668 13.2922 27.2695 13.3899 27.2859 13.116C27.3065 12.7719 28.2732 12.5344 28.5444 12.4333C28.5144 12.1976 27.3508 12.5326 27.1825 12.6281ZM37.5578 9.85915C37.3258 9.88218 37.0922 10.0193 36.8737 10.092C36.5494 10.1999 36.1567 10.2591 35.8609 10.4315C35.6697 10.5431 35.6611 10.5636 35.6634 10.7582C35.6655 10.9395 35.7239 11.1606 35.8323 11.3025C36.0576 11.5969 36.4311 11.7527 36.7516 11.8996C36.937 11.9846 37.0972 12.105 37.2623 12.2222C37.4401 12.3486 37.7988 12.423 37.9349 12.567C38.3311 12.9863 37.6099 12.9034 37.4084 12.8908C36.9736 12.8634 36.5411 12.8676 36.103 12.8673C35.6249 12.8669 35.1506 12.8447 34.6792 12.8603C34.4031 12.8694 34.0863 12.7293 33.9074 12.4959C33.8209 12.3828 33.7871 12.276 33.6738 12.1586C33.5254 12.005 33.3963 11.8432 33.2158 11.7243C32.9204 11.5298 32.3835 11.4198 32.0318 11.4924C32.1578 11.51 32.75 11.7116 32.4893 11.965C32.4576 11.9959 32.0766 12.0161 31.9938 12.0541C31.8443 12.1227 31.656 12.2225 31.5683 12.3674C31.8235 12.3247 32.77 12.2752 32.2872 12.7648C32.1687 12.885 31.8284 13.005 32.1179 13.1328C32.1844 13.1622 32.3176 13.1206 32.4032 13.1471C32.5305 13.1865 32.6345 13.2919 32.7537 13.3481C33.0919 13.5076 33.5581 13.606 33.9111 13.571C34.3991 13.5226 34.9077 13.6098 35.3925 13.6737C36.0353 13.7721 36.6514 13.9759 37.2363 14.2497C37.5588 14.4006 37.9139 14.5628 38.2742 14.6231C38.6745 14.6901 39.099 14.6586 39.5079 14.6845C39.652 14.6936 40.0308 14.7636 40.1714 14.6788C40.3106 14.5949 40.2996 14.4525 40.3062 14.2829C40.3231 13.8466 40.1255 13.4193 39.9479 13.0278C39.7956 12.692 39.6804 12.4355 39.444 12.1466C39.1404 11.7755 38.876 11.3751 38.5917 10.9878C38.3774 10.6958 38.1607 10.408 37.9423 10.1164C37.786 9.90764 37.7934 9.83578 37.5578 9.85915ZM29.0957 7.98516C28.3901 7.98825 27.5295 8.34263 27.0394 8.8602C26.7797 9.1345 26.5651 9.50282 26.3455 9.811C26.1982 10.0178 26.0544 10.2173 25.8756 10.399C25.6148 10.6638 25.6895 10.7244 25.9832 10.9238C26.0762 10.7495 26.5692 9.81807 26.7758 9.85996C27.0898 9.92367 26.4834 10.9076 26.4172 11.0302C26.2211 11.3928 25.9043 11.8994 26.0466 12.2819C26.2344 12.7868 25.9622 13.0746 25.7257 13.5048C25.974 13.512 25.9985 13.4151 26.084 13.2034C26.1939 12.9313 26.3138 12.7039 26.5462 12.5157C26.7262 12.37 27.0205 12.3087 27.1051 12.1328C27.2096 11.9153 27.144 11.4859 27.1525 11.244C27.1654 10.8764 27.1663 10.0074 27.5714 9.84413C27.9957 9.673 28.7588 9.8343 29.1737 9.96105C29.1219 9.63711 28.9585 9.4255 28.9607 9.06554C28.9631 8.68873 29.0669 8.35253 29.0957 7.98516ZM34.5956 11.2829C34.515 11.521 34.1763 12.1038 34.4725 12.2521C34.5413 12.2866 34.8678 12.2465 34.9254 12.2237C35.0858 12.2655 35.1376 12.2055 35.0809 12.0433V11.7186C35.1001 11.5044 35.2805 11.1011 35.0727 10.9603C34.7819 10.7634 34.6615 11.088 34.5956 11.2829ZM35.6692 11.6247C35.5647 11.8082 35.5571 12.0171 35.5626 12.2226C35.8352 12.2086 36.1066 12.2695 36.3792 12.243C36.1425 12.0368 35.9059 11.8307 35.6692 11.6247ZM33.251 7.17133C32.9922 7.22353 32.242 7.28912 32.1166 7.47918C32.038 7.59838 32.0819 7.88959 32.0236 8.03533C31.9433 8.23616 31.8061 8.42231 31.6961 8.60778C31.2944 9.28455 30.8859 9.96569 30.1986 10.3532L30.5413 10.6219C30.9095 10.2893 31.3448 10.0225 31.7995 9.82474C32.2063 9.64788 32.7115 9.45076 33.164 9.48147C33.7277 9.51966 33.4921 9.97378 33.4901 10.3605C33.4875 10.8736 33.2626 11.6128 33.8753 11.879C34.0753 11.1685 34.4969 9.48841 35.5068 10.4194C35.7649 9.73624 36.6854 9.50504 37.3336 9.37957C37.2161 9.03442 36.8592 8.722 36.6119 8.46291C36.3025 8.13884 36.0582 7.759 35.7482 7.44106C35.1358 6.81318 34.0263 7.01482 33.251 7.17133ZM28.2402 1.91167C28.2934 2.18719 28.1913 2.46028 28.1896 2.73526C28.4826 2.65599 28.6841 2.65431 28.9732 2.79527C29.111 2.86234 29.6297 3.24306 29.3669 3.42617C29.1539 3.3003 28.9261 3.19113 28.6888 3.11712C28.5951 3.08789 28.4783 3.04815 28.3787 3.04613C28.1475 3.04149 28.1801 3.06566 28.0933 3.23996C28.0096 3.40785 28.0276 3.84574 27.8439 3.95296C27.654 4.06381 27.8005 3.90865 27.6383 3.94447C27.5458 3.96495 27.445 4.03371 27.3603 4.07257C27.4764 4.19851 27.7105 4.31347 27.7875 4.45335C27.8997 4.65727 27.8608 5.07907 27.8784 5.30219C28.0253 5.24959 28.18 5.24743 28.329 5.20837C28.469 5.1716 28.6631 5.01246 28.6777 5.24642C28.6941 5.50712 28.2819 5.57629 28.0969 5.57629L27.8761 5.55575C27.8871 5.71078 27.8544 5.96185 27.9637 6.04274C28.0465 6.10402 28.2142 6.08388 28.3145 6.10348C28.6436 6.1678 29.0249 6.22161 29.3515 6.10442C29.4785 6.0589 29.397 5.98758 29.5717 6.01721C29.7823 6.05297 29.7054 6.08631 29.7662 6.21764C29.813 6.31899 29.8371 6.49147 29.8903 6.61316C29.9614 6.77601 30.1056 7.06742 30.0439 7.25545C29.984 7.43823 29.7605 7.49346 29.6655 7.70048C29.5948 7.85437 29.6115 8.07809 29.5748 8.24761C29.5258 8.47369 29.4639 8.6989 29.4366 8.92916C29.4021 9.21922 29.4139 9.55959 29.7734 9.60458C30.1069 9.6464 30.3454 9.53919 30.5691 9.29627C30.9963 8.83251 31.4841 8.17783 31.7351 7.59448C31.7644 7.52632 31.8365 7.41257 31.8265 7.33964C31.8066 7.19531 31.7979 7.34139 31.7522 7.24117C31.7085 7.14534 31.64 7.05839 31.5997 6.95205C31.4548 6.56999 31.352 6.16955 31.294 5.76513C31.2676 5.58195 31.2588 5.40099 31.2633 5.21598C31.2648 5.15281 31.3027 4.96316 31.2801 4.91993C31.257 4.87608 31.1369 4.85588 31.0994 4.81237C31.0299 4.73176 30.9106 4.50413 30.8337 4.44378C30.739 4.36963 30.5273 4.42836 30.4888 4.28087C30.4273 4.04482 31.8829 3.66034 31.2029 3.34536C30.6952 3.11018 29.9164 4.29899 29.7389 3.36354C29.7081 3.2015 29.7667 2.98155 29.6956 2.83305C29.6171 2.66892 29.4032 2.60757 29.2539 2.5277C29.0633 2.42587 28.8707 2.32121 28.6855 2.20968C28.5584 2.13325 28.3754 1.93026 28.2402 1.91167ZM41.5187 30.7844C41.4721 30.8314 41.4123 30.8036 41.358 30.8066C41.4115 30.7992 41.4651 30.7918 41.5187 30.7844ZM35.1437 29.0704C35.0729 29.1038 35.0015 29.1084 34.9294 29.0727C35.0009 29.0719 35.0723 29.0712 35.1437 29.0704ZM27.9486 28.8429C27.9779 28.9155 27.9957 28.957 28.0061 28.9796L28.0064 28.9804C28.0039 28.9799 28.0025 28.9835 28.003 28.9946C27.9032 29.008 27.885 28.9574 27.9486 28.8429ZM32.3437 28.6822C32.3409 28.7358 32.3381 28.7893 32.3353 28.8429C32.3163 28.7875 32.307 28.7329 32.3437 28.6822ZM40.983 25.91C41.0544 25.9101 41.1258 25.9103 41.1972 25.9104C41.1257 25.9475 41.0543 25.9428 40.983 25.91ZM24.108 24.9449C24.1795 24.9453 24.2508 24.9456 24.3222 24.9459C24.2505 24.9804 24.1791 24.9838 24.108 24.9449ZM35.4115 13.6693L35.1972 13.6489C35.2691 13.6533 35.3481 13.6187 35.4115 13.6693ZM15.2687 37.2389C15.1972 37.2387 15.1257 37.2387 15.0544 37.2386C15.1259 37.2017 15.1972 37.2122 15.2687 37.2389ZM42.0544 32.1236C41.9711 32.1759 41.8758 32.1372 41.7865 32.144C41.8758 32.1372 41.9651 32.1304 42.0544 32.1236ZM39.858 34.5065L39.6437 34.5058C39.7152 34.4797 39.7868 34.4707 39.858 34.5065ZM41.8401 34.2667C41.7734 34.3135 41.6981 34.2865 41.6258 34.2848L41.8401 34.2667ZM42.483 29.8742C42.43 29.912 42.3764 29.9067 42.3222 29.8768L42.483 29.8742ZM37.3939 29.3869C37.4295 29.3891 37.4651 29.3914 37.5008 29.3937C37.4828 29.4377 37.3882 29.4321 37.3939 29.3869ZM35.4651 28.238L35.1972 28.239C35.2864 28.2033 35.3757 28.2102 35.4651 28.238ZM39.8044 27.0821C39.8047 27.0821 39.5445 27.1226 39.5301 27.1215L39.4294 27.0867L39.8044 27.0821ZM39.9651 27.0624L39.8173 27.0541L39.8222 27.0532C39.8642 27.044 39.9656 27.0105 39.9651 27.0624ZM44.8397 35.5393C44.7683 35.5312 44.697 35.5232 44.6258 35.5152C44.683 35.4114 44.8493 35.3895 44.8397 35.5393ZM45.7379 34.7619C45.9106 34.7933 46.1696 34.9364 45.9062 35.1218C45.752 35.2304 45.3038 35.0972 45.1163 35.0919C44.8695 35.0775 44.5238 35.0102 44.8976 34.835C45.1348 34.7241 45.4875 34.7163 45.7379 34.7619ZM24.646 23.9143C24.7594 24.038 25.2702 24.4572 24.9887 24.6257C24.6424 24.833 24.3788 24.1487 24.646 23.9143ZM26.6991 23.9818C26.7376 24.0799 26.9353 24.3187 26.8857 24.4231C26.8121 24.5779 26.6361 24.4792 26.5406 24.3787C26.3731 24.2024 26.385 23.9197 26.4833 23.7184C26.7079 23.628 26.6652 23.8956 26.6991 23.9818ZM20.4461 23.3798C20.5594 23.4629 20.7464 23.8841 20.7322 24.0267C20.7147 24.2027 20.6345 24.2728 20.4689 24.2169C20.2784 24.1524 20.2029 23.8276 20.1972 23.6505C20.2553 23.4138 20.2395 23.2285 20.4461 23.3798ZM28.651 23.6531C28.7221 23.7495 28.7955 23.7105 28.759 23.8695C28.7271 24.0083 28.5996 24.0214 28.4903 24.0214C28.3558 23.7625 28.3226 23.2081 28.651 23.6531ZM25.4887 23.2179C25.835 23.3854 25.3478 24.1213 25.0331 23.9391C24.6301 23.7059 25.3463 23.3229 25.4887 23.2179ZM23.0601 23.9664C22.8729 23.9664 22.426 23.4266 22.6886 23.3361C23.0145 23.2237 23.287 24.0061 23.0601 23.9664ZM29.5298 23.1107C29.7013 23.153 29.9282 23.6385 29.6698 23.6948C29.3837 23.7572 29.3327 23.245 29.5298 23.1107ZM19.2271 22.909C19.5733 23.014 19.0312 23.535 18.8407 23.5929C18.7281 23.375 18.8831 22.8049 19.2271 22.909ZM21.4071 22.6822C21.5442 22.8884 21.5037 23.5354 21.2173 23.1528C21.0956 22.9901 21.1794 22.6899 21.4071 22.6822ZM30.6346 22.2132C31.1143 22.2132 30.905 22.7238 30.5051 22.7353C30.3213 22.7405 30.0569 22.7043 30.1165 22.4583C30.1483 22.327 30.6145 22.15 30.6346 22.2132ZM28.4712 3.86837C28.2541 3.96508 28.2813 3.34584 28.2966 3.24097C28.5625 3.17232 28.6263 3.79926 28.4712 3.86837Z" fill="#010101"/>
</g>
<defs>
<clipPath id="clip0_405_2924">
<rect width="48" height="38.4" fill="white" transform="translate(0.75)"/>
</clipPath>
</defs>
</svg>
