<svg width="120" height="96" viewBox="0 0 120 96" fill="none" xmlns="http://www.w3.org/2000/svg">
<path fill-rule="evenodd" clip-rule="evenodd" d="M80.0898 35.6788C79.0672 37.6781 77.9869 39.6243 76.8961 41.5872C76.3185 42.6263 74.4561 46.9242 73.9751 47.0884C73.4571 47.2651 70.2841 45.3993 69.3735 45.0338C67.7552 44.3842 66.2176 43.7692 64.5273 43.3687C62.6345 42.9202 60.7267 42.5895 58.7634 42.7562C57.9036 42.8293 56.4803 43.0372 57.3349 41.8292C57.9579 40.9483 58.5613 40.1372 59.4075 39.5008C60.0234 39.0376 60.9261 38.1878 61.6472 37.8784C62.4037 37.5537 63.5195 37.6256 64.3326 37.6447C65.2115 37.6655 69.401 38.9727 69.6315 37.6103C70.0588 37.9991 70.3077 37.8487 70.7973 38.0386C71.3492 38.2526 71.6932 38.6681 72.2413 38.919C72.5968 39.0818 73.2522 39.7256 73.6475 39.7294C74.1729 39.7346 74.3143 39.2996 74.6917 38.9783C75.537 38.2586 76.6626 37.785 77.5799 37.1597C78.3875 36.6088 79.1566 36.0347 80.0898 35.6788ZM70.8858 19.8752C70.8139 20.7879 71.0602 21.636 71.0543 22.5751C71.0518 22.985 71.0332 23.3946 71.1576 23.7894C71.2693 24.1434 71.1912 24.7792 71.2506 25.1498C70.2051 24.8316 68.2628 24.3596 67.1953 24.7887C66.1749 25.1991 66.0465 27.0964 66.0105 28.0192C65.986 28.6482 66.2653 29.6171 66.0536 30.2193C65.9549 30.5002 65.9541 30.5908 65.9603 30.6161L65.9611 30.6188C65.9409 30.6084 65.859 30.6086 65.57 30.8171C65.2835 31.0236 64.9416 31.1376 64.6584 31.3656C64.1436 31.781 64.0553 32.2517 63.8013 32.8537C63.5545 33.4384 62.897 33.9581 62.1631 33.9369C62.753 32.8676 63.5722 31.869 63.1021 30.6131C62.7475 29.6652 63.3691 28.5529 63.8581 27.6525C64.02 27.3542 65.8148 25.0695 65.0195 24.9085C64.5031 24.8038 63.3178 27.229 63.0909 27.6525C62.4584 27.2248 62.1743 26.6977 62.6612 26.0536C63.0351 25.559 63.4941 25.136 63.8581 24.6239C64.449 23.7926 65.0249 22.8005 65.7267 22.0621C66.9593 20.7657 69.1109 19.8831 70.8858 19.8752ZM87.4506 18.4587C88.2382 19.2132 89.2345 19.8391 89.9956 20.631C90.6619 21.3242 91.5591 22.4903 91.8756 23.4164C90.2515 23.7294 87.5531 24.6881 86.9064 26.3925C84.3806 24.0739 83.4035 28.3128 82.9023 30.0854C81.4241 29.4457 81.7189 27.3162 81.7385 26.0729C81.7537 25.0866 82.3544 23.9192 80.9223 23.8384C79.8521 23.7783 78.8128 24.2141 77.8476 24.6222C76.6432 25.1315 75.3798 25.8933 74.407 26.7684L73.3934 25.9793C75.0561 25.0458 75.9228 23.261 76.8961 21.6267C77.2065 21.1056 77.6212 20.5263 77.8476 19.9631C78.0042 19.5736 78.1145 18.7875 78.2861 18.4412C78.5562 17.8968 81.1942 17.747 81.8931 17.6067C83.7379 17.2363 85.943 17.0144 87.4506 18.4587Z" fill="#952F1F"/>
<path fill-rule="evenodd" clip-rule="evenodd" d="M74.7594 1.12558L74.726 1.11989C75.1919 1.19397 75.388 1.37092 75.7821 1.56926C76.1611 1.76002 76.5456 1.81221 76.9573 1.93495C77.3236 2.04422 77.6448 2.09945 77.8922 2.41867C78.0879 2.67122 78.0083 3.09602 78.2058 3.31371C78.4007 3.52821 78.7863 3.49707 79.0185 3.75181C79.2415 3.99628 79.3749 4.40036 79.4908 4.7046C79.6475 5.1144 79.6658 5.26829 79.9415 5.59627C80.1819 5.88249 80.528 6.11265 80.7286 6.43912C81.2012 7.20872 81.2134 8.32163 81.0625 9.18738C81.0113 9.48219 80.5839 10.2442 80.6508 10.4951C80.7145 10.7338 81.1152 10.671 81.2966 10.8221C81.4534 10.9525 81.5913 11.5339 81.715 11.5694C81.9821 11.646 82.3115 11.1186 82.514 11.0394C82.8657 10.9019 83.0129 10.7608 83.2078 11.2792C83.3521 11.6639 83.151 12.186 83.0451 12.5532C82.9103 13.0206 82.7614 13.5834 82.4044 13.9369C81.9846 14.3524 81.6486 14.1253 81.1854 14.349C80.4913 14.6844 80.6961 15.733 79.842 16.0327C79.0281 16.3182 78.1314 15.4198 77.5158 15.0068C77.6433 16.0095 78.1233 16.9755 77.8929 18.0031C79.7649 17.2697 81.6163 16.2288 83.6563 15.9995L83.8692 15.9755C84.8395 15.8663 85.8143 15.7734 86.7294 16.1758C87.8787 16.6812 88.583 17.7962 89.3609 18.7225C90.8231 20.4636 92.3233 22.1559 93.7267 23.953C95.0139 25.6015 96.0991 27.5116 97.5159 29.0552C98.9525 30.6205 100.037 33.1602 99.8794 35.3278C99.8652 35.5234 99.7136 35.9679 99.7374 36.1789C99.7559 36.3405 99.9028 36.5454 99.9004 36.6757C99.8925 37.1143 99.7475 37.3669 99.3294 37.6101C98.6047 38.0322 97.5247 38.2459 96.7056 38.3506C95.6174 38.4899 94.2846 38.5048 93.1958 38.3562C92.0729 38.2026 91.0859 37.5741 90.0532 37.1943C89.1474 36.8609 88.2377 36.6528 87.2859 36.4402C86.7609 36.3228 86.1796 35.998 85.8552 36.3124C85.5572 36.6013 85.4954 38.0836 85.426 38.4777C84.673 42.7499 83.7781 46.8772 82.9854 51.1277C82.0872 55.9453 81.4729 60.7612 80.8482 65.6197C80.4906 68.401 80.2846 71.2021 80.1494 73.9971L80.1491 73.9822C80.154 74.1609 80.1589 74.3394 80.1636 74.5179C80.1589 74.3442 80.1541 74.1704 80.1494 73.9971C80.0698 75.6403 80.0148 77.2814 79.9678 78.915C79.9072 81.0198 79.8984 83.102 79.9112 85.2086C79.9185 86.3882 80.5081 90.3258 78.7595 90.4765C77.7319 90.5654 76.9098 89.092 76.6344 88.2885C76.2207 87.0814 76.0053 85.7814 75.9393 84.5132C75.8059 81.946 75.6309 79.3769 75.5273 76.8086C75.4151 74.0261 75.5578 71.1924 75.7865 68.419C76.0167 65.6271 76.5968 62.876 76.7747 60.0799C76.2409 60.8416 76.0701 60.9847 75.1811 61.3164C74.2509 61.6638 73.356 62.0746 72.4173 62.3984C72.098 62.5085 71.5996 62.5775 71.3379 62.7578C70.8548 63.0905 71.1721 62.713 71.0178 63.3606C70.8531 64.0524 70.8221 64.883 70.7783 65.5938C70.5727 68.93 69.6485 72.2425 69.2222 75.561C69.1193 76.3622 69.2661 79.7636 67.8872 78.6916C66.8252 77.8661 66.8463 75.2731 66.6952 74.0585C66.4941 72.4395 66.6061 70.7748 66.6379 69.146C66.6741 67.291 66.7053 65.3453 67.1479 63.534C66.356 63.3985 65.2544 63.7677 64.4572 63.8298C63.767 63.8835 63.0791 63.9177 62.3928 63.9554C60.7559 64.0453 59.0699 64.1171 57.4055 64.0849C57.1025 64.079 55.1229 63.8019 54.8699 64.0253C54.7877 64.0979 54.7626 65.0959 54.7473 65.2178C54.689 65.6765 54.61 66.1346 54.5511 66.5907C54.3631 68.0486 54.1933 69.6141 54.2472 71.0715C54.2888 72.8301 54.2253 74.5991 54.2629 76.3658C54.303 78.2525 54.545 80.1015 54.6604 81.9692C54.764 83.6431 54.99 85.2852 55.1736 86.9512C55.2792 87.9107 55.401 88.8283 55.5633 89.7806C55.7154 90.6718 55.7414 91.4571 54.676 91.6966C52.6392 92.1549 52.3227 89.2247 51.9291 87.99C51.3414 86.1474 50.9646 84.213 50.6734 82.3029C50.5115 81.24 50.3335 80.1814 50.1562 79.1238L50.1553 79.3393L50.1561 79.1232C49.7399 76.6416 49.3266 74.1654 49.1294 71.65C48.9562 69.4408 48.7051 67.2542 48.5626 65.0471C48.5347 64.6146 48.645 63.9482 48.2652 63.7556C48.0366 63.6399 47.4075 63.6389 47.1192 63.555C46.3157 63.3214 45.5746 62.9772 44.7908 62.6201C45.3471 65.5292 45.5308 68.4237 45.9482 71.3582C46.1695 72.9153 46.5933 74.5287 46.9605 76.0614C47.341 77.6494 47.4255 79.3594 47.8645 80.9129C48.0578 81.5976 48.2215 81.8766 47.9409 82.5794C47.5967 83.4421 47.8251 83.6485 48.2567 84.4957C49.0507 86.0545 49.6569 87.8941 49.5224 89.6513C49.4125 91.0865 48.3282 91.8377 46.9849 92.225C45.3046 92.7092 43.5452 92.652 41.8548 93.2018C40.382 93.6808 38.8857 94.0348 37.4555 94.6671C36.8788 94.9221 36.3309 95.2246 35.6905 95.2714C34.8123 95.3352 34.2201 94.8256 33.3906 94.7193C32.8722 94.6532 32.113 94.9005 31.8144 94.357C31.5776 93.9262 31.8456 92.986 32.1428 92.6392C32.9778 91.6645 34.6498 90.8152 35.7758 90.2401C37.0735 89.5772 38.3292 88.7475 39.5316 87.892C40.2604 87.3733 41.0037 86.8756 41.732 86.356C42.2137 86.012 42.3968 86.0099 42.3476 85.4635C42.3084 85.0278 42.112 84.6052 42.0776 84.159C42.0514 83.8172 42.1711 83.3513 42.0096 83.1283C41.8909 82.9638 41.4448 82.8478 41.2695 82.7232C40.6283 82.2686 40.4826 81.7062 40.1914 81.0147C39.5299 79.4442 38.77 77.9178 38.1313 76.3346C36.7599 72.9355 35.9231 69.3612 34.7862 65.8927C33.6247 62.349 32.5862 58.629 31.9464 54.9525C31.0905 55.2129 30.2827 56.3656 29.601 56.9359C28.68 57.7066 27.7365 58.452 26.8334 59.2438L26.5641 59.4795C25.1723 60.696 23.78 61.8986 22.6308 63.3589C22.0415 64.1076 21.5589 64.9134 21.0253 65.7C20.7171 66.1545 20.4297 66.6688 20.0959 67.1012C20.0423 67.1706 20.0408 67.313 19.983 67.3721C19.8559 67.5019 19.6132 67.329 19.5316 67.4145C19.0287 67.9405 19.0353 69.4339 18.8785 70.1279C18.6625 71.0844 18.42 72.1842 17.6732 72.8434C16.5196 73.8615 14.3921 74.0192 12.9321 74.0721C11.0585 74.14 9.24095 74.6621 7.46331 75.2229C6.63412 75.4844 5.82666 75.7903 4.99443 76.0442C4.51575 76.1905 3.96969 76.482 3.4585 76.4259C2.84204 76.3584 2.35527 75.8396 1.9037 75.4541C1.1813 74.8373 0.512453 74.2294 0.535747 73.2175C0.561803 72.1463 1.14205 71.3378 2.05613 70.8058C3.82332 69.7771 5.79988 69.1177 7.70468 68.4069C8.43466 68.1343 9.05954 67.8328 9.75753 67.4659C10.7437 66.9473 11.8789 66.524 12.7539 65.8394C13.012 65.6374 13.9601 65.0185 14.0409 64.6993C14.0515 64.6577 13.8146 64.1703 13.8135 64.093C13.8112 63.8941 13.9289 63.6788 14.0013 63.5086C14.4571 62.4371 15.2216 61.4053 15.8061 60.395C16.8765 58.5443 17.9509 56.6838 19.1919 54.9432C21.6665 51.473 24.4463 48.0752 27.4466 45.0459C28.9093 43.5692 30.1732 41.8941 31.6564 40.4377C32.2441 39.8609 32.8644 39.3911 33.5885 39.0167C34.3956 38.5993 35.3016 38.5175 36.2268 38.39C38.4688 38.0814 40.3411 38.7446 42.446 39.3218C44.4359 39.8673 46.4279 40.3274 48.4289 40.8957C50.6264 41.5196 52.8014 42.1182 54.992 42.7982C56.1625 43.1616 57.3666 43.3846 58.5426 43.7333C59.1088 43.901 61.2496 44.9523 61.7217 44.607C60.2345 43.9091 58.7108 43.273 57.1197 42.8518C56.6511 42.7278 56.3518 42.8651 56.3691 42.327C56.3787 42.0335 56.7085 41.6373 56.8273 41.3957C57.1116 40.8174 57.4334 40.2522 57.7117 39.6721C56.703 39.9585 53.9915 40.9499 53.2314 39.925C52.4359 38.8524 53.1 36.7493 53.5986 35.699C54.9001 32.9573 57.1136 30.6694 59.2704 28.6027C59.7369 28.1558 60.7426 27.5723 60.9912 27.0032C61.0669 26.8301 60.9023 26.5759 61.0729 26.3511C61.1743 26.2174 61.5818 26.126 61.7446 25.9819C61.7923 25.9397 61.8391 25.8938 61.8852 25.8447C61.9352 25.5814 62.0399 25.3585 62.2769 25.2322C62.1704 25.4095 62.064 25.5869 61.9575 25.7644C62.4528 25.1922 62.8611 24.2678 63.2206 23.6639C63.6498 22.9432 64.0365 22.1626 64.5758 21.5159L64.6627 21.4117C65.5182 20.3858 66.4154 19.3293 67.7971 19.0901C68.4976 18.9688 69.2417 19.0335 69.9131 18.7916C70.7251 18.4989 71.4967 18.0379 72.3166 17.7349C72.1131 17.3167 71.9482 16.6516 71.5536 16.606C71.1736 16.5619 70.6163 16.8885 70.1814 16.8861C69.5462 16.8826 69.0041 16.7811 68.3911 16.66C67.7127 16.5258 67.4892 16.5503 67.2419 15.8143C66.9825 15.0434 67.0479 14.148 67.0501 13.3472C67.0511 12.9559 67.1287 12.4702 67.0954 12.0862C67.0454 11.5075 66.9328 11.4853 66.4793 11.1172C65.9125 10.6574 65.2138 10.0489 65.9081 9.25001C66.2832 8.81832 67.0541 9.15404 67.3864 8.69019C67.7248 8.21775 67.7085 7.03093 67.8116 6.47599C66.7683 6.98884 67.1508 5.07164 67.1506 4.61031C67.1505 3.93903 66.7006 2.73184 67.3482 2.17336C67.6492 1.91408 67.8727 2.12858 68.2168 1.97957C68.6094 1.80952 68.8567 1.36352 69.2744 1.1906C70.1046 0.846796 70.9523 1.26081 71.8047 1.19245C72.66 1.12397 73.502 0.999707 74.3575 1.07467C74.4946 1.05739 74.6343 1.00868 74.7594 1.12558ZM113.085 84.2966C114.159 84.5108 115.274 84.7921 116.298 85.1894C117.362 85.6024 118.314 85.6886 118.569 86.8949C119.113 86.6396 119.523 86.6025 119.458 87.3526C119.439 87.573 119.279 87.8127 119.24 88.0399C119.184 88.375 119.283 88.7283 119.227 89.0642C119.023 90.2858 117.376 91.1906 116.355 91.6703C115.097 92.2617 113.473 93.1356 112.068 93.251C110.57 93.3741 108.939 92.786 107.452 92.7317C107.178 92.468 106.353 92.4796 106.009 92.3991C105.332 92.2409 104.666 92.0766 103.98 91.9578C102.866 91.7653 101.108 91.6791 100.987 90.2349C100.886 89.0349 102.337 88.7501 103.185 88.3435C104.46 87.7318 105.761 87.1674 107.069 86.628C108.295 86.1225 109.539 85.695 110.788 85.258C111.031 85.1728 111.229 85.1846 111.428 84.9897C111.585 84.8359 111.536 84.5373 111.708 84.3766C112.102 84.0086 112.612 84.2022 113.085 84.2966ZM42.6717 83.4855C43.2247 84.5178 44.3877 86.0282 43.5529 87.2229C43.241 87.6693 42.7221 87.7966 42.2585 88.023C41.6975 88.2971 41.1796 88.6482 40.6492 88.9748C38.4621 90.3214 36.2394 91.687 33.935 92.8425C34.6564 93.0754 35.7656 93.2365 36.5086 93.0336C37.3738 92.7973 38.1749 92.2548 39.0632 92.0175C40.6567 91.5923 42.3342 91.2301 43.9531 91.0119C45.2765 90.8336 48.5891 91.2365 48.4282 89.2462C48.2754 87.3566 47.1468 85.5539 46.8109 83.6859C45.9868 83.8689 45.2005 83.8369 44.3586 83.8502C43.7963 83.7285 43.2339 83.6069 42.6717 83.4855ZM111.333 86.1017C108.959 87.4547 106.302 88.3854 103.801 89.4835C104.536 90.13 106.187 90.1578 107.105 90.3639C107.775 90.5142 108.412 90.7198 109.054 90.9578C109.652 91.1797 110.614 91.69 111.244 91.7069C111.776 91.7213 112.209 91.1979 112.667 90.9159C113.269 90.5449 113.869 90.1804 114.476 89.8187C115.761 89.0532 116.962 88.1151 118.181 87.2513C117.601 86.7533 117.026 86.8043 116.308 86.6533C115.648 86.5143 115.006 86.2749 114.347 86.1156C113.83 85.9907 113.317 85.8216 112.802 85.7035C112.074 85.5366 112.002 85.7203 111.333 86.1017ZM118.596 88.6132C117.534 89.4488 116.547 90.2373 115.397 90.9634C116.21 90.9381 118.913 89.6417 118.596 88.6132ZM49.5936 63.9015C49.5936 65.0242 50.0322 66.2991 50.236 67.4096C50.426 68.4456 50.5821 69.4873 50.7389 70.528C51.0783 72.7816 51.1748 75.0663 51.5434 77.326C51.8772 79.3748 52.3176 81.4151 52.5605 83.4636C52.6938 84.5882 52.9634 85.649 53.173 86.7729C53.2824 87.359 53.6814 89.7727 54.184 90.0101C54.2903 89.1442 53.8563 88.0986 53.7785 87.2231C53.6983 86.3192 53.6361 85.4091 53.4896 84.5005C53.3175 83.4337 53.2306 82.3405 53.1645 81.2606C53.1243 80.5997 53.112 79.9409 53.0549 79.2805C53.0136 78.8014 52.8322 78.0752 52.9624 77.6053C52.9518 74.576 52.9088 71.5208 52.9585 68.514C52.9722 67.679 53.0402 66.7783 53.1613 65.9497C53.2373 65.429 53.6846 64.322 53.3906 64.0723C53.1393 63.8588 51.8127 63.9994 51.4871 63.9918C50.8557 63.9771 50.2262 63.949 49.5936 63.9015ZM83.0014 35.373C82.9802 36.0704 82.7444 36.6762 82.6439 37.3704C82.5051 38.3286 82.2398 39.259 82.081 40.2139C81.7793 42.0293 81.2203 43.8056 80.7278 45.5758C80.2259 47.3805 80.0581 49.2398 79.5969 51.0536C79.2168 52.5479 79.0226 54.1938 78.8103 55.73C78.2954 59.4568 77.5618 63.1909 77.0034 66.9195C76.4798 70.4153 76.4272 73.9822 76.4574 77.5107C76.4759 79.6649 76.8045 81.813 76.7873 83.9701C76.7831 84.5033 76.8279 85.0348 76.8557 85.5672C76.8752 85.9428 76.6734 86.984 76.8446 87.2987C76.9529 87.4979 77.4183 87.6816 77.583 87.9582C77.8436 88.3958 77.8985 88.9189 78.317 89.2501C78.6562 87.8818 78.4959 86.0759 78.4218 84.6794C78.35 83.334 78.4893 81.9435 78.5168 80.5773C78.5703 77.8974 78.7123 75.2567 78.8498 72.5755C79.0003 69.6351 79.4287 66.6232 79.847 63.7049C80.2275 61.0514 80.4814 58.3508 80.7803 55.7117C81.2442 52.3808 81.8094 48.9945 82.4421 45.7068C83.0815 42.3845 83.8502 39.0924 84.7149 35.7827L83.0014 35.373ZM104.981 72.7424C105.149 73.3049 105.393 74.8533 104.942 75.3319C104.35 75.9604 102.979 75.7598 102.214 75.9232C102.329 76.2488 102.669 76.4703 102.552 76.8581C103.624 76.9088 103.814 77.9219 103.982 78.8678C104.156 79.8463 103.816 80.2353 104.752 80.7449C106.055 81.4551 107.436 82.1723 107.41 83.8637C107.398 84.7141 107.302 85.9966 106.429 86.4378C105.575 86.8694 104.184 86.7965 103.243 86.9531C101.42 87.2567 99.5903 87.6129 97.7562 87.7951C95.8032 87.9893 93.8177 88.1486 91.8615 88.2353C90.7956 88.2828 89.8748 88.4438 88.8455 88.0851C87.8334 87.7325 86.8433 87.475 85.7991 87.2131C84.7682 86.955 81.6125 86.607 82.5321 84.8441C82.6792 84.562 83.1821 84.3377 83.2633 84.071C83.3943 83.6407 82.9518 83.3049 82.9703 82.9161C83.0041 82.2048 83.8066 82.1155 84.3608 82.1155C83.411 81.5214 84.683 80.818 84.6754 80.3137C84.6631 79.4877 83.7075 78.9312 83.5225 78.2587L83.5225 78.2679C83.4491 78.0842 83.4574 77.9062 83.537 77.7322L83.5349 77.7994C84.0583 76.5259 89.1498 78.2031 89.9782 78.5702C89.2969 79.5804 86.1363 78.7063 85.1948 78.553C85.3233 78.8903 85.446 79.1936 85.4832 79.539C85.5133 79.8204 85.4059 80.1421 85.5042 80.4253C85.6596 80.8732 85.6542 80.7875 86.2042 80.9096C86.6111 80.9999 87.0135 81.1043 87.4191 81.1999C88.042 81.3469 89.022 81.7413 89.6393 81.7198C90.1807 81.7009 90.0738 81.8688 90.173 81.2675C90.2264 80.9443 90.1353 80.6008 90.0808 80.2842C89.9671 79.6207 89.8008 78.9927 90.3803 78.5167C90.9328 78.0627 92.0974 77.8466 92.775 77.6865C94.2791 77.3311 96.015 77.2441 97.5583 77.2624C98.7329 77.1629 99.9089 77.0856 101.087 77.0442C102.434 76.997 101.455 76.7818 101.426 75.9604C99.6562 76.2428 97.8703 76.2985 96.1057 76.5398C94.6436 76.7401 92.902 77.2626 91.4107 76.9819C90.7073 76.8495 89.9892 76.7985 89.2409 76.7237C88.535 76.6532 87.869 76.3243 87.1717 76.2426C86.389 76.1508 85.5893 76.5909 84.8106 76.7071C84.4806 76.7564 84.4039 76.9802 84.248 76.5829C84.0864 76.1709 84.5493 75.8341 84.7316 75.5877C84.9445 75.2999 84.856 75.7672 84.9742 75.3178C85.0073 75.1918 84.9176 74.8754 84.9011 74.7397C84.8594 74.3966 84.7516 74.0245 84.7348 73.6821C84.7193 73.3677 84.7166 72.8878 85.058 72.7042C85.2663 72.5922 85.4139 72.7556 85.5955 72.7239C87.0132 72.4774 88.6807 72.4572 90.1183 72.6951C91.6769 72.9529 93.0183 72.2703 94.5545 71.9934C96.3565 71.6687 98.1776 71.6201 99.9952 71.4828C101.549 71.3656 104.389 70.7574 104.981 72.7424ZM83.8315 83.1387C84.1199 83.6937 83.9911 84.4286 83.6447 84.9266C84.8939 85.4148 86.2197 85.5919 87.4794 86.0367C88.6057 86.4343 89.6515 86.9688 90.7605 87.3729C90.8254 86.8585 90.8598 85.9873 90.6698 85.5025C90.401 84.816 89.6931 84.7991 88.9961 84.5546C87.2999 83.9595 85.5155 83.834 83.8315 83.1387ZM105.209 83.1313C102.511 83.2104 99.9323 83.8382 97.2734 84.2266C95.9795 84.4153 94.6845 84.5839 93.3894 84.7602C92.891 84.8279 91.9827 84.7481 91.6205 85.1795C91.3202 85.537 91.6493 86.7568 91.5159 87.2806C92.0612 87.3209 93.0294 86.8115 93.6213 86.7271C94.5429 86.5961 95.4524 86.4125 96.3836 86.3541C97.8584 86.2612 99.3075 86.1822 100.78 86.018C102.277 85.8511 103.726 85.5409 105.235 85.4276C105.968 85.3723 106.264 85.5099 106.307 84.7355C106.324 84.4327 106.365 83.9258 106.28 83.6272C106.416 83.2601 106.296 83.082 105.919 83.0924C105.68 83.0655 105.443 83.0784 105.209 83.1313ZM101.531 81.607C100.064 81.9427 98.5596 81.9542 97.0908 82.2836C95.5725 82.6239 94.0343 82.9378 92.4878 83.1109C91.7515 83.1933 90.9614 83.3603 90.2338 83.1658C90.1748 83.1236 90.1155 83.0813 90.0564 83.0392C89.9929 82.7684 89.8163 82.6962 89.5268 82.8223C89.159 82.7522 88.6908 82.8427 88.3205 82.8519C88.3055 82.9998 89.6732 83.4635 89.934 83.5784C90.5624 83.8551 90.9885 84.0577 91.6595 83.9391C93.1707 83.6722 94.6571 83.3536 96.1874 83.1564C99.1784 82.8848 102.147 82.2898 105.155 82.2898C104.942 82.0773 104.479 82.0226 104.214 81.9065C103.912 81.7745 103.627 81.4931 103.333 81.3776C102.741 81.1459 102.138 81.4679 101.531 81.607ZM102.109 78.0327C101.418 78.031 100.702 78.1772 100.014 78.2445C96.8887 78.5508 93.7795 78.6802 90.689 79.2618C90.8772 80.0629 91.0907 80.8894 90.8657 81.7087C92.3483 81.7851 93.9759 81.4998 95.4248 81.2072C96.9057 80.9081 98.477 80.7596 99.9905 80.6595C100.72 80.5912 101.453 80.493 102.184 80.4519C102.332 80.4435 103.085 80.4888 103.208 80.3509C103.382 80.1559 103.188 79.4424 103.156 79.2216C103.047 78.4709 102.927 78.0344 102.109 78.0327ZM85.6167 73.5524C85.6389 73.8386 85.6554 74.1248 85.6658 74.4118C85.7827 74.8675 86.2735 74.6602 86.696 74.7104C87.2632 74.7775 87.8275 74.9732 88.3768 75.1207C89.3744 75.3888 90.3724 75.6532 91.3658 75.9366C91.3266 75.5353 91.4154 74.6221 91.2034 74.2661C90.9809 73.8929 89.9261 73.7294 89.435 73.6156C88.1969 73.3291 86.8744 73.4922 85.6167 73.5524ZM101.327 72.5338C99.2352 72.589 97.1081 72.7834 95.0445 73.117C93.928 73.122 92.7479 73.6137 91.6463 73.5041C91.6298 73.7091 91.9824 73.539 92.0797 73.7308C92.2877 73.7313 92.3602 73.7991 92.2966 73.9347C92.3005 74.0272 92.2533 74.0814 92.1547 74.097C92.1061 74.1014 92.0575 74.1055 92.0091 74.1097C91.7961 74.1166 91.7611 74.2602 91.9045 74.5411C91.843 74.889 91.9353 75.3309 91.9488 75.6802C93.9287 75.4107 95.8521 75.1305 97.846 75.0103C98.7872 74.9535 99.7279 74.9537 100.668 74.8762C101.702 74.791 102.831 74.9737 103.843 74.7801C104.383 74.6765 104.327 74.6838 104.287 73.9807C104.263 73.5536 104.272 73.0466 103.924 72.735C103.344 72.2147 102.021 72.5154 101.327 72.5338ZM14.4115 65.4325C14.111 65.7494 13.9348 66.3334 13.6827 66.704C13.1078 67.5489 12.4252 68.1247 11.5333 68.612C9.92848 69.4885 8.43315 70.165 6.71429 70.7381C5.76703 71.054 4.89354 71.4971 3.96767 71.8453C3.2259 72.1243 2.20216 72.2091 1.63236 72.8301C0.989452 73.5306 1.97764 73.7854 2.5269 74.259C2.97695 74.6471 2.98571 74.7362 3.60133 74.5478C4.05997 74.4073 4.46657 74.139 4.90702 73.9569C6.41566 73.3338 8.24164 72.9191 9.87964 72.738C10.4395 72.8373 11.3514 72.5159 11.9621 72.4822C13.0302 72.4235 14.13 72.3218 15.1763 72.0995C15.9949 71.9256 16.9277 71.7726 17.3691 70.9802C17.7638 70.2721 17.9032 69.3853 18.1158 68.6125C18.2287 68.2022 18.5199 67.6071 18.5199 67.1827C18.5199 66.6308 18.4454 66.7395 17.8699 66.4375C17.1414 66.0553 16.4327 65.5228 15.6469 65.3059C15.4093 65.2594 15.1714 65.214 14.9334 65.1693C14.6256 64.9907 14.4517 65.0786 14.4115 65.4325ZM70.1553 63.002C69.6591 63.0617 69.1583 63.1106 68.668 63.2101C67.9992 63.3459 67.9872 63.3246 68.0352 63.9807C68.107 64.966 68.013 65.9321 67.9621 66.917C67.8602 68.8891 68.1085 70.8937 67.9434 72.8533C68.0907 72.8907 68.1378 72.7885 68.0853 72.5469C68.0396 71.0831 68.695 69.3233 69.0664 67.8897C69.4875 66.2653 69.7093 64.6085 70.1553 63.002ZM97.1927 64.6022C97.7756 64.6561 98.4309 64.8916 99.0052 64.8921C99.5908 64.8928 100.204 64.7622 100.809 64.7772C101.512 64.7949 102.189 64.7431 102.914 64.8585C103.469 64.947 104.766 64.9935 105.191 65.4064C106.605 66.7823 103.251 67.4142 102.674 67.5688C103.261 68.2123 103.237 69.0629 103.148 69.8731C103.428 69.8731 103.91 69.7514 104.054 70.065C104.234 70.4544 103.569 70.5556 103.412 70.6011C102.506 70.8624 101.447 70.7908 100.515 70.8857C98.6498 71.0755 96.8077 71.185 94.9623 71.5382C94.063 71.7104 93.1691 71.9234 92.2705 72.091C92.1153 72.1201 91.9593 72.1432 91.8026 72.1608C91.5621 72.1402 91.4843 72.2911 91.5692 72.6143C91.3197 72.7361 90.3897 72.4325 90.1022 72.386C88.4558 72.1189 86.9831 72.2299 85.3521 72.6268C84.6452 72.6253 85.6177 71.8214 85.7454 71.7416C84.9628 71.7416 84.7734 71.2723 85.0001 70.5183C85.2138 69.808 85.3718 70.0255 84.8343 69.434C84.4297 68.9886 84.3685 68.6605 84.8454 68.1626C85.3308 67.6561 86.3138 67.7994 86.7439 67.3812C87.4761 66.6696 86.5312 65.2521 87.5457 64.7069C88.2315 64.3386 89.3369 64.3842 90.0941 64.3063C90.8259 64.2312 91.5834 64.2166 92.3201 64.2067C93.9259 64.1847 95.594 64.454 97.1927 64.6022ZM88.3929 72.4657C87.9466 72.4685 87.4998 72.4713 87.0536 72.4741C87.4991 72.3904 87.9457 72.3895 88.3929 72.4657ZM89.1965 72.4723C88.9285 72.4698 88.6606 72.4673 88.3929 72.4648C88.6617 72.3915 88.9297 72.3941 89.1965 72.4723ZM85.9444 69.1995C86.0549 69.7491 85.8009 70.2152 85.4267 70.5941H85.9942C87.0652 70.5896 88.0775 70.9937 89.1487 71.0984C89.7898 71.1611 89.5884 71.2407 90.0332 71.5626C90.7259 72.064 90.9254 71.7969 90.8385 71.1155C90.5442 68.8107 87.626 69.3275 85.9444 69.1995ZM97.0226 68.683C95.1523 68.8227 93.3162 69.1569 91.4329 69.1104C90.7778 69.0624 91.2335 69.3554 91.3953 69.7842C91.5941 70.311 91.5515 70.977 91.5972 71.5315C93.5139 70.8006 95.7439 70.3728 97.7817 70.1268C98.7482 70.0102 99.7286 69.9768 100.7 69.9269C100.988 69.9123 102.025 70.0326 102.235 69.8393C102.391 69.6955 102.282 68.9026 102.132 68.7276C101.316 67.7769 98.1632 68.5978 97.0226 68.683ZM97.5712 67.635C96.0306 67.66 94.4882 67.7475 92.9585 67.7156C92.2737 67.7012 91.3865 67.5655 90.7154 67.6823C90.2238 67.7678 89.8126 68.0182 89.2733 68.1113C90.0654 68.5378 90.467 68.2496 91.2997 68.1525C92.1317 68.0557 92.976 68.0575 93.8114 68.007C95.1833 67.9239 96.6456 67.5953 97.9973 67.6847C98.0219 67.4942 97.88 67.4777 97.5712 67.635ZM87.4061 65.416V66.5123C89.6662 66.2809 91.8905 66.6988 94.1551 66.5625C95.8522 66.7255 97.4909 66.71 99.1882 66.9642C99.0595 65.8855 99.2133 65.6101 97.9895 65.5528C96.8989 65.502 95.8117 65.4608 94.7262 65.4613C92.2852 65.4626 89.8498 65.416 87.4061 65.416ZM99.7696 65.6797C99.8591 66.0888 99.9487 66.4976 100.038 66.9063C101.587 66.5076 103.158 66.2739 104.715 65.9379C103.082 65.6642 101.422 65.5968 99.7696 65.6797ZM36.4771 51.5395C37.257 52.3031 38.4255 52.5972 39.3635 53.1001C40.1302 53.5109 41.3291 53.7748 41.8135 54.4518C42.1288 54.8924 42.287 55.7017 42.5252 56.2184C42.7886 56.7902 43.0316 57.3711 43.2755 57.9514C43.5204 58.5353 43.7756 59.1196 43.9745 59.721C44.0977 60.0941 44.1507 60.8676 44.4416 61.1228C44.9056 61.5299 46.4587 61.7106 47.0841 61.8459C48.2517 62.099 49.5835 62.0653 50.7745 62.0828C51.2666 62.0901 51.7627 62.1573 52.2329 62.1664C52.8933 62.179 52.8304 62.0647 52.8209 61.4914C52.8155 61.1471 52.8224 60.5209 53.2829 60.8044C53.5967 60.9977 53.3808 61.8535 53.3227 62.1576C55.9514 62.4194 58.6942 62.5511 61.3104 62.4635C63.8834 62.3773 66.3673 62.0455 68.9087 61.7459C69.4689 61.4242 70.3822 61.5109 71.0017 61.376C71.7017 61.2237 72.4055 60.9755 73.073 60.7167C73.749 60.4547 74.3876 60.1867 75.0053 59.8589C75.2878 59.709 75.6642 59.5614 75.9253 59.3534C76.1356 59.1857 76.2123 58.8743 76.4063 58.7222C76.9123 58.3254 77.061 58.5744 77.1289 57.8088C77.2025 56.9773 76.7359 56.5063 76.1552 55.8841C75.6352 55.3271 74.9598 54.8457 74.3065 54.4539C74.0174 54.2807 73.7087 54.0857 73.4138 53.9204C72.9676 53.6699 72.3697 53.2535 72.1355 53.7911C72.6232 53.9155 72.7306 54.5383 72.2905 54.7621C72.0488 54.885 71.683 54.7045 71.4104 54.8351C70.9897 55.0368 70.585 55.5997 70.2249 55.9027C69.0428 56.898 67.9123 57.2711 66.3651 57.351C63.1322 57.5177 59.7467 57.149 56.576 56.6698C55.7599 56.5464 54.9452 56.6801 54.1216 56.6506C53.3202 56.622 52.4846 56.4467 51.6968 56.3114C50.1794 56.0507 48.58 55.8362 47.0861 55.4527C45.2795 54.9888 43.4667 54.3888 41.7706 53.6118C40.1435 52.8662 38.3046 51.6345 36.4771 51.5395ZM81.7476 35.0971C81.1352 35.2486 80.9936 36.6513 80.808 37.179C80.4674 38.1471 80.096 39.0773 79.6584 40.0042C78.9628 41.4774 78.2247 42.8987 77.44 44.327C76.6126 45.8335 75.7387 47.2823 74.705 48.6581C74.3654 49.1101 73.9046 49.4644 73.6856 49.9602C73.3413 50.7403 73.1967 51.67 72.8679 52.4817C73.0995 52.5992 73.6976 52.6285 73.9816 52.6846C74.5098 52.7888 74.8798 52.8814 75.3871 53.1326C76.2808 53.5751 77.0317 54.0995 77.6288 54.8956C77.7789 54.4869 77.8179 54.0389 77.8727 53.6064C78.5136 50.4609 78.8964 47.2621 79.6523 44.1393C80.0295 42.5814 80.2952 41.0021 80.6636 39.4438C80.8351 38.7188 80.9646 37.9868 81.1315 37.2631C81.3006 36.5306 81.6644 35.8544 81.7476 35.0971ZM80.0948 35.6697C79.1858 36.0186 78.5171 36.6018 77.7108 37.0929C76.7332 37.6884 75.5869 38.2462 74.7095 38.9818C74.3885 39.2509 74.2081 39.7156 73.765 39.7457C73.3916 39.7712 72.8288 39.3518 72.4833 39.1832L72.4505 39.1677C71.8773 38.9046 71.3298 38.5059 70.7537 38.2713C70.2803 38.0785 70.0707 38.1179 69.6611 37.7432C69.4314 39.1106 65.2516 37.8324 64.3747 37.8115C63.5635 37.7923 62.4505 37.8885 61.6956 38.2144C60.9762 38.5251 60.4138 39.2088 59.7981 39.6747C58.954 40.3134 58.1486 40.9595 57.5271 41.8437C56.6745 43.0562 57.9608 42.713 58.8186 42.6398C60.7766 42.4724 62.6813 42.9388 64.5689 43.3888C66.2561 43.7911 67.9224 44.2736 69.5375 44.9259C70.4458 45.2927 71.4019 45.63 72.2561 46.1068C72.7065 46.3583 73.437 46.9739 73.9538 46.7964C74.4277 46.6338 74.9 45.2752 75.1874 44.7326C75.7454 43.6793 76.3324 42.6437 76.9086 41.6006C77.9968 39.6304 79.0748 37.6766 80.0948 35.6697ZM61.6355 28.1913C61.1496 28.8279 60.5904 29.4059 60.0733 30.0164C59.1752 31.0765 58.2229 32.2045 57.2204 33.1856C56.1168 34.2652 55.1643 35.5673 54.451 36.9495C54.3193 37.2047 53.5182 38.7081 53.86 39.0029C54.1738 39.2736 55.9192 38.6422 56.2376 38.5683C57.6113 38.2494 59.1706 38.1356 60.4686 37.5564C61.1299 37.2613 62.5892 36.9091 63.1115 36.4524C63.597 36.028 63.5751 34.9998 63.2934 34.4014C62.5048 34.892 56.8035 36.7431 57.3118 34.9919C58.2345 34.6997 59.1092 34.392 60.0585 34.193C61.0519 33.9845 61.1182 33.7461 61.6783 32.8942C62.1027 32.2485 62.6178 31.7451 62.4975 30.9542C62.4204 30.447 62.1426 30.1998 62.2262 29.6294C62.2779 29.2758 62.443 28.8897 62.5622 28.5535C62.7084 28.141 63.0114 27.6731 62.3069 27.6527C61.9178 27.6414 61.8987 27.8467 61.6355 28.1913ZM80.3192 25.284C79.1691 25.2394 77.7046 26.2433 76.6928 26.7166C75.5603 27.2465 74.8325 27.3279 74.8207 28.6416C74.8094 29.8855 74.4606 31.1248 74.3083 32.3488C74.2418 32.8834 74.1943 35.6606 73.2159 34.6358C72.8366 34.2383 73.0796 33.6269 73.1077 33.1366C73.1461 32.462 73.1234 31.7769 73.1465 31.1004C73.1751 30.5372 73.2064 29.9742 73.2691 29.4133C73.3114 29.0367 73.6689 27.9443 73.4668 27.6135C73.247 27.2537 72.5103 27.2308 72.1558 27.1444C71.4761 26.9788 70.8243 26.8431 70.1336 26.7336C69.4982 26.6331 68.8996 26.6119 68.2594 26.5828C67.5623 26.5513 67.3895 26.3662 67.2354 27.1345C67.1143 27.7386 66.9517 28.3678 66.9291 28.9864C66.9079 29.5669 67.0833 30.0708 66.5079 30.4621C67.7713 30.4621 69.4167 29.3372 70.5696 30.3431C72.2188 31.7814 69.3488 32.1958 68.5921 32.5133C69.2212 32.8191 70.1551 33.0592 70.4512 33.7576C70.7835 34.5403 70.3013 34.8732 69.5634 34.9358C69.6328 35.2375 69.8984 35.4335 69.9776 35.7963C70.0935 36.3282 69.7175 36.1521 70.1972 36.5636C70.8288 37.1052 72.1291 37.4674 72.9038 37.8124C73.0852 37.8935 73.2688 37.9696 73.4544 38.0408C73.7446 38.2991 73.9588 38.2499 74.0973 37.8932C74.4946 37.6416 74.8483 37.0805 75.2008 36.754C75.9851 36.0277 76.8506 35.3902 77.7826 34.8658C77.3962 34.7058 76.9342 35.0673 76.5635 34.8913C76.2638 34.7491 76.3767 34.4903 76.1973 34.2965C76.2692 34.0438 76.1932 33.9514 75.9694 34.0192C75.8576 34.0312 75.7535 34.0121 75.6571 33.9625C75.4697 33.7301 75.3854 33.654 75.373 33.2952C75.3598 32.9145 75.5803 32.7802 75.6649 32.4754C75.9399 32.288 75.9337 32.1039 75.6462 31.9234C75.5279 31.7301 75.4634 31.5205 75.4528 31.2943C75.3981 30.4547 76.1644 30.1163 76.7489 29.6721C75.7024 29.5571 75.7423 28.3297 76.4664 27.7931C77.217 27.2369 78.8061 27.4647 79.7136 27.5901C79.9025 27.616 80.4123 27.8595 80.6031 27.7043C80.7202 27.6091 80.6375 26.8048 80.6429 26.6629C80.6552 26.3406 80.7335 25.9564 80.6821 25.6359C80.5747 24.9646 80.8024 25.3027 80.3192 25.284ZM66.0792 31.5703C65.1264 32.1109 64.3964 33.0807 64.2566 34.1586C64.0938 35.4128 64.7298 36.4004 65.9824 36.7082C66.5047 36.8365 66.8907 36.8508 67.374 37.0438C67.692 37.1705 68.7211 37.4869 68.939 37.1668L68.7492 37.0971C68.7701 36.7673 67.9163 36.7806 67.7573 36.4014C67.4348 35.6315 68.17 35.7701 68.6221 35.6904C68.4609 35.2623 65.4427 35.4182 66.1459 34.2623C66.6337 33.4604 68.4834 34.6878 68.9778 33.9258C69.3027 33.4252 68.4184 33.3563 68.0677 33.3062C67.54 33.2306 66.2969 33.4749 66.3378 32.7901C66.3893 31.9298 68.8062 31.3359 69.4841 31.0832C69.409 30.4941 66.5001 31.3316 66.0792 31.5703ZM92.0174 24.6479C91.4375 24.7055 90.8536 25.0483 90.3074 25.2299C89.4965 25.4996 88.5147 25.6476 87.7753 26.0788C87.2973 26.3576 87.2759 26.409 87.2815 26.8956C87.2867 27.3488 87.4329 27.9016 87.7039 28.2562C88.2671 28.9923 89.2008 29.3819 90.002 29.7491C90.4655 29.9614 90.8661 30.2626 91.2787 30.5556C91.7232 30.8714 92.6201 31.0575 92.9603 31.4174C93.9507 32.4658 92.1478 32.2586 91.644 32.2269C90.557 32.1586 89.4758 32.169 88.3807 32.1682C87.1853 32.1673 85.9995 32.1118 84.821 32.1507C84.1308 32.1734 83.3388 31.8234 82.8916 31.2398C82.6752 30.9571 82.5908 30.6899 82.3077 30.3966C81.9366 30.0126 81.6139 29.608 81.1625 29.3108C80.4239 28.8246 79.0819 28.5495 78.2026 28.731C78.5174 28.7749 79.9981 29.279 79.3463 29.9126C79.267 29.9897 78.3145 30.0402 78.1075 30.1353C77.7339 30.3069 77.263 30.5562 77.0438 30.9186C77.6818 30.8116 80.0482 30.6879 78.841 31.9121C78.5447 32.2126 77.694 32.5125 78.4179 32.832C78.5841 32.9055 78.917 32.8016 79.131 32.8677C79.4492 32.9662 79.7093 33.2297 80.0074 33.3701C80.8529 33.769 82.0183 34.015 82.9007 33.9276C84.1208 33.8066 85.3923 34.0244 86.6044 34.1842C88.2114 34.4302 89.7515 34.9397 91.2139 35.6242C92.02 36.0016 92.9078 36.407 93.8086 36.5577C94.8094 36.7252 95.8707 36.6466 96.8927 36.7112C97.253 36.734 98.2001 36.9091 98.5514 36.6971C98.8994 36.4871 98.8721 36.1314 98.8885 35.7073C98.9307 34.6164 98.4369 33.5483 97.9929 32.5696C97.6121 31.7299 97.3241 31.0888 96.733 30.3665C95.9741 29.4388 95.3132 28.4377 94.6024 27.4694C94.0664 26.7395 93.5249 26.0201 92.9787 25.291C92.5879 24.7691 92.6065 24.5895 92.0174 24.6479ZM70.8622 19.9629C69.0984 19.9706 66.9468 20.8566 65.7215 22.1505C65.0723 22.8362 64.5359 23.757 63.9868 24.5275C63.6186 25.0444 63.259 25.5433 62.812 25.9975C62.1602 26.6595 62.3468 26.8109 63.0811 27.3094C63.3136 26.8739 64.546 24.5452 65.0626 24.6499C65.8475 24.8092 64.3316 27.269 64.166 27.5754C63.6757 28.4821 62.8839 29.7486 63.2396 30.7047C63.7091 31.967 63.0284 32.6864 62.4374 33.7619C63.0581 33.78 63.1192 33.5378 63.3331 33.0085C63.6078 32.3281 63.9076 31.7597 64.4886 31.2893C64.9384 30.9251 65.6743 30.7717 65.8857 30.332C66.1471 29.7883 65.9831 28.7148 66.0043 28.11C66.0365 27.1911 66.0388 25.0186 67.0514 24.6103C68.1124 24.1825 70.02 24.5858 71.0572 24.9026C70.9277 24.0928 70.5193 23.5638 70.5248 22.6638C70.5309 21.7218 70.7903 20.8813 70.8622 19.9629ZM84.612 28.2073C84.4106 28.8025 83.5638 30.2594 84.3043 30.6303C84.4764 30.7165 85.2926 30.6162 85.4366 30.5593C85.8377 30.6638 85.967 30.5136 85.8252 30.1084V29.2965C85.8734 28.7609 86.3243 27.7527 85.8048 27.4009C85.0779 26.9084 84.7767 27.7199 84.612 28.2073ZM87.2961 29.0616C87.0347 29.5206 87.0157 30.0427 87.0297 30.5564C87.7112 30.5215 88.3896 30.6737 89.0711 30.6074C88.4794 30.092 87.8878 29.5768 87.2961 29.0616ZM81.2506 17.9283C80.6036 18.0588 78.728 18.2228 78.4145 18.6979C78.218 18.996 78.3278 19.724 78.1821 20.0883C77.9813 20.5904 77.6384 21.0558 77.3632 21.5194C76.3592 23.2114 75.3378 24.9142 73.6196 25.883L74.4762 26.5548C75.3969 25.7232 76.4851 25.0562 77.6219 24.5618C78.6387 24.1197 79.9018 23.6269 81.033 23.7037C82.4424 23.7991 81.8534 24.9344 81.8484 25.9012C81.8418 27.184 81.2796 29.032 82.8113 29.6976C83.3114 27.9213 84.3652 23.721 86.89 26.0485C87.5353 24.3406 89.8366 23.7626 91.4571 23.4489C91.1633 22.5861 90.2711 21.805 89.6528 21.1573C88.8792 20.3471 88.2685 19.3975 87.4935 18.6026C85.9625 17.033 83.1889 17.5371 81.2506 17.9283ZM68.7235 4.77918C68.8565 5.46797 68.6013 6.1507 68.5971 6.83815C69.3295 6.63998 69.8334 6.63577 70.5562 6.98816C70.9004 7.15586 72.1974 8.10764 71.5403 8.56543C71.0079 8.25075 70.4384 7.97783 69.845 7.79279C69.6109 7.71972 69.3187 7.62038 69.0697 7.61533C68.4919 7.60371 68.5732 7.66416 68.3563 8.09989C68.1471 8.51963 68.192 9.61436 67.7329 9.8824C67.2581 10.1595 67.6243 9.77161 67.2188 9.86118C66.9876 9.91237 66.7356 10.0843 66.5239 10.1814C66.8139 10.4963 67.3994 10.7837 67.5918 11.1334C67.8724 11.6432 67.775 12.6977 67.819 13.2555C68.1863 13.124 68.573 13.1186 68.9454 13.0209C69.2954 12.929 69.7809 12.5312 69.8174 13.1161C69.8582 13.7678 68.8279 13.9407 68.3652 13.9407L67.8134 13.8894C67.8409 14.277 67.759 14.9046 68.0322 15.1068C68.2392 15.2601 68.6584 15.2097 68.9094 15.2587C69.732 15.4195 70.6853 15.554 71.5019 15.2611C71.8192 15.1472 71.6154 14.9689 72.0523 15.043C72.5787 15.1324 72.3865 15.2158 72.5384 15.5441C72.6555 15.7975 72.7158 16.2287 72.8487 16.5329C73.0266 16.94 73.387 17.6685 73.2329 18.1386C73.0831 18.5956 72.5243 18.7336 72.2868 19.2512C72.1101 19.6359 72.1519 20.1952 72.0601 20.619C71.9376 21.1842 71.7828 21.7472 71.7145 22.3229C71.6284 23.0481 71.6579 23.899 72.5565 24.0114C73.3904 24.116 73.9866 23.848 74.5458 23.2407C75.6138 22.0813 76.8333 20.4446 77.4607 18.9862C77.534 18.8158 77.7144 18.5314 77.6893 18.3491C77.6396 17.9883 77.6178 18.3535 77.5035 18.1029C77.3943 17.8633 77.223 17.646 77.1223 17.3801C76.76 16.425 76.5032 15.4239 76.358 14.4128C76.2921 13.9549 76.2701 13.5025 76.2813 13.04C76.285 12.882 76.3799 12.4079 76.3233 12.2998C76.2657 12.1902 75.9652 12.1397 75.8715 12.0309C75.6979 11.8294 75.3996 11.2603 75.2072 11.1095C74.9706 10.9241 74.4412 11.0709 74.345 10.7022C74.1913 10.1121 77.8304 9.15084 76.1303 8.36339C74.8609 7.77545 72.914 10.7475 72.4702 8.40885C72.3932 8.00376 72.5398 7.45387 72.3621 7.08262C72.1657 6.67231 71.6311 6.51892 71.2577 6.31924C70.7812 6.06467 70.2998 5.80303 69.8368 5.52421C69.5191 5.33311 69.0615 4.82565 68.7235 4.77918ZM101.92 76.9609C101.803 77.0786 101.654 77.0091 101.518 77.0166C101.652 76.998 101.786 76.9795 101.92 76.9609ZM85.9822 72.6759C85.8054 72.7595 85.6267 72.771 85.4465 72.6817C85.6252 72.6798 85.8037 72.6779 85.9822 72.6759ZM67.9946 72.1072C68.0678 72.2886 68.1124 72.3926 68.1382 72.4491L68.1391 72.451C68.1327 72.4497 68.1292 72.4587 68.1304 72.4866C67.8811 72.5201 67.8357 72.3936 67.9946 72.1072ZM78.9823 71.7054C78.9753 71.8395 78.9684 71.9734 78.9614 72.1072C78.9139 71.9687 78.8906 71.8322 78.9823 71.7054ZM100.58 64.775C100.759 64.7753 100.938 64.7757 101.116 64.776C100.937 64.8687 100.759 64.857 100.58 64.775ZM58.3929 62.3624C58.5717 62.3632 58.7501 62.364 58.9287 62.3648C58.7494 62.451 58.5708 62.4595 58.3929 62.3624ZM86.6519 34.1733L86.1161 34.1223C86.2958 34.1332 86.4933 34.0468 86.6519 34.1733ZM36.2947 93.0971C36.1162 93.0969 35.9374 93.0967 35.759 93.0965C35.9378 93.0043 36.1162 93.0306 36.2947 93.0971ZM103.259 80.3089C103.051 80.4398 102.813 80.343 102.589 80.36C102.813 80.343 103.036 80.326 103.259 80.3089ZM97.7679 86.2662L97.2322 86.2646C97.4111 86.1992 97.59 86.1768 97.7679 86.2662ZM102.723 85.6666C102.557 85.7837 102.368 85.7163 102.188 85.7119L102.723 85.6666ZM104.33 74.6854C104.198 74.7799 104.064 74.7667 103.929 74.6921L104.33 74.6854ZM91.6078 73.4671C91.6969 73.4728 91.7859 73.4785 91.8751 73.4841C91.8301 73.5942 91.5935 73.5802 91.6078 73.4671ZM86.7858 70.595L86.1161 70.5974C86.3389 70.5082 86.5622 70.5256 86.7858 70.595ZM97.634 67.7052C97.6347 67.7053 96.9843 67.8066 96.9483 67.8038L96.6965 67.7167L97.634 67.7052ZM98.0358 67.656L97.6662 67.6353L97.6786 67.633C97.7836 67.61 98.037 67.5262 98.0358 67.656ZM110.222 88.8482C110.044 88.8281 109.866 88.808 109.688 88.788C109.831 88.5284 110.246 88.4739 110.222 88.8482ZM112.468 86.9047C112.899 86.9831 113.547 87.3409 112.888 87.8046C112.503 88.0759 111.383 87.7431 110.914 87.7298C110.297 87.6937 109.432 87.5255 110.367 87.0876C110.96 86.8102 111.842 86.7908 112.468 86.9047ZM59.7381 59.7857C60.0215 60.0949 61.2987 61.1429 60.5947 61.5643C59.729 62.0825 59.0701 60.3718 59.7381 59.7857ZM64.8708 59.9546C64.967 60.1998 65.4614 60.7967 65.3374 61.0577C65.1534 61.4448 64.7134 61.198 64.4746 60.9467C64.0557 60.506 64.0855 59.7992 64.3314 59.2961C64.8929 59.07 64.7859 59.7389 64.8708 59.9546ZM49.2382 58.4496C49.5217 58.6572 49.989 59.7102 49.9535 60.0668C49.9098 60.5068 49.7092 60.6821 49.2952 60.5421C48.8192 60.3809 48.6303 59.569 48.6162 59.1263C48.7612 58.5345 48.7217 58.0714 49.2382 58.4496ZM69.7505 59.1327C69.9283 59.3736 70.1118 59.2762 70.0205 59.6736C69.9407 60.0207 69.6221 60.0536 69.3487 60.0536C69.0125 59.4062 68.9296 58.0203 69.7505 59.1327ZM61.8449 58.0447C62.7106 58.4636 61.4925 60.3032 60.7057 59.8477C59.6983 59.2648 61.4888 58.3071 61.8449 58.0447ZM55.7733 59.916C55.3053 59.916 54.188 58.5666 54.8445 58.3402C55.6593 58.0592 56.3406 60.0152 55.7733 59.916ZM71.9476 57.7768C72.3762 57.8825 72.9436 59.0962 72.2976 59.2369C71.5823 59.3929 71.4547 58.1125 71.9476 57.7768ZM46.1908 57.2726C47.0563 57.5349 45.7011 58.8376 45.2249 58.9822C44.9432 58.4375 45.3307 57.0121 46.1908 57.2726ZM51.6409 56.7054C51.9836 57.2211 51.8824 58.8384 51.1664 57.8819C50.8619 57.4753 51.0716 56.7247 51.6409 56.7054ZM74.7095 55.5331C75.9089 55.5331 75.3856 56.8096 74.3857 56.8382C73.9263 56.8513 73.2654 56.7606 73.4144 56.1457C73.4939 55.8175 74.6594 55.375 74.7095 55.5331ZM69.3011 9.67092C68.7582 9.91271 68.8263 8.3646 68.8646 8.10243C69.5294 7.9308 69.6888 9.49815 69.3011 9.67092Z" fill="#010101"/>
</svg>
