<svg width="407" height="526" viewBox="0 0 407 526" fill="none" xmlns="http://www.w3.org/2000/svg">
<path fill-rule="evenodd" clip-rule="evenodd" d="M31.2018 186.277C40.8296 214.895 18.6667 284.706 67.076 276.23C102.378 271.48 162.081 211.225 189.392 251.966C199.324 269.765 172.845 299.974 204.065 286.407C218.152 283.251 234.118 274.442 250.47 273.989C260.474 267.233 273.5 270.172 283.535 264.321C288.132 266.913 291.651 264.308 295.127 261.876C299.341 264.21 305.015 260.35 308.381 260.955C312.44 263.378 312.447 258.19 314.922 258.389C318.821 259.256 321.774 258.571 323.939 254.976C324.282 260.869 327.708 254.453 329.238 252.186C322.347 265.792 365.736 227.442 370.726 225.604C370.366 228.589 373.98 233.251 377.554 230.436C377.801 230.227 379.867 231.324 379.918 231.914C369.371 256.884 346.954 276.642 323.267 290.433C318.713 286.41 311.566 293.273 305.048 294.774C291.886 295.306 280.059 302.539 266.849 303.06C265.013 300.936 267.129 306.822 264.093 305.654C263.057 302.911 261.229 304.808 259.676 304.593C255.218 302.201 249.82 311.571 248.861 307.13C248.294 306.014 244.069 307.138 244.195 307.371C243.344 312.405 239.599 310.029 236.987 310.457C229.355 310.768 223.081 315.377 216.031 317.691C196.627 322.27 168.547 332.07 160.164 303.718C161.853 292.817 171.873 275.46 160.624 266.664C121.963 272.897 91.6371 302.611 51.3554 300.033C27.8793 290.969 14.0578 264.367 6.08594 241.707C7.15843 233.075 11.487 222.043 7.69669 213.795C2.31734 196.204 14.6196 177.267 19.0003 160.117C38.814 112.102 63.8347 124.168 103.427 142.881C105.894 156.229 94.9185 170.914 90.4022 183.515C88.8091 196.45 78.7967 207.683 79.3977 220.465C102.174 207.506 127.143 194.738 152.711 183.971C179.623 170.839 210.253 174.84 235.849 189.742C242.544 201.109 236.247 213.976 239.357 227.089C238.426 247.835 260.504 220.458 270.808 217.524C301.094 201.916 318.565 158.579 350.123 149.62C363.543 152.735 388.087 156.349 377.771 175.341C375.399 177.671 373.559 174.197 374.984 172.022C372.768 174.14 371.546 175.789 369.249 172.519C363.736 167.146 360.851 176.361 357.649 179.227C352.635 177.468 350.711 183.633 347.339 186.405C344.409 188.281 348.22 180.355 345.811 183.772C345.7 183.906 345.359 184.054 345.32 184.011C341.691 180.111 343.86 184.744 343.427 185.349C338.539 192.035 334.189 199.09 329.969 206.21C328.99 199.921 319.487 217.372 315.396 220.34C309.844 225.047 304.974 229.214 300.572 234.848C293.898 240.741 285.624 244.7 278.447 249.271C275.532 256.745 264.666 255.653 258.177 258.696C240.732 261.392 222.007 256.282 210.339 242.811C208.963 234.561 211.154 224.85 211.541 216.369C211.496 209.931 211.054 203.478 210.211 197.106C196.589 196.405 177.341 197.452 165.701 206.19C155.44 211.003 146.116 214.341 136.45 220.057C133.101 221.303 132.226 226.855 126.858 224.975C113.241 231.468 98.625 241.245 84.1102 245.88C70.1616 242.569 51.9164 240.682 50.2447 229.828C49.6226 202.228 65.5436 176.734 78.9737 154.06C59.8761 149.897 40.0599 171.625 31.2018 186.277Z" fill="#952F1F"/>
<path fill-rule="evenodd" clip-rule="evenodd" d="M104.174 477.078C137.521 487.466 175.464 469.038 189.964 437.778C220.113 404.861 253.388 374.06 290.554 417.28C293.908 421.706 294.854 418.755 298.437 419.779C299.805 422.926 301.364 424.987 304.793 421.867C319.933 423.655 330.87 411.812 342.263 403.532C359.797 391.383 371.287 373.753 372.718 352.271C375.311 341.875 388.964 318.464 370.104 341.53C344.263 366.62 316.915 372.279 282.778 370.8C268.565 362.738 249.628 367.46 234.57 371.549C202.244 370.949 120.596 467.131 105.226 404.579C103.538 383.543 109.911 362.837 108.122 342.528C77.5114 333.257 47.6356 362.404 27.3571 383.035C-19.7876 428.949 23.8689 371.723 37.4346 359.812C47.572 349.872 60.7204 341.856 72.2235 334.657C68.8312 327.42 77.1153 331.776 77.8714 328.831C86.2809 319.21 103.767 316.235 116.308 319.603C135.045 321.003 134.354 343.436 131.36 358.055C133.577 362.838 128.841 368.738 132.081 373.721C134.279 381.608 127.486 392.833 139.336 395.291C173.056 385.355 196.399 343.02 234.152 338.325C237.295 338.183 244.391 329.242 244.707 335.242C256.268 330.62 261.918 329.947 273.569 329.019C293.112 328.044 312.477 335.581 330.708 329.985C344.608 324.245 354.348 320.382 366.527 310.985C371.01 308.574 373.539 301.765 378.865 304.188C381.384 301.38 383.845 298.544 388.188 299.298C410.53 310.43 395.53 340.773 390.708 359.642C375.561 394.135 324.394 460.996 279.872 446.835C261.132 452.39 250.589 423.646 228.519 429.737C209.513 437.02 206.944 462.086 188.724 471.854C174.006 488.525 152.047 493.835 134.346 504.775C123.238 499.105 100.205 508.819 84.1095 501.523C69.2298 496.524 56.7795 485.726 41.3348 482.424C34.2749 481.33 32.44 475.543 29.7887 470.374C21.5049 464.369 23.1484 453.086 25.2096 443.977C20.4578 434.552 51.9498 398.48 59.1328 408.196C56.4073 414.811 49.9603 420.088 50.0991 427.968C47.1286 443.645 52.7254 459.425 69.8963 461.275C74.9001 463.883 76.9948 469.297 82.5229 468.046C79.4172 473.799 83.4973 469.572 84.8053 469.94C90.4246 471.361 100.02 479.588 104.174 477.078Z" fill="#721620"/>
<path fill-rule="evenodd" clip-rule="evenodd" d="M387.683 61.4703C386.789 59.7422 386.402 59.3813 385.586 61.0918C385.79 62.1426 386.714 62.2136 387.683 61.4703ZM386.891 67.6406C386.527 66.5364 386.196 65.5359 385.866 64.535C384.406 65.4649 385.896 69.6442 386.891 67.6406ZM374.95 91.3268C376.38 90.4797 379.916 89.7385 377.1 88.8311C376.291 89.4417 374.06 90.0835 374.95 91.3268ZM381.263 47.056C380.67 45.492 380.156 44.1339 379.641 42.7759C377.408 44.5124 379.044 47.5283 381.263 47.056ZM385.257 78.1978C384.053 76.8026 384.699 74.8829 384.267 74.4124C381.911 76.5602 381.177 80.7344 385.257 78.1978ZM382.875 41.426C381.805 42.4519 388.093 46.4436 385.369 42.3577C384.858 38.3307 379.969 35.8577 382.875 41.426ZM377.989 79.9417C378.265 78.9728 381.191 74.7755 382.194 72.0013C381.259 65.153 383.781 58.6015 382.729 51.6878C378.439 48.7569 380.51 74.0071 377.989 79.9417ZM144.868 152.587C137.712 150.65 131.162 134.982 125.11 123.583C113.997 107.904 133.559 52.5025 105.983 69.9701C97.8927 71.6989 93.9867 80.304 87.4544 84.0688C79.4197 89.8463 69.1953 94.7808 63.5058 101.715C61.3351 97.3743 57.8377 109.737 55.2459 108.151C49.2794 108.829 38.1258 120.281 31.0302 125.889C24.5199 132.157 18.2625 125.497 21.384 117.238C26.2997 102.597 44.6904 96.9123 52.9235 83.382C73.9037 65.0489 104.154 16.4862 134.464 46.3689C144.157 57.8059 137.73 139.723 166.484 118.257C172.89 114.106 180.577 111.438 185.668 105.452C190.44 103.756 193.761 92.5911 199.631 94.6899C210.472 77.5258 247.683 69.2554 247.606 98.7133C251.714 107.152 245.715 117.821 252.16 124.506C255.606 127.023 257.392 133.611 262.401 133.1C282.965 128.304 290.268 104.521 301.495 88.8929C307.307 87.4808 308.24 82.6636 308.264 77.6508C310.317 80.0458 321.451 72.1602 328.212 68.6621C331.235 67.733 335.376 68.4388 338.677 68.2711C339.734 68.3914 342.684 65.9718 341.351 69.965C343.654 67.4004 342.355 76.0599 345.375 71.2601C348.011 72.0752 347.831 74.2822 348.221 76.5665C353.435 74.8796 349.281 81.0154 359.385 84.6852C368.346 71.4974 367.201 56.1367 360.93 42.5011C361.505 38.2199 355.817 40.7701 353.345 40.7793C352.781 38.3557 351.926 34.3294 348.461 34.9525C337.482 37.6252 328.359 44.1428 318.286 48.6829C314.108 52.3973 306.97 49.2549 304.991 55.9895C304.877 56.4508 304.095 57.1938 303.875 57.1136C299.397 55.4841 296.992 59.8845 293.361 60.682C290.677 61.2713 286.692 61.2919 285.663 63.0008C283.104 67.2482 280.135 63.1641 277.765 64.3382C274.223 65.5962 272.706 61.6553 269.087 63.0505C236.232 65.0776 237.672 23.6475 218.803 22.6559C205.215 21.9434 168.297 67.7789 165.451 59.3188C160.485 42.2036 188.074 32.0532 197.963 19.9659C210.483 9.58164 222.792 -3.93104 240.001 5.14485C254.844 31.2238 272.365 54.5837 301.215 26.9871C312.631 25.2984 322.764 10.9952 335.207 14.0615C346.365 9.72804 363.955 10.7506 371.869 20.4761C375.664 23.2834 384.384 23.3025 386.579 29.2209C409.066 42.2124 401.755 74.6291 390.053 95.1446C348.296 118.197 339.293 87.7872 328.562 105.062C322.412 106.232 315.012 117.361 312.045 125.61C304.89 128.116 300.899 140.402 295.133 148.121C290.7 150.735 286.425 153.635 284.445 158.856C280.227 156.207 282.503 160.853 281.725 161.204C268.96 166.118 255.964 169.223 244.047 160.908C241.655 159.68 241.788 155.794 238.812 157.916C235.7 154.469 234.861 140.34 229.381 143.023C233.428 134.195 229.876 141.027 229.803 133.973C231.647 134.634 231.459 133.373 231.005 131.986C230.809 131.498 229.885 130.86 229.949 130.773C232.451 127.338 228.906 124.691 228.856 121.638C229.143 120.083 230.891 119.112 228.606 117.977C226.081 115.34 233.401 109.526 227.42 108.234C207.206 115.113 194.398 137.749 175.841 147.825C174.792 148.18 173.63 151.523 172.756 147.693C165.001 151.339 151.672 159.532 144.868 152.587Z" fill="#721620"/>
<path fill-rule="evenodd" clip-rule="evenodd" d="M220.784 490.63C237.587 435.381 280.776 479.154 320.599 479.298C341.665 478.102 357.924 461.337 375.508 451.607C395.44 445.13 375.142 472.799 377.989 480.603C369.47 489.096 373.79 493.569 363.401 497.461C356.808 505.765 347.516 507.615 338.512 512.708C330.477 516.706 319.934 512.244 312.112 515.155C310.238 512.164 306.329 517.878 304.85 513.242C302.123 510.892 295.551 512.751 291.99 511.976C277.756 506.126 265.383 494.725 252.236 487.392C241.265 486.721 227.928 495.11 228.276 506.946C218.133 508.994 217.626 495.137 220.784 490.63Z" fill="#EC9B3D"/>
<path fill-rule="evenodd" clip-rule="evenodd" d="M65.5054 5.52608C65.5818 4.88458 68.638 4.46378 69.6388 4.97396C72.4231 4.33982 77.194 -0.677044 78.9172 3.45555C86.9545 4.22469 100.58 1.92279 100.318 14.0366C82.7159 33.8539 50.9314 36.2272 33.1573 57.1557C30.0475 57.7388 25.6737 58.2022 27.6287 53.9979C26.3814 51.1825 24.2886 48.8931 25.752 45.5999C27.5564 30.3989 49.5477 12.3541 65.5054 5.52608Z" fill="#EC9B3D"/>
<path fill-rule="evenodd" clip-rule="evenodd" d="M6.19944 503.322C2.11376 490.773 16.0113 470.132 23.6565 489.278C37.8274 495.344 44.6625 510.8 61.8238 512.582C47.6235 529.407 6.58413 529.749 6.19944 503.322Z" fill="#EC9B3D"/>
<path fill-rule="evenodd" clip-rule="evenodd" d="M342.217 189.96C343.032 188.747 343.881 187.482 344.73 186.216C345.511 187.386 342.961 193.402 342.217 189.96Z" fill="#010101"/>
<path fill-rule="evenodd" clip-rule="evenodd" d="M20.8001 155.265C20.2145 156.271 19.6964 157.162 19.178 158.053C18.4531 156.987 19.9584 152.712 20.8001 155.265Z" fill="#010101"/>
</svg>
